%TF.GenerationSoftware,KiCad,Pcbnew,5.1.6-c6e7f7d~87~ubuntu20.04.1*%
%TF.CreationDate,2020-11-14T10:44:13+07:00*%
%TF.ProjectId,pas-slave-camera-hw,7061732d-736c-4617-9665-2d63616d6572,rev?*%
%TF.SameCoordinates,Original*%
%TF.FileFunction,Copper,L2,Bot*%
%TF.FilePolarity,Positive*%
%FSLAX46Y46*%
G04 Gerber Fmt 4.6, Leading zero omitted, Abs format (unit mm)*
G04 Created by KiCad (PCBNEW 5.1.6-c6e7f7d~87~ubuntu20.04.1) date 2020-11-14 10:44:13*
%MOMM*%
%LPD*%
G01*
G04 APERTURE LIST*
%TA.AperFunction,ComponentPad*%
%ADD10O,1.700000X1.700000*%
%TD*%
%TA.AperFunction,ComponentPad*%
%ADD11R,1.700000X1.700000*%
%TD*%
%TA.AperFunction,ComponentPad*%
%ADD12C,3.000000*%
%TD*%
%TA.AperFunction,ComponentPad*%
%ADD13R,3.000000X3.000000*%
%TD*%
%TA.AperFunction,Conductor*%
%ADD14R,3.500000X2.000000*%
%TD*%
%TA.AperFunction,ViaPad*%
%ADD15C,0.500000*%
%TD*%
%TA.AperFunction,ComponentPad*%
%ADD16C,1.500000*%
%TD*%
%TA.AperFunction,ComponentPad*%
%ADD17C,2.500000*%
%TD*%
%TA.AperFunction,ComponentPad*%
%ADD18C,1.524000*%
%TD*%
%TA.AperFunction,Conductor*%
%ADD19R,2.500000X1.800000*%
%TD*%
%TA.AperFunction,ComponentPad*%
%ADD20O,1.150000X1.800000*%
%TD*%
%TA.AperFunction,ComponentPad*%
%ADD21O,1.450000X2.000000*%
%TD*%
%TA.AperFunction,ComponentPad*%
%ADD22C,1.600000*%
%TD*%
%TA.AperFunction,ComponentPad*%
%ADD23C,0.800000*%
%TD*%
%TA.AperFunction,ComponentPad*%
%ADD24R,2.500000X2.500000*%
%TD*%
%TA.AperFunction,ComponentPad*%
%ADD25O,2.500000X2.500000*%
%TD*%
%TA.AperFunction,ViaPad*%
%ADD26C,0.600000*%
%TD*%
%TA.AperFunction,Conductor*%
%ADD27C,0.200000*%
%TD*%
%TA.AperFunction,Conductor*%
%ADD28C,0.300000*%
%TD*%
%TA.AperFunction,Conductor*%
%ADD29C,1.500000*%
%TD*%
%TA.AperFunction,Conductor*%
%ADD30C,3.000000*%
%TD*%
%TA.AperFunction,Conductor*%
%ADD31C,1.100000*%
%TD*%
%TA.AperFunction,Conductor*%
%ADD32C,4.000000*%
%TD*%
%TA.AperFunction,Conductor*%
%ADD33C,0.400000*%
%TD*%
%TA.AperFunction,Conductor*%
%ADD34C,0.254000*%
%TD*%
G04 APERTURE END LIST*
D10*
%TO.P,J5,10*%
%TO.N,GND*%
X311134760Y-145186400D03*
%TO.P,J5,9*%
%TO.N,LED_PWR_P*%
X308594760Y-145186400D03*
%TO.P,J5,8*%
%TO.N,LED_GREEN*%
X311134760Y-142646400D03*
%TO.P,J5,7*%
%TO.N,LED_BLUE*%
X308594760Y-142646400D03*
%TO.P,J5,6*%
%TO.N,LED_RED*%
X311134760Y-140106400D03*
%TO.P,J5,5*%
%TO.N,Net-(J5-Pad5)*%
X308594760Y-140106400D03*
%TO.P,J5,4*%
%TO.N,LED_RELAY220V_N*%
X311134760Y-137566400D03*
%TO.P,J5,3*%
%TO.N,LED_RELAY220V_P*%
X308594760Y-137566400D03*
%TO.P,J5,2*%
%TO.N,LED_RELAY12V_N*%
X311134760Y-135026400D03*
D11*
%TO.P,J5,1*%
%TO.N,LED_RELAY12V_P*%
X308594760Y-135026400D03*
%TD*%
D12*
%TO.P,J1,2*%
%TO.N,220V_L*%
X317152020Y-143314420D03*
D13*
%TO.P,J1,1*%
%TO.N,220V_N*%
X322232020Y-143314420D03*
%TD*%
D14*
%TO.N,GND*%
%TO.C,U11*%
X355367200Y-119161560D03*
D15*
X353867200Y-119911560D03*
X353867200Y-118411560D03*
X355367200Y-119911560D03*
X355367200Y-118411560D03*
X356867200Y-119911560D03*
X356867200Y-118411560D03*
%TD*%
D16*
%TO.P,J8,6*%
%TO.N,EXT_ANALOG_IN*%
X324289580Y-111813340D03*
D17*
%TO.P,J8,GND*%
%TO.N,N/C*%
X314644580Y-105963340D03*
X330134580Y-105963340D03*
D16*
%TO.P,J8,7*%
%TO.N,RELAY12V_OUT*%
X325569580Y-109273340D03*
%TO.P,J8,8*%
%TO.N,+12V*%
X326829580Y-111813340D03*
%TO.P,J8,4*%
%TO.N,GND*%
X321749580Y-111813340D03*
%TO.P,J8,3*%
%TO.N,RS485_B*%
X320489580Y-109273340D03*
%TO.P,J8,5*%
%TO.N,EXT_DIGITAL_IN*%
X323029580Y-109273340D03*
%TO.P,J8,2*%
%TO.N,RS485_A*%
X319209580Y-111813340D03*
%TO.P,J8,1*%
%TO.N,+12V*%
%TA.AperFunction,ComponentPad*%
G36*
G01*
X317199580Y-109772840D02*
X317199580Y-108773840D01*
G75*
G02*
X317450080Y-108523340I250500J0D01*
G01*
X318449080Y-108523340D01*
G75*
G02*
X318699580Y-108773840I0J-250500D01*
G01*
X318699580Y-109772840D01*
G75*
G02*
X318449080Y-110023340I-250500J0D01*
G01*
X317450080Y-110023340D01*
G75*
G02*
X317199580Y-109772840I0J250500D01*
G01*
G37*
%TD.AperFunction*%
%TD*%
%TO.P,J7,6*%
%TO.N,DRV_OUTA*%
X342816180Y-111800640D03*
D17*
%TO.P,J7,GND*%
%TO.N,N/C*%
X333171180Y-105950640D03*
X348661180Y-105950640D03*
D16*
%TO.P,J7,7*%
%TO.N,LED_OUT*%
X344096180Y-109260640D03*
%TO.P,J7,8*%
%TO.N,+5V*%
X345356180Y-111800640D03*
%TO.P,J7,4*%
%TO.N,DRV_ENCB*%
X340276180Y-111800640D03*
%TO.P,J7,3*%
%TO.N,DRV_ENCA*%
X339016180Y-109260640D03*
%TO.P,J7,5*%
%TO.N,+3V3*%
X341556180Y-109260640D03*
%TO.P,J7,2*%
%TO.N,GND*%
X337736180Y-111800640D03*
%TO.P,J7,1*%
%TO.N,DRV_OUTB*%
%TA.AperFunction,ComponentPad*%
G36*
G01*
X335726180Y-109760140D02*
X335726180Y-108761140D01*
G75*
G02*
X335976680Y-108510640I250500J0D01*
G01*
X336975680Y-108510640D01*
G75*
G02*
X337226180Y-108761140I0J-250500D01*
G01*
X337226180Y-109760140D01*
G75*
G02*
X336975680Y-110010640I-250500J0D01*
G01*
X335976680Y-110010640D01*
G75*
G02*
X335726180Y-109760140I0J250500D01*
G01*
G37*
%TD.AperFunction*%
%TD*%
D18*
%TO.P,PS1,3*%
%TO.N,GND*%
X347646000Y-139300000D03*
%TO.P,PS1,4*%
%TO.N,+12V*%
X345106000Y-139300000D03*
%TO.P,PS1,2*%
%TO.N,220V_N*%
X322754000Y-139300000D03*
%TO.P,PS1,1*%
%TO.N,220V_L*%
X316150000Y-139300000D03*
%TD*%
D12*
%TO.P,J6,2*%
%TO.N,220V_N*%
X327731120Y-143276320D03*
D13*
%TO.P,J6,1*%
%TO.N,RELAY220V_OUTL*%
X332811120Y-143276320D03*
%TD*%
D12*
%TO.P,J9,2*%
%TO.N,RELAY12V_OUT*%
X342493600Y-143357600D03*
D13*
%TO.P,J9,1*%
%TO.N,+12V*%
X347573600Y-143357600D03*
%TD*%
D19*
%TO.N,GND*%
%TO.C,U3*%
X309465000Y-94025000D03*
D15*
X310465000Y-93375000D03*
X310465000Y-94675000D03*
X309465000Y-93375000D03*
X309465000Y-94675000D03*
X308465000Y-93375000D03*
X308465000Y-94675000D03*
%TD*%
D20*
%TO.P,J4,6*%
%TO.N,GND*%
X310435000Y-45530000D03*
X318185000Y-45530000D03*
D21*
X310585000Y-49330000D03*
X318035000Y-49330000D03*
%TD*%
D22*
%TO.P,F2,1*%
%TO.N,Net-(F2-Pad1)*%
X337634580Y-141147800D03*
%TO.P,F2,2*%
%TO.N,RELAY220V_OUTL*%
X337634580Y-146147800D03*
%TD*%
D23*
%TO.P,U4,39*%
%TO.N,GND*%
X345984260Y-86188640D03*
X344984260Y-86188640D03*
X343984260Y-86188640D03*
X342984260Y-86188640D03*
X341984260Y-86188640D03*
X341984260Y-87188640D03*
X342984260Y-87188640D03*
X343984260Y-87188640D03*
X344984260Y-87188640D03*
X345984260Y-87188640D03*
X345984260Y-89188640D03*
X344984260Y-89188640D03*
X343984260Y-89188640D03*
X342984260Y-89188640D03*
X341984260Y-89188640D03*
X341984260Y-88188640D03*
X342984260Y-88188640D03*
X343984260Y-88188640D03*
X344984260Y-88188640D03*
X345984260Y-88188640D03*
X341984260Y-90188640D03*
X342984260Y-90188640D03*
X343984260Y-90188640D03*
X344984260Y-90188640D03*
X345984260Y-90188640D03*
%TD*%
D24*
%TO.P,K2,1*%
%TO.N,220V_L*%
X322117720Y-118397020D03*
D25*
%TO.P,K2,2*%
%TO.N,LED_RELAY220V_N*%
X328117720Y-120397020D03*
%TO.P,K2,3*%
%TO.N,Net-(F2-Pad1)*%
X328117720Y-132597020D03*
%TO.P,K2,4*%
%TO.N,N/C*%
X316117720Y-132597020D03*
%TO.P,K2,5*%
%TO.N,+12V*%
X316117720Y-120397020D03*
%TD*%
D24*
%TO.P,K1,1*%
%TO.N,GND*%
X341208880Y-118462040D03*
D25*
%TO.P,K1,2*%
%TO.N,LED_RELAY12V_N*%
X347208880Y-120462040D03*
%TO.P,K1,3*%
%TO.N,Net-(K1-Pad3)*%
X347208880Y-132662040D03*
%TO.P,K1,4*%
%TO.N,N/C*%
X335208880Y-132662040D03*
%TO.P,K1,5*%
%TO.N,+12V*%
X335208880Y-120462040D03*
%TD*%
D10*
%TO.P,J2,6*%
%TO.N,FLASH_EN*%
X356643940Y-112222280D03*
%TO.P,J2,5*%
%TO.N,ANALOG_IN*%
X356643940Y-109682280D03*
%TO.P,J2,4*%
%TO.N,FLASH_TXD*%
X356643940Y-107142280D03*
%TO.P,J2,3*%
%TO.N,FLASH_RXD*%
X356643940Y-104602280D03*
%TO.P,J2,2*%
%TO.N,GND*%
X356643940Y-102062280D03*
D11*
%TO.P,J2,1*%
%TO.N,+3V3*%
X356643940Y-99522280D03*
%TD*%
D26*
%TO.N,GND*%
X313690000Y-45085000D03*
X314960000Y-45085000D03*
X314960000Y-46355000D03*
X313690000Y-46355000D03*
X312420000Y-45085000D03*
X312420000Y-46355000D03*
X316230000Y-45085000D03*
X316230000Y-46355000D03*
X311785000Y-53975000D03*
X311785000Y-52705000D03*
X306705000Y-51435000D03*
X307975000Y-51435000D03*
X318770000Y-53975000D03*
X318770000Y-52705000D03*
X340360000Y-48260000D03*
X341630000Y-48260000D03*
X307975000Y-60325000D03*
X306705000Y-60325000D03*
X306070000Y-62230000D03*
X306070000Y-60960000D03*
X323215000Y-60325000D03*
X322580000Y-60325000D03*
X327025000Y-59690000D03*
X327025000Y-60960000D03*
X330200000Y-60960000D03*
X331470000Y-60960000D03*
X344170000Y-60960000D03*
X344170000Y-62230000D03*
X345440000Y-62230000D03*
X345440000Y-60960000D03*
X354330000Y-57785000D03*
X355600000Y-57785000D03*
X353060000Y-63500000D03*
X353695000Y-64135000D03*
X356870000Y-64135000D03*
X358140000Y-64135000D03*
X356870000Y-71120000D03*
X358140000Y-71120000D03*
X321945000Y-67310000D03*
X321945000Y-67945000D03*
X318770000Y-67945000D03*
X318770000Y-68580000D03*
X318770000Y-64770000D03*
X318135000Y-64770000D03*
X322580000Y-69850000D03*
X323850000Y-69850000D03*
X323850000Y-71120000D03*
X322580000Y-71120000D03*
X325120000Y-69850000D03*
X307340000Y-71120000D03*
X307340000Y-72390000D03*
X306070000Y-71120000D03*
X306070000Y-72390000D03*
X306705000Y-74930000D03*
X306705000Y-76200000D03*
X310951880Y-76687680D03*
X310515000Y-76200000D03*
X327660000Y-73660000D03*
X327660000Y-74930000D03*
X328930000Y-74930000D03*
X332740000Y-68580000D03*
X334010000Y-68580000D03*
X334010000Y-67310000D03*
X332740000Y-67310000D03*
X347980000Y-73660000D03*
X346710000Y-73660000D03*
X346710000Y-72390000D03*
X354330000Y-77470000D03*
X354330000Y-76200000D03*
X355600000Y-76200000D03*
X355600000Y-77470000D03*
X354330000Y-74930000D03*
X355600000Y-74930000D03*
X351155000Y-81915000D03*
X351155000Y-83185000D03*
X305435000Y-83185000D03*
X306705000Y-83185000D03*
X306705000Y-81915000D03*
X305435000Y-81915000D03*
X310515000Y-80645000D03*
X310515000Y-81915000D03*
X307975000Y-88265000D03*
X306705000Y-88265000D03*
X316865000Y-87630000D03*
X317500000Y-87630000D03*
X318135000Y-87630000D03*
X318135000Y-88265000D03*
X317500000Y-88265000D03*
X316865000Y-88265000D03*
X316865000Y-88900000D03*
X317500000Y-88900000D03*
X318135000Y-88900000D03*
X315595000Y-94615000D03*
X315595000Y-95885000D03*
X315595000Y-97155000D03*
X316865000Y-94615000D03*
X316865000Y-95885000D03*
X316865000Y-97155000D03*
X318135000Y-97155000D03*
X318135000Y-95885000D03*
X318135000Y-94615000D03*
X304800000Y-98425000D03*
X304800000Y-99695000D03*
X304800000Y-100965000D03*
X304800000Y-102235000D03*
X304800000Y-103505000D03*
X304800000Y-104775000D03*
X306705000Y-93345000D03*
X306705000Y-93980000D03*
X320040000Y-97155000D03*
X320040000Y-98425000D03*
X350520000Y-95250000D03*
X351790000Y-95250000D03*
X350520000Y-93980000D03*
X351790000Y-93980000D03*
X354965000Y-100965000D03*
X353695000Y-100965000D03*
X306070000Y-114300000D03*
X307340000Y-114300000D03*
X307340000Y-115570000D03*
X306070000Y-115570000D03*
X321945000Y-108585000D03*
X321945000Y-107315000D03*
X321945000Y-106045000D03*
X321945000Y-104775000D03*
X338455000Y-112395000D03*
X339090000Y-113030000D03*
X339725000Y-113665000D03*
X347980000Y-125730000D03*
X347980000Y-124460000D03*
X347980000Y-123190000D03*
X345440000Y-125730000D03*
X345440000Y-124460000D03*
X342265000Y-125730000D03*
X342265000Y-124460000D03*
X356235000Y-127635000D03*
X356235000Y-128905000D03*
X358775000Y-127635000D03*
X358775000Y-128905000D03*
X358775000Y-122555000D03*
X358775000Y-121285000D03*
X358775000Y-120015000D03*
X358775000Y-118745000D03*
X358775000Y-117475000D03*
X358775000Y-116205000D03*
X348615000Y-111125000D03*
X349250000Y-111125000D03*
X349250000Y-111760000D03*
X348615000Y-111760000D03*
X312420000Y-146050000D03*
X312420000Y-144780000D03*
X331226160Y-81788000D03*
X330149200Y-81762600D03*
X330189840Y-82732880D03*
X331332840Y-82758280D03*
X329178920Y-81803240D03*
X329184000Y-82804000D03*
X328930000Y-88265000D03*
X330200000Y-88265000D03*
X331470000Y-88265000D03*
X331470000Y-89535000D03*
X330200000Y-89535000D03*
X328930000Y-89535000D03*
X354330000Y-100965000D03*
X353695000Y-101600000D03*
X354330000Y-101600000D03*
X354965000Y-101600000D03*
X353695000Y-102235000D03*
X354330000Y-102235000D03*
X354965000Y-102235000D03*
X353060000Y-102235000D03*
X353060000Y-101600000D03*
X353060000Y-100965000D03*
X352425000Y-100965000D03*
X352425000Y-101600000D03*
X352425000Y-102235000D03*
X352425000Y-140970000D03*
X353695000Y-140970000D03*
X354965000Y-140970000D03*
X356235000Y-140970000D03*
X352425000Y-142240000D03*
X353695000Y-142240000D03*
X354965000Y-142240000D03*
X356235000Y-142240000D03*
X352425000Y-143510000D03*
X353695000Y-143510000D03*
X354965000Y-143510000D03*
X356235000Y-143510000D03*
X346075000Y-55245000D03*
X347345000Y-55245000D03*
X348615000Y-55245000D03*
X348615000Y-53975000D03*
X347345000Y-53975000D03*
X346075000Y-53975000D03*
X346075000Y-52705000D03*
X347345000Y-52705000D03*
X348615000Y-52705000D03*
X327660000Y-45085000D03*
X328930000Y-45085000D03*
X330200000Y-45085000D03*
X327660000Y-46355000D03*
X328930000Y-46355000D03*
X330200000Y-46355000D03*
X330200000Y-47625000D03*
X328930000Y-47625000D03*
X327660000Y-47625000D03*
X306705000Y-80645000D03*
X305435000Y-80645000D03*
X320040000Y-81280000D03*
X318770000Y-81280000D03*
X318770000Y-82550000D03*
X320040000Y-82550000D03*
X328930000Y-90805000D03*
X330200000Y-90805000D03*
X331470000Y-90805000D03*
X328930000Y-92075000D03*
X330200000Y-92075000D03*
X331470000Y-92075000D03*
X316738000Y-105410000D03*
X316738000Y-106680000D03*
X317500000Y-106680000D03*
X317500000Y-105410000D03*
X328295000Y-106680000D03*
X328295000Y-105410000D03*
X327025000Y-105410000D03*
X327025000Y-106680000D03*
X335280000Y-105410000D03*
X335280000Y-106680000D03*
X333375000Y-107950000D03*
X334645000Y-107950000D03*
X306070000Y-116840000D03*
X307340000Y-116840000D03*
X307340000Y-118110000D03*
X306070000Y-118110000D03*
X310362600Y-146507200D03*
X311632600Y-146507200D03*
%TO.N,CAM_RST*%
X329224372Y-72270888D03*
X324255666Y-76148466D03*
%TO.N,+3V3*%
X344421460Y-82300330D03*
X343811860Y-82292710D03*
X343194640Y-82280010D03*
X308709060Y-86316820D03*
X349793560Y-83009740D03*
X349161100Y-83002120D03*
X348531180Y-83009740D03*
X348521020Y-82392520D03*
X349130620Y-82392520D03*
X349758000Y-82402680D03*
X349384620Y-73967340D03*
X350001840Y-73969880D03*
X349389700Y-73352660D03*
X350001840Y-73347580D03*
X349389700Y-72740520D03*
X349991680Y-72727820D03*
X321007740Y-79499460D03*
X321632580Y-79509620D03*
X321020440Y-80114140D03*
X321025520Y-80721200D03*
X321650360Y-80721200D03*
X321637660Y-80116680D03*
X316712600Y-78689200D03*
X316699900Y-79349600D03*
X316712600Y-65011300D03*
X316725300Y-64376300D03*
X316712600Y-73266300D03*
X316710060Y-72659240D03*
X351927160Y-59793600D03*
X351901760Y-66050160D03*
X321924680Y-76939710D03*
X311777380Y-122113040D03*
X335661000Y-85435440D03*
X352422660Y-110797140D03*
X352422660Y-111437220D03*
X352422660Y-110182460D03*
X335691480Y-86045040D03*
X335691480Y-86659720D03*
X351896680Y-66654680D03*
%TO.N,FLASH_EN*%
X343731933Y-73791576D03*
X343154570Y-102359460D03*
%TO.N,CAM_3V3*%
X317947600Y-74838000D03*
X317947600Y-71501000D03*
%TO.N,Net-(C14-Pad2)*%
X310022240Y-98285300D03*
X306748180Y-96319340D03*
%TO.N,+5V*%
X350837500Y-137721340D03*
X350883220Y-137058400D03*
X351452180Y-137772140D03*
X351464880Y-137071100D03*
X352069400Y-137721340D03*
X352077020Y-137078720D03*
X314863480Y-111658400D03*
X314441840Y-112095280D03*
X314401200Y-111211360D03*
X313994800Y-111658400D03*
X313552840Y-111241840D03*
X313232800Y-84518500D03*
X313867800Y-84531200D03*
X313232800Y-85128100D03*
X313232800Y-85737700D03*
X313855100Y-85153500D03*
X313855100Y-85763100D03*
X313893200Y-86360000D03*
X313258200Y-86347300D03*
X313212480Y-58775600D03*
X313862720Y-58775600D03*
X313202320Y-59390280D03*
X313837320Y-59390280D03*
X313212480Y-60004960D03*
X313832240Y-60010040D03*
X313984640Y-110744000D03*
X337418680Y-116860320D03*
X336958940Y-117312440D03*
X337855560Y-117317520D03*
X337418680Y-117754400D03*
X338269580Y-117769640D03*
X337832700Y-118196360D03*
X320929000Y-94107000D03*
X323977000Y-94107000D03*
%TO.N,+12V*%
X330606400Y-117078760D03*
X330581000Y-116408200D03*
X331231240Y-117083840D03*
X331216000Y-116428520D03*
X316117720Y-117043720D03*
X315483240Y-117043200D03*
X316732920Y-117063520D03*
X316107560Y-117668560D03*
X315473080Y-117668040D03*
X316722760Y-117688360D03*
X316117720Y-118288320D03*
X315483240Y-118287800D03*
X316732920Y-118308120D03*
%TO.N,5V_USB*%
X315671200Y-81000600D03*
X315658500Y-82245200D03*
X315658500Y-81635600D03*
X315036200Y-81622900D03*
X315048900Y-82232500D03*
X315036200Y-81013300D03*
X315015880Y-59994800D03*
X315638180Y-59994800D03*
X315015880Y-59397900D03*
X315625480Y-59397900D03*
X315003180Y-58788300D03*
X315612780Y-58788300D03*
X315633100Y-80429100D03*
X315010800Y-80441800D03*
%TO.N,Net-(J3-Pad4)*%
X321223640Y-61904880D03*
X320629280Y-61920120D03*
X321213480Y-61315600D03*
X320629280Y-61315600D03*
X321203320Y-55001160D03*
X320614040Y-55006240D03*
X321218560Y-55595520D03*
X320649600Y-55600600D03*
X321183000Y-59923680D03*
X320624200Y-59923680D03*
X320614040Y-54416960D03*
X321208400Y-54416960D03*
%TO.N,RELAY12V_OUT*%
X339133178Y-128506220D03*
X338698839Y-128071881D03*
X338258149Y-127631191D03*
X337827619Y-127200661D03*
%TO.N,EXT_LED*%
X336161920Y-64887410D03*
X337031495Y-61023500D03*
%TO.N,CAM_PWR*%
X322249800Y-73634600D03*
X348234000Y-69646800D03*
%TO.N,ESP32_SCL*%
X356069900Y-63068200D03*
X356069900Y-59664600D03*
X341226283Y-73605261D03*
X336275369Y-82388683D03*
%TO.N,ESP32_SDA*%
X340702161Y-74256999D03*
X337115038Y-81692638D03*
%TO.N,3G_EN*%
X348611112Y-67509312D03*
X341055515Y-63316112D03*
%TO.N,EXT_DIGITAL_IN*%
X317347600Y-77774800D03*
X317598170Y-60326850D03*
%TO.N,Net-(R22-Pad1)*%
X330520040Y-72410320D03*
X325169489Y-76168067D03*
%TO.N,RELAY_12V*%
X345101043Y-72977412D03*
X346059760Y-118831360D03*
%TO.N,RELAY_220V*%
X344377943Y-73319675D03*
X346522040Y-117952520D03*
%TO.N,DRV_FAULT*%
X341031401Y-75537835D03*
X340001860Y-100787200D03*
%TO.N,CAM_D0*%
X334673031Y-86435915D03*
X334965556Y-73035492D03*
%TO.N,CAM_D1*%
X335253998Y-83868948D03*
X336531484Y-72992784D03*
%TO.N,CAM_D2*%
X335784150Y-84468079D03*
X337330348Y-73035623D03*
%TO.N,CAM_D3*%
X334688652Y-85611172D03*
X335744079Y-72851317D03*
%TO.N,CAM_XCLK*%
X332320900Y-72283320D03*
X333934546Y-87707331D03*
%TO.N,CAM_D4*%
X334324820Y-72496483D03*
X333996556Y-86862998D03*
%TO.N,DRV_SLEEP*%
X341716658Y-75124989D03*
X340880700Y-100944680D03*
%TO.N,DRV_PHASE*%
X342426294Y-74708668D03*
X341749380Y-101239318D03*
%TO.N,DRV_EN*%
X343113512Y-74299095D03*
X342554560Y-101536500D03*
%TO.N,LED_BLUE*%
X311894766Y-58821261D03*
%TO.N,LED_GREEN*%
X311354264Y-59411071D03*
%TO.N,LED_RED*%
X310748680Y-59933840D03*
%TO.N,ANALOG_IN*%
X343906832Y-81347409D03*
X344751660Y-100840540D03*
%TO.N,LED_OUT*%
X340233000Y-75588576D03*
X335415640Y-61114411D03*
X335417160Y-65465960D03*
%TD*%
D27*
%TO.N,CAM_RST*%
X329219292Y-72270888D02*
X329224372Y-72270888D01*
X327322632Y-72270888D02*
X329224372Y-72270888D01*
X324255666Y-76148466D02*
X324255666Y-75337854D01*
X324255666Y-75337854D02*
X327322632Y-72270888D01*
D28*
%TO.N,+3V3*%
X316712600Y-78689200D02*
X316712600Y-79336900D01*
X316712600Y-79336900D02*
X316699900Y-79349600D01*
X316697599Y-78674199D02*
X316712600Y-78689200D01*
X316712600Y-77447798D02*
X316697599Y-77462799D01*
X316712600Y-65011300D02*
X316712600Y-72720200D01*
X316697599Y-77462799D02*
X316697599Y-78674199D01*
X316712600Y-64389000D02*
X316725300Y-64376300D01*
X316712600Y-65011300D02*
X316712600Y-64389000D01*
X316712600Y-73266300D02*
X316712600Y-77447798D01*
D27*
X351927160Y-59793600D02*
X351927160Y-66024760D01*
X351927160Y-66024760D02*
X351901760Y-66050160D01*
D28*
X321650360Y-80721200D02*
X321772280Y-80843120D01*
D27*
X311975500Y-121914920D02*
X311777380Y-122113040D01*
X311975500Y-112496600D02*
X311975500Y-121914920D01*
X309605680Y-110126780D02*
X311975500Y-112496600D01*
X309605680Y-102880160D02*
X309605680Y-110126780D01*
X311264300Y-101221540D02*
X309605680Y-102880160D01*
X311264300Y-88872060D02*
X311264300Y-101221540D01*
X308709060Y-86316820D02*
X311264300Y-88872060D01*
D29*
X356643940Y-99522280D02*
X344723720Y-99522280D01*
D28*
X344656179Y-99589821D02*
X344723720Y-99522280D01*
X352422660Y-111437220D02*
X352422660Y-110182460D01*
X352422660Y-110182460D02*
X348510660Y-110182460D01*
X348510660Y-110182460D02*
X344623781Y-106295581D01*
X344623781Y-106295581D02*
X344623781Y-101909880D01*
X345401661Y-100200221D02*
X344723720Y-99522280D01*
X345401661Y-101152541D02*
X345401661Y-100200221D01*
X344644322Y-101909880D02*
X345401661Y-101152541D01*
X344623781Y-101909880D02*
X344644322Y-101909880D01*
X316712600Y-72661780D02*
X316710060Y-72659240D01*
X316712600Y-73266300D02*
X316712600Y-72661780D01*
D29*
X340634259Y-85094179D02*
X343003178Y-82725260D01*
X340634259Y-95432819D02*
X340634259Y-85094179D01*
X344723720Y-99522280D02*
X340634259Y-95432819D01*
X343003178Y-82725260D02*
X349511620Y-82725260D01*
D28*
X335691480Y-85602097D02*
X335575623Y-85486240D01*
X335691480Y-99854888D02*
X335691480Y-86659720D01*
X341556180Y-105719588D02*
X335691480Y-99854888D01*
X341556180Y-109260640D02*
X341556180Y-105719588D01*
X335691480Y-86045040D02*
X335691480Y-85602097D01*
X335691480Y-86659720D02*
X335691480Y-86045040D01*
D27*
X351901760Y-66649600D02*
X351896680Y-66654680D01*
X351901760Y-66050160D02*
X351901760Y-66649600D01*
D29*
X340256831Y-71022492D02*
X340235950Y-71001611D01*
X321322700Y-76785881D02*
X321322700Y-80418940D01*
X349671640Y-72405240D02*
X348288892Y-71022492D01*
X321322700Y-80418940D02*
X321327780Y-80413860D01*
X349671640Y-73784460D02*
X349671640Y-72405240D01*
X327106970Y-71001611D02*
X321322700Y-76785881D01*
X340235950Y-71001611D02*
X327106970Y-71001611D01*
X348288892Y-71022492D02*
X340256831Y-71022492D01*
D27*
%TO.N,FLASH_EN*%
X338384215Y-84100505D02*
X338384215Y-96420451D01*
X343154570Y-101190806D02*
X343154570Y-102359460D01*
X338384215Y-96420451D02*
X343154570Y-101190806D01*
X343731933Y-78752787D02*
X338384215Y-84100505D01*
X343731933Y-73791576D02*
X343731933Y-78752787D01*
%TO.N,CAM_3V3*%
X317947600Y-74838000D02*
X317947600Y-71501000D01*
%TO.N,Net-(C14-Pad2)*%
X309110380Y-96319340D02*
X306748180Y-96319340D01*
X310022240Y-97231200D02*
X309110380Y-96319340D01*
X310022240Y-98285300D02*
X310022240Y-97231200D01*
D29*
%TO.N,+5V*%
X313563000Y-86182200D02*
X313563000Y-86182200D01*
X313563000Y-58917840D02*
X313573160Y-58907680D01*
X311917080Y-103809800D02*
X313563000Y-102163880D01*
X311917080Y-109143800D02*
X311917080Y-103809800D01*
X314477400Y-111704120D02*
X311917080Y-109143800D01*
X313563000Y-102163880D02*
X313563000Y-58917840D01*
X314518040Y-111704120D02*
X314477400Y-111704120D01*
X336993230Y-116932710D02*
X336976720Y-116916200D01*
D27*
X320929000Y-94107000D02*
X323977000Y-94107000D01*
D29*
X345356180Y-114886740D02*
X345356180Y-111800640D01*
X343695020Y-116547900D02*
X345356180Y-114886740D01*
X343695020Y-132638800D02*
X343695020Y-116547900D01*
X348470220Y-137414000D02*
X343695020Y-132638800D01*
X351853500Y-137414000D02*
X348470220Y-137414000D01*
X338958900Y-118908731D02*
X336981800Y-116931631D01*
X336981800Y-116931631D02*
X336981800Y-116916200D01*
X338958900Y-119401300D02*
X338958900Y-118908731D01*
X338988400Y-119430800D02*
X338958900Y-119401300D01*
X338988400Y-121305320D02*
X338988400Y-119430800D01*
X339636100Y-121953020D02*
X338988400Y-121305320D01*
X343344500Y-121953020D02*
X339636100Y-121953020D01*
X343682320Y-121615200D02*
X343344500Y-121953020D01*
D30*
%TO.N,+12V*%
X317632080Y-114752120D02*
X317373000Y-115011200D01*
X316117720Y-116266480D02*
X316117720Y-116921800D01*
X335208880Y-120462040D02*
X329498960Y-114752120D01*
X316117720Y-118288320D02*
X316117720Y-120397020D01*
X316117720Y-117719360D02*
X316117720Y-118288320D01*
X316117720Y-116921800D02*
X316117720Y-117719360D01*
X316306200Y-116078000D02*
X316117720Y-116266480D01*
X316905640Y-115478560D02*
X316306200Y-116078000D01*
X317373000Y-115011200D02*
X316905640Y-115478560D01*
D31*
X326877680Y-111861440D02*
X326829580Y-111813340D01*
D30*
X329498960Y-114752120D02*
X326877680Y-114752120D01*
D31*
X326877680Y-114752120D02*
X326877680Y-111861440D01*
D30*
X326877680Y-114752120D02*
X317632080Y-114752120D01*
X335208880Y-127863600D02*
X335208880Y-120462040D01*
X345106000Y-137760720D02*
X335208880Y-127863600D01*
X345106000Y-139300000D02*
X345106000Y-137760720D01*
D29*
%TO.N,5V_USB*%
X315353700Y-58950860D02*
X315341000Y-58938160D01*
X315353700Y-81775300D02*
X315353700Y-58950860D01*
D31*
%TO.N,Net-(J3-Pad4)*%
X320969640Y-61650880D02*
X320969640Y-61574680D01*
X320964560Y-61645800D02*
X320969640Y-61650880D01*
X320964560Y-54376320D02*
X320964560Y-54376320D01*
X320964560Y-54376320D02*
X320964560Y-55808880D01*
X320964560Y-55808880D02*
X320964560Y-61645800D01*
D32*
%TO.N,RELAY220V_OUTL*%
X332811120Y-143911320D02*
X334099790Y-145199990D01*
X332811120Y-143276320D02*
X332811120Y-143911320D01*
X334099790Y-145199990D02*
X337634580Y-145199990D01*
D33*
%TO.N,RELAY12V_OUT*%
X338698839Y-128071881D02*
X339133178Y-128506220D01*
X338258149Y-127631191D02*
X338698839Y-128071881D01*
X337827619Y-127200661D02*
X338258149Y-127631191D01*
D31*
X325569580Y-109273340D02*
X327202174Y-109273340D01*
X327202174Y-109273340D02*
X337458889Y-119530055D01*
X337458889Y-119530055D02*
X337458889Y-126931615D01*
X337458889Y-126931615D02*
X339096037Y-128568763D01*
D32*
%TO.N,220V_L*%
X317111380Y-143276320D02*
X317111380Y-137777220D01*
X317111380Y-137777220D02*
X322117720Y-132770880D01*
X322117720Y-132770880D02*
X322117720Y-131703022D01*
X322107560Y-131995122D02*
X322107560Y-118689120D01*
%TO.N,220V_N*%
X322191380Y-143276320D02*
X327731120Y-143276320D01*
X322191380Y-143276320D02*
X322191380Y-140190220D01*
D27*
%TO.N,EXT_LED*%
X336161920Y-61893075D02*
X337031495Y-61023500D01*
X336161920Y-64887410D02*
X336161920Y-61893075D01*
%TO.N,CAM_PWR*%
X340691759Y-69972481D02*
X347908319Y-69972481D01*
X322249800Y-73634600D02*
X325932800Y-69951600D01*
X340670878Y-69951600D02*
X340691759Y-69972481D01*
X325932800Y-69951600D02*
X340670878Y-69951600D01*
X347908319Y-69972481D02*
X348234000Y-69646800D01*
%TO.N,ESP32_SCL*%
X356069900Y-63068200D02*
X356069900Y-59664600D01*
X339228235Y-74857805D02*
X339228235Y-78721905D01*
X336275369Y-81674771D02*
X336275369Y-82388683D01*
X341226283Y-73605261D02*
X340480779Y-73605261D01*
X339228235Y-78721905D02*
X336275369Y-81674771D01*
X340480779Y-73605261D02*
X339228235Y-74857805D01*
%TO.N,ESP32_SDA*%
X340702161Y-74256999D02*
X339628246Y-75330914D01*
X339628246Y-75330914D02*
X339628246Y-79179430D01*
X339628246Y-79179430D02*
X337115038Y-81692638D01*
%TO.N,3G_EN*%
X341055515Y-65323275D02*
X341055515Y-63316112D01*
X343241552Y-67509312D02*
X341055515Y-65323275D01*
X348560312Y-67509312D02*
X343241552Y-67509312D01*
X348585712Y-67483912D02*
X348560312Y-67509312D01*
%TO.N,EXT_DIGITAL_IN*%
X317347600Y-60577420D02*
X317598170Y-60326850D01*
X317347600Y-77774800D02*
X317347600Y-60577420D01*
%TO.N,Net-(R22-Pad1)*%
X327263760Y-72895460D02*
X330034900Y-72895460D01*
X325239380Y-74919840D02*
X327263760Y-72895460D01*
X330034900Y-72895460D02*
X330520040Y-72410320D01*
X325239380Y-76098176D02*
X325239380Y-74919840D01*
X325169489Y-76168067D02*
X325239380Y-76098176D01*
%TO.N,RELAY_12V*%
X347223080Y-118102464D02*
X346494184Y-118831360D01*
X344173771Y-101032991D02*
X344173771Y-106481981D01*
X345101043Y-78515077D02*
X339184237Y-84431883D01*
X339184237Y-96043457D02*
X344173771Y-101032991D01*
X339184237Y-84431883D02*
X339184237Y-96043457D01*
X346494184Y-118831360D02*
X346059760Y-118831360D01*
X347223080Y-109531290D02*
X347223080Y-118102464D01*
X344173771Y-106481981D02*
X347223080Y-109531290D01*
X345101043Y-72977412D02*
X345101043Y-78515077D01*
%TO.N,RELAY_220V*%
X343773760Y-106647670D02*
X346822039Y-109695949D01*
X344377943Y-73319675D02*
X344377943Y-78672477D01*
X344377943Y-78672477D02*
X338784226Y-84266194D01*
X338784226Y-84266194D02*
X338784226Y-96209146D01*
X343773760Y-101198680D02*
X343773760Y-106647670D01*
X346822039Y-117652521D02*
X346522040Y-117952520D01*
X338784226Y-96209146D02*
X343773760Y-101198680D01*
X346822039Y-109695949D02*
X346822039Y-117652521D01*
%TO.N,DRV_FAULT*%
X336784171Y-97112311D02*
X340001860Y-100330000D01*
X341031401Y-75537835D02*
X341031401Y-79190519D01*
X341031401Y-79190519D02*
X336784171Y-83437749D01*
X340001860Y-100330000D02*
X340001860Y-100787200D01*
X336784171Y-83437749D02*
X336784171Y-97112311D01*
%TO.N,CAM_D0*%
X334965556Y-73142172D02*
X334965556Y-73035492D01*
X337620571Y-75797187D02*
X334965556Y-73142172D01*
X337620571Y-78013429D02*
X337620571Y-75797187D01*
X333975591Y-85786115D02*
X333975591Y-81658409D01*
X334625391Y-86435915D02*
X333975591Y-85786115D01*
X333975591Y-81658409D02*
X337620571Y-78013429D01*
X334673031Y-86435915D02*
X334625391Y-86435915D01*
%TO.N,CAM_D1*%
X338420593Y-78398147D02*
X338420593Y-75306157D01*
X335253998Y-81564742D02*
X338420593Y-78398147D01*
X336531484Y-73417048D02*
X336531484Y-72992784D01*
X335253998Y-83868948D02*
X335253998Y-81564742D01*
X338420593Y-75306157D02*
X336531484Y-73417048D01*
%TO.N,CAM_D2*%
X338820604Y-75097484D02*
X337330348Y-73607228D01*
X338820604Y-78563836D02*
X338820604Y-75097484D01*
X337330348Y-73607228D02*
X337330348Y-73035623D01*
X335675359Y-81709081D02*
X338820604Y-78563836D01*
X335675359Y-83405083D02*
X335675359Y-81709081D01*
X335875350Y-83605074D02*
X335675359Y-83405083D01*
X335875350Y-84376879D02*
X335875350Y-83605074D01*
X335784150Y-84468079D02*
X335875350Y-84376879D01*
%TO.N,CAM_D3*%
X338020582Y-78232458D02*
X338020582Y-75552084D01*
X334388653Y-85311173D02*
X334388653Y-81864387D01*
X334388653Y-81864387D02*
X338020582Y-78232458D01*
X335744079Y-73275581D02*
X335744079Y-72851317D01*
X338020582Y-75552084D02*
X335744079Y-73275581D01*
X334688652Y-85611172D02*
X334388653Y-85311173D01*
%TO.N,CAM_XCLK*%
X333166720Y-86939505D02*
X333934546Y-87707331D01*
X333166720Y-81335880D02*
X333166720Y-86939505D01*
X336793840Y-76347320D02*
X336793840Y-77708760D01*
X332320900Y-72283320D02*
X332729840Y-72283320D01*
X332729840Y-72283320D02*
X336793840Y-76347320D01*
X336793840Y-77708760D02*
X333166720Y-81335880D01*
%TO.N,CAM_D4*%
X337220560Y-77847740D02*
X333566731Y-81501569D01*
X333566731Y-86433173D02*
X333996556Y-86862998D01*
X337220560Y-76139040D02*
X337220560Y-77847740D01*
X333566731Y-81501569D02*
X333566731Y-86433173D01*
X334324820Y-72496483D02*
X334324820Y-73243300D01*
X334324820Y-73243300D02*
X337220560Y-76139040D01*
%TO.N,DRV_SLEEP*%
X337184182Y-83603438D02*
X337184182Y-96946622D01*
X341716658Y-75124989D02*
X341716658Y-79070962D01*
X341716658Y-79070962D02*
X337184182Y-83603438D01*
X340880700Y-100643140D02*
X340880700Y-100944680D01*
X337184182Y-96946622D02*
X340880700Y-100643140D01*
%TO.N,DRV_PHASE*%
X341749380Y-100946120D02*
X341749380Y-101239318D01*
X337584193Y-96780933D02*
X341749380Y-100946120D01*
X342426294Y-74708668D02*
X342426294Y-78927026D01*
X337584193Y-83769127D02*
X337584193Y-96780933D01*
X342426294Y-78927026D02*
X337584193Y-83769127D01*
%TO.N,DRV_EN*%
X343113512Y-78805508D02*
X337984204Y-83934816D01*
X337984204Y-96586140D02*
X342554560Y-101156496D01*
X342554560Y-101156496D02*
X342554560Y-101536500D01*
X337984204Y-83934816D02*
X337984204Y-96586140D01*
X343113512Y-74299095D02*
X343113512Y-78805508D01*
D32*
%TO.N,Net-(F2-Pad1)*%
X328940606Y-132712906D02*
X336689700Y-140462000D01*
D27*
%TO.N,LED_BLUE*%
X312464333Y-101718607D02*
X312464333Y-59390828D01*
X313254351Y-142745669D02*
X313254351Y-112060571D01*
X308711600Y-142806420D02*
X309861601Y-143956421D01*
X309861601Y-143956421D02*
X312043599Y-143956421D01*
X313254351Y-112060571D02*
X310805713Y-109611933D01*
X310805713Y-109611933D02*
X310805713Y-103377227D01*
X310805713Y-103377227D02*
X312464333Y-101718607D01*
X312043599Y-143956421D02*
X313254351Y-142745669D01*
X312464333Y-59390828D02*
X311894766Y-58821261D01*
%TO.N,LED_GREEN*%
X311251600Y-142806420D02*
X312854340Y-141203680D01*
X312854340Y-141203680D02*
X312854340Y-112226260D01*
X312854340Y-112226260D02*
X310405702Y-109777622D01*
X312064322Y-101552918D02*
X312064322Y-60121129D01*
X312064322Y-60121129D02*
X311354264Y-59411071D01*
X310405702Y-103211538D02*
X312064322Y-101552918D01*
X310405702Y-109777622D02*
X310405702Y-103211538D01*
%TO.N,LED_RED*%
X311664311Y-101387229D02*
X311664311Y-60849471D01*
X311664311Y-60849471D02*
X310748680Y-59933840D01*
X310005691Y-109943311D02*
X310005691Y-103045849D01*
X312403451Y-112341071D02*
X310005691Y-109943311D01*
X310005691Y-103045849D02*
X311664311Y-101387229D01*
X312403451Y-139114569D02*
X312403451Y-112341071D01*
X311251600Y-140266420D02*
X312403451Y-139114569D01*
%TO.N,ANALOG_IN*%
X339584248Y-84659252D02*
X339584248Y-95867747D01*
X343906832Y-81347409D02*
X342896091Y-81347409D01*
X339584248Y-95867747D02*
X344557042Y-100840540D01*
X344557042Y-100840540D02*
X344751660Y-100840540D01*
X342896091Y-81347409D02*
X339584248Y-84659252D01*
%TO.N,LED_OUT*%
X335415640Y-61114411D02*
X335415640Y-65464440D01*
X335415640Y-65464440D02*
X335417160Y-65465960D01*
X340233000Y-79423220D02*
X340233000Y-75588576D01*
X336384160Y-99911158D02*
X336384160Y-83272060D01*
X344096180Y-107623178D02*
X336384160Y-99911158D01*
X336384160Y-83272060D02*
X340233000Y-79423220D01*
X344096180Y-109260640D02*
X344096180Y-107623178D01*
%TD*%
D34*
%TO.N,GND*%
G36*
X359298001Y-79205880D02*
G01*
X352411754Y-79205880D01*
X352394421Y-79204178D01*
X352363068Y-79207275D01*
X352325516Y-79210973D01*
X352325465Y-79210988D01*
X352325419Y-79210993D01*
X352295385Y-79220113D01*
X352259164Y-79231101D01*
X352259115Y-79231127D01*
X352259073Y-79231140D01*
X352232047Y-79245595D01*
X352198013Y-79263787D01*
X352197971Y-79263822D01*
X352197931Y-79263843D01*
X352173650Y-79283781D01*
X352144414Y-79307774D01*
X352144380Y-79307815D01*
X352144344Y-79307845D01*
X352123582Y-79333159D01*
X352100427Y-79361373D01*
X352100403Y-79361419D01*
X352100372Y-79361456D01*
X352084442Y-79391279D01*
X352067741Y-79422524D01*
X352067726Y-79422572D01*
X352067703Y-79422616D01*
X352057956Y-79454780D01*
X352047613Y-79488876D01*
X352047608Y-79488928D01*
X352047594Y-79488974D01*
X352044516Y-79520322D01*
X352040817Y-79557880D01*
X352042526Y-79575230D01*
X352047595Y-97615276D01*
X352045897Y-97632520D01*
X352047605Y-97649862D01*
X352047605Y-97649911D01*
X352049210Y-97666163D01*
X352052693Y-97701524D01*
X352052708Y-97701575D01*
X352052713Y-97701621D01*
X352061968Y-97732100D01*
X352072821Y-97767876D01*
X352072847Y-97767924D01*
X352072860Y-97767968D01*
X352087752Y-97795809D01*
X352105507Y-97829027D01*
X352105542Y-97829069D01*
X352105563Y-97829109D01*
X352125564Y-97853467D01*
X352149494Y-97882626D01*
X352149535Y-97882660D01*
X352149565Y-97882696D01*
X352174879Y-97903458D01*
X352203093Y-97926613D01*
X352203139Y-97926637D01*
X352203176Y-97926668D01*
X352232999Y-97942598D01*
X352264244Y-97959299D01*
X352264292Y-97959314D01*
X352264336Y-97959337D01*
X352296500Y-97969084D01*
X352330596Y-97979427D01*
X352330648Y-97979432D01*
X352330694Y-97979446D01*
X352364381Y-97982754D01*
X352382308Y-97984520D01*
X352382359Y-97984520D01*
X352399699Y-97986223D01*
X352416939Y-97984520D01*
X359298000Y-97984520D01*
X359298001Y-147073000D01*
X350191131Y-147073000D01*
X350240596Y-141174265D01*
X350237817Y-141146760D01*
X350230272Y-141123034D01*
X350218243Y-141101236D01*
X350202193Y-141082204D01*
X350182739Y-141066669D01*
X350160627Y-141055228D01*
X350136708Y-141048320D01*
X350111901Y-141046211D01*
X346443796Y-141095283D01*
X346445904Y-140547239D01*
X346632445Y-140319938D01*
X346802095Y-140002546D01*
X346906565Y-139658155D01*
X346933000Y-139389755D01*
X346933000Y-138038890D01*
X347561464Y-138028352D01*
X347671252Y-138138140D01*
X347704981Y-138179239D01*
X347746078Y-138212966D01*
X347868975Y-138313826D01*
X348056075Y-138413833D01*
X348259090Y-138475417D01*
X348470220Y-138496211D01*
X348523129Y-138491000D01*
X351906409Y-138491000D01*
X352064629Y-138475417D01*
X352267644Y-138413833D01*
X352454744Y-138313826D01*
X352618739Y-138179239D01*
X352753326Y-138015244D01*
X352853333Y-137828144D01*
X352914917Y-137625129D01*
X352935711Y-137414000D01*
X352914917Y-137202871D01*
X352853333Y-136999856D01*
X352753326Y-136812756D01*
X352618739Y-136648761D01*
X352454744Y-136514174D01*
X352267644Y-136414167D01*
X352064629Y-136352583D01*
X351906409Y-136337000D01*
X350243140Y-136337000D01*
X350243140Y-130860800D01*
X350240375Y-130834446D01*
X350232847Y-130810715D01*
X350220833Y-130788909D01*
X350204796Y-130769866D01*
X350185352Y-130754317D01*
X350163249Y-130742860D01*
X350139335Y-130735936D01*
X350114529Y-130733810D01*
X344772020Y-130801580D01*
X344772020Y-116994007D01*
X346080320Y-115685708D01*
X346121419Y-115651979D01*
X346256006Y-115487984D01*
X346356013Y-115300884D01*
X346395040Y-115172230D01*
X346395040Y-117338498D01*
X346339151Y-117349615D01*
X346225044Y-117396880D01*
X346122351Y-117465497D01*
X346035017Y-117552831D01*
X345966400Y-117655524D01*
X345919135Y-117769631D01*
X345895040Y-117890766D01*
X345895040Y-118014274D01*
X345919135Y-118135409D01*
X345951525Y-118213605D01*
X345876871Y-118228455D01*
X345762764Y-118275720D01*
X345660071Y-118344337D01*
X345572737Y-118431671D01*
X345504120Y-118534364D01*
X345456855Y-118648471D01*
X345432760Y-118769606D01*
X345432760Y-118893114D01*
X345456855Y-119014249D01*
X345504120Y-119128356D01*
X345572737Y-119231049D01*
X345660071Y-119318383D01*
X345762764Y-119387000D01*
X345876871Y-119434265D01*
X345984943Y-119455762D01*
X345983944Y-119456761D01*
X345811361Y-119715051D01*
X345692484Y-120002046D01*
X345631880Y-120306719D01*
X345631880Y-120617361D01*
X345692484Y-120922034D01*
X345811361Y-121209029D01*
X345983944Y-121467319D01*
X346203601Y-121686976D01*
X346461891Y-121859559D01*
X346748886Y-121978436D01*
X347053559Y-122039040D01*
X347364201Y-122039040D01*
X347668874Y-121978436D01*
X347955869Y-121859559D01*
X348214159Y-121686976D01*
X348433816Y-121467319D01*
X348606399Y-121209029D01*
X348725276Y-120922034D01*
X348785880Y-120617361D01*
X348785880Y-120306719D01*
X348725276Y-120002046D01*
X348606399Y-119715051D01*
X348433816Y-119456761D01*
X348214159Y-119237104D01*
X347955869Y-119064521D01*
X347668874Y-118945644D01*
X347364201Y-118885040D01*
X347053559Y-118885040D01*
X347042091Y-118887321D01*
X347510185Y-118419228D01*
X347526475Y-118405859D01*
X347539844Y-118389569D01*
X347539848Y-118389565D01*
X347579836Y-118340841D01*
X347619485Y-118266661D01*
X347629712Y-118232948D01*
X347643902Y-118186171D01*
X347650080Y-118123442D01*
X347650080Y-118123431D01*
X347652145Y-118102464D01*
X347650080Y-118081497D01*
X347650080Y-112106356D01*
X355466940Y-112106356D01*
X355466940Y-112338204D01*
X355512171Y-112565598D01*
X355600896Y-112779799D01*
X355729704Y-112972574D01*
X355893646Y-113136516D01*
X356086421Y-113265324D01*
X356300622Y-113354049D01*
X356528016Y-113399280D01*
X356759864Y-113399280D01*
X356987258Y-113354049D01*
X357201459Y-113265324D01*
X357394234Y-113136516D01*
X357558176Y-112972574D01*
X357686984Y-112779799D01*
X357775709Y-112565598D01*
X357820940Y-112338204D01*
X357820940Y-112106356D01*
X357775709Y-111878962D01*
X357686984Y-111664761D01*
X357558176Y-111471986D01*
X357394234Y-111308044D01*
X357201459Y-111179236D01*
X356987258Y-111090511D01*
X356759864Y-111045280D01*
X356528016Y-111045280D01*
X356300622Y-111090511D01*
X356086421Y-111179236D01*
X355893646Y-111308044D01*
X355729704Y-111471986D01*
X355600896Y-111664761D01*
X355512171Y-111878962D01*
X355466940Y-112106356D01*
X347650080Y-112106356D01*
X347650080Y-109996460D01*
X348156810Y-110503189D01*
X348171739Y-110521381D01*
X348244371Y-110580989D01*
X348327237Y-110625282D01*
X348417152Y-110652557D01*
X348487237Y-110659460D01*
X348487245Y-110659460D01*
X348510660Y-110661766D01*
X348534075Y-110659460D01*
X351810762Y-110659460D01*
X351795660Y-110735386D01*
X351795660Y-110858894D01*
X351819755Y-110980029D01*
X351867020Y-111094136D01*
X351882417Y-111117180D01*
X351867020Y-111140224D01*
X351819755Y-111254331D01*
X351795660Y-111375466D01*
X351795660Y-111498974D01*
X351819755Y-111620109D01*
X351867020Y-111734216D01*
X351935637Y-111836909D01*
X352022971Y-111924243D01*
X352125664Y-111992860D01*
X352239771Y-112040125D01*
X352360906Y-112064220D01*
X352484414Y-112064220D01*
X352605549Y-112040125D01*
X352719656Y-111992860D01*
X352822349Y-111924243D01*
X352909683Y-111836909D01*
X352978300Y-111734216D01*
X353025565Y-111620109D01*
X353049660Y-111498974D01*
X353049660Y-111375466D01*
X353025565Y-111254331D01*
X352978300Y-111140224D01*
X352962903Y-111117180D01*
X352978300Y-111094136D01*
X353025565Y-110980029D01*
X353049660Y-110858894D01*
X353049660Y-110735386D01*
X353025565Y-110614251D01*
X352978300Y-110500144D01*
X352971388Y-110489800D01*
X352978300Y-110479456D01*
X353025565Y-110365349D01*
X353049660Y-110244214D01*
X353049660Y-110120706D01*
X353025565Y-109999571D01*
X352978300Y-109885464D01*
X352909683Y-109782771D01*
X352822349Y-109695437D01*
X352719656Y-109626820D01*
X352605549Y-109579555D01*
X352539193Y-109566356D01*
X355466940Y-109566356D01*
X355466940Y-109798204D01*
X355512171Y-110025598D01*
X355600896Y-110239799D01*
X355729704Y-110432574D01*
X355893646Y-110596516D01*
X356086421Y-110725324D01*
X356300622Y-110814049D01*
X356528016Y-110859280D01*
X356759864Y-110859280D01*
X356987258Y-110814049D01*
X357201459Y-110725324D01*
X357394234Y-110596516D01*
X357558176Y-110432574D01*
X357686984Y-110239799D01*
X357775709Y-110025598D01*
X357820940Y-109798204D01*
X357820940Y-109566356D01*
X357775709Y-109338962D01*
X357686984Y-109124761D01*
X357558176Y-108931986D01*
X357394234Y-108768044D01*
X357201459Y-108639236D01*
X356987258Y-108550511D01*
X356759864Y-108505280D01*
X356528016Y-108505280D01*
X356300622Y-108550511D01*
X356086421Y-108639236D01*
X355893646Y-108768044D01*
X355729704Y-108931986D01*
X355600896Y-109124761D01*
X355512171Y-109338962D01*
X355466940Y-109566356D01*
X352539193Y-109566356D01*
X352484414Y-109555460D01*
X352360906Y-109555460D01*
X352239771Y-109579555D01*
X352125664Y-109626820D01*
X352022971Y-109695437D01*
X352012948Y-109705460D01*
X348708240Y-109705460D01*
X345100781Y-106098002D01*
X345100781Y-105795319D01*
X347084180Y-105795319D01*
X347084180Y-106105961D01*
X347144784Y-106410634D01*
X347263661Y-106697629D01*
X347436244Y-106955919D01*
X347655901Y-107175576D01*
X347914191Y-107348159D01*
X348201186Y-107467036D01*
X348505859Y-107527640D01*
X348816501Y-107527640D01*
X349121174Y-107467036D01*
X349408169Y-107348159D01*
X349666459Y-107175576D01*
X349815679Y-107026356D01*
X355466940Y-107026356D01*
X355466940Y-107258204D01*
X355512171Y-107485598D01*
X355600896Y-107699799D01*
X355729704Y-107892574D01*
X355893646Y-108056516D01*
X356086421Y-108185324D01*
X356300622Y-108274049D01*
X356528016Y-108319280D01*
X356759864Y-108319280D01*
X356987258Y-108274049D01*
X357201459Y-108185324D01*
X357394234Y-108056516D01*
X357558176Y-107892574D01*
X357686984Y-107699799D01*
X357775709Y-107485598D01*
X357820940Y-107258204D01*
X357820940Y-107026356D01*
X357775709Y-106798962D01*
X357686984Y-106584761D01*
X357558176Y-106391986D01*
X357394234Y-106228044D01*
X357201459Y-106099236D01*
X356987258Y-106010511D01*
X356759864Y-105965280D01*
X356528016Y-105965280D01*
X356300622Y-106010511D01*
X356086421Y-106099236D01*
X355893646Y-106228044D01*
X355729704Y-106391986D01*
X355600896Y-106584761D01*
X355512171Y-106798962D01*
X355466940Y-107026356D01*
X349815679Y-107026356D01*
X349886116Y-106955919D01*
X350058699Y-106697629D01*
X350177576Y-106410634D01*
X350238180Y-106105961D01*
X350238180Y-105795319D01*
X350177576Y-105490646D01*
X350058699Y-105203651D01*
X349886116Y-104945361D01*
X349666459Y-104725704D01*
X349408169Y-104553121D01*
X349246984Y-104486356D01*
X355466940Y-104486356D01*
X355466940Y-104718204D01*
X355512171Y-104945598D01*
X355600896Y-105159799D01*
X355729704Y-105352574D01*
X355893646Y-105516516D01*
X356086421Y-105645324D01*
X356300622Y-105734049D01*
X356528016Y-105779280D01*
X356759864Y-105779280D01*
X356987258Y-105734049D01*
X357201459Y-105645324D01*
X357394234Y-105516516D01*
X357558176Y-105352574D01*
X357686984Y-105159799D01*
X357775709Y-104945598D01*
X357820940Y-104718204D01*
X357820940Y-104486356D01*
X357775709Y-104258962D01*
X357686984Y-104044761D01*
X357558176Y-103851986D01*
X357394234Y-103688044D01*
X357201459Y-103559236D01*
X356987258Y-103470511D01*
X356759864Y-103425280D01*
X356528016Y-103425280D01*
X356300622Y-103470511D01*
X356086421Y-103559236D01*
X355893646Y-103688044D01*
X355729704Y-103851986D01*
X355600896Y-104044761D01*
X355512171Y-104258962D01*
X355466940Y-104486356D01*
X349246984Y-104486356D01*
X349121174Y-104434244D01*
X348816501Y-104373640D01*
X348505859Y-104373640D01*
X348201186Y-104434244D01*
X347914191Y-104553121D01*
X347655901Y-104725704D01*
X347436244Y-104945361D01*
X347263661Y-105203651D01*
X347144784Y-105490646D01*
X347084180Y-105795319D01*
X345100781Y-105795319D01*
X345100781Y-104123743D01*
X345114963Y-104144968D01*
X345386852Y-104416857D01*
X345706561Y-104630480D01*
X346061803Y-104777626D01*
X346438925Y-104852640D01*
X346823435Y-104852640D01*
X347200557Y-104777626D01*
X347555799Y-104630480D01*
X347875508Y-104416857D01*
X348147397Y-104144968D01*
X348361020Y-103825259D01*
X348508166Y-103470017D01*
X348583180Y-103092895D01*
X348583180Y-102708385D01*
X348508166Y-102331263D01*
X348361020Y-101976021D01*
X348147397Y-101656312D01*
X347875508Y-101384423D01*
X347555799Y-101170800D01*
X347200557Y-101023654D01*
X346823435Y-100948640D01*
X346438925Y-100948640D01*
X346061803Y-101023654D01*
X345878661Y-101099514D01*
X345878661Y-100599280D01*
X355557212Y-100599280D01*
X355561597Y-100604623D01*
X355611390Y-100645486D01*
X355668197Y-100675850D01*
X355729837Y-100694548D01*
X355793940Y-100700862D01*
X357493940Y-100700862D01*
X357558043Y-100694548D01*
X357619683Y-100675850D01*
X357676490Y-100645486D01*
X357726283Y-100604623D01*
X357767146Y-100554830D01*
X357797510Y-100498023D01*
X357816208Y-100436383D01*
X357822522Y-100372280D01*
X357822522Y-98672280D01*
X357816208Y-98608177D01*
X357797510Y-98546537D01*
X357767146Y-98489730D01*
X357726283Y-98439937D01*
X357676490Y-98399074D01*
X357619683Y-98368710D01*
X357558043Y-98350012D01*
X357493940Y-98343698D01*
X355793940Y-98343698D01*
X355729837Y-98350012D01*
X355668197Y-98368710D01*
X355611390Y-98399074D01*
X355561597Y-98439937D01*
X355557212Y-98445280D01*
X345169828Y-98445280D01*
X341711259Y-94986712D01*
X341711259Y-85540286D01*
X343449286Y-83802260D01*
X349564529Y-83802260D01*
X349722749Y-83786677D01*
X349925764Y-83725093D01*
X350112864Y-83625086D01*
X350276859Y-83490499D01*
X350411446Y-83326504D01*
X350511453Y-83139404D01*
X350573037Y-82936389D01*
X350593831Y-82725260D01*
X350573037Y-82514131D01*
X350511453Y-82311116D01*
X350411446Y-82124016D01*
X350276859Y-81960021D01*
X350112864Y-81825434D01*
X349925764Y-81725427D01*
X349722749Y-81663843D01*
X349564529Y-81648260D01*
X344459896Y-81648260D01*
X344462472Y-81644405D01*
X344509737Y-81530298D01*
X344533832Y-81409163D01*
X344533832Y-81285655D01*
X344509737Y-81164520D01*
X344462472Y-81050413D01*
X344393855Y-80947720D01*
X344306521Y-80860386D01*
X344203828Y-80791769D01*
X344089721Y-80744504D01*
X343968586Y-80720409D01*
X343845078Y-80720409D01*
X343723943Y-80744504D01*
X343609836Y-80791769D01*
X343507143Y-80860386D01*
X343447120Y-80920409D01*
X343299580Y-80920409D01*
X345388154Y-78831836D01*
X345404438Y-78818472D01*
X345417802Y-78802188D01*
X345417811Y-78802179D01*
X345457798Y-78753454D01*
X345487640Y-78697622D01*
X345497448Y-78679273D01*
X345521865Y-78598784D01*
X345528043Y-78536055D01*
X345528043Y-78536043D01*
X345530108Y-78515078D01*
X345528043Y-78494113D01*
X345528043Y-73437124D01*
X345588066Y-73377101D01*
X345656683Y-73274408D01*
X345703948Y-73160301D01*
X345728043Y-73039166D01*
X345728043Y-72915658D01*
X345703948Y-72794523D01*
X345656683Y-72680416D01*
X345588066Y-72577723D01*
X345500732Y-72490389D01*
X345398039Y-72421772D01*
X345283932Y-72374507D01*
X345162797Y-72350412D01*
X345039289Y-72350412D01*
X344918154Y-72374507D01*
X344804047Y-72421772D01*
X344701354Y-72490389D01*
X344614020Y-72577723D01*
X344545403Y-72680416D01*
X344532665Y-72711167D01*
X344439697Y-72692675D01*
X344316189Y-72692675D01*
X344195054Y-72716770D01*
X344080947Y-72764035D01*
X343978254Y-72832652D01*
X343890920Y-72919986D01*
X343822303Y-73022679D01*
X343775038Y-73136786D01*
X343769510Y-73164576D01*
X343670179Y-73164576D01*
X343549044Y-73188671D01*
X343434937Y-73235936D01*
X343332244Y-73304553D01*
X343244910Y-73391887D01*
X343176293Y-73494580D01*
X343129028Y-73608687D01*
X343116415Y-73672095D01*
X343051758Y-73672095D01*
X342930623Y-73696190D01*
X342816516Y-73743455D01*
X342713823Y-73812072D01*
X342626489Y-73899406D01*
X342557872Y-74002099D01*
X342522107Y-74088443D01*
X342488048Y-74081668D01*
X342364540Y-74081668D01*
X342243405Y-74105763D01*
X342129298Y-74153028D01*
X342026605Y-74221645D01*
X341939271Y-74308979D01*
X341870654Y-74411672D01*
X341830600Y-74508370D01*
X341778412Y-74497989D01*
X341654904Y-74497989D01*
X341533769Y-74522084D01*
X341419662Y-74569349D01*
X341316969Y-74637966D01*
X341229635Y-74725300D01*
X341161018Y-74827993D01*
X341124150Y-74917000D01*
X341093155Y-74910835D01*
X340969647Y-74910835D01*
X340848512Y-74934930D01*
X340734405Y-74982195D01*
X340631712Y-75050812D01*
X340601686Y-75080838D01*
X340530054Y-75032975D01*
X340679030Y-74883999D01*
X340763915Y-74883999D01*
X340885050Y-74859904D01*
X340999157Y-74812639D01*
X341101850Y-74744022D01*
X341189184Y-74656688D01*
X341257801Y-74553995D01*
X341305066Y-74439888D01*
X341329161Y-74318753D01*
X341329161Y-74224081D01*
X341409172Y-74208166D01*
X341523279Y-74160901D01*
X341625972Y-74092284D01*
X341713306Y-74004950D01*
X341781923Y-73902257D01*
X341829188Y-73788150D01*
X341853283Y-73667015D01*
X341853283Y-73543507D01*
X341829188Y-73422372D01*
X341781923Y-73308265D01*
X341713306Y-73205572D01*
X341625972Y-73118238D01*
X341523279Y-73049621D01*
X341409172Y-73002356D01*
X341288037Y-72978261D01*
X341164529Y-72978261D01*
X341043394Y-73002356D01*
X340929287Y-73049621D01*
X340826594Y-73118238D01*
X340766571Y-73178261D01*
X340501746Y-73178261D01*
X340480779Y-73176196D01*
X340459812Y-73178261D01*
X340459801Y-73178261D01*
X340397072Y-73184439D01*
X340316583Y-73208856D01*
X340305382Y-73214843D01*
X340242402Y-73248505D01*
X340193678Y-73288493D01*
X340193674Y-73288497D01*
X340177384Y-73301866D01*
X340164015Y-73318156D01*
X338941135Y-74541037D01*
X338924840Y-74554410D01*
X338911468Y-74570704D01*
X338911467Y-74570705D01*
X338905259Y-74578269D01*
X337789836Y-73462847D01*
X337817371Y-73435312D01*
X337885988Y-73332619D01*
X337933253Y-73218512D01*
X337957348Y-73097377D01*
X337957348Y-72973869D01*
X337933253Y-72852734D01*
X337885988Y-72738627D01*
X337817371Y-72635934D01*
X337730037Y-72548600D01*
X337627344Y-72479983D01*
X337513237Y-72432718D01*
X337392102Y-72408623D01*
X337268594Y-72408623D01*
X337147459Y-72432718D01*
X337033352Y-72479983D01*
X336956647Y-72531235D01*
X336931173Y-72505761D01*
X336828480Y-72437144D01*
X336714373Y-72389879D01*
X336593238Y-72365784D01*
X336469730Y-72365784D01*
X336348595Y-72389879D01*
X336234488Y-72437144D01*
X336223776Y-72444302D01*
X336143768Y-72364294D01*
X336041075Y-72295677D01*
X335926968Y-72248412D01*
X335805833Y-72224317D01*
X335682325Y-72224317D01*
X335561190Y-72248412D01*
X335447083Y-72295677D01*
X335344390Y-72364294D01*
X335257056Y-72451628D01*
X335243477Y-72471951D01*
X335148445Y-72432587D01*
X335027310Y-72408492D01*
X334946601Y-72408492D01*
X334927725Y-72313594D01*
X334880460Y-72199487D01*
X334811843Y-72096794D01*
X334793660Y-72078611D01*
X340028237Y-72078611D01*
X340045702Y-72083909D01*
X340203922Y-72099492D01*
X340203924Y-72099492D01*
X340256830Y-72104703D01*
X340309737Y-72099492D01*
X347842785Y-72099492D01*
X348594640Y-72851348D01*
X348594640Y-73837368D01*
X348610223Y-73995588D01*
X348671807Y-74198603D01*
X348771814Y-74385704D01*
X348906401Y-74549699D01*
X349070396Y-74684286D01*
X349257496Y-74784293D01*
X349460511Y-74845877D01*
X349671640Y-74866671D01*
X349882768Y-74845877D01*
X350085783Y-74784293D01*
X350272884Y-74684286D01*
X350436879Y-74549699D01*
X350571466Y-74385704D01*
X350671473Y-74198604D01*
X350733057Y-73995589D01*
X350748640Y-73837369D01*
X350748640Y-72458147D01*
X350753851Y-72405240D01*
X350746666Y-72332287D01*
X350733057Y-72194111D01*
X350671473Y-71991096D01*
X350571466Y-71803996D01*
X350436879Y-71640001D01*
X350395780Y-71606272D01*
X349087864Y-70298357D01*
X349054131Y-70257253D01*
X348890136Y-70122666D01*
X348728022Y-70036014D01*
X348789640Y-69943796D01*
X348836905Y-69829689D01*
X348861000Y-69708554D01*
X348861000Y-69585046D01*
X348836905Y-69463911D01*
X348789640Y-69349804D01*
X348721023Y-69247111D01*
X348633689Y-69159777D01*
X348530996Y-69091160D01*
X348416889Y-69043895D01*
X348295754Y-69019800D01*
X348172246Y-69019800D01*
X348051111Y-69043895D01*
X347937004Y-69091160D01*
X347834311Y-69159777D01*
X347746977Y-69247111D01*
X347678360Y-69349804D01*
X347631095Y-69463911D01*
X347614870Y-69545481D01*
X340803052Y-69545481D01*
X340754585Y-69530778D01*
X340691856Y-69524600D01*
X340691845Y-69524600D01*
X340670878Y-69522535D01*
X340649911Y-69524600D01*
X325953767Y-69524600D01*
X325932800Y-69522535D01*
X325911833Y-69524600D01*
X325911822Y-69524600D01*
X325849093Y-69530778D01*
X325800626Y-69545481D01*
X325768603Y-69555195D01*
X325694424Y-69594844D01*
X325645699Y-69634832D01*
X325645695Y-69634836D01*
X325629405Y-69648205D01*
X325616036Y-69664495D01*
X322272932Y-73007600D01*
X322188046Y-73007600D01*
X322066911Y-73031695D01*
X321952804Y-73078960D01*
X321850111Y-73147577D01*
X321762777Y-73234911D01*
X321694160Y-73337604D01*
X321646895Y-73451711D01*
X321622800Y-73572846D01*
X321622800Y-73696354D01*
X321646895Y-73817489D01*
X321694160Y-73931596D01*
X321762777Y-74034289D01*
X321850111Y-74121623D01*
X321952804Y-74190240D01*
X322066911Y-74237505D01*
X322188046Y-74261600D01*
X322311554Y-74261600D01*
X322326933Y-74258541D01*
X320598566Y-75986908D01*
X320557461Y-76020642D01*
X320422874Y-76184637D01*
X320322867Y-76371738D01*
X320261283Y-76574753D01*
X320248546Y-76704075D01*
X320240489Y-76785881D01*
X320245700Y-76838788D01*
X320245701Y-80366024D01*
X320240489Y-80418940D01*
X320258412Y-80600911D01*
X320261284Y-80630069D01*
X320322868Y-80833084D01*
X320422875Y-81020184D01*
X320557462Y-81184179D01*
X320721457Y-81318766D01*
X320908557Y-81418773D01*
X321111572Y-81480357D01*
X321322700Y-81501151D01*
X321533829Y-81480357D01*
X321736844Y-81418773D01*
X321923944Y-81318766D01*
X321979329Y-81273313D01*
X322038568Y-81241648D01*
X322111201Y-81182041D01*
X322170808Y-81109408D01*
X322209281Y-81037432D01*
X322227605Y-81015104D01*
X322327612Y-80828004D01*
X322389196Y-80624989D01*
X322409991Y-80413861D01*
X322399700Y-80309377D01*
X322399700Y-77351402D01*
X322411703Y-77339399D01*
X322480320Y-77236706D01*
X322527585Y-77122599D01*
X322532178Y-77099511D01*
X323649446Y-75982242D01*
X323628666Y-76086712D01*
X323628666Y-76210220D01*
X323652761Y-76331355D01*
X323700026Y-76445462D01*
X323768643Y-76548155D01*
X323855977Y-76635489D01*
X323958670Y-76704106D01*
X324072777Y-76751371D01*
X324193912Y-76775466D01*
X324317420Y-76775466D01*
X324438555Y-76751371D01*
X324552662Y-76704106D01*
X324655355Y-76635489D01*
X324702777Y-76588067D01*
X324769800Y-76655090D01*
X324872493Y-76723707D01*
X324986600Y-76770972D01*
X325107735Y-76795067D01*
X325231243Y-76795067D01*
X325352378Y-76770972D01*
X325466485Y-76723707D01*
X325569178Y-76655090D01*
X325656512Y-76567756D01*
X325725129Y-76465063D01*
X325772394Y-76350956D01*
X325796489Y-76229821D01*
X325796489Y-76106313D01*
X325772394Y-75985178D01*
X325725129Y-75871071D01*
X325666380Y-75783147D01*
X325666380Y-75096708D01*
X327440629Y-73322460D01*
X330013933Y-73322460D01*
X330034900Y-73324525D01*
X330055867Y-73322460D01*
X330055878Y-73322460D01*
X330118607Y-73316282D01*
X330199096Y-73291865D01*
X330273276Y-73252215D01*
X330338295Y-73198855D01*
X330351668Y-73182560D01*
X330496908Y-73037320D01*
X330581794Y-73037320D01*
X330702929Y-73013225D01*
X330817036Y-72965960D01*
X330919729Y-72897343D01*
X331007063Y-72810009D01*
X331075680Y-72707316D01*
X331122945Y-72593209D01*
X331147040Y-72472074D01*
X331147040Y-72348566D01*
X331122945Y-72227431D01*
X331075680Y-72113324D01*
X331052486Y-72078611D01*
X331727033Y-72078611D01*
X331717995Y-72100431D01*
X331693900Y-72221566D01*
X331693900Y-72345074D01*
X331717995Y-72466209D01*
X331765260Y-72580316D01*
X331833877Y-72683009D01*
X331921211Y-72770343D01*
X332023904Y-72838960D01*
X332138011Y-72886225D01*
X332259146Y-72910320D01*
X332382654Y-72910320D01*
X332503789Y-72886225D01*
X332617896Y-72838960D01*
X332656091Y-72813439D01*
X336366840Y-76524189D01*
X336366841Y-77531889D01*
X332879620Y-81019112D01*
X332863325Y-81032485D01*
X332849953Y-81048779D01*
X332849952Y-81048780D01*
X332809965Y-81097504D01*
X332797466Y-81120889D01*
X332770315Y-81171685D01*
X332745898Y-81252174D01*
X332739720Y-81314903D01*
X332739720Y-81314913D01*
X332737655Y-81335880D01*
X332739720Y-81356847D01*
X332739721Y-86918528D01*
X332737655Y-86939505D01*
X332745899Y-87023211D01*
X332770316Y-87103701D01*
X332809965Y-87177881D01*
X332849952Y-87226605D01*
X332849957Y-87226610D01*
X332863326Y-87242900D01*
X332879615Y-87256268D01*
X333307546Y-87684200D01*
X333307546Y-87769085D01*
X333331641Y-87890220D01*
X333378906Y-88004327D01*
X333447523Y-88107020D01*
X333534857Y-88194354D01*
X333637550Y-88262971D01*
X333751657Y-88310236D01*
X333872792Y-88334331D01*
X333996300Y-88334331D01*
X334117435Y-88310236D01*
X334231542Y-88262971D01*
X334334235Y-88194354D01*
X334421569Y-88107020D01*
X334490186Y-88004327D01*
X334537451Y-87890220D01*
X334561546Y-87769085D01*
X334561546Y-87645577D01*
X334537451Y-87524442D01*
X334490186Y-87410335D01*
X334428400Y-87317866D01*
X334483579Y-87262687D01*
X334552196Y-87159994D01*
X334593844Y-87059447D01*
X334611277Y-87062915D01*
X334734785Y-87062915D01*
X334855920Y-87038820D01*
X334970027Y-86991555D01*
X335072720Y-86922938D01*
X335107459Y-86888199D01*
X335135840Y-86956716D01*
X335204457Y-87059409D01*
X335214481Y-87069433D01*
X335214480Y-99831473D01*
X335212174Y-99854888D01*
X335214480Y-99878303D01*
X335214480Y-99878310D01*
X335221383Y-99948395D01*
X335248658Y-100038310D01*
X335292951Y-100121177D01*
X335352559Y-100193809D01*
X335370756Y-100208743D01*
X341079181Y-105917169D01*
X341079180Y-108292483D01*
X341046029Y-108306215D01*
X340869633Y-108424080D01*
X340719620Y-108574093D01*
X340601755Y-108750489D01*
X340520569Y-108946491D01*
X340479180Y-109154565D01*
X340479180Y-109366715D01*
X340520569Y-109574789D01*
X340601755Y-109770791D01*
X340719620Y-109947187D01*
X340869633Y-110097200D01*
X341046029Y-110215065D01*
X341242031Y-110296251D01*
X341450105Y-110337640D01*
X341662255Y-110337640D01*
X341870329Y-110296251D01*
X342066331Y-110215065D01*
X342242727Y-110097200D01*
X342392740Y-109947187D01*
X342510605Y-109770791D01*
X342591791Y-109574789D01*
X342633180Y-109366715D01*
X342633180Y-109154565D01*
X342591791Y-108946491D01*
X342510605Y-108750489D01*
X342392740Y-108574093D01*
X342242727Y-108424080D01*
X342066331Y-108306215D01*
X342033180Y-108292484D01*
X342033180Y-106164048D01*
X343669181Y-107800049D01*
X343669181Y-108271773D01*
X343586029Y-108306215D01*
X343409633Y-108424080D01*
X343259620Y-108574093D01*
X343141755Y-108750489D01*
X343060569Y-108946491D01*
X343019180Y-109154565D01*
X343019180Y-109366715D01*
X343060569Y-109574789D01*
X343141755Y-109770791D01*
X343259620Y-109947187D01*
X343409633Y-110097200D01*
X343586029Y-110215065D01*
X343782031Y-110296251D01*
X343990105Y-110337640D01*
X344202255Y-110337640D01*
X344410329Y-110296251D01*
X344606331Y-110215065D01*
X344782727Y-110097200D01*
X344932740Y-109947187D01*
X345050605Y-109770791D01*
X345131791Y-109574789D01*
X345173180Y-109366715D01*
X345173180Y-109154565D01*
X345131791Y-108946491D01*
X345050605Y-108750489D01*
X344932740Y-108574093D01*
X344782727Y-108424080D01*
X344606331Y-108306215D01*
X344523180Y-108271773D01*
X344523180Y-108000958D01*
X346395039Y-109872818D01*
X346395039Y-111502821D01*
X346391791Y-111486491D01*
X346371448Y-111437378D01*
X346356013Y-111386496D01*
X346330950Y-111339606D01*
X346310605Y-111290489D01*
X346281069Y-111246286D01*
X346256006Y-111199396D01*
X346222274Y-111158293D01*
X346192740Y-111114093D01*
X346155153Y-111076506D01*
X346121419Y-111035401D01*
X346080314Y-111001667D01*
X346042727Y-110964080D01*
X345998527Y-110934546D01*
X345957424Y-110900814D01*
X345910534Y-110875751D01*
X345866331Y-110846215D01*
X345817214Y-110825870D01*
X345770324Y-110800807D01*
X345719442Y-110785372D01*
X345670329Y-110765029D01*
X345618192Y-110754658D01*
X345567309Y-110739223D01*
X345514396Y-110734012D01*
X345462255Y-110723640D01*
X345409089Y-110723640D01*
X345356180Y-110718429D01*
X345303271Y-110723640D01*
X345250105Y-110723640D01*
X345197963Y-110734012D01*
X345145052Y-110739223D01*
X345094171Y-110754658D01*
X345042031Y-110765029D01*
X344992915Y-110785373D01*
X344942037Y-110800807D01*
X344895150Y-110825868D01*
X344846029Y-110846215D01*
X344801822Y-110875754D01*
X344754937Y-110900814D01*
X344713839Y-110934542D01*
X344669633Y-110964080D01*
X344632041Y-111001672D01*
X344590942Y-111035401D01*
X344557213Y-111076500D01*
X344519620Y-111114093D01*
X344490082Y-111158300D01*
X344456355Y-111199396D01*
X344431296Y-111246278D01*
X344401755Y-111290489D01*
X344381407Y-111339614D01*
X344356348Y-111386496D01*
X344340916Y-111437369D01*
X344320569Y-111486491D01*
X344310196Y-111538638D01*
X344294764Y-111589511D01*
X344289554Y-111642414D01*
X344279180Y-111694565D01*
X344279180Y-111906715D01*
X344279181Y-111906720D01*
X344279180Y-114440632D01*
X342970881Y-115748932D01*
X342929782Y-115782661D01*
X342820052Y-115916368D01*
X342795195Y-115946656D01*
X342695188Y-116133756D01*
X342633604Y-116336771D01*
X342612809Y-116547900D01*
X342618021Y-116600817D01*
X342618021Y-120876020D01*
X340082207Y-120876020D01*
X340065400Y-120859213D01*
X340065400Y-119483706D01*
X340070611Y-119430799D01*
X340063454Y-119358132D01*
X340049817Y-119219671D01*
X340035900Y-119173793D01*
X340035900Y-118961640D01*
X340041111Y-118908731D01*
X340020317Y-118697601D01*
X339969939Y-118531530D01*
X339958733Y-118494588D01*
X339958732Y-118494586D01*
X339858726Y-118307486D01*
X339763042Y-118190896D01*
X339724139Y-118143492D01*
X339683040Y-118109763D01*
X337851393Y-116278117D01*
X337747039Y-116150961D01*
X337583044Y-116016374D01*
X337395944Y-115916367D01*
X337192929Y-115854783D01*
X336981800Y-115833989D01*
X336979260Y-115834239D01*
X336976720Y-115833989D01*
X336765591Y-115854784D01*
X336562576Y-115916368D01*
X336375476Y-116016375D01*
X336211482Y-116150962D01*
X336076895Y-116314956D01*
X335976888Y-116502056D01*
X335915304Y-116705071D01*
X335911616Y-116742517D01*
X330863664Y-111694565D01*
X339199180Y-111694565D01*
X339199180Y-111906715D01*
X339240569Y-112114789D01*
X339321755Y-112310791D01*
X339439620Y-112487187D01*
X339589633Y-112637200D01*
X339766029Y-112755065D01*
X339962031Y-112836251D01*
X340170105Y-112877640D01*
X340382255Y-112877640D01*
X340590329Y-112836251D01*
X340786331Y-112755065D01*
X340962727Y-112637200D01*
X341112740Y-112487187D01*
X341230605Y-112310791D01*
X341311791Y-112114789D01*
X341353180Y-111906715D01*
X341353180Y-111694565D01*
X341739180Y-111694565D01*
X341739180Y-111906715D01*
X341780569Y-112114789D01*
X341861755Y-112310791D01*
X341979620Y-112487187D01*
X342129633Y-112637200D01*
X342306029Y-112755065D01*
X342502031Y-112836251D01*
X342710105Y-112877640D01*
X342922255Y-112877640D01*
X343130329Y-112836251D01*
X343326331Y-112755065D01*
X343502727Y-112637200D01*
X343652740Y-112487187D01*
X343770605Y-112310791D01*
X343851791Y-112114789D01*
X343893180Y-111906715D01*
X343893180Y-111694565D01*
X343851791Y-111486491D01*
X343770605Y-111290489D01*
X343652740Y-111114093D01*
X343502727Y-110964080D01*
X343326331Y-110846215D01*
X343130329Y-110765029D01*
X342922255Y-110723640D01*
X342710105Y-110723640D01*
X342502031Y-110765029D01*
X342306029Y-110846215D01*
X342129633Y-110964080D01*
X341979620Y-111114093D01*
X341861755Y-111290489D01*
X341780569Y-111486491D01*
X341739180Y-111694565D01*
X341353180Y-111694565D01*
X341311791Y-111486491D01*
X341230605Y-111290489D01*
X341112740Y-111114093D01*
X340962727Y-110964080D01*
X340786331Y-110846215D01*
X340590329Y-110765029D01*
X340382255Y-110723640D01*
X340170105Y-110723640D01*
X339962031Y-110765029D01*
X339766029Y-110846215D01*
X339589633Y-110964080D01*
X339439620Y-111114093D01*
X339321755Y-111290489D01*
X339240569Y-111486491D01*
X339199180Y-111694565D01*
X330863664Y-111694565D01*
X327930239Y-108761140D01*
X335397598Y-108761140D01*
X335397598Y-109760140D01*
X335408725Y-109873113D01*
X335441678Y-109981745D01*
X335495191Y-110081861D01*
X335567207Y-110169613D01*
X335654959Y-110241629D01*
X335755075Y-110295142D01*
X335863707Y-110328095D01*
X335976680Y-110339222D01*
X336975680Y-110339222D01*
X337088653Y-110328095D01*
X337197285Y-110295142D01*
X337297401Y-110241629D01*
X337385153Y-110169613D01*
X337457169Y-110081861D01*
X337510682Y-109981745D01*
X337543635Y-109873113D01*
X337554762Y-109760140D01*
X337554762Y-109154565D01*
X337939180Y-109154565D01*
X337939180Y-109366715D01*
X337980569Y-109574789D01*
X338061755Y-109770791D01*
X338179620Y-109947187D01*
X338329633Y-110097200D01*
X338506029Y-110215065D01*
X338702031Y-110296251D01*
X338910105Y-110337640D01*
X339122255Y-110337640D01*
X339330329Y-110296251D01*
X339526331Y-110215065D01*
X339702727Y-110097200D01*
X339852740Y-109947187D01*
X339970605Y-109770791D01*
X340051791Y-109574789D01*
X340093180Y-109366715D01*
X340093180Y-109154565D01*
X340051791Y-108946491D01*
X339970605Y-108750489D01*
X339852740Y-108574093D01*
X339702727Y-108424080D01*
X339526331Y-108306215D01*
X339330329Y-108225029D01*
X339122255Y-108183640D01*
X338910105Y-108183640D01*
X338702031Y-108225029D01*
X338506029Y-108306215D01*
X338329633Y-108424080D01*
X338179620Y-108574093D01*
X338061755Y-108750489D01*
X337980569Y-108946491D01*
X337939180Y-109154565D01*
X337554762Y-109154565D01*
X337554762Y-108761140D01*
X337543635Y-108648167D01*
X337510682Y-108539535D01*
X337457169Y-108439419D01*
X337385153Y-108351667D01*
X337297401Y-108279651D01*
X337197285Y-108226138D01*
X337088653Y-108193185D01*
X336975680Y-108182058D01*
X335976680Y-108182058D01*
X335863707Y-108193185D01*
X335755075Y-108226138D01*
X335654959Y-108279651D01*
X335567207Y-108351667D01*
X335495191Y-108439419D01*
X335441678Y-108539535D01*
X335408725Y-108648167D01*
X335397598Y-108761140D01*
X327930239Y-108761140D01*
X327852771Y-108683672D01*
X327825307Y-108650207D01*
X327691766Y-108540613D01*
X327539411Y-108459178D01*
X327374096Y-108409030D01*
X327245253Y-108396340D01*
X327202174Y-108392097D01*
X327159095Y-108396340D01*
X326195605Y-108396340D01*
X326079731Y-108318915D01*
X325883729Y-108237729D01*
X325675655Y-108196340D01*
X325463505Y-108196340D01*
X325255431Y-108237729D01*
X325059429Y-108318915D01*
X324883033Y-108436780D01*
X324733020Y-108586793D01*
X324615155Y-108763189D01*
X324533969Y-108959191D01*
X324492580Y-109167265D01*
X324492580Y-109379415D01*
X324533969Y-109587489D01*
X324615155Y-109783491D01*
X324733020Y-109959887D01*
X324883033Y-110109900D01*
X325059429Y-110227765D01*
X325255431Y-110308951D01*
X325463505Y-110350340D01*
X325675655Y-110350340D01*
X325883729Y-110308951D01*
X326079731Y-110227765D01*
X326195605Y-110150340D01*
X326838909Y-110150340D01*
X329616417Y-112927848D01*
X329588715Y-112925120D01*
X329588712Y-112925120D01*
X329498960Y-112916280D01*
X329409208Y-112925120D01*
X327754680Y-112925120D01*
X327754680Y-112367379D01*
X327784005Y-112323491D01*
X327865191Y-112127489D01*
X327906580Y-111919415D01*
X327906580Y-111707265D01*
X327865191Y-111499191D01*
X327784005Y-111303189D01*
X327666140Y-111126793D01*
X327516127Y-110976780D01*
X327339731Y-110858915D01*
X327143729Y-110777729D01*
X326935655Y-110736340D01*
X326723505Y-110736340D01*
X326515431Y-110777729D01*
X326319429Y-110858915D01*
X326143033Y-110976780D01*
X325993020Y-111126793D01*
X325875155Y-111303189D01*
X325793969Y-111499191D01*
X325752580Y-111707265D01*
X325752580Y-111919415D01*
X325793969Y-112127489D01*
X325875155Y-112323491D01*
X325993020Y-112499887D01*
X326000681Y-112507548D01*
X326000681Y-112925120D01*
X317721823Y-112925120D01*
X317632079Y-112916281D01*
X317542335Y-112925120D01*
X317542325Y-112925120D01*
X317273925Y-112951555D01*
X316929534Y-113056025D01*
X316612142Y-113225675D01*
X316333945Y-113453985D01*
X316276728Y-113523705D01*
X314889309Y-114911124D01*
X314819585Y-114968345D01*
X314591275Y-115246543D01*
X314421625Y-115563935D01*
X314317155Y-115908326D01*
X314293258Y-116150961D01*
X314281880Y-116266480D01*
X314290720Y-116356232D01*
X314290720Y-118198566D01*
X314290721Y-120486775D01*
X314317156Y-120755175D01*
X314421626Y-121099566D01*
X314591276Y-121416958D01*
X314819586Y-121695155D01*
X315097783Y-121923465D01*
X315415175Y-122093115D01*
X315759566Y-122197585D01*
X316117720Y-122232860D01*
X316475875Y-122197585D01*
X316820266Y-122093115D01*
X317137658Y-121923465D01*
X317415855Y-121695155D01*
X317644165Y-121416958D01*
X317813815Y-121099566D01*
X317918285Y-120755175D01*
X317944720Y-120486775D01*
X317944720Y-117023247D01*
X318388847Y-116579120D01*
X321118700Y-116579120D01*
X320808494Y-116744929D01*
X320454162Y-117035721D01*
X320163370Y-117390053D01*
X319947291Y-117794307D01*
X319814231Y-118232948D01*
X319780561Y-118574805D01*
X319780561Y-123484640D01*
X313681351Y-123484640D01*
X313681351Y-112431817D01*
X313712161Y-112469359D01*
X313876156Y-112603946D01*
X314063256Y-112703953D01*
X314266271Y-112765537D01*
X314424491Y-112781120D01*
X314424492Y-112781120D01*
X314477399Y-112786331D01*
X314530306Y-112781120D01*
X314570949Y-112781120D01*
X314729169Y-112765537D01*
X314932184Y-112703953D01*
X315119284Y-112603946D01*
X315283279Y-112469359D01*
X315417866Y-112305364D01*
X315517873Y-112118264D01*
X315579457Y-111915249D01*
X315599941Y-111707265D01*
X318132580Y-111707265D01*
X318132580Y-111919415D01*
X318173969Y-112127489D01*
X318255155Y-112323491D01*
X318373020Y-112499887D01*
X318523033Y-112649900D01*
X318699429Y-112767765D01*
X318895431Y-112848951D01*
X319103505Y-112890340D01*
X319315655Y-112890340D01*
X319523729Y-112848951D01*
X319719731Y-112767765D01*
X319896127Y-112649900D01*
X320046140Y-112499887D01*
X320164005Y-112323491D01*
X320245191Y-112127489D01*
X320286580Y-111919415D01*
X320286580Y-111707265D01*
X323212580Y-111707265D01*
X323212580Y-111919415D01*
X323253969Y-112127489D01*
X323335155Y-112323491D01*
X323453020Y-112499887D01*
X323603033Y-112649900D01*
X323779429Y-112767765D01*
X323975431Y-112848951D01*
X324183505Y-112890340D01*
X324395655Y-112890340D01*
X324603729Y-112848951D01*
X324799731Y-112767765D01*
X324976127Y-112649900D01*
X325126140Y-112499887D01*
X325244005Y-112323491D01*
X325325191Y-112127489D01*
X325366580Y-111919415D01*
X325366580Y-111707265D01*
X325325191Y-111499191D01*
X325244005Y-111303189D01*
X325126140Y-111126793D01*
X324976127Y-110976780D01*
X324799731Y-110858915D01*
X324603729Y-110777729D01*
X324395655Y-110736340D01*
X324183505Y-110736340D01*
X323975431Y-110777729D01*
X323779429Y-110858915D01*
X323603033Y-110976780D01*
X323453020Y-111126793D01*
X323335155Y-111303189D01*
X323253969Y-111499191D01*
X323212580Y-111707265D01*
X320286580Y-111707265D01*
X320245191Y-111499191D01*
X320164005Y-111303189D01*
X320046140Y-111126793D01*
X319896127Y-110976780D01*
X319719731Y-110858915D01*
X319523729Y-110777729D01*
X319315655Y-110736340D01*
X319103505Y-110736340D01*
X318895431Y-110777729D01*
X318699429Y-110858915D01*
X318523033Y-110976780D01*
X318373020Y-111126793D01*
X318255155Y-111303189D01*
X318173969Y-111499191D01*
X318132580Y-111707265D01*
X315599941Y-111707265D01*
X315600251Y-111704120D01*
X315579457Y-111492991D01*
X315517873Y-111289976D01*
X315417866Y-111102876D01*
X315283279Y-110938881D01*
X315119284Y-110804294D01*
X315079322Y-110782934D01*
X313070228Y-108773840D01*
X316870998Y-108773840D01*
X316870998Y-109772840D01*
X316882125Y-109885813D01*
X316915078Y-109994445D01*
X316968591Y-110094561D01*
X317040607Y-110182313D01*
X317128359Y-110254329D01*
X317228475Y-110307842D01*
X317337107Y-110340795D01*
X317450080Y-110351922D01*
X318449080Y-110351922D01*
X318562053Y-110340795D01*
X318670685Y-110307842D01*
X318770801Y-110254329D01*
X318858553Y-110182313D01*
X318930569Y-110094561D01*
X318984082Y-109994445D01*
X319017035Y-109885813D01*
X319028162Y-109772840D01*
X319028162Y-109167265D01*
X319412580Y-109167265D01*
X319412580Y-109379415D01*
X319453969Y-109587489D01*
X319535155Y-109783491D01*
X319653020Y-109959887D01*
X319803033Y-110109900D01*
X319979429Y-110227765D01*
X320175431Y-110308951D01*
X320383505Y-110350340D01*
X320595655Y-110350340D01*
X320803729Y-110308951D01*
X320999731Y-110227765D01*
X321176127Y-110109900D01*
X321326140Y-109959887D01*
X321444005Y-109783491D01*
X321525191Y-109587489D01*
X321566580Y-109379415D01*
X321566580Y-109167265D01*
X321952580Y-109167265D01*
X321952580Y-109379415D01*
X321993969Y-109587489D01*
X322075155Y-109783491D01*
X322193020Y-109959887D01*
X322343033Y-110109900D01*
X322519429Y-110227765D01*
X322715431Y-110308951D01*
X322923505Y-110350340D01*
X323135655Y-110350340D01*
X323343729Y-110308951D01*
X323539731Y-110227765D01*
X323716127Y-110109900D01*
X323866140Y-109959887D01*
X323984005Y-109783491D01*
X324065191Y-109587489D01*
X324106580Y-109379415D01*
X324106580Y-109167265D01*
X324065191Y-108959191D01*
X323984005Y-108763189D01*
X323866140Y-108586793D01*
X323716127Y-108436780D01*
X323539731Y-108318915D01*
X323343729Y-108237729D01*
X323135655Y-108196340D01*
X322923505Y-108196340D01*
X322715431Y-108237729D01*
X322519429Y-108318915D01*
X322343033Y-108436780D01*
X322193020Y-108586793D01*
X322075155Y-108763189D01*
X321993969Y-108959191D01*
X321952580Y-109167265D01*
X321566580Y-109167265D01*
X321525191Y-108959191D01*
X321444005Y-108763189D01*
X321326140Y-108586793D01*
X321176127Y-108436780D01*
X320999731Y-108318915D01*
X320803729Y-108237729D01*
X320595655Y-108196340D01*
X320383505Y-108196340D01*
X320175431Y-108237729D01*
X319979429Y-108318915D01*
X319803033Y-108436780D01*
X319653020Y-108586793D01*
X319535155Y-108763189D01*
X319453969Y-108959191D01*
X319412580Y-109167265D01*
X319028162Y-109167265D01*
X319028162Y-108773840D01*
X319017035Y-108660867D01*
X318984082Y-108552235D01*
X318930569Y-108452119D01*
X318858553Y-108364367D01*
X318770801Y-108292351D01*
X318670685Y-108238838D01*
X318562053Y-108205885D01*
X318449080Y-108194758D01*
X317450080Y-108194758D01*
X317337107Y-108205885D01*
X317228475Y-108238838D01*
X317128359Y-108292351D01*
X317040607Y-108364367D01*
X316968591Y-108452119D01*
X316915078Y-108552235D01*
X316882125Y-108660867D01*
X316870998Y-108773840D01*
X313070228Y-108773840D01*
X312994080Y-108697693D01*
X312994080Y-105808019D01*
X313067580Y-105808019D01*
X313067580Y-106118661D01*
X313128184Y-106423334D01*
X313247061Y-106710329D01*
X313419644Y-106968619D01*
X313639301Y-107188276D01*
X313897591Y-107360859D01*
X314184586Y-107479736D01*
X314489259Y-107540340D01*
X314799901Y-107540340D01*
X315104574Y-107479736D01*
X315391569Y-107360859D01*
X315649859Y-107188276D01*
X315869516Y-106968619D01*
X316042099Y-106710329D01*
X316160976Y-106423334D01*
X316221580Y-106118661D01*
X316221580Y-105808019D01*
X328557580Y-105808019D01*
X328557580Y-106118661D01*
X328618184Y-106423334D01*
X328737061Y-106710329D01*
X328909644Y-106968619D01*
X329129301Y-107188276D01*
X329387591Y-107360859D01*
X329674586Y-107479736D01*
X329979259Y-107540340D01*
X330289901Y-107540340D01*
X330594574Y-107479736D01*
X330881569Y-107360859D01*
X331139859Y-107188276D01*
X331359516Y-106968619D01*
X331532099Y-106710329D01*
X331650976Y-106423334D01*
X331654143Y-106407412D01*
X331654784Y-106410634D01*
X331773661Y-106697629D01*
X331946244Y-106955919D01*
X332165901Y-107175576D01*
X332424191Y-107348159D01*
X332711186Y-107467036D01*
X333015859Y-107527640D01*
X333326501Y-107527640D01*
X333631174Y-107467036D01*
X333918169Y-107348159D01*
X334176459Y-107175576D01*
X334396116Y-106955919D01*
X334568699Y-106697629D01*
X334687576Y-106410634D01*
X334748180Y-106105961D01*
X334748180Y-105795319D01*
X334687576Y-105490646D01*
X334568699Y-105203651D01*
X334396116Y-104945361D01*
X334176459Y-104725704D01*
X333918169Y-104553121D01*
X333631174Y-104434244D01*
X333326501Y-104373640D01*
X333015859Y-104373640D01*
X332711186Y-104434244D01*
X332424191Y-104553121D01*
X332165901Y-104725704D01*
X331946244Y-104945361D01*
X331773661Y-105203651D01*
X331654784Y-105490646D01*
X331651617Y-105506568D01*
X331650976Y-105503346D01*
X331532099Y-105216351D01*
X331359516Y-104958061D01*
X331139859Y-104738404D01*
X330881569Y-104565821D01*
X330594574Y-104446944D01*
X330289901Y-104386340D01*
X329979259Y-104386340D01*
X329674586Y-104446944D01*
X329387591Y-104565821D01*
X329129301Y-104738404D01*
X328909644Y-104958061D01*
X328737061Y-105216351D01*
X328618184Y-105503346D01*
X328557580Y-105808019D01*
X316221580Y-105808019D01*
X316160976Y-105503346D01*
X316042099Y-105216351D01*
X315869516Y-104958061D01*
X315649859Y-104738404D01*
X315391569Y-104565821D01*
X315104574Y-104446944D01*
X314799901Y-104386340D01*
X314489259Y-104386340D01*
X314184586Y-104446944D01*
X313897591Y-104565821D01*
X313639301Y-104738404D01*
X313419644Y-104958061D01*
X313247061Y-105216351D01*
X313128184Y-105503346D01*
X313067580Y-105808019D01*
X312994080Y-105808019D01*
X312994080Y-104255907D01*
X314287140Y-102962848D01*
X314328239Y-102929119D01*
X314462826Y-102765124D01*
X314486365Y-102721085D01*
X314722580Y-102721085D01*
X314722580Y-103105595D01*
X314797594Y-103482717D01*
X314944740Y-103837959D01*
X315158363Y-104157668D01*
X315430252Y-104429557D01*
X315749961Y-104643180D01*
X316105203Y-104790326D01*
X316482325Y-104865340D01*
X316866835Y-104865340D01*
X317243957Y-104790326D01*
X317599199Y-104643180D01*
X317918908Y-104429557D01*
X318190797Y-104157668D01*
X318404420Y-103837959D01*
X318551566Y-103482717D01*
X318626580Y-103105595D01*
X318626580Y-102721085D01*
X326152580Y-102721085D01*
X326152580Y-103105595D01*
X326227594Y-103482717D01*
X326374740Y-103837959D01*
X326588363Y-104157668D01*
X326860252Y-104429557D01*
X327179961Y-104643180D01*
X327535203Y-104790326D01*
X327912325Y-104865340D01*
X328296835Y-104865340D01*
X328673957Y-104790326D01*
X329029199Y-104643180D01*
X329348908Y-104429557D01*
X329620797Y-104157668D01*
X329834420Y-103837959D01*
X329981566Y-103482717D01*
X330056580Y-103105595D01*
X330056580Y-102721085D01*
X330054054Y-102708385D01*
X333249180Y-102708385D01*
X333249180Y-103092895D01*
X333324194Y-103470017D01*
X333471340Y-103825259D01*
X333684963Y-104144968D01*
X333956852Y-104416857D01*
X334276561Y-104630480D01*
X334631803Y-104777626D01*
X335008925Y-104852640D01*
X335393435Y-104852640D01*
X335770557Y-104777626D01*
X336125799Y-104630480D01*
X336445508Y-104416857D01*
X336717397Y-104144968D01*
X336931020Y-103825259D01*
X337078166Y-103470017D01*
X337153180Y-103092895D01*
X337153180Y-102708385D01*
X337078166Y-102331263D01*
X336931020Y-101976021D01*
X336717397Y-101656312D01*
X336445508Y-101384423D01*
X336125799Y-101170800D01*
X335770557Y-101023654D01*
X335393435Y-100948640D01*
X335008925Y-100948640D01*
X334631803Y-101023654D01*
X334276561Y-101170800D01*
X333956852Y-101384423D01*
X333684963Y-101656312D01*
X333471340Y-101976021D01*
X333324194Y-102331263D01*
X333249180Y-102708385D01*
X330054054Y-102708385D01*
X329981566Y-102343963D01*
X329834420Y-101988721D01*
X329620797Y-101669012D01*
X329348908Y-101397123D01*
X329029199Y-101183500D01*
X328673957Y-101036354D01*
X328296835Y-100961340D01*
X327912325Y-100961340D01*
X327535203Y-101036354D01*
X327179961Y-101183500D01*
X326860252Y-101397123D01*
X326588363Y-101669012D01*
X326374740Y-101988721D01*
X326227594Y-102343963D01*
X326152580Y-102721085D01*
X318626580Y-102721085D01*
X318551566Y-102343963D01*
X318404420Y-101988721D01*
X318190797Y-101669012D01*
X317918908Y-101397123D01*
X317599199Y-101183500D01*
X317243957Y-101036354D01*
X316866835Y-100961340D01*
X316482325Y-100961340D01*
X316105203Y-101036354D01*
X315749961Y-101183500D01*
X315430252Y-101397123D01*
X315158363Y-101669012D01*
X314944740Y-101988721D01*
X314797594Y-102343963D01*
X314722580Y-102721085D01*
X314486365Y-102721085D01*
X314562833Y-102578024D01*
X314624417Y-102375009D01*
X314640000Y-102216789D01*
X314640000Y-102216788D01*
X314645211Y-102163881D01*
X314640000Y-102110974D01*
X314640000Y-94045246D01*
X320302000Y-94045246D01*
X320302000Y-94168754D01*
X320326095Y-94289889D01*
X320373360Y-94403996D01*
X320441977Y-94506689D01*
X320529311Y-94594023D01*
X320632004Y-94662640D01*
X320746111Y-94709905D01*
X320867246Y-94734000D01*
X320990754Y-94734000D01*
X321111889Y-94709905D01*
X321225996Y-94662640D01*
X321328689Y-94594023D01*
X321388712Y-94534000D01*
X323517288Y-94534000D01*
X323577311Y-94594023D01*
X323680004Y-94662640D01*
X323794111Y-94709905D01*
X323915246Y-94734000D01*
X324038754Y-94734000D01*
X324159889Y-94709905D01*
X324273996Y-94662640D01*
X324376689Y-94594023D01*
X324464023Y-94506689D01*
X324532640Y-94403996D01*
X324579905Y-94289889D01*
X324604000Y-94168754D01*
X324604000Y-94045246D01*
X324579905Y-93924111D01*
X324532640Y-93810004D01*
X324464023Y-93707311D01*
X324376689Y-93619977D01*
X324273996Y-93551360D01*
X324159889Y-93504095D01*
X324038754Y-93480000D01*
X323915246Y-93480000D01*
X323794111Y-93504095D01*
X323680004Y-93551360D01*
X323577311Y-93619977D01*
X323517288Y-93680000D01*
X321388712Y-93680000D01*
X321328689Y-93619977D01*
X321225996Y-93551360D01*
X321111889Y-93504095D01*
X320990754Y-93480000D01*
X320867246Y-93480000D01*
X320746111Y-93504095D01*
X320632004Y-93551360D01*
X320529311Y-93619977D01*
X320441977Y-93707311D01*
X320373360Y-93810004D01*
X320326095Y-93924111D01*
X320302000Y-94045246D01*
X314640000Y-94045246D01*
X314640000Y-86235109D01*
X314645211Y-86182200D01*
X314640000Y-86129291D01*
X314640000Y-82710312D01*
X314649211Y-82719523D01*
X314751904Y-82788140D01*
X314866011Y-82835405D01*
X314987146Y-82859500D01*
X315110654Y-82859500D01*
X315197831Y-82842160D01*
X315353700Y-82857511D01*
X315470538Y-82846004D01*
X315475611Y-82848105D01*
X315596746Y-82872200D01*
X315720254Y-82872200D01*
X315841389Y-82848105D01*
X315955496Y-82800840D01*
X316058189Y-82732223D01*
X316145523Y-82644889D01*
X316214140Y-82542196D01*
X316261405Y-82428089D01*
X316282405Y-82322516D01*
X316353533Y-82189444D01*
X316415117Y-81986429D01*
X316430700Y-81828209D01*
X316430700Y-79916754D01*
X316517011Y-79952505D01*
X316638146Y-79976600D01*
X316761654Y-79976600D01*
X316882789Y-79952505D01*
X316996896Y-79905240D01*
X317099589Y-79836623D01*
X317186923Y-79749289D01*
X317255540Y-79646596D01*
X317302805Y-79532489D01*
X317326900Y-79411354D01*
X317326900Y-79287846D01*
X317302805Y-79166711D01*
X317255540Y-79052604D01*
X317239704Y-79028903D01*
X317268240Y-78986196D01*
X317315505Y-78872089D01*
X317339600Y-78750954D01*
X317339600Y-78627446D01*
X317315505Y-78506311D01*
X317270991Y-78398845D01*
X317285846Y-78401800D01*
X317409354Y-78401800D01*
X317530489Y-78377705D01*
X317644596Y-78330440D01*
X317747289Y-78261823D01*
X317834623Y-78174489D01*
X317903240Y-78071796D01*
X317950505Y-77957689D01*
X317974600Y-77836554D01*
X317974600Y-77713046D01*
X317950505Y-77591911D01*
X317903240Y-77477804D01*
X317834623Y-77375111D01*
X317774600Y-77315088D01*
X317774600Y-75442872D01*
X317885846Y-75465000D01*
X318009354Y-75465000D01*
X318130489Y-75440905D01*
X318244596Y-75393640D01*
X318347289Y-75325023D01*
X318434623Y-75237689D01*
X318503240Y-75134996D01*
X318550505Y-75020889D01*
X318574600Y-74899754D01*
X318574600Y-74776246D01*
X318550505Y-74655111D01*
X318503240Y-74541004D01*
X318434623Y-74438311D01*
X318374600Y-74378288D01*
X318374600Y-71960712D01*
X318434623Y-71900689D01*
X318503240Y-71797996D01*
X318550505Y-71683889D01*
X318574600Y-71562754D01*
X318574600Y-71439246D01*
X318550505Y-71318111D01*
X318503240Y-71204004D01*
X318434623Y-71101311D01*
X318347289Y-71013977D01*
X318244596Y-70945360D01*
X318130489Y-70898095D01*
X318009354Y-70874000D01*
X317885846Y-70874000D01*
X317774600Y-70896128D01*
X317774600Y-60931040D01*
X317781059Y-60929755D01*
X317895166Y-60882490D01*
X317997859Y-60813873D01*
X318085193Y-60726539D01*
X318153810Y-60623846D01*
X318201075Y-60509739D01*
X318225170Y-60388604D01*
X318225170Y-60265096D01*
X318201075Y-60143961D01*
X318153810Y-60029854D01*
X318085193Y-59927161D01*
X317997859Y-59839827D01*
X317895166Y-59771210D01*
X317781059Y-59723945D01*
X317659924Y-59699850D01*
X317536416Y-59699850D01*
X317415281Y-59723945D01*
X317301174Y-59771210D01*
X317198481Y-59839827D01*
X317111147Y-59927161D01*
X317042530Y-60029854D01*
X316995265Y-60143961D01*
X316971170Y-60265096D01*
X316971170Y-60375854D01*
X316951196Y-60413224D01*
X316926779Y-60493713D01*
X316920601Y-60556442D01*
X316918535Y-60577420D01*
X316920601Y-60598397D01*
X316920601Y-63778536D01*
X316908189Y-63773395D01*
X316787054Y-63749300D01*
X316663546Y-63749300D01*
X316542411Y-63773395D01*
X316430700Y-63819668D01*
X316430700Y-59003769D01*
X316435911Y-58950860D01*
X316415117Y-58739731D01*
X316353533Y-58536716D01*
X316253526Y-58349616D01*
X316243103Y-58336916D01*
X316118939Y-58185621D01*
X316077834Y-58151887D01*
X316065141Y-58139194D01*
X315942244Y-58038335D01*
X315755144Y-57938328D01*
X315552129Y-57876744D01*
X315341000Y-57855949D01*
X315129871Y-57876744D01*
X314926856Y-57938328D01*
X314739756Y-58038335D01*
X314575762Y-58172922D01*
X314469587Y-58302296D01*
X314338398Y-58142442D01*
X314174404Y-58007855D01*
X313987304Y-57907848D01*
X313784289Y-57846264D01*
X313573159Y-57825469D01*
X313362031Y-57846264D01*
X313159016Y-57907848D01*
X312971916Y-58007855D01*
X312849019Y-58108714D01*
X312838861Y-58118872D01*
X312797762Y-58152601D01*
X312705009Y-58265621D01*
X312663175Y-58316596D01*
X312563168Y-58503696D01*
X312507431Y-58687437D01*
X312497671Y-58638372D01*
X312450406Y-58524265D01*
X312381789Y-58421572D01*
X312294455Y-58334238D01*
X312191762Y-58265621D01*
X312077655Y-58218356D01*
X311956520Y-58194261D01*
X311833012Y-58194261D01*
X311711877Y-58218356D01*
X311597770Y-58265621D01*
X311495077Y-58334238D01*
X311407743Y-58421572D01*
X311339126Y-58524265D01*
X311291861Y-58638372D01*
X311267766Y-58759507D01*
X311267766Y-58788993D01*
X311171375Y-58808166D01*
X311057268Y-58855431D01*
X310954575Y-58924048D01*
X310867241Y-59011382D01*
X310798624Y-59114075D01*
X310751359Y-59228182D01*
X310735713Y-59306840D01*
X310686926Y-59306840D01*
X310565791Y-59330935D01*
X310451684Y-59378200D01*
X310348991Y-59446817D01*
X310261657Y-59534151D01*
X310193040Y-59636844D01*
X310145775Y-59750951D01*
X310121680Y-59872086D01*
X310121680Y-59995594D01*
X310145775Y-60116729D01*
X310193040Y-60230836D01*
X310261657Y-60333529D01*
X310348991Y-60420863D01*
X310451684Y-60489480D01*
X310565791Y-60536745D01*
X310686926Y-60560840D01*
X310771812Y-60560840D01*
X311237312Y-61026341D01*
X311237311Y-88241202D01*
X309336060Y-86339952D01*
X309336060Y-86255066D01*
X309311965Y-86133931D01*
X309264700Y-86019824D01*
X309196083Y-85917131D01*
X309108749Y-85829797D01*
X309006056Y-85761180D01*
X308891949Y-85713915D01*
X308770814Y-85689820D01*
X308647306Y-85689820D01*
X308526171Y-85713915D01*
X308412064Y-85761180D01*
X308309371Y-85829797D01*
X308222037Y-85917131D01*
X308153420Y-86019824D01*
X308106155Y-86133931D01*
X308082060Y-86255066D01*
X308082060Y-86378574D01*
X308106155Y-86499709D01*
X308153420Y-86613816D01*
X308222037Y-86716509D01*
X308309371Y-86803843D01*
X308412064Y-86872460D01*
X308526171Y-86919725D01*
X308647306Y-86943820D01*
X308732192Y-86943820D01*
X310837300Y-89048929D01*
X310837301Y-101044670D01*
X309318580Y-102563392D01*
X309302285Y-102576765D01*
X309288913Y-102593059D01*
X309288912Y-102593060D01*
X309248925Y-102641784D01*
X309244831Y-102649444D01*
X309209275Y-102715965D01*
X309184858Y-102796454D01*
X309178680Y-102859183D01*
X309178680Y-102859193D01*
X309176615Y-102880160D01*
X309178680Y-102901127D01*
X309178681Y-110105803D01*
X309176615Y-110126780D01*
X309178681Y-110147757D01*
X309178681Y-110147758D01*
X309184859Y-110210487D01*
X309195846Y-110246706D01*
X309209276Y-110290976D01*
X309248925Y-110365156D01*
X309288912Y-110413880D01*
X309288917Y-110413885D01*
X309302286Y-110430175D01*
X309318576Y-110443544D01*
X311548500Y-112673469D01*
X311548501Y-121529185D01*
X311480384Y-121557400D01*
X311377691Y-121626017D01*
X311290357Y-121713351D01*
X311221740Y-121816044D01*
X311174475Y-121930151D01*
X311150380Y-122051286D01*
X311150380Y-122174794D01*
X311174475Y-122295929D01*
X311221740Y-122410036D01*
X311290357Y-122512729D01*
X311377691Y-122600063D01*
X311480384Y-122668680D01*
X311594491Y-122715945D01*
X311715626Y-122740040D01*
X311839134Y-122740040D01*
X311960269Y-122715945D01*
X311976452Y-122709242D01*
X311976451Y-134203561D01*
X311885054Y-134112164D01*
X311692279Y-133983356D01*
X311478078Y-133894631D01*
X311250684Y-133849400D01*
X311018836Y-133849400D01*
X310791442Y-133894631D01*
X310577241Y-133983356D01*
X310384466Y-134112164D01*
X310220524Y-134276106D01*
X310091716Y-134468881D01*
X310002991Y-134683082D01*
X309957760Y-134910476D01*
X309957760Y-135142324D01*
X310002991Y-135369718D01*
X310091716Y-135583919D01*
X310220524Y-135776694D01*
X310384466Y-135940636D01*
X310577241Y-136069444D01*
X310791442Y-136158169D01*
X311018836Y-136203400D01*
X311250684Y-136203400D01*
X311478078Y-136158169D01*
X311692279Y-136069444D01*
X311885054Y-135940636D01*
X311976451Y-135849239D01*
X311976451Y-136743561D01*
X311885054Y-136652164D01*
X311692279Y-136523356D01*
X311478078Y-136434631D01*
X311250684Y-136389400D01*
X311018836Y-136389400D01*
X310791442Y-136434631D01*
X310577241Y-136523356D01*
X310384466Y-136652164D01*
X310220524Y-136816106D01*
X310091716Y-137008881D01*
X310002991Y-137223082D01*
X309957760Y-137450476D01*
X309957760Y-137682324D01*
X310002991Y-137909718D01*
X310091716Y-138123919D01*
X310220524Y-138316694D01*
X310384466Y-138480636D01*
X310577241Y-138609444D01*
X310791442Y-138698169D01*
X311018836Y-138743400D01*
X311250684Y-138743400D01*
X311478078Y-138698169D01*
X311692279Y-138609444D01*
X311885054Y-138480636D01*
X311976451Y-138389239D01*
X311976451Y-138937699D01*
X311787302Y-139126848D01*
X311692279Y-139063356D01*
X311478078Y-138974631D01*
X311250684Y-138929400D01*
X311018836Y-138929400D01*
X310791442Y-138974631D01*
X310577241Y-139063356D01*
X310384466Y-139192164D01*
X310220524Y-139356106D01*
X310091716Y-139548881D01*
X310002991Y-139763082D01*
X309957760Y-139990476D01*
X309957760Y-140222324D01*
X310002991Y-140449718D01*
X310091716Y-140663919D01*
X310220524Y-140856694D01*
X310384466Y-141020636D01*
X310577241Y-141149444D01*
X310791442Y-141238169D01*
X311018836Y-141283400D01*
X311250684Y-141283400D01*
X311478078Y-141238169D01*
X311692279Y-141149444D01*
X311885054Y-141020636D01*
X312048996Y-140856694D01*
X312177804Y-140663919D01*
X312266529Y-140449718D01*
X312311760Y-140222324D01*
X312311760Y-139990476D01*
X312281839Y-139840050D01*
X312427340Y-139694549D01*
X312427340Y-141026811D01*
X311787303Y-141666849D01*
X311692279Y-141603356D01*
X311478078Y-141514631D01*
X311250684Y-141469400D01*
X311018836Y-141469400D01*
X310791442Y-141514631D01*
X310577241Y-141603356D01*
X310384466Y-141732164D01*
X310220524Y-141896106D01*
X310091716Y-142088881D01*
X310002991Y-142303082D01*
X309957760Y-142530476D01*
X309957760Y-142762324D01*
X310002991Y-142989718D01*
X310091716Y-143203919D01*
X310220524Y-143396694D01*
X310353251Y-143529421D01*
X310038470Y-143529421D01*
X309659819Y-143150770D01*
X309726529Y-142989718D01*
X309771760Y-142762324D01*
X309771760Y-142530476D01*
X309726529Y-142303082D01*
X309637804Y-142088881D01*
X309508996Y-141896106D01*
X309345054Y-141732164D01*
X309152279Y-141603356D01*
X308938078Y-141514631D01*
X308710684Y-141469400D01*
X308478836Y-141469400D01*
X308251442Y-141514631D01*
X308037241Y-141603356D01*
X307844466Y-141732164D01*
X307680524Y-141896106D01*
X307551716Y-142088881D01*
X307462991Y-142303082D01*
X307417760Y-142530476D01*
X307417760Y-142762324D01*
X307462991Y-142989718D01*
X307551716Y-143203919D01*
X307680524Y-143396694D01*
X307844466Y-143560636D01*
X308037241Y-143689444D01*
X308251442Y-143778169D01*
X308478836Y-143823400D01*
X308710684Y-143823400D01*
X308938078Y-143778169D01*
X309038065Y-143736753D01*
X309544837Y-144243526D01*
X309558206Y-144259816D01*
X309574496Y-144273185D01*
X309574500Y-144273189D01*
X309623224Y-144313176D01*
X309662874Y-144334369D01*
X309697405Y-144352826D01*
X309777894Y-144377243D01*
X309840623Y-144383421D01*
X309840633Y-144383421D01*
X309861600Y-144385486D01*
X309882567Y-144383421D01*
X312022632Y-144383421D01*
X312043599Y-144385486D01*
X312064566Y-144383421D01*
X312064577Y-144383421D01*
X312127306Y-144377243D01*
X312207795Y-144352826D01*
X312281975Y-144313176D01*
X312346994Y-144259816D01*
X312360367Y-144243521D01*
X313321660Y-143282229D01*
X313333890Y-147073000D01*
X304002000Y-147073000D01*
X304002000Y-145070476D01*
X307417760Y-145070476D01*
X307417760Y-145302324D01*
X307462991Y-145529718D01*
X307551716Y-145743919D01*
X307680524Y-145936694D01*
X307844466Y-146100636D01*
X308037241Y-146229444D01*
X308251442Y-146318169D01*
X308478836Y-146363400D01*
X308710684Y-146363400D01*
X308938078Y-146318169D01*
X309152279Y-146229444D01*
X309345054Y-146100636D01*
X309508996Y-145936694D01*
X309637804Y-145743919D01*
X309726529Y-145529718D01*
X309771760Y-145302324D01*
X309771760Y-145070476D01*
X309726529Y-144843082D01*
X309637804Y-144628881D01*
X309508996Y-144436106D01*
X309345054Y-144272164D01*
X309152279Y-144143356D01*
X308938078Y-144054631D01*
X308710684Y-144009400D01*
X308478836Y-144009400D01*
X308251442Y-144054631D01*
X308037241Y-144143356D01*
X307844466Y-144272164D01*
X307680524Y-144436106D01*
X307551716Y-144628881D01*
X307462991Y-144843082D01*
X307417760Y-145070476D01*
X304002000Y-145070476D01*
X304002000Y-139990476D01*
X307417760Y-139990476D01*
X307417760Y-140222324D01*
X307462991Y-140449718D01*
X307551716Y-140663919D01*
X307680524Y-140856694D01*
X307844466Y-141020636D01*
X308037241Y-141149444D01*
X308251442Y-141238169D01*
X308478836Y-141283400D01*
X308710684Y-141283400D01*
X308938078Y-141238169D01*
X309152279Y-141149444D01*
X309345054Y-141020636D01*
X309508996Y-140856694D01*
X309637804Y-140663919D01*
X309726529Y-140449718D01*
X309771760Y-140222324D01*
X309771760Y-139990476D01*
X309726529Y-139763082D01*
X309637804Y-139548881D01*
X309508996Y-139356106D01*
X309345054Y-139192164D01*
X309152279Y-139063356D01*
X308938078Y-138974631D01*
X308710684Y-138929400D01*
X308478836Y-138929400D01*
X308251442Y-138974631D01*
X308037241Y-139063356D01*
X307844466Y-139192164D01*
X307680524Y-139356106D01*
X307551716Y-139548881D01*
X307462991Y-139763082D01*
X307417760Y-139990476D01*
X304002000Y-139990476D01*
X304002000Y-137450476D01*
X307417760Y-137450476D01*
X307417760Y-137682324D01*
X307462991Y-137909718D01*
X307551716Y-138123919D01*
X307680524Y-138316694D01*
X307844466Y-138480636D01*
X308037241Y-138609444D01*
X308251442Y-138698169D01*
X308478836Y-138743400D01*
X308710684Y-138743400D01*
X308938078Y-138698169D01*
X309152279Y-138609444D01*
X309345054Y-138480636D01*
X309508996Y-138316694D01*
X309637804Y-138123919D01*
X309726529Y-137909718D01*
X309771760Y-137682324D01*
X309771760Y-137450476D01*
X309726529Y-137223082D01*
X309637804Y-137008881D01*
X309508996Y-136816106D01*
X309345054Y-136652164D01*
X309152279Y-136523356D01*
X308938078Y-136434631D01*
X308710684Y-136389400D01*
X308478836Y-136389400D01*
X308251442Y-136434631D01*
X308037241Y-136523356D01*
X307844466Y-136652164D01*
X307680524Y-136816106D01*
X307551716Y-137008881D01*
X307462991Y-137223082D01*
X307417760Y-137450476D01*
X304002000Y-137450476D01*
X304002000Y-134176400D01*
X307416178Y-134176400D01*
X307416178Y-135876400D01*
X307422492Y-135940503D01*
X307441190Y-136002143D01*
X307471554Y-136058950D01*
X307512417Y-136108743D01*
X307562210Y-136149606D01*
X307619017Y-136179970D01*
X307680657Y-136198668D01*
X307744760Y-136204982D01*
X309444760Y-136204982D01*
X309508863Y-136198668D01*
X309570503Y-136179970D01*
X309627310Y-136149606D01*
X309677103Y-136108743D01*
X309717966Y-136058950D01*
X309748330Y-136002143D01*
X309767028Y-135940503D01*
X309773342Y-135876400D01*
X309773342Y-134176400D01*
X309767028Y-134112297D01*
X309748330Y-134050657D01*
X309717966Y-133993850D01*
X309677103Y-133944057D01*
X309627310Y-133903194D01*
X309570503Y-133872830D01*
X309508863Y-133854132D01*
X309444760Y-133847818D01*
X307744760Y-133847818D01*
X307680657Y-133854132D01*
X307619017Y-133872830D01*
X307562210Y-133903194D01*
X307512417Y-133944057D01*
X307471554Y-133993850D01*
X307441190Y-134050657D01*
X307422492Y-134112297D01*
X307416178Y-134176400D01*
X304002000Y-134176400D01*
X304002000Y-96257586D01*
X306121180Y-96257586D01*
X306121180Y-96381094D01*
X306145275Y-96502229D01*
X306192540Y-96616336D01*
X306261157Y-96719029D01*
X306348491Y-96806363D01*
X306451184Y-96874980D01*
X306565291Y-96922245D01*
X306686426Y-96946340D01*
X306809934Y-96946340D01*
X306931069Y-96922245D01*
X307045176Y-96874980D01*
X307147869Y-96806363D01*
X307207892Y-96746340D01*
X308933512Y-96746340D01*
X309595241Y-97408070D01*
X309595240Y-97825588D01*
X309535217Y-97885611D01*
X309466600Y-97988304D01*
X309419335Y-98102411D01*
X309395240Y-98223546D01*
X309395240Y-98347054D01*
X309419335Y-98468189D01*
X309466600Y-98582296D01*
X309535217Y-98684989D01*
X309622551Y-98772323D01*
X309725244Y-98840940D01*
X309839351Y-98888205D01*
X309960486Y-98912300D01*
X310083994Y-98912300D01*
X310205129Y-98888205D01*
X310319236Y-98840940D01*
X310421929Y-98772323D01*
X310509263Y-98684989D01*
X310577880Y-98582296D01*
X310625145Y-98468189D01*
X310649240Y-98347054D01*
X310649240Y-98223546D01*
X310625145Y-98102411D01*
X310577880Y-97988304D01*
X310509263Y-97885611D01*
X310449240Y-97825588D01*
X310449240Y-97252167D01*
X310451305Y-97231200D01*
X310449240Y-97210233D01*
X310449240Y-97210222D01*
X310443062Y-97147493D01*
X310418645Y-97067004D01*
X310399042Y-97030329D01*
X310378996Y-96992823D01*
X310339008Y-96944099D01*
X310339004Y-96944095D01*
X310325635Y-96927805D01*
X310309345Y-96914436D01*
X309427148Y-96032240D01*
X309413775Y-96015945D01*
X309348756Y-95962585D01*
X309274576Y-95922935D01*
X309194087Y-95898518D01*
X309131358Y-95892340D01*
X309131347Y-95892340D01*
X309110380Y-95890275D01*
X309089413Y-95892340D01*
X307207892Y-95892340D01*
X307147869Y-95832317D01*
X307045176Y-95763700D01*
X306931069Y-95716435D01*
X306809934Y-95692340D01*
X306686426Y-95692340D01*
X306565291Y-95716435D01*
X306451184Y-95763700D01*
X306348491Y-95832317D01*
X306261157Y-95919651D01*
X306192540Y-96022344D01*
X306145275Y-96136451D01*
X306121180Y-96257586D01*
X304002000Y-96257586D01*
X304002000Y-54355206D01*
X319987040Y-54355206D01*
X319987040Y-54478714D01*
X320011135Y-54599849D01*
X320057424Y-54711600D01*
X320011135Y-54823351D01*
X319987040Y-54944486D01*
X319987040Y-55067994D01*
X320011135Y-55189129D01*
X320058400Y-55303236D01*
X320080446Y-55336230D01*
X320046695Y-55417711D01*
X320022600Y-55538846D01*
X320022600Y-55662354D01*
X320046695Y-55783489D01*
X320087560Y-55882145D01*
X320087561Y-59598247D01*
X320068560Y-59626684D01*
X320021295Y-59740791D01*
X319997200Y-59861926D01*
X319997200Y-59985434D01*
X320021295Y-60106569D01*
X320068560Y-60220676D01*
X320087561Y-60249113D01*
X320087561Y-60997770D01*
X320073640Y-61018604D01*
X320026375Y-61132711D01*
X320002280Y-61253846D01*
X320002280Y-61377354D01*
X320026375Y-61498489D01*
X320073640Y-61612596D01*
X320077157Y-61617860D01*
X320073640Y-61623124D01*
X320026375Y-61737231D01*
X320002280Y-61858366D01*
X320002280Y-61981874D01*
X320026375Y-62103009D01*
X320073640Y-62217116D01*
X320142257Y-62319809D01*
X320229591Y-62407143D01*
X320332284Y-62475760D01*
X320446391Y-62523025D01*
X320567526Y-62547120D01*
X320691034Y-62547120D01*
X320812169Y-62523025D01*
X320824675Y-62517845D01*
X320969640Y-62532123D01*
X321099036Y-62519378D01*
X321161886Y-62531880D01*
X321285394Y-62531880D01*
X321406529Y-62507785D01*
X321520636Y-62460520D01*
X321623329Y-62391903D01*
X321710663Y-62304569D01*
X321779280Y-62201876D01*
X321826545Y-62087769D01*
X321850640Y-61966634D01*
X321850640Y-61843126D01*
X321838138Y-61780276D01*
X321846640Y-61693959D01*
X321846640Y-61693949D01*
X321850882Y-61650879D01*
X321846640Y-61607810D01*
X321846640Y-61531602D01*
X321841560Y-61480024D01*
X321841560Y-61052657D01*
X334788640Y-61052657D01*
X334788640Y-61176165D01*
X334812735Y-61297300D01*
X334860000Y-61411407D01*
X334928617Y-61514100D01*
X334988640Y-61574123D01*
X334988641Y-65007767D01*
X334930137Y-65066271D01*
X334861520Y-65168964D01*
X334814255Y-65283071D01*
X334790160Y-65404206D01*
X334790160Y-65527714D01*
X334814255Y-65648849D01*
X334861520Y-65762956D01*
X334930137Y-65865649D01*
X335017471Y-65952983D01*
X335120164Y-66021600D01*
X335234271Y-66068865D01*
X335355406Y-66092960D01*
X335478914Y-66092960D01*
X335600049Y-66068865D01*
X335714156Y-66021600D01*
X335816849Y-65952983D01*
X335904183Y-65865649D01*
X335972800Y-65762956D01*
X336020065Y-65648849D01*
X336044160Y-65527714D01*
X336044160Y-65503270D01*
X336100166Y-65514410D01*
X336223674Y-65514410D01*
X336344809Y-65490315D01*
X336458916Y-65443050D01*
X336561609Y-65374433D01*
X336648943Y-65287099D01*
X336717560Y-65184406D01*
X336764825Y-65070299D01*
X336788920Y-64949164D01*
X336788920Y-64825656D01*
X336764825Y-64704521D01*
X336717560Y-64590414D01*
X336648943Y-64487721D01*
X336588920Y-64427698D01*
X336588920Y-63254358D01*
X340428515Y-63254358D01*
X340428515Y-63377866D01*
X340452610Y-63499001D01*
X340499875Y-63613108D01*
X340568492Y-63715801D01*
X340628516Y-63775825D01*
X340628515Y-65302308D01*
X340626450Y-65323275D01*
X340628515Y-65344242D01*
X340628515Y-65344252D01*
X340634693Y-65406981D01*
X340659110Y-65487470D01*
X340664911Y-65498323D01*
X340698760Y-65561651D01*
X340733465Y-65603939D01*
X340752120Y-65626670D01*
X340768415Y-65640043D01*
X342924793Y-67796423D01*
X342938157Y-67812707D01*
X342954441Y-67826071D01*
X342954450Y-67826080D01*
X343003175Y-67866067D01*
X343042825Y-67887260D01*
X343077356Y-67905717D01*
X343157845Y-67930134D01*
X343220574Y-67936312D01*
X343220584Y-67936312D01*
X343241551Y-67938377D01*
X343262518Y-67936312D01*
X348151400Y-67936312D01*
X348211423Y-67996335D01*
X348314116Y-68064952D01*
X348428223Y-68112217D01*
X348549358Y-68136312D01*
X348672866Y-68136312D01*
X348794001Y-68112217D01*
X348908108Y-68064952D01*
X349010801Y-67996335D01*
X349098135Y-67909001D01*
X349166752Y-67806308D01*
X349214017Y-67692201D01*
X349238112Y-67571066D01*
X349238112Y-67447558D01*
X349214017Y-67326423D01*
X349166752Y-67212316D01*
X349098135Y-67109623D01*
X349010801Y-67022289D01*
X348908108Y-66953672D01*
X348794001Y-66906407D01*
X348672866Y-66882312D01*
X348549358Y-66882312D01*
X348428223Y-66906407D01*
X348314116Y-66953672D01*
X348211423Y-67022289D01*
X348151400Y-67082312D01*
X343418422Y-67082312D01*
X342929036Y-66592926D01*
X351269680Y-66592926D01*
X351269680Y-66716434D01*
X351293775Y-66837569D01*
X351341040Y-66951676D01*
X351409657Y-67054369D01*
X351496991Y-67141703D01*
X351599684Y-67210320D01*
X351713791Y-67257585D01*
X351834926Y-67281680D01*
X351958434Y-67281680D01*
X352079569Y-67257585D01*
X352193676Y-67210320D01*
X352296369Y-67141703D01*
X352383703Y-67054369D01*
X352452320Y-66951676D01*
X352499585Y-66837569D01*
X352523680Y-66716434D01*
X352523680Y-66592926D01*
X352499585Y-66471791D01*
X352452320Y-66357684D01*
X352451343Y-66356221D01*
X352457400Y-66347156D01*
X352504665Y-66233049D01*
X352528760Y-66111914D01*
X352528760Y-65988406D01*
X352504665Y-65867271D01*
X352457400Y-65753164D01*
X352388783Y-65650471D01*
X352354160Y-65615848D01*
X352354160Y-60253312D01*
X352414183Y-60193289D01*
X352482800Y-60090596D01*
X352530065Y-59976489D01*
X352554160Y-59855354D01*
X352554160Y-59731846D01*
X352530065Y-59610711D01*
X352526808Y-59602846D01*
X355442900Y-59602846D01*
X355442900Y-59726354D01*
X355466995Y-59847489D01*
X355514260Y-59961596D01*
X355582877Y-60064289D01*
X355642901Y-60124313D01*
X355642900Y-62608488D01*
X355582877Y-62668511D01*
X355514260Y-62771204D01*
X355466995Y-62885311D01*
X355442900Y-63006446D01*
X355442900Y-63129954D01*
X355466995Y-63251089D01*
X355514260Y-63365196D01*
X355582877Y-63467889D01*
X355670211Y-63555223D01*
X355772904Y-63623840D01*
X355887011Y-63671105D01*
X356008146Y-63695200D01*
X356131654Y-63695200D01*
X356252789Y-63671105D01*
X356366896Y-63623840D01*
X356469589Y-63555223D01*
X356556923Y-63467889D01*
X356625540Y-63365196D01*
X356672805Y-63251089D01*
X356696900Y-63129954D01*
X356696900Y-63006446D01*
X356672805Y-62885311D01*
X356625540Y-62771204D01*
X356556923Y-62668511D01*
X356496900Y-62608488D01*
X356496900Y-60124312D01*
X356556923Y-60064289D01*
X356625540Y-59961596D01*
X356672805Y-59847489D01*
X356696900Y-59726354D01*
X356696900Y-59602846D01*
X356672805Y-59481711D01*
X356625540Y-59367604D01*
X356556923Y-59264911D01*
X356469589Y-59177577D01*
X356366896Y-59108960D01*
X356252789Y-59061695D01*
X356131654Y-59037600D01*
X356008146Y-59037600D01*
X355887011Y-59061695D01*
X355772904Y-59108960D01*
X355670211Y-59177577D01*
X355582877Y-59264911D01*
X355514260Y-59367604D01*
X355466995Y-59481711D01*
X355442900Y-59602846D01*
X352526808Y-59602846D01*
X352482800Y-59496604D01*
X352414183Y-59393911D01*
X352326849Y-59306577D01*
X352224156Y-59237960D01*
X352110049Y-59190695D01*
X351988914Y-59166600D01*
X351865406Y-59166600D01*
X351744271Y-59190695D01*
X351630164Y-59237960D01*
X351527471Y-59306577D01*
X351440137Y-59393911D01*
X351371520Y-59496604D01*
X351324255Y-59610711D01*
X351300160Y-59731846D01*
X351300160Y-59855354D01*
X351324255Y-59976489D01*
X351371520Y-60090596D01*
X351440137Y-60193289D01*
X351500160Y-60253312D01*
X351500161Y-65565047D01*
X351414737Y-65650471D01*
X351346120Y-65753164D01*
X351298855Y-65867271D01*
X351274760Y-65988406D01*
X351274760Y-66111914D01*
X351298855Y-66233049D01*
X351346120Y-66347156D01*
X351347097Y-66348619D01*
X351341040Y-66357684D01*
X351293775Y-66471791D01*
X351269680Y-66592926D01*
X342929036Y-66592926D01*
X341482515Y-65146407D01*
X341482515Y-63775824D01*
X341542538Y-63715801D01*
X341611155Y-63613108D01*
X341658420Y-63499001D01*
X341682515Y-63377866D01*
X341682515Y-63254358D01*
X341658420Y-63133223D01*
X341611155Y-63019116D01*
X341542538Y-62916423D01*
X341455204Y-62829089D01*
X341352511Y-62760472D01*
X341238404Y-62713207D01*
X341117269Y-62689112D01*
X340993761Y-62689112D01*
X340872626Y-62713207D01*
X340758519Y-62760472D01*
X340655826Y-62829089D01*
X340568492Y-62916423D01*
X340499875Y-63019116D01*
X340452610Y-63133223D01*
X340428515Y-63254358D01*
X336588920Y-63254358D01*
X336588920Y-62069943D01*
X337008364Y-61650500D01*
X337093249Y-61650500D01*
X337214384Y-61626405D01*
X337328491Y-61579140D01*
X337431184Y-61510523D01*
X337518518Y-61423189D01*
X337587135Y-61320496D01*
X337634400Y-61206389D01*
X337658495Y-61085254D01*
X337658495Y-60961746D01*
X337634400Y-60840611D01*
X337587135Y-60726504D01*
X337518518Y-60623811D01*
X337431184Y-60536477D01*
X337328491Y-60467860D01*
X337214384Y-60420595D01*
X337093249Y-60396500D01*
X336969741Y-60396500D01*
X336848606Y-60420595D01*
X336734499Y-60467860D01*
X336631806Y-60536477D01*
X336544472Y-60623811D01*
X336475855Y-60726504D01*
X336428590Y-60840611D01*
X336404495Y-60961746D01*
X336404495Y-61046631D01*
X335874815Y-61576312D01*
X335858526Y-61589680D01*
X335845157Y-61605970D01*
X335845152Y-61605975D01*
X335842640Y-61609036D01*
X335842640Y-61574123D01*
X335902663Y-61514100D01*
X335971280Y-61411407D01*
X336018545Y-61297300D01*
X336042640Y-61176165D01*
X336042640Y-61052657D01*
X336018545Y-60931522D01*
X335971280Y-60817415D01*
X335902663Y-60714722D01*
X335815329Y-60627388D01*
X335712636Y-60558771D01*
X335598529Y-60511506D01*
X335477394Y-60487411D01*
X335353886Y-60487411D01*
X335232751Y-60511506D01*
X335118644Y-60558771D01*
X335015951Y-60627388D01*
X334928617Y-60714722D01*
X334860000Y-60817415D01*
X334812735Y-60931522D01*
X334788640Y-61052657D01*
X321841560Y-61052657D01*
X321841560Y-55677384D01*
X321845560Y-55657274D01*
X321845560Y-55533766D01*
X321841560Y-55513656D01*
X321841560Y-54419399D01*
X321845803Y-54376320D01*
X321828870Y-54204398D01*
X321778722Y-54039083D01*
X321697287Y-53886728D01*
X321587693Y-53753187D01*
X321454152Y-53643593D01*
X321301797Y-53562158D01*
X321136482Y-53512010D01*
X321007639Y-53499320D01*
X320964560Y-53495077D01*
X320921481Y-53499320D01*
X320792638Y-53512010D01*
X320627323Y-53562158D01*
X320474968Y-53643593D01*
X320341427Y-53753187D01*
X320231833Y-53886728D01*
X320202292Y-53941996D01*
X320127017Y-54017271D01*
X320058400Y-54119964D01*
X320011135Y-54234071D01*
X319987040Y-54355206D01*
X304002000Y-54355206D01*
X304002000Y-51573963D01*
X325973000Y-51573963D01*
X325973000Y-51746717D01*
X326006703Y-51916151D01*
X326072813Y-52075755D01*
X326168790Y-52219395D01*
X326290945Y-52341550D01*
X326434585Y-52437527D01*
X326594189Y-52503637D01*
X326763623Y-52537340D01*
X326936377Y-52537340D01*
X327105811Y-52503637D01*
X327265415Y-52437527D01*
X327409055Y-52341550D01*
X327531210Y-52219395D01*
X327627187Y-52075755D01*
X327693297Y-51916151D01*
X327727000Y-51746717D01*
X327727000Y-51573963D01*
X330473000Y-51573963D01*
X330473000Y-51746717D01*
X330506703Y-51916151D01*
X330572813Y-52075755D01*
X330668790Y-52219395D01*
X330790945Y-52341550D01*
X330934585Y-52437527D01*
X331094189Y-52503637D01*
X331263623Y-52537340D01*
X331436377Y-52537340D01*
X331605811Y-52503637D01*
X331765415Y-52437527D01*
X331909055Y-52341550D01*
X332031210Y-52219395D01*
X332127187Y-52075755D01*
X332193297Y-51916151D01*
X332227000Y-51746717D01*
X332227000Y-51573963D01*
X332193297Y-51404529D01*
X332127187Y-51244925D01*
X332031210Y-51101285D01*
X331909055Y-50979130D01*
X331765415Y-50883153D01*
X331605811Y-50817043D01*
X331436377Y-50783340D01*
X331263623Y-50783340D01*
X331094189Y-50817043D01*
X330934585Y-50883153D01*
X330790945Y-50979130D01*
X330668790Y-51101285D01*
X330572813Y-51244925D01*
X330506703Y-51404529D01*
X330473000Y-51573963D01*
X327727000Y-51573963D01*
X327693297Y-51404529D01*
X327627187Y-51244925D01*
X327531210Y-51101285D01*
X327409055Y-50979130D01*
X327265415Y-50883153D01*
X327105811Y-50817043D01*
X326936377Y-50783340D01*
X326763623Y-50783340D01*
X326594189Y-50817043D01*
X326434585Y-50883153D01*
X326290945Y-50979130D01*
X326168790Y-51101285D01*
X326072813Y-51244925D01*
X326006703Y-51404529D01*
X325973000Y-51573963D01*
X304002000Y-51573963D01*
X304002000Y-50164828D01*
X343674120Y-50164828D01*
X343674120Y-50327732D01*
X343705902Y-50487507D01*
X343768243Y-50638011D01*
X343858748Y-50773461D01*
X343973939Y-50888652D01*
X344109389Y-50979157D01*
X344259893Y-51041498D01*
X344419668Y-51073280D01*
X344582572Y-51073280D01*
X344742347Y-51041498D01*
X344892851Y-50979157D01*
X345028301Y-50888652D01*
X345143492Y-50773461D01*
X345233997Y-50638011D01*
X345296338Y-50487507D01*
X345328120Y-50327732D01*
X345328120Y-50164828D01*
X345325182Y-50150054D01*
X351024120Y-50150054D01*
X351024120Y-50342506D01*
X351061666Y-50531260D01*
X351135314Y-50709063D01*
X351242235Y-50869081D01*
X351378319Y-51005165D01*
X351538337Y-51112086D01*
X351716140Y-51185734D01*
X351904894Y-51223280D01*
X352097346Y-51223280D01*
X352286100Y-51185734D01*
X352463903Y-51112086D01*
X352623921Y-51005165D01*
X352760005Y-50869081D01*
X352866926Y-50709063D01*
X352940574Y-50531260D01*
X352978120Y-50342506D01*
X352978120Y-50150054D01*
X352940574Y-49961300D01*
X352866926Y-49783497D01*
X352760005Y-49623479D01*
X352623921Y-49487395D01*
X352463903Y-49380474D01*
X352286100Y-49306826D01*
X352097346Y-49269280D01*
X351904894Y-49269280D01*
X351716140Y-49306826D01*
X351538337Y-49380474D01*
X351378319Y-49487395D01*
X351242235Y-49623479D01*
X351135314Y-49783497D01*
X351061666Y-49961300D01*
X351024120Y-50150054D01*
X345325182Y-50150054D01*
X345296338Y-50005053D01*
X345233997Y-49854549D01*
X345143492Y-49719099D01*
X345028301Y-49603908D01*
X344892851Y-49513403D01*
X344742347Y-49451062D01*
X344582572Y-49419280D01*
X344419668Y-49419280D01*
X344259893Y-49451062D01*
X344109389Y-49513403D01*
X343973939Y-49603908D01*
X343858748Y-49719099D01*
X343768243Y-49854549D01*
X343705902Y-50005053D01*
X343674120Y-50164828D01*
X304002000Y-50164828D01*
X304002000Y-48208397D01*
X311083000Y-48208397D01*
X311083000Y-48351603D01*
X311110938Y-48492058D01*
X311165741Y-48624364D01*
X311245302Y-48743436D01*
X311346564Y-48844698D01*
X311465636Y-48924259D01*
X311597942Y-48979062D01*
X311738397Y-49007000D01*
X311881603Y-49007000D01*
X312022058Y-48979062D01*
X312154364Y-48924259D01*
X312273436Y-48844698D01*
X312374698Y-48743436D01*
X312454259Y-48624364D01*
X312509062Y-48492058D01*
X312537000Y-48351603D01*
X312537000Y-48208397D01*
X316083000Y-48208397D01*
X316083000Y-48351603D01*
X316110938Y-48492058D01*
X316165741Y-48624364D01*
X316245302Y-48743436D01*
X316346564Y-48844698D01*
X316465636Y-48924259D01*
X316597942Y-48979062D01*
X316738397Y-49007000D01*
X316881603Y-49007000D01*
X317022058Y-48979062D01*
X317154364Y-48924259D01*
X317273436Y-48844698D01*
X317374698Y-48743436D01*
X317454259Y-48624364D01*
X317509062Y-48492058D01*
X317537000Y-48351603D01*
X317537000Y-48208397D01*
X317509062Y-48067942D01*
X317454259Y-47935636D01*
X317374698Y-47816564D01*
X317273436Y-47715302D01*
X317154364Y-47635741D01*
X317022058Y-47580938D01*
X316881603Y-47553000D01*
X316738397Y-47553000D01*
X316597942Y-47580938D01*
X316465636Y-47635741D01*
X316346564Y-47715302D01*
X316245302Y-47816564D01*
X316165741Y-47935636D01*
X316110938Y-48067942D01*
X316083000Y-48208397D01*
X312537000Y-48208397D01*
X312509062Y-48067942D01*
X312454259Y-47935636D01*
X312374698Y-47816564D01*
X312273436Y-47715302D01*
X312154364Y-47635741D01*
X312022058Y-47580938D01*
X311881603Y-47553000D01*
X311738397Y-47553000D01*
X311597942Y-47580938D01*
X311465636Y-47635741D01*
X311346564Y-47715302D01*
X311245302Y-47816564D01*
X311165741Y-47935636D01*
X311110938Y-48067942D01*
X311083000Y-48208397D01*
X304002000Y-48208397D01*
X304002000Y-42802000D01*
X359298000Y-42802000D01*
X359298001Y-79205880D01*
G37*
X359298001Y-79205880D02*
X352411754Y-79205880D01*
X352394421Y-79204178D01*
X352363068Y-79207275D01*
X352325516Y-79210973D01*
X352325465Y-79210988D01*
X352325419Y-79210993D01*
X352295385Y-79220113D01*
X352259164Y-79231101D01*
X352259115Y-79231127D01*
X352259073Y-79231140D01*
X352232047Y-79245595D01*
X352198013Y-79263787D01*
X352197971Y-79263822D01*
X352197931Y-79263843D01*
X352173650Y-79283781D01*
X352144414Y-79307774D01*
X352144380Y-79307815D01*
X352144344Y-79307845D01*
X352123582Y-79333159D01*
X352100427Y-79361373D01*
X352100403Y-79361419D01*
X352100372Y-79361456D01*
X352084442Y-79391279D01*
X352067741Y-79422524D01*
X352067726Y-79422572D01*
X352067703Y-79422616D01*
X352057956Y-79454780D01*
X352047613Y-79488876D01*
X352047608Y-79488928D01*
X352047594Y-79488974D01*
X352044516Y-79520322D01*
X352040817Y-79557880D01*
X352042526Y-79575230D01*
X352047595Y-97615276D01*
X352045897Y-97632520D01*
X352047605Y-97649862D01*
X352047605Y-97649911D01*
X352049210Y-97666163D01*
X352052693Y-97701524D01*
X352052708Y-97701575D01*
X352052713Y-97701621D01*
X352061968Y-97732100D01*
X352072821Y-97767876D01*
X352072847Y-97767924D01*
X352072860Y-97767968D01*
X352087752Y-97795809D01*
X352105507Y-97829027D01*
X352105542Y-97829069D01*
X352105563Y-97829109D01*
X352125564Y-97853467D01*
X352149494Y-97882626D01*
X352149535Y-97882660D01*
X352149565Y-97882696D01*
X352174879Y-97903458D01*
X352203093Y-97926613D01*
X352203139Y-97926637D01*
X352203176Y-97926668D01*
X352232999Y-97942598D01*
X352264244Y-97959299D01*
X352264292Y-97959314D01*
X352264336Y-97959337D01*
X352296500Y-97969084D01*
X352330596Y-97979427D01*
X352330648Y-97979432D01*
X352330694Y-97979446D01*
X352364381Y-97982754D01*
X352382308Y-97984520D01*
X352382359Y-97984520D01*
X352399699Y-97986223D01*
X352416939Y-97984520D01*
X359298000Y-97984520D01*
X359298001Y-147073000D01*
X350191131Y-147073000D01*
X350240596Y-141174265D01*
X350237817Y-141146760D01*
X350230272Y-141123034D01*
X350218243Y-141101236D01*
X350202193Y-141082204D01*
X350182739Y-141066669D01*
X350160627Y-141055228D01*
X350136708Y-141048320D01*
X350111901Y-141046211D01*
X346443796Y-141095283D01*
X346445904Y-140547239D01*
X346632445Y-140319938D01*
X346802095Y-140002546D01*
X346906565Y-139658155D01*
X346933000Y-139389755D01*
X346933000Y-138038890D01*
X347561464Y-138028352D01*
X347671252Y-138138140D01*
X347704981Y-138179239D01*
X347746078Y-138212966D01*
X347868975Y-138313826D01*
X348056075Y-138413833D01*
X348259090Y-138475417D01*
X348470220Y-138496211D01*
X348523129Y-138491000D01*
X351906409Y-138491000D01*
X352064629Y-138475417D01*
X352267644Y-138413833D01*
X352454744Y-138313826D01*
X352618739Y-138179239D01*
X352753326Y-138015244D01*
X352853333Y-137828144D01*
X352914917Y-137625129D01*
X352935711Y-137414000D01*
X352914917Y-137202871D01*
X352853333Y-136999856D01*
X352753326Y-136812756D01*
X352618739Y-136648761D01*
X352454744Y-136514174D01*
X352267644Y-136414167D01*
X352064629Y-136352583D01*
X351906409Y-136337000D01*
X350243140Y-136337000D01*
X350243140Y-130860800D01*
X350240375Y-130834446D01*
X350232847Y-130810715D01*
X350220833Y-130788909D01*
X350204796Y-130769866D01*
X350185352Y-130754317D01*
X350163249Y-130742860D01*
X350139335Y-130735936D01*
X350114529Y-130733810D01*
X344772020Y-130801580D01*
X344772020Y-116994007D01*
X346080320Y-115685708D01*
X346121419Y-115651979D01*
X346256006Y-115487984D01*
X346356013Y-115300884D01*
X346395040Y-115172230D01*
X346395040Y-117338498D01*
X346339151Y-117349615D01*
X346225044Y-117396880D01*
X346122351Y-117465497D01*
X346035017Y-117552831D01*
X345966400Y-117655524D01*
X345919135Y-117769631D01*
X345895040Y-117890766D01*
X345895040Y-118014274D01*
X345919135Y-118135409D01*
X345951525Y-118213605D01*
X345876871Y-118228455D01*
X345762764Y-118275720D01*
X345660071Y-118344337D01*
X345572737Y-118431671D01*
X345504120Y-118534364D01*
X345456855Y-118648471D01*
X345432760Y-118769606D01*
X345432760Y-118893114D01*
X345456855Y-119014249D01*
X345504120Y-119128356D01*
X345572737Y-119231049D01*
X345660071Y-119318383D01*
X345762764Y-119387000D01*
X345876871Y-119434265D01*
X345984943Y-119455762D01*
X345983944Y-119456761D01*
X345811361Y-119715051D01*
X345692484Y-120002046D01*
X345631880Y-120306719D01*
X345631880Y-120617361D01*
X345692484Y-120922034D01*
X345811361Y-121209029D01*
X345983944Y-121467319D01*
X346203601Y-121686976D01*
X346461891Y-121859559D01*
X346748886Y-121978436D01*
X347053559Y-122039040D01*
X347364201Y-122039040D01*
X347668874Y-121978436D01*
X347955869Y-121859559D01*
X348214159Y-121686976D01*
X348433816Y-121467319D01*
X348606399Y-121209029D01*
X348725276Y-120922034D01*
X348785880Y-120617361D01*
X348785880Y-120306719D01*
X348725276Y-120002046D01*
X348606399Y-119715051D01*
X348433816Y-119456761D01*
X348214159Y-119237104D01*
X347955869Y-119064521D01*
X347668874Y-118945644D01*
X347364201Y-118885040D01*
X347053559Y-118885040D01*
X347042091Y-118887321D01*
X347510185Y-118419228D01*
X347526475Y-118405859D01*
X347539844Y-118389569D01*
X347539848Y-118389565D01*
X347579836Y-118340841D01*
X347619485Y-118266661D01*
X347629712Y-118232948D01*
X347643902Y-118186171D01*
X347650080Y-118123442D01*
X347650080Y-118123431D01*
X347652145Y-118102464D01*
X347650080Y-118081497D01*
X347650080Y-112106356D01*
X355466940Y-112106356D01*
X355466940Y-112338204D01*
X355512171Y-112565598D01*
X355600896Y-112779799D01*
X355729704Y-112972574D01*
X355893646Y-113136516D01*
X356086421Y-113265324D01*
X356300622Y-113354049D01*
X356528016Y-113399280D01*
X356759864Y-113399280D01*
X356987258Y-113354049D01*
X357201459Y-113265324D01*
X357394234Y-113136516D01*
X357558176Y-112972574D01*
X357686984Y-112779799D01*
X357775709Y-112565598D01*
X357820940Y-112338204D01*
X357820940Y-112106356D01*
X357775709Y-111878962D01*
X357686984Y-111664761D01*
X357558176Y-111471986D01*
X357394234Y-111308044D01*
X357201459Y-111179236D01*
X356987258Y-111090511D01*
X356759864Y-111045280D01*
X356528016Y-111045280D01*
X356300622Y-111090511D01*
X356086421Y-111179236D01*
X355893646Y-111308044D01*
X355729704Y-111471986D01*
X355600896Y-111664761D01*
X355512171Y-111878962D01*
X355466940Y-112106356D01*
X347650080Y-112106356D01*
X347650080Y-109996460D01*
X348156810Y-110503189D01*
X348171739Y-110521381D01*
X348244371Y-110580989D01*
X348327237Y-110625282D01*
X348417152Y-110652557D01*
X348487237Y-110659460D01*
X348487245Y-110659460D01*
X348510660Y-110661766D01*
X348534075Y-110659460D01*
X351810762Y-110659460D01*
X351795660Y-110735386D01*
X351795660Y-110858894D01*
X351819755Y-110980029D01*
X351867020Y-111094136D01*
X351882417Y-111117180D01*
X351867020Y-111140224D01*
X351819755Y-111254331D01*
X351795660Y-111375466D01*
X351795660Y-111498974D01*
X351819755Y-111620109D01*
X351867020Y-111734216D01*
X351935637Y-111836909D01*
X352022971Y-111924243D01*
X352125664Y-111992860D01*
X352239771Y-112040125D01*
X352360906Y-112064220D01*
X352484414Y-112064220D01*
X352605549Y-112040125D01*
X352719656Y-111992860D01*
X352822349Y-111924243D01*
X352909683Y-111836909D01*
X352978300Y-111734216D01*
X353025565Y-111620109D01*
X353049660Y-111498974D01*
X353049660Y-111375466D01*
X353025565Y-111254331D01*
X352978300Y-111140224D01*
X352962903Y-111117180D01*
X352978300Y-111094136D01*
X353025565Y-110980029D01*
X353049660Y-110858894D01*
X353049660Y-110735386D01*
X353025565Y-110614251D01*
X352978300Y-110500144D01*
X352971388Y-110489800D01*
X352978300Y-110479456D01*
X353025565Y-110365349D01*
X353049660Y-110244214D01*
X353049660Y-110120706D01*
X353025565Y-109999571D01*
X352978300Y-109885464D01*
X352909683Y-109782771D01*
X352822349Y-109695437D01*
X352719656Y-109626820D01*
X352605549Y-109579555D01*
X352539193Y-109566356D01*
X355466940Y-109566356D01*
X355466940Y-109798204D01*
X355512171Y-110025598D01*
X355600896Y-110239799D01*
X355729704Y-110432574D01*
X355893646Y-110596516D01*
X356086421Y-110725324D01*
X356300622Y-110814049D01*
X356528016Y-110859280D01*
X356759864Y-110859280D01*
X356987258Y-110814049D01*
X357201459Y-110725324D01*
X357394234Y-110596516D01*
X357558176Y-110432574D01*
X357686984Y-110239799D01*
X357775709Y-110025598D01*
X357820940Y-109798204D01*
X357820940Y-109566356D01*
X357775709Y-109338962D01*
X357686984Y-109124761D01*
X357558176Y-108931986D01*
X357394234Y-108768044D01*
X357201459Y-108639236D01*
X356987258Y-108550511D01*
X356759864Y-108505280D01*
X356528016Y-108505280D01*
X356300622Y-108550511D01*
X356086421Y-108639236D01*
X355893646Y-108768044D01*
X355729704Y-108931986D01*
X355600896Y-109124761D01*
X355512171Y-109338962D01*
X355466940Y-109566356D01*
X352539193Y-109566356D01*
X352484414Y-109555460D01*
X352360906Y-109555460D01*
X352239771Y-109579555D01*
X352125664Y-109626820D01*
X352022971Y-109695437D01*
X352012948Y-109705460D01*
X348708240Y-109705460D01*
X345100781Y-106098002D01*
X345100781Y-105795319D01*
X347084180Y-105795319D01*
X347084180Y-106105961D01*
X347144784Y-106410634D01*
X347263661Y-106697629D01*
X347436244Y-106955919D01*
X347655901Y-107175576D01*
X347914191Y-107348159D01*
X348201186Y-107467036D01*
X348505859Y-107527640D01*
X348816501Y-107527640D01*
X349121174Y-107467036D01*
X349408169Y-107348159D01*
X349666459Y-107175576D01*
X349815679Y-107026356D01*
X355466940Y-107026356D01*
X355466940Y-107258204D01*
X355512171Y-107485598D01*
X355600896Y-107699799D01*
X355729704Y-107892574D01*
X355893646Y-108056516D01*
X356086421Y-108185324D01*
X356300622Y-108274049D01*
X356528016Y-108319280D01*
X356759864Y-108319280D01*
X356987258Y-108274049D01*
X357201459Y-108185324D01*
X357394234Y-108056516D01*
X357558176Y-107892574D01*
X357686984Y-107699799D01*
X357775709Y-107485598D01*
X357820940Y-107258204D01*
X357820940Y-107026356D01*
X357775709Y-106798962D01*
X357686984Y-106584761D01*
X357558176Y-106391986D01*
X357394234Y-106228044D01*
X357201459Y-106099236D01*
X356987258Y-106010511D01*
X356759864Y-105965280D01*
X356528016Y-105965280D01*
X356300622Y-106010511D01*
X356086421Y-106099236D01*
X355893646Y-106228044D01*
X355729704Y-106391986D01*
X355600896Y-106584761D01*
X355512171Y-106798962D01*
X355466940Y-107026356D01*
X349815679Y-107026356D01*
X349886116Y-106955919D01*
X350058699Y-106697629D01*
X350177576Y-106410634D01*
X350238180Y-106105961D01*
X350238180Y-105795319D01*
X350177576Y-105490646D01*
X350058699Y-105203651D01*
X349886116Y-104945361D01*
X349666459Y-104725704D01*
X349408169Y-104553121D01*
X349246984Y-104486356D01*
X355466940Y-104486356D01*
X355466940Y-104718204D01*
X355512171Y-104945598D01*
X355600896Y-105159799D01*
X355729704Y-105352574D01*
X355893646Y-105516516D01*
X356086421Y-105645324D01*
X356300622Y-105734049D01*
X356528016Y-105779280D01*
X356759864Y-105779280D01*
X356987258Y-105734049D01*
X357201459Y-105645324D01*
X357394234Y-105516516D01*
X357558176Y-105352574D01*
X357686984Y-105159799D01*
X357775709Y-104945598D01*
X357820940Y-104718204D01*
X357820940Y-104486356D01*
X357775709Y-104258962D01*
X357686984Y-104044761D01*
X357558176Y-103851986D01*
X357394234Y-103688044D01*
X357201459Y-103559236D01*
X356987258Y-103470511D01*
X356759864Y-103425280D01*
X356528016Y-103425280D01*
X356300622Y-103470511D01*
X356086421Y-103559236D01*
X355893646Y-103688044D01*
X355729704Y-103851986D01*
X355600896Y-104044761D01*
X355512171Y-104258962D01*
X355466940Y-104486356D01*
X349246984Y-104486356D01*
X349121174Y-104434244D01*
X348816501Y-104373640D01*
X348505859Y-104373640D01*
X348201186Y-104434244D01*
X347914191Y-104553121D01*
X347655901Y-104725704D01*
X347436244Y-104945361D01*
X347263661Y-105203651D01*
X347144784Y-105490646D01*
X347084180Y-105795319D01*
X345100781Y-105795319D01*
X345100781Y-104123743D01*
X345114963Y-104144968D01*
X345386852Y-104416857D01*
X345706561Y-104630480D01*
X346061803Y-104777626D01*
X346438925Y-104852640D01*
X346823435Y-104852640D01*
X347200557Y-104777626D01*
X347555799Y-104630480D01*
X347875508Y-104416857D01*
X348147397Y-104144968D01*
X348361020Y-103825259D01*
X348508166Y-103470017D01*
X348583180Y-103092895D01*
X348583180Y-102708385D01*
X348508166Y-102331263D01*
X348361020Y-101976021D01*
X348147397Y-101656312D01*
X347875508Y-101384423D01*
X347555799Y-101170800D01*
X347200557Y-101023654D01*
X346823435Y-100948640D01*
X346438925Y-100948640D01*
X346061803Y-101023654D01*
X345878661Y-101099514D01*
X345878661Y-100599280D01*
X355557212Y-100599280D01*
X355561597Y-100604623D01*
X355611390Y-100645486D01*
X355668197Y-100675850D01*
X355729837Y-100694548D01*
X355793940Y-100700862D01*
X357493940Y-100700862D01*
X357558043Y-100694548D01*
X357619683Y-100675850D01*
X357676490Y-100645486D01*
X357726283Y-100604623D01*
X357767146Y-100554830D01*
X357797510Y-100498023D01*
X357816208Y-100436383D01*
X357822522Y-100372280D01*
X357822522Y-98672280D01*
X357816208Y-98608177D01*
X357797510Y-98546537D01*
X357767146Y-98489730D01*
X357726283Y-98439937D01*
X357676490Y-98399074D01*
X357619683Y-98368710D01*
X357558043Y-98350012D01*
X357493940Y-98343698D01*
X355793940Y-98343698D01*
X355729837Y-98350012D01*
X355668197Y-98368710D01*
X355611390Y-98399074D01*
X355561597Y-98439937D01*
X355557212Y-98445280D01*
X345169828Y-98445280D01*
X341711259Y-94986712D01*
X341711259Y-85540286D01*
X343449286Y-83802260D01*
X349564529Y-83802260D01*
X349722749Y-83786677D01*
X349925764Y-83725093D01*
X350112864Y-83625086D01*
X350276859Y-83490499D01*
X350411446Y-83326504D01*
X350511453Y-83139404D01*
X350573037Y-82936389D01*
X350593831Y-82725260D01*
X350573037Y-82514131D01*
X350511453Y-82311116D01*
X350411446Y-82124016D01*
X350276859Y-81960021D01*
X350112864Y-81825434D01*
X349925764Y-81725427D01*
X349722749Y-81663843D01*
X349564529Y-81648260D01*
X344459896Y-81648260D01*
X344462472Y-81644405D01*
X344509737Y-81530298D01*
X344533832Y-81409163D01*
X344533832Y-81285655D01*
X344509737Y-81164520D01*
X344462472Y-81050413D01*
X344393855Y-80947720D01*
X344306521Y-80860386D01*
X344203828Y-80791769D01*
X344089721Y-80744504D01*
X343968586Y-80720409D01*
X343845078Y-80720409D01*
X343723943Y-80744504D01*
X343609836Y-80791769D01*
X343507143Y-80860386D01*
X343447120Y-80920409D01*
X343299580Y-80920409D01*
X345388154Y-78831836D01*
X345404438Y-78818472D01*
X345417802Y-78802188D01*
X345417811Y-78802179D01*
X345457798Y-78753454D01*
X345487640Y-78697622D01*
X345497448Y-78679273D01*
X345521865Y-78598784D01*
X345528043Y-78536055D01*
X345528043Y-78536043D01*
X345530108Y-78515078D01*
X345528043Y-78494113D01*
X345528043Y-73437124D01*
X345588066Y-73377101D01*
X345656683Y-73274408D01*
X345703948Y-73160301D01*
X345728043Y-73039166D01*
X345728043Y-72915658D01*
X345703948Y-72794523D01*
X345656683Y-72680416D01*
X345588066Y-72577723D01*
X345500732Y-72490389D01*
X345398039Y-72421772D01*
X345283932Y-72374507D01*
X345162797Y-72350412D01*
X345039289Y-72350412D01*
X344918154Y-72374507D01*
X344804047Y-72421772D01*
X344701354Y-72490389D01*
X344614020Y-72577723D01*
X344545403Y-72680416D01*
X344532665Y-72711167D01*
X344439697Y-72692675D01*
X344316189Y-72692675D01*
X344195054Y-72716770D01*
X344080947Y-72764035D01*
X343978254Y-72832652D01*
X343890920Y-72919986D01*
X343822303Y-73022679D01*
X343775038Y-73136786D01*
X343769510Y-73164576D01*
X343670179Y-73164576D01*
X343549044Y-73188671D01*
X343434937Y-73235936D01*
X343332244Y-73304553D01*
X343244910Y-73391887D01*
X343176293Y-73494580D01*
X343129028Y-73608687D01*
X343116415Y-73672095D01*
X343051758Y-73672095D01*
X342930623Y-73696190D01*
X342816516Y-73743455D01*
X342713823Y-73812072D01*
X342626489Y-73899406D01*
X342557872Y-74002099D01*
X342522107Y-74088443D01*
X342488048Y-74081668D01*
X342364540Y-74081668D01*
X342243405Y-74105763D01*
X342129298Y-74153028D01*
X342026605Y-74221645D01*
X341939271Y-74308979D01*
X341870654Y-74411672D01*
X341830600Y-74508370D01*
X341778412Y-74497989D01*
X341654904Y-74497989D01*
X341533769Y-74522084D01*
X341419662Y-74569349D01*
X341316969Y-74637966D01*
X341229635Y-74725300D01*
X341161018Y-74827993D01*
X341124150Y-74917000D01*
X341093155Y-74910835D01*
X340969647Y-74910835D01*
X340848512Y-74934930D01*
X340734405Y-74982195D01*
X340631712Y-75050812D01*
X340601686Y-75080838D01*
X340530054Y-75032975D01*
X340679030Y-74883999D01*
X340763915Y-74883999D01*
X340885050Y-74859904D01*
X340999157Y-74812639D01*
X341101850Y-74744022D01*
X341189184Y-74656688D01*
X341257801Y-74553995D01*
X341305066Y-74439888D01*
X341329161Y-74318753D01*
X341329161Y-74224081D01*
X341409172Y-74208166D01*
X341523279Y-74160901D01*
X341625972Y-74092284D01*
X341713306Y-74004950D01*
X341781923Y-73902257D01*
X341829188Y-73788150D01*
X341853283Y-73667015D01*
X341853283Y-73543507D01*
X341829188Y-73422372D01*
X341781923Y-73308265D01*
X341713306Y-73205572D01*
X341625972Y-73118238D01*
X341523279Y-73049621D01*
X341409172Y-73002356D01*
X341288037Y-72978261D01*
X341164529Y-72978261D01*
X341043394Y-73002356D01*
X340929287Y-73049621D01*
X340826594Y-73118238D01*
X340766571Y-73178261D01*
X340501746Y-73178261D01*
X340480779Y-73176196D01*
X340459812Y-73178261D01*
X340459801Y-73178261D01*
X340397072Y-73184439D01*
X340316583Y-73208856D01*
X340305382Y-73214843D01*
X340242402Y-73248505D01*
X340193678Y-73288493D01*
X340193674Y-73288497D01*
X340177384Y-73301866D01*
X340164015Y-73318156D01*
X338941135Y-74541037D01*
X338924840Y-74554410D01*
X338911468Y-74570704D01*
X338911467Y-74570705D01*
X338905259Y-74578269D01*
X337789836Y-73462847D01*
X337817371Y-73435312D01*
X337885988Y-73332619D01*
X337933253Y-73218512D01*
X337957348Y-73097377D01*
X337957348Y-72973869D01*
X337933253Y-72852734D01*
X337885988Y-72738627D01*
X337817371Y-72635934D01*
X337730037Y-72548600D01*
X337627344Y-72479983D01*
X337513237Y-72432718D01*
X337392102Y-72408623D01*
X337268594Y-72408623D01*
X337147459Y-72432718D01*
X337033352Y-72479983D01*
X336956647Y-72531235D01*
X336931173Y-72505761D01*
X336828480Y-72437144D01*
X336714373Y-72389879D01*
X336593238Y-72365784D01*
X336469730Y-72365784D01*
X336348595Y-72389879D01*
X336234488Y-72437144D01*
X336223776Y-72444302D01*
X336143768Y-72364294D01*
X336041075Y-72295677D01*
X335926968Y-72248412D01*
X335805833Y-72224317D01*
X335682325Y-72224317D01*
X335561190Y-72248412D01*
X335447083Y-72295677D01*
X335344390Y-72364294D01*
X335257056Y-72451628D01*
X335243477Y-72471951D01*
X335148445Y-72432587D01*
X335027310Y-72408492D01*
X334946601Y-72408492D01*
X334927725Y-72313594D01*
X334880460Y-72199487D01*
X334811843Y-72096794D01*
X334793660Y-72078611D01*
X340028237Y-72078611D01*
X340045702Y-72083909D01*
X340203922Y-72099492D01*
X340203924Y-72099492D01*
X340256830Y-72104703D01*
X340309737Y-72099492D01*
X347842785Y-72099492D01*
X348594640Y-72851348D01*
X348594640Y-73837368D01*
X348610223Y-73995588D01*
X348671807Y-74198603D01*
X348771814Y-74385704D01*
X348906401Y-74549699D01*
X349070396Y-74684286D01*
X349257496Y-74784293D01*
X349460511Y-74845877D01*
X349671640Y-74866671D01*
X349882768Y-74845877D01*
X350085783Y-74784293D01*
X350272884Y-74684286D01*
X350436879Y-74549699D01*
X350571466Y-74385704D01*
X350671473Y-74198604D01*
X350733057Y-73995589D01*
X350748640Y-73837369D01*
X350748640Y-72458147D01*
X350753851Y-72405240D01*
X350746666Y-72332287D01*
X350733057Y-72194111D01*
X350671473Y-71991096D01*
X350571466Y-71803996D01*
X350436879Y-71640001D01*
X350395780Y-71606272D01*
X349087864Y-70298357D01*
X349054131Y-70257253D01*
X348890136Y-70122666D01*
X348728022Y-70036014D01*
X348789640Y-69943796D01*
X348836905Y-69829689D01*
X348861000Y-69708554D01*
X348861000Y-69585046D01*
X348836905Y-69463911D01*
X348789640Y-69349804D01*
X348721023Y-69247111D01*
X348633689Y-69159777D01*
X348530996Y-69091160D01*
X348416889Y-69043895D01*
X348295754Y-69019800D01*
X348172246Y-69019800D01*
X348051111Y-69043895D01*
X347937004Y-69091160D01*
X347834311Y-69159777D01*
X347746977Y-69247111D01*
X347678360Y-69349804D01*
X347631095Y-69463911D01*
X347614870Y-69545481D01*
X340803052Y-69545481D01*
X340754585Y-69530778D01*
X340691856Y-69524600D01*
X340691845Y-69524600D01*
X340670878Y-69522535D01*
X340649911Y-69524600D01*
X325953767Y-69524600D01*
X325932800Y-69522535D01*
X325911833Y-69524600D01*
X325911822Y-69524600D01*
X325849093Y-69530778D01*
X325800626Y-69545481D01*
X325768603Y-69555195D01*
X325694424Y-69594844D01*
X325645699Y-69634832D01*
X325645695Y-69634836D01*
X325629405Y-69648205D01*
X325616036Y-69664495D01*
X322272932Y-73007600D01*
X322188046Y-73007600D01*
X322066911Y-73031695D01*
X321952804Y-73078960D01*
X321850111Y-73147577D01*
X321762777Y-73234911D01*
X321694160Y-73337604D01*
X321646895Y-73451711D01*
X321622800Y-73572846D01*
X321622800Y-73696354D01*
X321646895Y-73817489D01*
X321694160Y-73931596D01*
X321762777Y-74034289D01*
X321850111Y-74121623D01*
X321952804Y-74190240D01*
X322066911Y-74237505D01*
X322188046Y-74261600D01*
X322311554Y-74261600D01*
X322326933Y-74258541D01*
X320598566Y-75986908D01*
X320557461Y-76020642D01*
X320422874Y-76184637D01*
X320322867Y-76371738D01*
X320261283Y-76574753D01*
X320248546Y-76704075D01*
X320240489Y-76785881D01*
X320245700Y-76838788D01*
X320245701Y-80366024D01*
X320240489Y-80418940D01*
X320258412Y-80600911D01*
X320261284Y-80630069D01*
X320322868Y-80833084D01*
X320422875Y-81020184D01*
X320557462Y-81184179D01*
X320721457Y-81318766D01*
X320908557Y-81418773D01*
X321111572Y-81480357D01*
X321322700Y-81501151D01*
X321533829Y-81480357D01*
X321736844Y-81418773D01*
X321923944Y-81318766D01*
X321979329Y-81273313D01*
X322038568Y-81241648D01*
X322111201Y-81182041D01*
X322170808Y-81109408D01*
X322209281Y-81037432D01*
X322227605Y-81015104D01*
X322327612Y-80828004D01*
X322389196Y-80624989D01*
X322409991Y-80413861D01*
X322399700Y-80309377D01*
X322399700Y-77351402D01*
X322411703Y-77339399D01*
X322480320Y-77236706D01*
X322527585Y-77122599D01*
X322532178Y-77099511D01*
X323649446Y-75982242D01*
X323628666Y-76086712D01*
X323628666Y-76210220D01*
X323652761Y-76331355D01*
X323700026Y-76445462D01*
X323768643Y-76548155D01*
X323855977Y-76635489D01*
X323958670Y-76704106D01*
X324072777Y-76751371D01*
X324193912Y-76775466D01*
X324317420Y-76775466D01*
X324438555Y-76751371D01*
X324552662Y-76704106D01*
X324655355Y-76635489D01*
X324702777Y-76588067D01*
X324769800Y-76655090D01*
X324872493Y-76723707D01*
X324986600Y-76770972D01*
X325107735Y-76795067D01*
X325231243Y-76795067D01*
X325352378Y-76770972D01*
X325466485Y-76723707D01*
X325569178Y-76655090D01*
X325656512Y-76567756D01*
X325725129Y-76465063D01*
X325772394Y-76350956D01*
X325796489Y-76229821D01*
X325796489Y-76106313D01*
X325772394Y-75985178D01*
X325725129Y-75871071D01*
X325666380Y-75783147D01*
X325666380Y-75096708D01*
X327440629Y-73322460D01*
X330013933Y-73322460D01*
X330034900Y-73324525D01*
X330055867Y-73322460D01*
X330055878Y-73322460D01*
X330118607Y-73316282D01*
X330199096Y-73291865D01*
X330273276Y-73252215D01*
X330338295Y-73198855D01*
X330351668Y-73182560D01*
X330496908Y-73037320D01*
X330581794Y-73037320D01*
X330702929Y-73013225D01*
X330817036Y-72965960D01*
X330919729Y-72897343D01*
X331007063Y-72810009D01*
X331075680Y-72707316D01*
X331122945Y-72593209D01*
X331147040Y-72472074D01*
X331147040Y-72348566D01*
X331122945Y-72227431D01*
X331075680Y-72113324D01*
X331052486Y-72078611D01*
X331727033Y-72078611D01*
X331717995Y-72100431D01*
X331693900Y-72221566D01*
X331693900Y-72345074D01*
X331717995Y-72466209D01*
X331765260Y-72580316D01*
X331833877Y-72683009D01*
X331921211Y-72770343D01*
X332023904Y-72838960D01*
X332138011Y-72886225D01*
X332259146Y-72910320D01*
X332382654Y-72910320D01*
X332503789Y-72886225D01*
X332617896Y-72838960D01*
X332656091Y-72813439D01*
X336366840Y-76524189D01*
X336366841Y-77531889D01*
X332879620Y-81019112D01*
X332863325Y-81032485D01*
X332849953Y-81048779D01*
X332849952Y-81048780D01*
X332809965Y-81097504D01*
X332797466Y-81120889D01*
X332770315Y-81171685D01*
X332745898Y-81252174D01*
X332739720Y-81314903D01*
X332739720Y-81314913D01*
X332737655Y-81335880D01*
X332739720Y-81356847D01*
X332739721Y-86918528D01*
X332737655Y-86939505D01*
X332745899Y-87023211D01*
X332770316Y-87103701D01*
X332809965Y-87177881D01*
X332849952Y-87226605D01*
X332849957Y-87226610D01*
X332863326Y-87242900D01*
X332879615Y-87256268D01*
X333307546Y-87684200D01*
X333307546Y-87769085D01*
X333331641Y-87890220D01*
X333378906Y-88004327D01*
X333447523Y-88107020D01*
X333534857Y-88194354D01*
X333637550Y-88262971D01*
X333751657Y-88310236D01*
X333872792Y-88334331D01*
X333996300Y-88334331D01*
X334117435Y-88310236D01*
X334231542Y-88262971D01*
X334334235Y-88194354D01*
X334421569Y-88107020D01*
X334490186Y-88004327D01*
X334537451Y-87890220D01*
X334561546Y-87769085D01*
X334561546Y-87645577D01*
X334537451Y-87524442D01*
X334490186Y-87410335D01*
X334428400Y-87317866D01*
X334483579Y-87262687D01*
X334552196Y-87159994D01*
X334593844Y-87059447D01*
X334611277Y-87062915D01*
X334734785Y-87062915D01*
X334855920Y-87038820D01*
X334970027Y-86991555D01*
X335072720Y-86922938D01*
X335107459Y-86888199D01*
X335135840Y-86956716D01*
X335204457Y-87059409D01*
X335214481Y-87069433D01*
X335214480Y-99831473D01*
X335212174Y-99854888D01*
X335214480Y-99878303D01*
X335214480Y-99878310D01*
X335221383Y-99948395D01*
X335248658Y-100038310D01*
X335292951Y-100121177D01*
X335352559Y-100193809D01*
X335370756Y-100208743D01*
X341079181Y-105917169D01*
X341079180Y-108292483D01*
X341046029Y-108306215D01*
X340869633Y-108424080D01*
X340719620Y-108574093D01*
X340601755Y-108750489D01*
X340520569Y-108946491D01*
X340479180Y-109154565D01*
X340479180Y-109366715D01*
X340520569Y-109574789D01*
X340601755Y-109770791D01*
X340719620Y-109947187D01*
X340869633Y-110097200D01*
X341046029Y-110215065D01*
X341242031Y-110296251D01*
X341450105Y-110337640D01*
X341662255Y-110337640D01*
X341870329Y-110296251D01*
X342066331Y-110215065D01*
X342242727Y-110097200D01*
X342392740Y-109947187D01*
X342510605Y-109770791D01*
X342591791Y-109574789D01*
X342633180Y-109366715D01*
X342633180Y-109154565D01*
X342591791Y-108946491D01*
X342510605Y-108750489D01*
X342392740Y-108574093D01*
X342242727Y-108424080D01*
X342066331Y-108306215D01*
X342033180Y-108292484D01*
X342033180Y-106164048D01*
X343669181Y-107800049D01*
X343669181Y-108271773D01*
X343586029Y-108306215D01*
X343409633Y-108424080D01*
X343259620Y-108574093D01*
X343141755Y-108750489D01*
X343060569Y-108946491D01*
X343019180Y-109154565D01*
X343019180Y-109366715D01*
X343060569Y-109574789D01*
X343141755Y-109770791D01*
X343259620Y-109947187D01*
X343409633Y-110097200D01*
X343586029Y-110215065D01*
X343782031Y-110296251D01*
X343990105Y-110337640D01*
X344202255Y-110337640D01*
X344410329Y-110296251D01*
X344606331Y-110215065D01*
X344782727Y-110097200D01*
X344932740Y-109947187D01*
X345050605Y-109770791D01*
X345131791Y-109574789D01*
X345173180Y-109366715D01*
X345173180Y-109154565D01*
X345131791Y-108946491D01*
X345050605Y-108750489D01*
X344932740Y-108574093D01*
X344782727Y-108424080D01*
X344606331Y-108306215D01*
X344523180Y-108271773D01*
X344523180Y-108000958D01*
X346395039Y-109872818D01*
X346395039Y-111502821D01*
X346391791Y-111486491D01*
X346371448Y-111437378D01*
X346356013Y-111386496D01*
X346330950Y-111339606D01*
X346310605Y-111290489D01*
X346281069Y-111246286D01*
X346256006Y-111199396D01*
X346222274Y-111158293D01*
X346192740Y-111114093D01*
X346155153Y-111076506D01*
X346121419Y-111035401D01*
X346080314Y-111001667D01*
X346042727Y-110964080D01*
X345998527Y-110934546D01*
X345957424Y-110900814D01*
X345910534Y-110875751D01*
X345866331Y-110846215D01*
X345817214Y-110825870D01*
X345770324Y-110800807D01*
X345719442Y-110785372D01*
X345670329Y-110765029D01*
X345618192Y-110754658D01*
X345567309Y-110739223D01*
X345514396Y-110734012D01*
X345462255Y-110723640D01*
X345409089Y-110723640D01*
X345356180Y-110718429D01*
X345303271Y-110723640D01*
X345250105Y-110723640D01*
X345197963Y-110734012D01*
X345145052Y-110739223D01*
X345094171Y-110754658D01*
X345042031Y-110765029D01*
X344992915Y-110785373D01*
X344942037Y-110800807D01*
X344895150Y-110825868D01*
X344846029Y-110846215D01*
X344801822Y-110875754D01*
X344754937Y-110900814D01*
X344713839Y-110934542D01*
X344669633Y-110964080D01*
X344632041Y-111001672D01*
X344590942Y-111035401D01*
X344557213Y-111076500D01*
X344519620Y-111114093D01*
X344490082Y-111158300D01*
X344456355Y-111199396D01*
X344431296Y-111246278D01*
X344401755Y-111290489D01*
X344381407Y-111339614D01*
X344356348Y-111386496D01*
X344340916Y-111437369D01*
X344320569Y-111486491D01*
X344310196Y-111538638D01*
X344294764Y-111589511D01*
X344289554Y-111642414D01*
X344279180Y-111694565D01*
X344279180Y-111906715D01*
X344279181Y-111906720D01*
X344279180Y-114440632D01*
X342970881Y-115748932D01*
X342929782Y-115782661D01*
X342820052Y-115916368D01*
X342795195Y-115946656D01*
X342695188Y-116133756D01*
X342633604Y-116336771D01*
X342612809Y-116547900D01*
X342618021Y-116600817D01*
X342618021Y-120876020D01*
X340082207Y-120876020D01*
X340065400Y-120859213D01*
X340065400Y-119483706D01*
X340070611Y-119430799D01*
X340063454Y-119358132D01*
X340049817Y-119219671D01*
X340035900Y-119173793D01*
X340035900Y-118961640D01*
X340041111Y-118908731D01*
X340020317Y-118697601D01*
X339969939Y-118531530D01*
X339958733Y-118494588D01*
X339958732Y-118494586D01*
X339858726Y-118307486D01*
X339763042Y-118190896D01*
X339724139Y-118143492D01*
X339683040Y-118109763D01*
X337851393Y-116278117D01*
X337747039Y-116150961D01*
X337583044Y-116016374D01*
X337395944Y-115916367D01*
X337192929Y-115854783D01*
X336981800Y-115833989D01*
X336979260Y-115834239D01*
X336976720Y-115833989D01*
X336765591Y-115854784D01*
X336562576Y-115916368D01*
X336375476Y-116016375D01*
X336211482Y-116150962D01*
X336076895Y-116314956D01*
X335976888Y-116502056D01*
X335915304Y-116705071D01*
X335911616Y-116742517D01*
X330863664Y-111694565D01*
X339199180Y-111694565D01*
X339199180Y-111906715D01*
X339240569Y-112114789D01*
X339321755Y-112310791D01*
X339439620Y-112487187D01*
X339589633Y-112637200D01*
X339766029Y-112755065D01*
X339962031Y-112836251D01*
X340170105Y-112877640D01*
X340382255Y-112877640D01*
X340590329Y-112836251D01*
X340786331Y-112755065D01*
X340962727Y-112637200D01*
X341112740Y-112487187D01*
X341230605Y-112310791D01*
X341311791Y-112114789D01*
X341353180Y-111906715D01*
X341353180Y-111694565D01*
X341739180Y-111694565D01*
X341739180Y-111906715D01*
X341780569Y-112114789D01*
X341861755Y-112310791D01*
X341979620Y-112487187D01*
X342129633Y-112637200D01*
X342306029Y-112755065D01*
X342502031Y-112836251D01*
X342710105Y-112877640D01*
X342922255Y-112877640D01*
X343130329Y-112836251D01*
X343326331Y-112755065D01*
X343502727Y-112637200D01*
X343652740Y-112487187D01*
X343770605Y-112310791D01*
X343851791Y-112114789D01*
X343893180Y-111906715D01*
X343893180Y-111694565D01*
X343851791Y-111486491D01*
X343770605Y-111290489D01*
X343652740Y-111114093D01*
X343502727Y-110964080D01*
X343326331Y-110846215D01*
X343130329Y-110765029D01*
X342922255Y-110723640D01*
X342710105Y-110723640D01*
X342502031Y-110765029D01*
X342306029Y-110846215D01*
X342129633Y-110964080D01*
X341979620Y-111114093D01*
X341861755Y-111290489D01*
X341780569Y-111486491D01*
X341739180Y-111694565D01*
X341353180Y-111694565D01*
X341311791Y-111486491D01*
X341230605Y-111290489D01*
X341112740Y-111114093D01*
X340962727Y-110964080D01*
X340786331Y-110846215D01*
X340590329Y-110765029D01*
X340382255Y-110723640D01*
X340170105Y-110723640D01*
X339962031Y-110765029D01*
X339766029Y-110846215D01*
X339589633Y-110964080D01*
X339439620Y-111114093D01*
X339321755Y-111290489D01*
X339240569Y-111486491D01*
X339199180Y-111694565D01*
X330863664Y-111694565D01*
X327930239Y-108761140D01*
X335397598Y-108761140D01*
X335397598Y-109760140D01*
X335408725Y-109873113D01*
X335441678Y-109981745D01*
X335495191Y-110081861D01*
X335567207Y-110169613D01*
X335654959Y-110241629D01*
X335755075Y-110295142D01*
X335863707Y-110328095D01*
X335976680Y-110339222D01*
X336975680Y-110339222D01*
X337088653Y-110328095D01*
X337197285Y-110295142D01*
X337297401Y-110241629D01*
X337385153Y-110169613D01*
X337457169Y-110081861D01*
X337510682Y-109981745D01*
X337543635Y-109873113D01*
X337554762Y-109760140D01*
X337554762Y-109154565D01*
X337939180Y-109154565D01*
X337939180Y-109366715D01*
X337980569Y-109574789D01*
X338061755Y-109770791D01*
X338179620Y-109947187D01*
X338329633Y-110097200D01*
X338506029Y-110215065D01*
X338702031Y-110296251D01*
X338910105Y-110337640D01*
X339122255Y-110337640D01*
X339330329Y-110296251D01*
X339526331Y-110215065D01*
X339702727Y-110097200D01*
X339852740Y-109947187D01*
X339970605Y-109770791D01*
X340051791Y-109574789D01*
X340093180Y-109366715D01*
X340093180Y-109154565D01*
X340051791Y-108946491D01*
X339970605Y-108750489D01*
X339852740Y-108574093D01*
X339702727Y-108424080D01*
X339526331Y-108306215D01*
X339330329Y-108225029D01*
X339122255Y-108183640D01*
X338910105Y-108183640D01*
X338702031Y-108225029D01*
X338506029Y-108306215D01*
X338329633Y-108424080D01*
X338179620Y-108574093D01*
X338061755Y-108750489D01*
X337980569Y-108946491D01*
X337939180Y-109154565D01*
X337554762Y-109154565D01*
X337554762Y-108761140D01*
X337543635Y-108648167D01*
X337510682Y-108539535D01*
X337457169Y-108439419D01*
X337385153Y-108351667D01*
X337297401Y-108279651D01*
X337197285Y-108226138D01*
X337088653Y-108193185D01*
X336975680Y-108182058D01*
X335976680Y-108182058D01*
X335863707Y-108193185D01*
X335755075Y-108226138D01*
X335654959Y-108279651D01*
X335567207Y-108351667D01*
X335495191Y-108439419D01*
X335441678Y-108539535D01*
X335408725Y-108648167D01*
X335397598Y-108761140D01*
X327930239Y-108761140D01*
X327852771Y-108683672D01*
X327825307Y-108650207D01*
X327691766Y-108540613D01*
X327539411Y-108459178D01*
X327374096Y-108409030D01*
X327245253Y-108396340D01*
X327202174Y-108392097D01*
X327159095Y-108396340D01*
X326195605Y-108396340D01*
X326079731Y-108318915D01*
X325883729Y-108237729D01*
X325675655Y-108196340D01*
X325463505Y-108196340D01*
X325255431Y-108237729D01*
X325059429Y-108318915D01*
X324883033Y-108436780D01*
X324733020Y-108586793D01*
X324615155Y-108763189D01*
X324533969Y-108959191D01*
X324492580Y-109167265D01*
X324492580Y-109379415D01*
X324533969Y-109587489D01*
X324615155Y-109783491D01*
X324733020Y-109959887D01*
X324883033Y-110109900D01*
X325059429Y-110227765D01*
X325255431Y-110308951D01*
X325463505Y-110350340D01*
X325675655Y-110350340D01*
X325883729Y-110308951D01*
X326079731Y-110227765D01*
X326195605Y-110150340D01*
X326838909Y-110150340D01*
X329616417Y-112927848D01*
X329588715Y-112925120D01*
X329588712Y-112925120D01*
X329498960Y-112916280D01*
X329409208Y-112925120D01*
X327754680Y-112925120D01*
X327754680Y-112367379D01*
X327784005Y-112323491D01*
X327865191Y-112127489D01*
X327906580Y-111919415D01*
X327906580Y-111707265D01*
X327865191Y-111499191D01*
X327784005Y-111303189D01*
X327666140Y-111126793D01*
X327516127Y-110976780D01*
X327339731Y-110858915D01*
X327143729Y-110777729D01*
X326935655Y-110736340D01*
X326723505Y-110736340D01*
X326515431Y-110777729D01*
X326319429Y-110858915D01*
X326143033Y-110976780D01*
X325993020Y-111126793D01*
X325875155Y-111303189D01*
X325793969Y-111499191D01*
X325752580Y-111707265D01*
X325752580Y-111919415D01*
X325793969Y-112127489D01*
X325875155Y-112323491D01*
X325993020Y-112499887D01*
X326000681Y-112507548D01*
X326000681Y-112925120D01*
X317721823Y-112925120D01*
X317632079Y-112916281D01*
X317542335Y-112925120D01*
X317542325Y-112925120D01*
X317273925Y-112951555D01*
X316929534Y-113056025D01*
X316612142Y-113225675D01*
X316333945Y-113453985D01*
X316276728Y-113523705D01*
X314889309Y-114911124D01*
X314819585Y-114968345D01*
X314591275Y-115246543D01*
X314421625Y-115563935D01*
X314317155Y-115908326D01*
X314293258Y-116150961D01*
X314281880Y-116266480D01*
X314290720Y-116356232D01*
X314290720Y-118198566D01*
X314290721Y-120486775D01*
X314317156Y-120755175D01*
X314421626Y-121099566D01*
X314591276Y-121416958D01*
X314819586Y-121695155D01*
X315097783Y-121923465D01*
X315415175Y-122093115D01*
X315759566Y-122197585D01*
X316117720Y-122232860D01*
X316475875Y-122197585D01*
X316820266Y-122093115D01*
X317137658Y-121923465D01*
X317415855Y-121695155D01*
X317644165Y-121416958D01*
X317813815Y-121099566D01*
X317918285Y-120755175D01*
X317944720Y-120486775D01*
X317944720Y-117023247D01*
X318388847Y-116579120D01*
X321118700Y-116579120D01*
X320808494Y-116744929D01*
X320454162Y-117035721D01*
X320163370Y-117390053D01*
X319947291Y-117794307D01*
X319814231Y-118232948D01*
X319780561Y-118574805D01*
X319780561Y-123484640D01*
X313681351Y-123484640D01*
X313681351Y-112431817D01*
X313712161Y-112469359D01*
X313876156Y-112603946D01*
X314063256Y-112703953D01*
X314266271Y-112765537D01*
X314424491Y-112781120D01*
X314424492Y-112781120D01*
X314477399Y-112786331D01*
X314530306Y-112781120D01*
X314570949Y-112781120D01*
X314729169Y-112765537D01*
X314932184Y-112703953D01*
X315119284Y-112603946D01*
X315283279Y-112469359D01*
X315417866Y-112305364D01*
X315517873Y-112118264D01*
X315579457Y-111915249D01*
X315599941Y-111707265D01*
X318132580Y-111707265D01*
X318132580Y-111919415D01*
X318173969Y-112127489D01*
X318255155Y-112323491D01*
X318373020Y-112499887D01*
X318523033Y-112649900D01*
X318699429Y-112767765D01*
X318895431Y-112848951D01*
X319103505Y-112890340D01*
X319315655Y-112890340D01*
X319523729Y-112848951D01*
X319719731Y-112767765D01*
X319896127Y-112649900D01*
X320046140Y-112499887D01*
X320164005Y-112323491D01*
X320245191Y-112127489D01*
X320286580Y-111919415D01*
X320286580Y-111707265D01*
X323212580Y-111707265D01*
X323212580Y-111919415D01*
X323253969Y-112127489D01*
X323335155Y-112323491D01*
X323453020Y-112499887D01*
X323603033Y-112649900D01*
X323779429Y-112767765D01*
X323975431Y-112848951D01*
X324183505Y-112890340D01*
X324395655Y-112890340D01*
X324603729Y-112848951D01*
X324799731Y-112767765D01*
X324976127Y-112649900D01*
X325126140Y-112499887D01*
X325244005Y-112323491D01*
X325325191Y-112127489D01*
X325366580Y-111919415D01*
X325366580Y-111707265D01*
X325325191Y-111499191D01*
X325244005Y-111303189D01*
X325126140Y-111126793D01*
X324976127Y-110976780D01*
X324799731Y-110858915D01*
X324603729Y-110777729D01*
X324395655Y-110736340D01*
X324183505Y-110736340D01*
X323975431Y-110777729D01*
X323779429Y-110858915D01*
X323603033Y-110976780D01*
X323453020Y-111126793D01*
X323335155Y-111303189D01*
X323253969Y-111499191D01*
X323212580Y-111707265D01*
X320286580Y-111707265D01*
X320245191Y-111499191D01*
X320164005Y-111303189D01*
X320046140Y-111126793D01*
X319896127Y-110976780D01*
X319719731Y-110858915D01*
X319523729Y-110777729D01*
X319315655Y-110736340D01*
X319103505Y-110736340D01*
X318895431Y-110777729D01*
X318699429Y-110858915D01*
X318523033Y-110976780D01*
X318373020Y-111126793D01*
X318255155Y-111303189D01*
X318173969Y-111499191D01*
X318132580Y-111707265D01*
X315599941Y-111707265D01*
X315600251Y-111704120D01*
X315579457Y-111492991D01*
X315517873Y-111289976D01*
X315417866Y-111102876D01*
X315283279Y-110938881D01*
X315119284Y-110804294D01*
X315079322Y-110782934D01*
X313070228Y-108773840D01*
X316870998Y-108773840D01*
X316870998Y-109772840D01*
X316882125Y-109885813D01*
X316915078Y-109994445D01*
X316968591Y-110094561D01*
X317040607Y-110182313D01*
X317128359Y-110254329D01*
X317228475Y-110307842D01*
X317337107Y-110340795D01*
X317450080Y-110351922D01*
X318449080Y-110351922D01*
X318562053Y-110340795D01*
X318670685Y-110307842D01*
X318770801Y-110254329D01*
X318858553Y-110182313D01*
X318930569Y-110094561D01*
X318984082Y-109994445D01*
X319017035Y-109885813D01*
X319028162Y-109772840D01*
X319028162Y-109167265D01*
X319412580Y-109167265D01*
X319412580Y-109379415D01*
X319453969Y-109587489D01*
X319535155Y-109783491D01*
X319653020Y-109959887D01*
X319803033Y-110109900D01*
X319979429Y-110227765D01*
X320175431Y-110308951D01*
X320383505Y-110350340D01*
X320595655Y-110350340D01*
X320803729Y-110308951D01*
X320999731Y-110227765D01*
X321176127Y-110109900D01*
X321326140Y-109959887D01*
X321444005Y-109783491D01*
X321525191Y-109587489D01*
X321566580Y-109379415D01*
X321566580Y-109167265D01*
X321952580Y-109167265D01*
X321952580Y-109379415D01*
X321993969Y-109587489D01*
X322075155Y-109783491D01*
X322193020Y-109959887D01*
X322343033Y-110109900D01*
X322519429Y-110227765D01*
X322715431Y-110308951D01*
X322923505Y-110350340D01*
X323135655Y-110350340D01*
X323343729Y-110308951D01*
X323539731Y-110227765D01*
X323716127Y-110109900D01*
X323866140Y-109959887D01*
X323984005Y-109783491D01*
X324065191Y-109587489D01*
X324106580Y-109379415D01*
X324106580Y-109167265D01*
X324065191Y-108959191D01*
X323984005Y-108763189D01*
X323866140Y-108586793D01*
X323716127Y-108436780D01*
X323539731Y-108318915D01*
X323343729Y-108237729D01*
X323135655Y-108196340D01*
X322923505Y-108196340D01*
X322715431Y-108237729D01*
X322519429Y-108318915D01*
X322343033Y-108436780D01*
X322193020Y-108586793D01*
X322075155Y-108763189D01*
X321993969Y-108959191D01*
X321952580Y-109167265D01*
X321566580Y-109167265D01*
X321525191Y-108959191D01*
X321444005Y-108763189D01*
X321326140Y-108586793D01*
X321176127Y-108436780D01*
X320999731Y-108318915D01*
X320803729Y-108237729D01*
X320595655Y-108196340D01*
X320383505Y-108196340D01*
X320175431Y-108237729D01*
X319979429Y-108318915D01*
X319803033Y-108436780D01*
X319653020Y-108586793D01*
X319535155Y-108763189D01*
X319453969Y-108959191D01*
X319412580Y-109167265D01*
X319028162Y-109167265D01*
X319028162Y-108773840D01*
X319017035Y-108660867D01*
X318984082Y-108552235D01*
X318930569Y-108452119D01*
X318858553Y-108364367D01*
X318770801Y-108292351D01*
X318670685Y-108238838D01*
X318562053Y-108205885D01*
X318449080Y-108194758D01*
X317450080Y-108194758D01*
X317337107Y-108205885D01*
X317228475Y-108238838D01*
X317128359Y-108292351D01*
X317040607Y-108364367D01*
X316968591Y-108452119D01*
X316915078Y-108552235D01*
X316882125Y-108660867D01*
X316870998Y-108773840D01*
X313070228Y-108773840D01*
X312994080Y-108697693D01*
X312994080Y-105808019D01*
X313067580Y-105808019D01*
X313067580Y-106118661D01*
X313128184Y-106423334D01*
X313247061Y-106710329D01*
X313419644Y-106968619D01*
X313639301Y-107188276D01*
X313897591Y-107360859D01*
X314184586Y-107479736D01*
X314489259Y-107540340D01*
X314799901Y-107540340D01*
X315104574Y-107479736D01*
X315391569Y-107360859D01*
X315649859Y-107188276D01*
X315869516Y-106968619D01*
X316042099Y-106710329D01*
X316160976Y-106423334D01*
X316221580Y-106118661D01*
X316221580Y-105808019D01*
X328557580Y-105808019D01*
X328557580Y-106118661D01*
X328618184Y-106423334D01*
X328737061Y-106710329D01*
X328909644Y-106968619D01*
X329129301Y-107188276D01*
X329387591Y-107360859D01*
X329674586Y-107479736D01*
X329979259Y-107540340D01*
X330289901Y-107540340D01*
X330594574Y-107479736D01*
X330881569Y-107360859D01*
X331139859Y-107188276D01*
X331359516Y-106968619D01*
X331532099Y-106710329D01*
X331650976Y-106423334D01*
X331654143Y-106407412D01*
X331654784Y-106410634D01*
X331773661Y-106697629D01*
X331946244Y-106955919D01*
X332165901Y-107175576D01*
X332424191Y-107348159D01*
X332711186Y-107467036D01*
X333015859Y-107527640D01*
X333326501Y-107527640D01*
X333631174Y-107467036D01*
X333918169Y-107348159D01*
X334176459Y-107175576D01*
X334396116Y-106955919D01*
X334568699Y-106697629D01*
X334687576Y-106410634D01*
X334748180Y-106105961D01*
X334748180Y-105795319D01*
X334687576Y-105490646D01*
X334568699Y-105203651D01*
X334396116Y-104945361D01*
X334176459Y-104725704D01*
X333918169Y-104553121D01*
X333631174Y-104434244D01*
X333326501Y-104373640D01*
X333015859Y-104373640D01*
X332711186Y-104434244D01*
X332424191Y-104553121D01*
X332165901Y-104725704D01*
X331946244Y-104945361D01*
X331773661Y-105203651D01*
X331654784Y-105490646D01*
X331651617Y-105506568D01*
X331650976Y-105503346D01*
X331532099Y-105216351D01*
X331359516Y-104958061D01*
X331139859Y-104738404D01*
X330881569Y-104565821D01*
X330594574Y-104446944D01*
X330289901Y-104386340D01*
X329979259Y-104386340D01*
X329674586Y-104446944D01*
X329387591Y-104565821D01*
X329129301Y-104738404D01*
X328909644Y-104958061D01*
X328737061Y-105216351D01*
X328618184Y-105503346D01*
X328557580Y-105808019D01*
X316221580Y-105808019D01*
X316160976Y-105503346D01*
X316042099Y-105216351D01*
X315869516Y-104958061D01*
X315649859Y-104738404D01*
X315391569Y-104565821D01*
X315104574Y-104446944D01*
X314799901Y-104386340D01*
X314489259Y-104386340D01*
X314184586Y-104446944D01*
X313897591Y-104565821D01*
X313639301Y-104738404D01*
X313419644Y-104958061D01*
X313247061Y-105216351D01*
X313128184Y-105503346D01*
X313067580Y-105808019D01*
X312994080Y-105808019D01*
X312994080Y-104255907D01*
X314287140Y-102962848D01*
X314328239Y-102929119D01*
X314462826Y-102765124D01*
X314486365Y-102721085D01*
X314722580Y-102721085D01*
X314722580Y-103105595D01*
X314797594Y-103482717D01*
X314944740Y-103837959D01*
X315158363Y-104157668D01*
X315430252Y-104429557D01*
X315749961Y-104643180D01*
X316105203Y-104790326D01*
X316482325Y-104865340D01*
X316866835Y-104865340D01*
X317243957Y-104790326D01*
X317599199Y-104643180D01*
X317918908Y-104429557D01*
X318190797Y-104157668D01*
X318404420Y-103837959D01*
X318551566Y-103482717D01*
X318626580Y-103105595D01*
X318626580Y-102721085D01*
X326152580Y-102721085D01*
X326152580Y-103105595D01*
X326227594Y-103482717D01*
X326374740Y-103837959D01*
X326588363Y-104157668D01*
X326860252Y-104429557D01*
X327179961Y-104643180D01*
X327535203Y-104790326D01*
X327912325Y-104865340D01*
X328296835Y-104865340D01*
X328673957Y-104790326D01*
X329029199Y-104643180D01*
X329348908Y-104429557D01*
X329620797Y-104157668D01*
X329834420Y-103837959D01*
X329981566Y-103482717D01*
X330056580Y-103105595D01*
X330056580Y-102721085D01*
X330054054Y-102708385D01*
X333249180Y-102708385D01*
X333249180Y-103092895D01*
X333324194Y-103470017D01*
X333471340Y-103825259D01*
X333684963Y-104144968D01*
X333956852Y-104416857D01*
X334276561Y-104630480D01*
X334631803Y-104777626D01*
X335008925Y-104852640D01*
X335393435Y-104852640D01*
X335770557Y-104777626D01*
X336125799Y-104630480D01*
X336445508Y-104416857D01*
X336717397Y-104144968D01*
X336931020Y-103825259D01*
X337078166Y-103470017D01*
X337153180Y-103092895D01*
X337153180Y-102708385D01*
X337078166Y-102331263D01*
X336931020Y-101976021D01*
X336717397Y-101656312D01*
X336445508Y-101384423D01*
X336125799Y-101170800D01*
X335770557Y-101023654D01*
X335393435Y-100948640D01*
X335008925Y-100948640D01*
X334631803Y-101023654D01*
X334276561Y-101170800D01*
X333956852Y-101384423D01*
X333684963Y-101656312D01*
X333471340Y-101976021D01*
X333324194Y-102331263D01*
X333249180Y-102708385D01*
X330054054Y-102708385D01*
X329981566Y-102343963D01*
X329834420Y-101988721D01*
X329620797Y-101669012D01*
X329348908Y-101397123D01*
X329029199Y-101183500D01*
X328673957Y-101036354D01*
X328296835Y-100961340D01*
X327912325Y-100961340D01*
X327535203Y-101036354D01*
X327179961Y-101183500D01*
X326860252Y-101397123D01*
X326588363Y-101669012D01*
X326374740Y-101988721D01*
X326227594Y-102343963D01*
X326152580Y-102721085D01*
X318626580Y-102721085D01*
X318551566Y-102343963D01*
X318404420Y-101988721D01*
X318190797Y-101669012D01*
X317918908Y-101397123D01*
X317599199Y-101183500D01*
X317243957Y-101036354D01*
X316866835Y-100961340D01*
X316482325Y-100961340D01*
X316105203Y-101036354D01*
X315749961Y-101183500D01*
X315430252Y-101397123D01*
X315158363Y-101669012D01*
X314944740Y-101988721D01*
X314797594Y-102343963D01*
X314722580Y-102721085D01*
X314486365Y-102721085D01*
X314562833Y-102578024D01*
X314624417Y-102375009D01*
X314640000Y-102216789D01*
X314640000Y-102216788D01*
X314645211Y-102163881D01*
X314640000Y-102110974D01*
X314640000Y-94045246D01*
X320302000Y-94045246D01*
X320302000Y-94168754D01*
X320326095Y-94289889D01*
X320373360Y-94403996D01*
X320441977Y-94506689D01*
X320529311Y-94594023D01*
X320632004Y-94662640D01*
X320746111Y-94709905D01*
X320867246Y-94734000D01*
X320990754Y-94734000D01*
X321111889Y-94709905D01*
X321225996Y-94662640D01*
X321328689Y-94594023D01*
X321388712Y-94534000D01*
X323517288Y-94534000D01*
X323577311Y-94594023D01*
X323680004Y-94662640D01*
X323794111Y-94709905D01*
X323915246Y-94734000D01*
X324038754Y-94734000D01*
X324159889Y-94709905D01*
X324273996Y-94662640D01*
X324376689Y-94594023D01*
X324464023Y-94506689D01*
X324532640Y-94403996D01*
X324579905Y-94289889D01*
X324604000Y-94168754D01*
X324604000Y-94045246D01*
X324579905Y-93924111D01*
X324532640Y-93810004D01*
X324464023Y-93707311D01*
X324376689Y-93619977D01*
X324273996Y-93551360D01*
X324159889Y-93504095D01*
X324038754Y-93480000D01*
X323915246Y-93480000D01*
X323794111Y-93504095D01*
X323680004Y-93551360D01*
X323577311Y-93619977D01*
X323517288Y-93680000D01*
X321388712Y-93680000D01*
X321328689Y-93619977D01*
X321225996Y-93551360D01*
X321111889Y-93504095D01*
X320990754Y-93480000D01*
X320867246Y-93480000D01*
X320746111Y-93504095D01*
X320632004Y-93551360D01*
X320529311Y-93619977D01*
X320441977Y-93707311D01*
X320373360Y-93810004D01*
X320326095Y-93924111D01*
X320302000Y-94045246D01*
X314640000Y-94045246D01*
X314640000Y-86235109D01*
X314645211Y-86182200D01*
X314640000Y-86129291D01*
X314640000Y-82710312D01*
X314649211Y-82719523D01*
X314751904Y-82788140D01*
X314866011Y-82835405D01*
X314987146Y-82859500D01*
X315110654Y-82859500D01*
X315197831Y-82842160D01*
X315353700Y-82857511D01*
X315470538Y-82846004D01*
X315475611Y-82848105D01*
X315596746Y-82872200D01*
X315720254Y-82872200D01*
X315841389Y-82848105D01*
X315955496Y-82800840D01*
X316058189Y-82732223D01*
X316145523Y-82644889D01*
X316214140Y-82542196D01*
X316261405Y-82428089D01*
X316282405Y-82322516D01*
X316353533Y-82189444D01*
X316415117Y-81986429D01*
X316430700Y-81828209D01*
X316430700Y-79916754D01*
X316517011Y-79952505D01*
X316638146Y-79976600D01*
X316761654Y-79976600D01*
X316882789Y-79952505D01*
X316996896Y-79905240D01*
X317099589Y-79836623D01*
X317186923Y-79749289D01*
X317255540Y-79646596D01*
X317302805Y-79532489D01*
X317326900Y-79411354D01*
X317326900Y-79287846D01*
X317302805Y-79166711D01*
X317255540Y-79052604D01*
X317239704Y-79028903D01*
X317268240Y-78986196D01*
X317315505Y-78872089D01*
X317339600Y-78750954D01*
X317339600Y-78627446D01*
X317315505Y-78506311D01*
X317270991Y-78398845D01*
X317285846Y-78401800D01*
X317409354Y-78401800D01*
X317530489Y-78377705D01*
X317644596Y-78330440D01*
X317747289Y-78261823D01*
X317834623Y-78174489D01*
X317903240Y-78071796D01*
X317950505Y-77957689D01*
X317974600Y-77836554D01*
X317974600Y-77713046D01*
X317950505Y-77591911D01*
X317903240Y-77477804D01*
X317834623Y-77375111D01*
X317774600Y-77315088D01*
X317774600Y-75442872D01*
X317885846Y-75465000D01*
X318009354Y-75465000D01*
X318130489Y-75440905D01*
X318244596Y-75393640D01*
X318347289Y-75325023D01*
X318434623Y-75237689D01*
X318503240Y-75134996D01*
X318550505Y-75020889D01*
X318574600Y-74899754D01*
X318574600Y-74776246D01*
X318550505Y-74655111D01*
X318503240Y-74541004D01*
X318434623Y-74438311D01*
X318374600Y-74378288D01*
X318374600Y-71960712D01*
X318434623Y-71900689D01*
X318503240Y-71797996D01*
X318550505Y-71683889D01*
X318574600Y-71562754D01*
X318574600Y-71439246D01*
X318550505Y-71318111D01*
X318503240Y-71204004D01*
X318434623Y-71101311D01*
X318347289Y-71013977D01*
X318244596Y-70945360D01*
X318130489Y-70898095D01*
X318009354Y-70874000D01*
X317885846Y-70874000D01*
X317774600Y-70896128D01*
X317774600Y-60931040D01*
X317781059Y-60929755D01*
X317895166Y-60882490D01*
X317997859Y-60813873D01*
X318085193Y-60726539D01*
X318153810Y-60623846D01*
X318201075Y-60509739D01*
X318225170Y-60388604D01*
X318225170Y-60265096D01*
X318201075Y-60143961D01*
X318153810Y-60029854D01*
X318085193Y-59927161D01*
X317997859Y-59839827D01*
X317895166Y-59771210D01*
X317781059Y-59723945D01*
X317659924Y-59699850D01*
X317536416Y-59699850D01*
X317415281Y-59723945D01*
X317301174Y-59771210D01*
X317198481Y-59839827D01*
X317111147Y-59927161D01*
X317042530Y-60029854D01*
X316995265Y-60143961D01*
X316971170Y-60265096D01*
X316971170Y-60375854D01*
X316951196Y-60413224D01*
X316926779Y-60493713D01*
X316920601Y-60556442D01*
X316918535Y-60577420D01*
X316920601Y-60598397D01*
X316920601Y-63778536D01*
X316908189Y-63773395D01*
X316787054Y-63749300D01*
X316663546Y-63749300D01*
X316542411Y-63773395D01*
X316430700Y-63819668D01*
X316430700Y-59003769D01*
X316435911Y-58950860D01*
X316415117Y-58739731D01*
X316353533Y-58536716D01*
X316253526Y-58349616D01*
X316243103Y-58336916D01*
X316118939Y-58185621D01*
X316077834Y-58151887D01*
X316065141Y-58139194D01*
X315942244Y-58038335D01*
X315755144Y-57938328D01*
X315552129Y-57876744D01*
X315341000Y-57855949D01*
X315129871Y-57876744D01*
X314926856Y-57938328D01*
X314739756Y-58038335D01*
X314575762Y-58172922D01*
X314469587Y-58302296D01*
X314338398Y-58142442D01*
X314174404Y-58007855D01*
X313987304Y-57907848D01*
X313784289Y-57846264D01*
X313573159Y-57825469D01*
X313362031Y-57846264D01*
X313159016Y-57907848D01*
X312971916Y-58007855D01*
X312849019Y-58108714D01*
X312838861Y-58118872D01*
X312797762Y-58152601D01*
X312705009Y-58265621D01*
X312663175Y-58316596D01*
X312563168Y-58503696D01*
X312507431Y-58687437D01*
X312497671Y-58638372D01*
X312450406Y-58524265D01*
X312381789Y-58421572D01*
X312294455Y-58334238D01*
X312191762Y-58265621D01*
X312077655Y-58218356D01*
X311956520Y-58194261D01*
X311833012Y-58194261D01*
X311711877Y-58218356D01*
X311597770Y-58265621D01*
X311495077Y-58334238D01*
X311407743Y-58421572D01*
X311339126Y-58524265D01*
X311291861Y-58638372D01*
X311267766Y-58759507D01*
X311267766Y-58788993D01*
X311171375Y-58808166D01*
X311057268Y-58855431D01*
X310954575Y-58924048D01*
X310867241Y-59011382D01*
X310798624Y-59114075D01*
X310751359Y-59228182D01*
X310735713Y-59306840D01*
X310686926Y-59306840D01*
X310565791Y-59330935D01*
X310451684Y-59378200D01*
X310348991Y-59446817D01*
X310261657Y-59534151D01*
X310193040Y-59636844D01*
X310145775Y-59750951D01*
X310121680Y-59872086D01*
X310121680Y-59995594D01*
X310145775Y-60116729D01*
X310193040Y-60230836D01*
X310261657Y-60333529D01*
X310348991Y-60420863D01*
X310451684Y-60489480D01*
X310565791Y-60536745D01*
X310686926Y-60560840D01*
X310771812Y-60560840D01*
X311237312Y-61026341D01*
X311237311Y-88241202D01*
X309336060Y-86339952D01*
X309336060Y-86255066D01*
X309311965Y-86133931D01*
X309264700Y-86019824D01*
X309196083Y-85917131D01*
X309108749Y-85829797D01*
X309006056Y-85761180D01*
X308891949Y-85713915D01*
X308770814Y-85689820D01*
X308647306Y-85689820D01*
X308526171Y-85713915D01*
X308412064Y-85761180D01*
X308309371Y-85829797D01*
X308222037Y-85917131D01*
X308153420Y-86019824D01*
X308106155Y-86133931D01*
X308082060Y-86255066D01*
X308082060Y-86378574D01*
X308106155Y-86499709D01*
X308153420Y-86613816D01*
X308222037Y-86716509D01*
X308309371Y-86803843D01*
X308412064Y-86872460D01*
X308526171Y-86919725D01*
X308647306Y-86943820D01*
X308732192Y-86943820D01*
X310837300Y-89048929D01*
X310837301Y-101044670D01*
X309318580Y-102563392D01*
X309302285Y-102576765D01*
X309288913Y-102593059D01*
X309288912Y-102593060D01*
X309248925Y-102641784D01*
X309244831Y-102649444D01*
X309209275Y-102715965D01*
X309184858Y-102796454D01*
X309178680Y-102859183D01*
X309178680Y-102859193D01*
X309176615Y-102880160D01*
X309178680Y-102901127D01*
X309178681Y-110105803D01*
X309176615Y-110126780D01*
X309178681Y-110147757D01*
X309178681Y-110147758D01*
X309184859Y-110210487D01*
X309195846Y-110246706D01*
X309209276Y-110290976D01*
X309248925Y-110365156D01*
X309288912Y-110413880D01*
X309288917Y-110413885D01*
X309302286Y-110430175D01*
X309318576Y-110443544D01*
X311548500Y-112673469D01*
X311548501Y-121529185D01*
X311480384Y-121557400D01*
X311377691Y-121626017D01*
X311290357Y-121713351D01*
X311221740Y-121816044D01*
X311174475Y-121930151D01*
X311150380Y-122051286D01*
X311150380Y-122174794D01*
X311174475Y-122295929D01*
X311221740Y-122410036D01*
X311290357Y-122512729D01*
X311377691Y-122600063D01*
X311480384Y-122668680D01*
X311594491Y-122715945D01*
X311715626Y-122740040D01*
X311839134Y-122740040D01*
X311960269Y-122715945D01*
X311976452Y-122709242D01*
X311976451Y-134203561D01*
X311885054Y-134112164D01*
X311692279Y-133983356D01*
X311478078Y-133894631D01*
X311250684Y-133849400D01*
X311018836Y-133849400D01*
X310791442Y-133894631D01*
X310577241Y-133983356D01*
X310384466Y-134112164D01*
X310220524Y-134276106D01*
X310091716Y-134468881D01*
X310002991Y-134683082D01*
X309957760Y-134910476D01*
X309957760Y-135142324D01*
X310002991Y-135369718D01*
X310091716Y-135583919D01*
X310220524Y-135776694D01*
X310384466Y-135940636D01*
X310577241Y-136069444D01*
X310791442Y-136158169D01*
X311018836Y-136203400D01*
X311250684Y-136203400D01*
X311478078Y-136158169D01*
X311692279Y-136069444D01*
X311885054Y-135940636D01*
X311976451Y-135849239D01*
X311976451Y-136743561D01*
X311885054Y-136652164D01*
X311692279Y-136523356D01*
X311478078Y-136434631D01*
X311250684Y-136389400D01*
X311018836Y-136389400D01*
X310791442Y-136434631D01*
X310577241Y-136523356D01*
X310384466Y-136652164D01*
X310220524Y-136816106D01*
X310091716Y-137008881D01*
X310002991Y-137223082D01*
X309957760Y-137450476D01*
X309957760Y-137682324D01*
X310002991Y-137909718D01*
X310091716Y-138123919D01*
X310220524Y-138316694D01*
X310384466Y-138480636D01*
X310577241Y-138609444D01*
X310791442Y-138698169D01*
X311018836Y-138743400D01*
X311250684Y-138743400D01*
X311478078Y-138698169D01*
X311692279Y-138609444D01*
X311885054Y-138480636D01*
X311976451Y-138389239D01*
X311976451Y-138937699D01*
X311787302Y-139126848D01*
X311692279Y-139063356D01*
X311478078Y-138974631D01*
X311250684Y-138929400D01*
X311018836Y-138929400D01*
X310791442Y-138974631D01*
X310577241Y-139063356D01*
X310384466Y-139192164D01*
X310220524Y-139356106D01*
X310091716Y-139548881D01*
X310002991Y-139763082D01*
X309957760Y-139990476D01*
X309957760Y-140222324D01*
X310002991Y-140449718D01*
X310091716Y-140663919D01*
X310220524Y-140856694D01*
X310384466Y-141020636D01*
X310577241Y-141149444D01*
X310791442Y-141238169D01*
X311018836Y-141283400D01*
X311250684Y-141283400D01*
X311478078Y-141238169D01*
X311692279Y-141149444D01*
X311885054Y-141020636D01*
X312048996Y-140856694D01*
X312177804Y-140663919D01*
X312266529Y-140449718D01*
X312311760Y-140222324D01*
X312311760Y-139990476D01*
X312281839Y-139840050D01*
X312427340Y-139694549D01*
X312427340Y-141026811D01*
X311787303Y-141666849D01*
X311692279Y-141603356D01*
X311478078Y-141514631D01*
X311250684Y-141469400D01*
X311018836Y-141469400D01*
X310791442Y-141514631D01*
X310577241Y-141603356D01*
X310384466Y-141732164D01*
X310220524Y-141896106D01*
X310091716Y-142088881D01*
X310002991Y-142303082D01*
X309957760Y-142530476D01*
X309957760Y-142762324D01*
X310002991Y-142989718D01*
X310091716Y-143203919D01*
X310220524Y-143396694D01*
X310353251Y-143529421D01*
X310038470Y-143529421D01*
X309659819Y-143150770D01*
X309726529Y-142989718D01*
X309771760Y-142762324D01*
X309771760Y-142530476D01*
X309726529Y-142303082D01*
X309637804Y-142088881D01*
X309508996Y-141896106D01*
X309345054Y-141732164D01*
X309152279Y-141603356D01*
X308938078Y-141514631D01*
X308710684Y-141469400D01*
X308478836Y-141469400D01*
X308251442Y-141514631D01*
X308037241Y-141603356D01*
X307844466Y-141732164D01*
X307680524Y-141896106D01*
X307551716Y-142088881D01*
X307462991Y-142303082D01*
X307417760Y-142530476D01*
X307417760Y-142762324D01*
X307462991Y-142989718D01*
X307551716Y-143203919D01*
X307680524Y-143396694D01*
X307844466Y-143560636D01*
X308037241Y-143689444D01*
X308251442Y-143778169D01*
X308478836Y-143823400D01*
X308710684Y-143823400D01*
X308938078Y-143778169D01*
X309038065Y-143736753D01*
X309544837Y-144243526D01*
X309558206Y-144259816D01*
X309574496Y-144273185D01*
X309574500Y-144273189D01*
X309623224Y-144313176D01*
X309662874Y-144334369D01*
X309697405Y-144352826D01*
X309777894Y-144377243D01*
X309840623Y-144383421D01*
X309840633Y-144383421D01*
X309861600Y-144385486D01*
X309882567Y-144383421D01*
X312022632Y-144383421D01*
X312043599Y-144385486D01*
X312064566Y-144383421D01*
X312064577Y-144383421D01*
X312127306Y-144377243D01*
X312207795Y-144352826D01*
X312281975Y-144313176D01*
X312346994Y-144259816D01*
X312360367Y-144243521D01*
X313321660Y-143282229D01*
X313333890Y-147073000D01*
X304002000Y-147073000D01*
X304002000Y-145070476D01*
X307417760Y-145070476D01*
X307417760Y-145302324D01*
X307462991Y-145529718D01*
X307551716Y-145743919D01*
X307680524Y-145936694D01*
X307844466Y-146100636D01*
X308037241Y-146229444D01*
X308251442Y-146318169D01*
X308478836Y-146363400D01*
X308710684Y-146363400D01*
X308938078Y-146318169D01*
X309152279Y-146229444D01*
X309345054Y-146100636D01*
X309508996Y-145936694D01*
X309637804Y-145743919D01*
X309726529Y-145529718D01*
X309771760Y-145302324D01*
X309771760Y-145070476D01*
X309726529Y-144843082D01*
X309637804Y-144628881D01*
X309508996Y-144436106D01*
X309345054Y-144272164D01*
X309152279Y-144143356D01*
X308938078Y-144054631D01*
X308710684Y-144009400D01*
X308478836Y-144009400D01*
X308251442Y-144054631D01*
X308037241Y-144143356D01*
X307844466Y-144272164D01*
X307680524Y-144436106D01*
X307551716Y-144628881D01*
X307462991Y-144843082D01*
X307417760Y-145070476D01*
X304002000Y-145070476D01*
X304002000Y-139990476D01*
X307417760Y-139990476D01*
X307417760Y-140222324D01*
X307462991Y-140449718D01*
X307551716Y-140663919D01*
X307680524Y-140856694D01*
X307844466Y-141020636D01*
X308037241Y-141149444D01*
X308251442Y-141238169D01*
X308478836Y-141283400D01*
X308710684Y-141283400D01*
X308938078Y-141238169D01*
X309152279Y-141149444D01*
X309345054Y-141020636D01*
X309508996Y-140856694D01*
X309637804Y-140663919D01*
X309726529Y-140449718D01*
X309771760Y-140222324D01*
X309771760Y-139990476D01*
X309726529Y-139763082D01*
X309637804Y-139548881D01*
X309508996Y-139356106D01*
X309345054Y-139192164D01*
X309152279Y-139063356D01*
X308938078Y-138974631D01*
X308710684Y-138929400D01*
X308478836Y-138929400D01*
X308251442Y-138974631D01*
X308037241Y-139063356D01*
X307844466Y-139192164D01*
X307680524Y-139356106D01*
X307551716Y-139548881D01*
X307462991Y-139763082D01*
X307417760Y-139990476D01*
X304002000Y-139990476D01*
X304002000Y-137450476D01*
X307417760Y-137450476D01*
X307417760Y-137682324D01*
X307462991Y-137909718D01*
X307551716Y-138123919D01*
X307680524Y-138316694D01*
X307844466Y-138480636D01*
X308037241Y-138609444D01*
X308251442Y-138698169D01*
X308478836Y-138743400D01*
X308710684Y-138743400D01*
X308938078Y-138698169D01*
X309152279Y-138609444D01*
X309345054Y-138480636D01*
X309508996Y-138316694D01*
X309637804Y-138123919D01*
X309726529Y-137909718D01*
X309771760Y-137682324D01*
X309771760Y-137450476D01*
X309726529Y-137223082D01*
X309637804Y-137008881D01*
X309508996Y-136816106D01*
X309345054Y-136652164D01*
X309152279Y-136523356D01*
X308938078Y-136434631D01*
X308710684Y-136389400D01*
X308478836Y-136389400D01*
X308251442Y-136434631D01*
X308037241Y-136523356D01*
X307844466Y-136652164D01*
X307680524Y-136816106D01*
X307551716Y-137008881D01*
X307462991Y-137223082D01*
X307417760Y-137450476D01*
X304002000Y-137450476D01*
X304002000Y-134176400D01*
X307416178Y-134176400D01*
X307416178Y-135876400D01*
X307422492Y-135940503D01*
X307441190Y-136002143D01*
X307471554Y-136058950D01*
X307512417Y-136108743D01*
X307562210Y-136149606D01*
X307619017Y-136179970D01*
X307680657Y-136198668D01*
X307744760Y-136204982D01*
X309444760Y-136204982D01*
X309508863Y-136198668D01*
X309570503Y-136179970D01*
X309627310Y-136149606D01*
X309677103Y-136108743D01*
X309717966Y-136058950D01*
X309748330Y-136002143D01*
X309767028Y-135940503D01*
X309773342Y-135876400D01*
X309773342Y-134176400D01*
X309767028Y-134112297D01*
X309748330Y-134050657D01*
X309717966Y-133993850D01*
X309677103Y-133944057D01*
X309627310Y-133903194D01*
X309570503Y-133872830D01*
X309508863Y-133854132D01*
X309444760Y-133847818D01*
X307744760Y-133847818D01*
X307680657Y-133854132D01*
X307619017Y-133872830D01*
X307562210Y-133903194D01*
X307512417Y-133944057D01*
X307471554Y-133993850D01*
X307441190Y-134050657D01*
X307422492Y-134112297D01*
X307416178Y-134176400D01*
X304002000Y-134176400D01*
X304002000Y-96257586D01*
X306121180Y-96257586D01*
X306121180Y-96381094D01*
X306145275Y-96502229D01*
X306192540Y-96616336D01*
X306261157Y-96719029D01*
X306348491Y-96806363D01*
X306451184Y-96874980D01*
X306565291Y-96922245D01*
X306686426Y-96946340D01*
X306809934Y-96946340D01*
X306931069Y-96922245D01*
X307045176Y-96874980D01*
X307147869Y-96806363D01*
X307207892Y-96746340D01*
X308933512Y-96746340D01*
X309595241Y-97408070D01*
X309595240Y-97825588D01*
X309535217Y-97885611D01*
X309466600Y-97988304D01*
X309419335Y-98102411D01*
X309395240Y-98223546D01*
X309395240Y-98347054D01*
X309419335Y-98468189D01*
X309466600Y-98582296D01*
X309535217Y-98684989D01*
X309622551Y-98772323D01*
X309725244Y-98840940D01*
X309839351Y-98888205D01*
X309960486Y-98912300D01*
X310083994Y-98912300D01*
X310205129Y-98888205D01*
X310319236Y-98840940D01*
X310421929Y-98772323D01*
X310509263Y-98684989D01*
X310577880Y-98582296D01*
X310625145Y-98468189D01*
X310649240Y-98347054D01*
X310649240Y-98223546D01*
X310625145Y-98102411D01*
X310577880Y-97988304D01*
X310509263Y-97885611D01*
X310449240Y-97825588D01*
X310449240Y-97252167D01*
X310451305Y-97231200D01*
X310449240Y-97210233D01*
X310449240Y-97210222D01*
X310443062Y-97147493D01*
X310418645Y-97067004D01*
X310399042Y-97030329D01*
X310378996Y-96992823D01*
X310339008Y-96944099D01*
X310339004Y-96944095D01*
X310325635Y-96927805D01*
X310309345Y-96914436D01*
X309427148Y-96032240D01*
X309413775Y-96015945D01*
X309348756Y-95962585D01*
X309274576Y-95922935D01*
X309194087Y-95898518D01*
X309131358Y-95892340D01*
X309131347Y-95892340D01*
X309110380Y-95890275D01*
X309089413Y-95892340D01*
X307207892Y-95892340D01*
X307147869Y-95832317D01*
X307045176Y-95763700D01*
X306931069Y-95716435D01*
X306809934Y-95692340D01*
X306686426Y-95692340D01*
X306565291Y-95716435D01*
X306451184Y-95763700D01*
X306348491Y-95832317D01*
X306261157Y-95919651D01*
X306192540Y-96022344D01*
X306145275Y-96136451D01*
X306121180Y-96257586D01*
X304002000Y-96257586D01*
X304002000Y-54355206D01*
X319987040Y-54355206D01*
X319987040Y-54478714D01*
X320011135Y-54599849D01*
X320057424Y-54711600D01*
X320011135Y-54823351D01*
X319987040Y-54944486D01*
X319987040Y-55067994D01*
X320011135Y-55189129D01*
X320058400Y-55303236D01*
X320080446Y-55336230D01*
X320046695Y-55417711D01*
X320022600Y-55538846D01*
X320022600Y-55662354D01*
X320046695Y-55783489D01*
X320087560Y-55882145D01*
X320087561Y-59598247D01*
X320068560Y-59626684D01*
X320021295Y-59740791D01*
X319997200Y-59861926D01*
X319997200Y-59985434D01*
X320021295Y-60106569D01*
X320068560Y-60220676D01*
X320087561Y-60249113D01*
X320087561Y-60997770D01*
X320073640Y-61018604D01*
X320026375Y-61132711D01*
X320002280Y-61253846D01*
X320002280Y-61377354D01*
X320026375Y-61498489D01*
X320073640Y-61612596D01*
X320077157Y-61617860D01*
X320073640Y-61623124D01*
X320026375Y-61737231D01*
X320002280Y-61858366D01*
X320002280Y-61981874D01*
X320026375Y-62103009D01*
X320073640Y-62217116D01*
X320142257Y-62319809D01*
X320229591Y-62407143D01*
X320332284Y-62475760D01*
X320446391Y-62523025D01*
X320567526Y-62547120D01*
X320691034Y-62547120D01*
X320812169Y-62523025D01*
X320824675Y-62517845D01*
X320969640Y-62532123D01*
X321099036Y-62519378D01*
X321161886Y-62531880D01*
X321285394Y-62531880D01*
X321406529Y-62507785D01*
X321520636Y-62460520D01*
X321623329Y-62391903D01*
X321710663Y-62304569D01*
X321779280Y-62201876D01*
X321826545Y-62087769D01*
X321850640Y-61966634D01*
X321850640Y-61843126D01*
X321838138Y-61780276D01*
X321846640Y-61693959D01*
X321846640Y-61693949D01*
X321850882Y-61650879D01*
X321846640Y-61607810D01*
X321846640Y-61531602D01*
X321841560Y-61480024D01*
X321841560Y-61052657D01*
X334788640Y-61052657D01*
X334788640Y-61176165D01*
X334812735Y-61297300D01*
X334860000Y-61411407D01*
X334928617Y-61514100D01*
X334988640Y-61574123D01*
X334988641Y-65007767D01*
X334930137Y-65066271D01*
X334861520Y-65168964D01*
X334814255Y-65283071D01*
X334790160Y-65404206D01*
X334790160Y-65527714D01*
X334814255Y-65648849D01*
X334861520Y-65762956D01*
X334930137Y-65865649D01*
X335017471Y-65952983D01*
X335120164Y-66021600D01*
X335234271Y-66068865D01*
X335355406Y-66092960D01*
X335478914Y-66092960D01*
X335600049Y-66068865D01*
X335714156Y-66021600D01*
X335816849Y-65952983D01*
X335904183Y-65865649D01*
X335972800Y-65762956D01*
X336020065Y-65648849D01*
X336044160Y-65527714D01*
X336044160Y-65503270D01*
X336100166Y-65514410D01*
X336223674Y-65514410D01*
X336344809Y-65490315D01*
X336458916Y-65443050D01*
X336561609Y-65374433D01*
X336648943Y-65287099D01*
X336717560Y-65184406D01*
X336764825Y-65070299D01*
X336788920Y-64949164D01*
X336788920Y-64825656D01*
X336764825Y-64704521D01*
X336717560Y-64590414D01*
X336648943Y-64487721D01*
X336588920Y-64427698D01*
X336588920Y-63254358D01*
X340428515Y-63254358D01*
X340428515Y-63377866D01*
X340452610Y-63499001D01*
X340499875Y-63613108D01*
X340568492Y-63715801D01*
X340628516Y-63775825D01*
X340628515Y-65302308D01*
X340626450Y-65323275D01*
X340628515Y-65344242D01*
X340628515Y-65344252D01*
X340634693Y-65406981D01*
X340659110Y-65487470D01*
X340664911Y-65498323D01*
X340698760Y-65561651D01*
X340733465Y-65603939D01*
X340752120Y-65626670D01*
X340768415Y-65640043D01*
X342924793Y-67796423D01*
X342938157Y-67812707D01*
X342954441Y-67826071D01*
X342954450Y-67826080D01*
X343003175Y-67866067D01*
X343042825Y-67887260D01*
X343077356Y-67905717D01*
X343157845Y-67930134D01*
X343220574Y-67936312D01*
X343220584Y-67936312D01*
X343241551Y-67938377D01*
X343262518Y-67936312D01*
X348151400Y-67936312D01*
X348211423Y-67996335D01*
X348314116Y-68064952D01*
X348428223Y-68112217D01*
X348549358Y-68136312D01*
X348672866Y-68136312D01*
X348794001Y-68112217D01*
X348908108Y-68064952D01*
X349010801Y-67996335D01*
X349098135Y-67909001D01*
X349166752Y-67806308D01*
X349214017Y-67692201D01*
X349238112Y-67571066D01*
X349238112Y-67447558D01*
X349214017Y-67326423D01*
X349166752Y-67212316D01*
X349098135Y-67109623D01*
X349010801Y-67022289D01*
X348908108Y-66953672D01*
X348794001Y-66906407D01*
X348672866Y-66882312D01*
X348549358Y-66882312D01*
X348428223Y-66906407D01*
X348314116Y-66953672D01*
X348211423Y-67022289D01*
X348151400Y-67082312D01*
X343418422Y-67082312D01*
X342929036Y-66592926D01*
X351269680Y-66592926D01*
X351269680Y-66716434D01*
X351293775Y-66837569D01*
X351341040Y-66951676D01*
X351409657Y-67054369D01*
X351496991Y-67141703D01*
X351599684Y-67210320D01*
X351713791Y-67257585D01*
X351834926Y-67281680D01*
X351958434Y-67281680D01*
X352079569Y-67257585D01*
X352193676Y-67210320D01*
X352296369Y-67141703D01*
X352383703Y-67054369D01*
X352452320Y-66951676D01*
X352499585Y-66837569D01*
X352523680Y-66716434D01*
X352523680Y-66592926D01*
X352499585Y-66471791D01*
X352452320Y-66357684D01*
X352451343Y-66356221D01*
X352457400Y-66347156D01*
X352504665Y-66233049D01*
X352528760Y-66111914D01*
X352528760Y-65988406D01*
X352504665Y-65867271D01*
X352457400Y-65753164D01*
X352388783Y-65650471D01*
X352354160Y-65615848D01*
X352354160Y-60253312D01*
X352414183Y-60193289D01*
X352482800Y-60090596D01*
X352530065Y-59976489D01*
X352554160Y-59855354D01*
X352554160Y-59731846D01*
X352530065Y-59610711D01*
X352526808Y-59602846D01*
X355442900Y-59602846D01*
X355442900Y-59726354D01*
X355466995Y-59847489D01*
X355514260Y-59961596D01*
X355582877Y-60064289D01*
X355642901Y-60124313D01*
X355642900Y-62608488D01*
X355582877Y-62668511D01*
X355514260Y-62771204D01*
X355466995Y-62885311D01*
X355442900Y-63006446D01*
X355442900Y-63129954D01*
X355466995Y-63251089D01*
X355514260Y-63365196D01*
X355582877Y-63467889D01*
X355670211Y-63555223D01*
X355772904Y-63623840D01*
X355887011Y-63671105D01*
X356008146Y-63695200D01*
X356131654Y-63695200D01*
X356252789Y-63671105D01*
X356366896Y-63623840D01*
X356469589Y-63555223D01*
X356556923Y-63467889D01*
X356625540Y-63365196D01*
X356672805Y-63251089D01*
X356696900Y-63129954D01*
X356696900Y-63006446D01*
X356672805Y-62885311D01*
X356625540Y-62771204D01*
X356556923Y-62668511D01*
X356496900Y-62608488D01*
X356496900Y-60124312D01*
X356556923Y-60064289D01*
X356625540Y-59961596D01*
X356672805Y-59847489D01*
X356696900Y-59726354D01*
X356696900Y-59602846D01*
X356672805Y-59481711D01*
X356625540Y-59367604D01*
X356556923Y-59264911D01*
X356469589Y-59177577D01*
X356366896Y-59108960D01*
X356252789Y-59061695D01*
X356131654Y-59037600D01*
X356008146Y-59037600D01*
X355887011Y-59061695D01*
X355772904Y-59108960D01*
X355670211Y-59177577D01*
X355582877Y-59264911D01*
X355514260Y-59367604D01*
X355466995Y-59481711D01*
X355442900Y-59602846D01*
X352526808Y-59602846D01*
X352482800Y-59496604D01*
X352414183Y-59393911D01*
X352326849Y-59306577D01*
X352224156Y-59237960D01*
X352110049Y-59190695D01*
X351988914Y-59166600D01*
X351865406Y-59166600D01*
X351744271Y-59190695D01*
X351630164Y-59237960D01*
X351527471Y-59306577D01*
X351440137Y-59393911D01*
X351371520Y-59496604D01*
X351324255Y-59610711D01*
X351300160Y-59731846D01*
X351300160Y-59855354D01*
X351324255Y-59976489D01*
X351371520Y-60090596D01*
X351440137Y-60193289D01*
X351500160Y-60253312D01*
X351500161Y-65565047D01*
X351414737Y-65650471D01*
X351346120Y-65753164D01*
X351298855Y-65867271D01*
X351274760Y-65988406D01*
X351274760Y-66111914D01*
X351298855Y-66233049D01*
X351346120Y-66347156D01*
X351347097Y-66348619D01*
X351341040Y-66357684D01*
X351293775Y-66471791D01*
X351269680Y-66592926D01*
X342929036Y-66592926D01*
X341482515Y-65146407D01*
X341482515Y-63775824D01*
X341542538Y-63715801D01*
X341611155Y-63613108D01*
X341658420Y-63499001D01*
X341682515Y-63377866D01*
X341682515Y-63254358D01*
X341658420Y-63133223D01*
X341611155Y-63019116D01*
X341542538Y-62916423D01*
X341455204Y-62829089D01*
X341352511Y-62760472D01*
X341238404Y-62713207D01*
X341117269Y-62689112D01*
X340993761Y-62689112D01*
X340872626Y-62713207D01*
X340758519Y-62760472D01*
X340655826Y-62829089D01*
X340568492Y-62916423D01*
X340499875Y-63019116D01*
X340452610Y-63133223D01*
X340428515Y-63254358D01*
X336588920Y-63254358D01*
X336588920Y-62069943D01*
X337008364Y-61650500D01*
X337093249Y-61650500D01*
X337214384Y-61626405D01*
X337328491Y-61579140D01*
X337431184Y-61510523D01*
X337518518Y-61423189D01*
X337587135Y-61320496D01*
X337634400Y-61206389D01*
X337658495Y-61085254D01*
X337658495Y-60961746D01*
X337634400Y-60840611D01*
X337587135Y-60726504D01*
X337518518Y-60623811D01*
X337431184Y-60536477D01*
X337328491Y-60467860D01*
X337214384Y-60420595D01*
X337093249Y-60396500D01*
X336969741Y-60396500D01*
X336848606Y-60420595D01*
X336734499Y-60467860D01*
X336631806Y-60536477D01*
X336544472Y-60623811D01*
X336475855Y-60726504D01*
X336428590Y-60840611D01*
X336404495Y-60961746D01*
X336404495Y-61046631D01*
X335874815Y-61576312D01*
X335858526Y-61589680D01*
X335845157Y-61605970D01*
X335845152Y-61605975D01*
X335842640Y-61609036D01*
X335842640Y-61574123D01*
X335902663Y-61514100D01*
X335971280Y-61411407D01*
X336018545Y-61297300D01*
X336042640Y-61176165D01*
X336042640Y-61052657D01*
X336018545Y-60931522D01*
X335971280Y-60817415D01*
X335902663Y-60714722D01*
X335815329Y-60627388D01*
X335712636Y-60558771D01*
X335598529Y-60511506D01*
X335477394Y-60487411D01*
X335353886Y-60487411D01*
X335232751Y-60511506D01*
X335118644Y-60558771D01*
X335015951Y-60627388D01*
X334928617Y-60714722D01*
X334860000Y-60817415D01*
X334812735Y-60931522D01*
X334788640Y-61052657D01*
X321841560Y-61052657D01*
X321841560Y-55677384D01*
X321845560Y-55657274D01*
X321845560Y-55533766D01*
X321841560Y-55513656D01*
X321841560Y-54419399D01*
X321845803Y-54376320D01*
X321828870Y-54204398D01*
X321778722Y-54039083D01*
X321697287Y-53886728D01*
X321587693Y-53753187D01*
X321454152Y-53643593D01*
X321301797Y-53562158D01*
X321136482Y-53512010D01*
X321007639Y-53499320D01*
X320964560Y-53495077D01*
X320921481Y-53499320D01*
X320792638Y-53512010D01*
X320627323Y-53562158D01*
X320474968Y-53643593D01*
X320341427Y-53753187D01*
X320231833Y-53886728D01*
X320202292Y-53941996D01*
X320127017Y-54017271D01*
X320058400Y-54119964D01*
X320011135Y-54234071D01*
X319987040Y-54355206D01*
X304002000Y-54355206D01*
X304002000Y-51573963D01*
X325973000Y-51573963D01*
X325973000Y-51746717D01*
X326006703Y-51916151D01*
X326072813Y-52075755D01*
X326168790Y-52219395D01*
X326290945Y-52341550D01*
X326434585Y-52437527D01*
X326594189Y-52503637D01*
X326763623Y-52537340D01*
X326936377Y-52537340D01*
X327105811Y-52503637D01*
X327265415Y-52437527D01*
X327409055Y-52341550D01*
X327531210Y-52219395D01*
X327627187Y-52075755D01*
X327693297Y-51916151D01*
X327727000Y-51746717D01*
X327727000Y-51573963D01*
X330473000Y-51573963D01*
X330473000Y-51746717D01*
X330506703Y-51916151D01*
X330572813Y-52075755D01*
X330668790Y-52219395D01*
X330790945Y-52341550D01*
X330934585Y-52437527D01*
X331094189Y-52503637D01*
X331263623Y-52537340D01*
X331436377Y-52537340D01*
X331605811Y-52503637D01*
X331765415Y-52437527D01*
X331909055Y-52341550D01*
X332031210Y-52219395D01*
X332127187Y-52075755D01*
X332193297Y-51916151D01*
X332227000Y-51746717D01*
X332227000Y-51573963D01*
X332193297Y-51404529D01*
X332127187Y-51244925D01*
X332031210Y-51101285D01*
X331909055Y-50979130D01*
X331765415Y-50883153D01*
X331605811Y-50817043D01*
X331436377Y-50783340D01*
X331263623Y-50783340D01*
X331094189Y-50817043D01*
X330934585Y-50883153D01*
X330790945Y-50979130D01*
X330668790Y-51101285D01*
X330572813Y-51244925D01*
X330506703Y-51404529D01*
X330473000Y-51573963D01*
X327727000Y-51573963D01*
X327693297Y-51404529D01*
X327627187Y-51244925D01*
X327531210Y-51101285D01*
X327409055Y-50979130D01*
X327265415Y-50883153D01*
X327105811Y-50817043D01*
X326936377Y-50783340D01*
X326763623Y-50783340D01*
X326594189Y-50817043D01*
X326434585Y-50883153D01*
X326290945Y-50979130D01*
X326168790Y-51101285D01*
X326072813Y-51244925D01*
X326006703Y-51404529D01*
X325973000Y-51573963D01*
X304002000Y-51573963D01*
X304002000Y-50164828D01*
X343674120Y-50164828D01*
X343674120Y-50327732D01*
X343705902Y-50487507D01*
X343768243Y-50638011D01*
X343858748Y-50773461D01*
X343973939Y-50888652D01*
X344109389Y-50979157D01*
X344259893Y-51041498D01*
X344419668Y-51073280D01*
X344582572Y-51073280D01*
X344742347Y-51041498D01*
X344892851Y-50979157D01*
X345028301Y-50888652D01*
X345143492Y-50773461D01*
X345233997Y-50638011D01*
X345296338Y-50487507D01*
X345328120Y-50327732D01*
X345328120Y-50164828D01*
X345325182Y-50150054D01*
X351024120Y-50150054D01*
X351024120Y-50342506D01*
X351061666Y-50531260D01*
X351135314Y-50709063D01*
X351242235Y-50869081D01*
X351378319Y-51005165D01*
X351538337Y-51112086D01*
X351716140Y-51185734D01*
X351904894Y-51223280D01*
X352097346Y-51223280D01*
X352286100Y-51185734D01*
X352463903Y-51112086D01*
X352623921Y-51005165D01*
X352760005Y-50869081D01*
X352866926Y-50709063D01*
X352940574Y-50531260D01*
X352978120Y-50342506D01*
X352978120Y-50150054D01*
X352940574Y-49961300D01*
X352866926Y-49783497D01*
X352760005Y-49623479D01*
X352623921Y-49487395D01*
X352463903Y-49380474D01*
X352286100Y-49306826D01*
X352097346Y-49269280D01*
X351904894Y-49269280D01*
X351716140Y-49306826D01*
X351538337Y-49380474D01*
X351378319Y-49487395D01*
X351242235Y-49623479D01*
X351135314Y-49783497D01*
X351061666Y-49961300D01*
X351024120Y-50150054D01*
X345325182Y-50150054D01*
X345296338Y-50005053D01*
X345233997Y-49854549D01*
X345143492Y-49719099D01*
X345028301Y-49603908D01*
X344892851Y-49513403D01*
X344742347Y-49451062D01*
X344582572Y-49419280D01*
X344419668Y-49419280D01*
X344259893Y-49451062D01*
X344109389Y-49513403D01*
X343973939Y-49603908D01*
X343858748Y-49719099D01*
X343768243Y-49854549D01*
X343705902Y-50005053D01*
X343674120Y-50164828D01*
X304002000Y-50164828D01*
X304002000Y-48208397D01*
X311083000Y-48208397D01*
X311083000Y-48351603D01*
X311110938Y-48492058D01*
X311165741Y-48624364D01*
X311245302Y-48743436D01*
X311346564Y-48844698D01*
X311465636Y-48924259D01*
X311597942Y-48979062D01*
X311738397Y-49007000D01*
X311881603Y-49007000D01*
X312022058Y-48979062D01*
X312154364Y-48924259D01*
X312273436Y-48844698D01*
X312374698Y-48743436D01*
X312454259Y-48624364D01*
X312509062Y-48492058D01*
X312537000Y-48351603D01*
X312537000Y-48208397D01*
X316083000Y-48208397D01*
X316083000Y-48351603D01*
X316110938Y-48492058D01*
X316165741Y-48624364D01*
X316245302Y-48743436D01*
X316346564Y-48844698D01*
X316465636Y-48924259D01*
X316597942Y-48979062D01*
X316738397Y-49007000D01*
X316881603Y-49007000D01*
X317022058Y-48979062D01*
X317154364Y-48924259D01*
X317273436Y-48844698D01*
X317374698Y-48743436D01*
X317454259Y-48624364D01*
X317509062Y-48492058D01*
X317537000Y-48351603D01*
X317537000Y-48208397D01*
X317509062Y-48067942D01*
X317454259Y-47935636D01*
X317374698Y-47816564D01*
X317273436Y-47715302D01*
X317154364Y-47635741D01*
X317022058Y-47580938D01*
X316881603Y-47553000D01*
X316738397Y-47553000D01*
X316597942Y-47580938D01*
X316465636Y-47635741D01*
X316346564Y-47715302D01*
X316245302Y-47816564D01*
X316165741Y-47935636D01*
X316110938Y-48067942D01*
X316083000Y-48208397D01*
X312537000Y-48208397D01*
X312509062Y-48067942D01*
X312454259Y-47935636D01*
X312374698Y-47816564D01*
X312273436Y-47715302D01*
X312154364Y-47635741D01*
X312022058Y-47580938D01*
X311881603Y-47553000D01*
X311738397Y-47553000D01*
X311597942Y-47580938D01*
X311465636Y-47635741D01*
X311346564Y-47715302D01*
X311245302Y-47816564D01*
X311165741Y-47935636D01*
X311110938Y-48067942D01*
X311083000Y-48208397D01*
X304002000Y-48208397D01*
X304002000Y-42802000D01*
X359298000Y-42802000D01*
X359298001Y-79205880D01*
G36*
X338837127Y-122677154D02*
G01*
X338870861Y-122718259D01*
X339034856Y-122852846D01*
X339221956Y-122952853D01*
X339424971Y-123014437D01*
X339583191Y-123030020D01*
X339583192Y-123030020D01*
X339636099Y-123035231D01*
X339689006Y-123030020D01*
X342618021Y-123030020D01*
X342618020Y-130828903D01*
X341833422Y-130838856D01*
X341845900Y-123611859D01*
X341843460Y-123586864D01*
X341836233Y-123563039D01*
X341824497Y-123541083D01*
X341808703Y-123521837D01*
X341789457Y-123506043D01*
X341767501Y-123494307D01*
X341743676Y-123487080D01*
X341718900Y-123484640D01*
X338335889Y-123484640D01*
X338335889Y-122175916D01*
X338837127Y-122677154D01*
G37*
X338837127Y-122677154D02*
X338870861Y-122718259D01*
X339034856Y-122852846D01*
X339221956Y-122952853D01*
X339424971Y-123014437D01*
X339583191Y-123030020D01*
X339583192Y-123030020D01*
X339636099Y-123035231D01*
X339689006Y-123030020D01*
X342618021Y-123030020D01*
X342618020Y-130828903D01*
X341833422Y-130838856D01*
X341845900Y-123611859D01*
X341843460Y-123586864D01*
X341836233Y-123563039D01*
X341824497Y-123541083D01*
X341808703Y-123521837D01*
X341789457Y-123506043D01*
X341767501Y-123494307D01*
X341743676Y-123487080D01*
X341718900Y-123484640D01*
X338335889Y-123484640D01*
X338335889Y-122175916D01*
X338837127Y-122677154D01*
%TD*%
M02*
