M48
; DRILL file {KiCad (5.1.7)-1} date 12/16/20 17:12:45
; FORMAT={-:-/ absolute / inch / decimal}
; #@! TF.CreationDate,2020-12-16T17:12:45+07:00
; #@! TF.GenerationSoftware,Kicad,Pcbnew,(5.1.7)-1
; #@! TF.FileFunction,Plated,1,2,PTH
FMAT,2
INCH
T1C0.0079
T2C0.0118
T3C0.0157
T4C0.0217
T5C0.0300
T6C0.0335
T7C0.0354
T8C0.0394
T9C0.0512
T10C0.0598
T11C0.0642
%
G90
G05
T1
X12.1443Y-3.6762
X12.1443Y-3.7274
X12.1837Y-3.6762
X12.1837Y-3.7274
X12.223Y-3.6762
X12.223Y-3.7274
X13.9318Y-4.6619
X13.9318Y-4.7209
X13.9908Y-4.6619
X13.9908Y-4.7209
X14.0499Y-4.6619
X14.0499Y-4.7209
T2
X12.0Y-3.875
X12.0Y-3.925
X12.0Y-3.975
X12.0Y-4.025
X12.0Y-4.075
X12.0Y-4.125
X12.025Y-3.175
X12.025Y-3.225
X12.025Y-3.275
X12.05Y-2.4
X12.05Y-2.45
X12.05Y-2.8
X12.05Y-2.85
X12.05Y-4.5
X12.05Y-4.55
X12.05Y-4.6
X12.05Y-4.65
X12.075Y-2.025
X12.075Y-2.375
X12.075Y-2.95
X12.075Y-3.0
X12.075Y-3.175
X12.075Y-3.225
X12.075Y-3.275
X12.075Y-3.475
X12.075Y-3.675
X12.075Y-3.7
X12.0767Y-3.7921
X12.1Y-2.8
X12.1Y-2.85
X12.1Y-4.5
X12.1Y-4.55
X12.1Y-4.6
X12.1Y-4.65
X12.125Y-2.025
X12.125Y-2.375
X12.125Y-3.475
X12.1539Y-3.3983
X12.1977Y-3.1997
X12.2056Y-3.8695
X12.219Y-5.768
X12.225Y-3.0
X12.225Y-3.175
X12.2342Y-2.3596
X12.2422Y-3.0192
X12.258Y-2.339
X12.269Y-5.768
X12.2747Y-4.8076
X12.275Y-2.075
X12.275Y-2.125
X12.2793Y-2.3158
X12.3Y-1.775
X12.3Y-1.825
X12.3Y-5.7
X12.3Y-5.75
X12.3308Y-2.3382
X12.3312Y-2.314
X12.3312Y-2.3624
X12.3312Y-3.27
X12.3314Y-3.2941
X12.3317Y-3.2447
X12.3446Y-4.3796
X12.35Y-1.775
X12.35Y-1.825
X12.3556Y-2.3626
X12.3558Y-2.3382
X12.3561Y-3.2686
X12.3561Y-3.2939
X12.3568Y-2.314
X12.3568Y-3.2437
X12.3616Y-4.36
X12.362Y-4.396
X12.378Y-4.3784
X12.3796Y-4.4132
X12.3962Y-4.396
X12.4Y-1.775
X12.4Y-1.825
X12.4202Y-4.6326
X12.4206Y-4.608
X12.4206Y-4.657
X12.425Y-3.725
X12.425Y-3.775
X12.425Y-3.825
X12.4452Y-4.6326
X12.4456Y-4.608
X12.4456Y-4.657
X12.45Y-1.775
X12.45Y-1.825
X12.4689Y-2.8606
X12.469Y-2.5595
X12.469Y-2.8845
X12.469Y-3.125
X12.4694Y-4.6334
X12.4695Y-2.5345
X12.4698Y-4.6088
X12.4698Y-4.6578
X12.47Y-3.155
X12.47Y-4.15
X12.47Y-4.2
X12.475Y-3.725
X12.475Y-3.775
X12.475Y-3.825
X12.494Y-3.0744
X12.5Y-4.15
X12.5Y-4.2
X12.5039Y-2.3751
X12.5176Y-2.815
X12.5176Y-2.9464
X12.525Y-3.725
X12.525Y-3.775
X12.525Y-3.825
X12.5398Y-3.369
X12.5398Y-3.394
X12.5398Y-3.419
X12.55Y-2.075
X12.55Y-2.125
X12.55Y-2.675
X12.55Y-2.7
X12.55Y-3.2
X12.55Y-3.25
X12.5648Y-3.369
X12.5648Y-3.394
X12.5648Y-3.419
X12.5898Y-3.369
X12.5898Y-3.394
X12.5898Y-3.419
X12.6Y-3.2
X12.6Y-3.25
X12.6Y-3.825
X12.6Y-3.875
X12.6226Y-2.1424
X12.6226Y-2.1656
X12.623Y-2.3592
X12.6232Y-2.414
X12.6232Y-2.4378
X12.624Y-2.189
X12.6381Y-3.1299
X12.6386Y-3.1541
X12.6388Y-3.178
X12.64Y-3.03
X12.645Y-2.3592
X12.6458Y-2.1654
X12.646Y-2.1424
X12.6462Y-2.414
X12.6464Y-2.1888
X12.6466Y-2.4372
X12.6627Y-3.1303
X12.6629Y-3.1542
X12.6634Y-3.178
X12.665Y-3.03
X12.675Y-2.65
X12.675Y-2.675
X12.675Y-4.125
X12.675Y-4.175
X12.675Y-4.225
X12.68Y-3.61
X12.68Y-3.645
X12.68Y-3.68
X12.68Y-3.72
X12.6978Y-2.8516
X12.7Y-2.375
X12.7Y-2.75
X12.7Y-2.8
X12.7179Y-2.8259
X12.725Y-2.375
X12.766Y-2.998
X12.796Y-3.745
X12.8019Y-2.9987
X12.875Y-2.35
X12.875Y-2.4
X12.875Y-3.395
X12.875Y-4.15
X12.875Y-4.2
X12.8786Y-2.7094
X12.9Y-1.775
X12.9Y-1.825
X12.9Y-1.875
X12.9249Y-2.8349
X12.925Y-4.15
X12.925Y-4.2
X12.95Y-1.775
X12.95Y-1.825
X12.95Y-1.875
X12.95Y-3.475
X12.95Y-3.525
X12.95Y-3.575
X12.95Y-3.625
X12.9598Y-3.2206
X12.96Y-3.26
X12.9616Y-2.8666
X12.998Y-3.219
X12.9996Y-3.2572
X13.0Y-1.775
X13.0Y-1.825
X13.0Y-1.875
X13.0Y-2.4
X13.0Y-3.475
X13.0Y-3.525
X13.0Y-3.575
X13.0Y-3.625
X13.015Y-4.583
X13.016Y-4.6094
X13.0192Y-2.9106
X13.0356Y-2.7048
X13.04Y-4.5838
X13.0404Y-3.22
X13.0406Y-4.6096
X13.0446Y-3.2582
X13.05Y-2.4
X13.05Y-3.475
X13.05Y-3.525
X13.05Y-3.575
X13.05Y-3.625
X13.0786Y-2.9446
X13.0832Y-3.7552
X13.1Y-2.65
X13.1Y-2.7
X13.1044Y-2.8909
X13.1132Y-3.7412
X13.125Y-4.25
X13.1414Y-3.5154
X13.1495Y-3.4198
X13.15Y-2.65
X13.15Y-2.7
X13.1616Y-2.921
X13.175Y-4.25
X13.1761Y-3.403
X13.1767Y-3.3705
X13.1957Y-3.2964
X13.2Y-4.15
X13.2Y-4.2
X13.2053Y-2.4061
X13.2054Y-2.5774
X13.2093Y-3.3248
X13.2347Y-2.5546
X13.2374Y-2.911
X13.2392Y-3.2436
X13.2661Y-4.6186
X13.2668Y-3.2148
X13.269Y-2.4025
X13.2715Y-2.9117
X13.2763Y-2.8804
X13.2842Y-4.6008
X13.2842Y-4.636
X13.2972Y-2.8568
X13.3003Y-5.0079
X13.3005Y-4.6534
X13.3014Y-4.6188
X13.3172Y-5.0249
X13.3177Y-4.6366
X13.325Y-4.425
X13.328Y-2.8322
X13.3346Y-5.0422
X13.35Y-4.45
X13.3517Y-5.0593
X13.3688Y-2.8298
X13.375Y-4.475
X13.3843Y-3.9958
X13.395Y-2.9759
X13.4Y-1.9
X13.4056Y-3.9727
X13.4136Y-2.9235
X13.4264Y-2.9739
X13.4274Y-2.4928
X13.4341Y-2.8978
X13.4404Y-3.9704
X13.45Y-1.9
X13.4534Y-2.9577
X13.465Y-3.99
X13.475Y-4.9
X13.475Y-4.95
X13.4814Y-2.9413
X13.4963Y-4.0135
X13.5084Y-2.9252
X13.5328Y-2.9052
X13.55Y-2.4
X13.55Y-2.45
X13.5582Y-2.8866
X13.58Y-3.935
X13.5867Y-2.8731
X13.6Y-2.4
X13.6Y-2.45
X13.6Y-4.9
X13.6Y-4.95
X13.61Y-3.935
X13.6147Y-3.0503
X13.6244Y-4.6784
X13.625Y-2.075
X13.625Y-2.125
X13.625Y-2.175
X13.6426Y-4.6438
X13.65Y-2.85
X13.65Y-2.9
X13.675Y-2.075
X13.675Y-2.125
X13.675Y-2.175
X13.7Y-2.9
X13.7Y-4.9
X13.7Y-4.95
X13.7181Y-2.7252
X13.7213Y-3.2438
X13.7217Y-3.2681
X13.7248Y-2.6578
X13.725Y-2.075
X13.725Y-2.125
X13.725Y-2.175
X13.725Y-4.37
X13.725Y-4.395
X13.7453Y-3.2438
X13.7465Y-3.2678
X13.75Y-4.37
X13.75Y-4.395
X13.755Y-4.425
X13.7567Y-2.8271
X13.7569Y-2.7788
X13.7569Y-2.8029
X13.77Y-3.2442
X13.7714Y-3.2681
X13.7806Y-2.7783
X13.781Y-2.8027
X13.781Y-2.8272
X13.8Y-3.7
X13.8Y-3.75
X13.805Y-4.96
X13.8125Y-5.4221
X13.8143Y-5.396
X13.825Y-3.225
X13.825Y-3.275
X13.834Y-4.96
X13.8367Y-5.4241
X13.8372Y-5.3965
X13.85Y-3.7
X13.85Y-3.75
X13.8542Y-2.6242
X13.8544Y-2.6004
X13.8554Y-2.3541
X13.861Y-5.4221
X13.8613Y-5.3968
X13.8749Y-4.3621
X13.8749Y-4.395
X13.875Y-3.975
X13.875Y-4.0
X13.875Y-4.025
X13.875Y-4.335
X13.875Y-5.55
X13.875Y-5.6
X13.875Y-5.65
X13.9Y-2.5
X13.9Y-3.975
X13.9Y-4.0
X13.9Y-4.025
X13.925Y-2.525
X13.925Y-3.975
X13.925Y-4.0
X13.925Y-4.025
X13.925Y-5.55
X13.925Y-5.6
X13.925Y-5.65
X13.95Y-2.275
X13.95Y-2.95
X13.95Y-3.0
X13.95Y-3.05
X13.95Y-3.975
X13.95Y-4.0
X13.95Y-4.025
X13.951Y-4.535
X13.975Y-3.975
X13.975Y-4.0
X13.975Y-4.025
X13.975Y-5.55
X13.975Y-5.6
X13.975Y-5.65
X14.0Y-2.275
X14.0Y-2.95
X14.0Y-3.0
X14.0Y-3.05
X14.0185Y-2.349
X14.0185Y-2.483
X14.025Y-5.025
X14.025Y-5.075
X14.025Y-5.55
X14.025Y-5.6
X14.025Y-5.65
X14.05Y-2.525
X14.05Y-2.8
X14.1Y-2.525
X14.1Y-2.8
X14.125Y-4.575
X14.125Y-4.625
X14.125Y-4.675
X14.125Y-4.725
X14.125Y-4.775
X14.125Y-4.825
X14.125Y-5.025
X14.125Y-5.075
T3
X13.4639Y-3.3933
X13.4639Y-3.4326
X13.4639Y-3.472
X13.4639Y-3.5114
X13.4639Y-3.5507
X13.5033Y-3.3933
X13.5033Y-3.4326
X13.5033Y-3.472
X13.5033Y-3.5114
X13.5033Y-3.5507
X13.5427Y-3.3933
X13.5427Y-3.4326
X13.5427Y-3.472
X13.5427Y-3.5114
X13.5427Y-3.5507
X13.5821Y-3.3933
X13.5821Y-3.4326
X13.5821Y-3.472
X13.5821Y-3.5114
X13.5821Y-3.5507
X13.6214Y-3.3933
X13.6214Y-3.4326
X13.6214Y-3.472
X13.6214Y-3.5114
X13.6214Y-3.5507
T5
X12.4469Y-5.4843
X12.7069Y-5.4843
X13.5869Y-5.4843
X13.6869Y-5.4843
T7
X12.5077Y-4.2921
X12.5573Y-4.3921
X12.6077Y-4.2921
X12.6573Y-4.3921
X12.7077Y-4.2921
X12.7573Y-4.3921
X12.8077Y-4.2921
X12.8573Y-4.3921
X13.2471Y-4.3016
X13.2967Y-4.4016
X13.3471Y-4.3016
X13.3967Y-4.4016
X13.4471Y-4.3016
X13.4967Y-4.4016
X13.5471Y-4.3016
X13.5967Y-4.4016
T8
X12.1494Y-5.316
X12.1494Y-5.416
X12.1494Y-5.516
X12.1494Y-5.616
X12.1494Y-5.716
X12.2494Y-5.316
X12.2494Y-5.416
X12.2494Y-5.516
X12.2494Y-5.616
X12.2494Y-5.716
X14.0411Y-3.9182
X14.0411Y-4.0182
X14.0411Y-4.1182
X14.0411Y-4.2182
X14.0411Y-4.3182
X14.0411Y-4.4182
T9
X12.4456Y-4.74
X12.4456Y-5.2204
X12.6818Y-4.6613
X12.918Y-4.74
X12.918Y-5.2204
X13.1972Y-4.7426
X13.1972Y-5.2229
X13.4334Y-4.6639
X13.6696Y-4.7426
X13.6696Y-5.2229
T10
X12.9028Y-5.6408
X13.1028Y-5.6408
X13.484Y-5.644
X13.684Y-5.644
X12.4863Y-5.6423
X12.6863Y-5.6423
T11
X12.3776Y-4.1618
X12.9874Y-4.1618
X13.117Y-4.1713
X13.7268Y-4.1713
T4
G00X12.2219Y-1.8053
M15
G01X12.2219Y-1.7797
M16
G05
G00X12.527Y-1.8053
M15
G01X12.527Y-1.7797
M16
G05
T6
G00X12.2278Y-1.953
M15
G01X12.2278Y-1.9313
M16
G05
G00X12.5211Y-1.953
M15
G01X12.5211Y-1.9313
M16
G05
T0
M30
