%TF.GenerationSoftware,KiCad,Pcbnew,5.1.6-c6e7f7d~87~ubuntu20.04.1*%
%TF.CreationDate,2020-11-14T10:44:13+07:00*%
%TF.ProjectId,pas-slave-camera-hw,7061732d-736c-4617-9665-2d63616d6572,rev?*%
%TF.SameCoordinates,Original*%
%TF.FileFunction,Legend,Bot*%
%TF.FilePolarity,Positive*%
%FSLAX46Y46*%
G04 Gerber Fmt 4.6, Leading zero omitted, Abs format (unit mm)*
G04 Created by KiCad (PCBNEW 5.1.6-c6e7f7d~87~ubuntu20.04.1) date 2020-11-14 10:44:13*
%MOMM*%
%LPD*%
G01*
G04 APERTURE LIST*
%ADD10C,0.010000*%
%ADD11C,0.120000*%
%ADD12C,0.100000*%
%ADD13C,0.150000*%
G04 APERTURE END LIST*
D10*
%TO.C,U15*%
G36*
X322828835Y-60850265D02*
G01*
X322050258Y-60981838D01*
X321602100Y-61138359D01*
X320794820Y-61629016D01*
X320140568Y-62272587D01*
X319672767Y-63027747D01*
X319429193Y-63825054D01*
X319345056Y-64351216D01*
X320958520Y-64274700D01*
X321073168Y-63787916D01*
X321237258Y-63391972D01*
X321517374Y-62968801D01*
X321648958Y-62816861D01*
X322179897Y-62398202D01*
X322768933Y-62160465D01*
X323380972Y-62086680D01*
X323980918Y-62159872D01*
X324533678Y-62363069D01*
X325004155Y-62679299D01*
X325357255Y-63091590D01*
X325557884Y-63582969D01*
X325570946Y-64136463D01*
X325411520Y-64636506D01*
X325186467Y-64976989D01*
X324837332Y-65279535D01*
X324327142Y-65567447D01*
X323618927Y-65864029D01*
X323253100Y-65996935D01*
X322056405Y-66468095D01*
X321099479Y-66960914D01*
X320368228Y-67488693D01*
X319848558Y-68064734D01*
X319526377Y-68702341D01*
X319387590Y-69414814D01*
X319379600Y-69652876D01*
X319496920Y-70501203D01*
X319843289Y-71246980D01*
X320410324Y-71877885D01*
X321189639Y-72381594D01*
X321259134Y-72415190D01*
X321923570Y-72642460D01*
X322714386Y-72781248D01*
X323534223Y-72824263D01*
X324285721Y-72764213D01*
X324677274Y-72671159D01*
X325502871Y-72310418D01*
X326230357Y-71818865D01*
X326825151Y-71233564D01*
X327252676Y-70591579D01*
X327478354Y-69929972D01*
X327504811Y-69640450D01*
X327493305Y-69445144D01*
X327414532Y-69340858D01*
X327208108Y-69299060D01*
X326813650Y-69291215D01*
X326765703Y-69291200D01*
X326023806Y-69291200D01*
X325862743Y-69830950D01*
X325544932Y-70478716D01*
X325042103Y-70990529D01*
X324395621Y-71345615D01*
X323646848Y-71523206D01*
X322837151Y-71502529D01*
X322616629Y-71460972D01*
X321890209Y-71203179D01*
X321368425Y-70802895D01*
X321056770Y-70264601D01*
X321025878Y-70162662D01*
X320970104Y-69526399D01*
X321160666Y-68949520D01*
X321596694Y-68433050D01*
X322277318Y-67978014D01*
X323201671Y-67585436D01*
X323216597Y-67580299D01*
X324415722Y-67122458D01*
X325376100Y-66647966D01*
X326112970Y-66142794D01*
X326641571Y-65592911D01*
X326977143Y-64984289D01*
X327134925Y-64302896D01*
X327152000Y-63957200D01*
X327032027Y-63124046D01*
X326680597Y-62378799D01*
X326110440Y-61739458D01*
X325334291Y-61224021D01*
X325158100Y-61138597D01*
X324479609Y-60928650D01*
X323670903Y-60832537D01*
X322828835Y-60850265D01*
G37*
X322828835Y-60850265D02*
X322050258Y-60981838D01*
X321602100Y-61138359D01*
X320794820Y-61629016D01*
X320140568Y-62272587D01*
X319672767Y-63027747D01*
X319429193Y-63825054D01*
X319345056Y-64351216D01*
X320958520Y-64274700D01*
X321073168Y-63787916D01*
X321237258Y-63391972D01*
X321517374Y-62968801D01*
X321648958Y-62816861D01*
X322179897Y-62398202D01*
X322768933Y-62160465D01*
X323380972Y-62086680D01*
X323980918Y-62159872D01*
X324533678Y-62363069D01*
X325004155Y-62679299D01*
X325357255Y-63091590D01*
X325557884Y-63582969D01*
X325570946Y-64136463D01*
X325411520Y-64636506D01*
X325186467Y-64976989D01*
X324837332Y-65279535D01*
X324327142Y-65567447D01*
X323618927Y-65864029D01*
X323253100Y-65996935D01*
X322056405Y-66468095D01*
X321099479Y-66960914D01*
X320368228Y-67488693D01*
X319848558Y-68064734D01*
X319526377Y-68702341D01*
X319387590Y-69414814D01*
X319379600Y-69652876D01*
X319496920Y-70501203D01*
X319843289Y-71246980D01*
X320410324Y-71877885D01*
X321189639Y-72381594D01*
X321259134Y-72415190D01*
X321923570Y-72642460D01*
X322714386Y-72781248D01*
X323534223Y-72824263D01*
X324285721Y-72764213D01*
X324677274Y-72671159D01*
X325502871Y-72310418D01*
X326230357Y-71818865D01*
X326825151Y-71233564D01*
X327252676Y-70591579D01*
X327478354Y-69929972D01*
X327504811Y-69640450D01*
X327493305Y-69445144D01*
X327414532Y-69340858D01*
X327208108Y-69299060D01*
X326813650Y-69291215D01*
X326765703Y-69291200D01*
X326023806Y-69291200D01*
X325862743Y-69830950D01*
X325544932Y-70478716D01*
X325042103Y-70990529D01*
X324395621Y-71345615D01*
X323646848Y-71523206D01*
X322837151Y-71502529D01*
X322616629Y-71460972D01*
X321890209Y-71203179D01*
X321368425Y-70802895D01*
X321056770Y-70264601D01*
X321025878Y-70162662D01*
X320970104Y-69526399D01*
X321160666Y-68949520D01*
X321596694Y-68433050D01*
X322277318Y-67978014D01*
X323201671Y-67585436D01*
X323216597Y-67580299D01*
X324415722Y-67122458D01*
X325376100Y-66647966D01*
X326112970Y-66142794D01*
X326641571Y-65592911D01*
X326977143Y-64984289D01*
X327134925Y-64302896D01*
X327152000Y-63957200D01*
X327032027Y-63124046D01*
X326680597Y-62378799D01*
X326110440Y-61739458D01*
X325334291Y-61224021D01*
X325158100Y-61138597D01*
X324479609Y-60928650D01*
X323670903Y-60832537D01*
X322828835Y-60850265D01*
G36*
X340797627Y-60929262D02*
G01*
X338339654Y-60972700D01*
X337463877Y-61418229D01*
X336906040Y-61736700D01*
X336509979Y-62059637D01*
X336191752Y-62455842D01*
X336184217Y-62467057D01*
X335750847Y-63325914D01*
X335562543Y-64222109D01*
X335619304Y-65126204D01*
X335921131Y-66008762D01*
X336184217Y-66463342D01*
X336510881Y-66871578D01*
X336918034Y-67202125D01*
X337444960Y-67502326D01*
X337804374Y-67679232D01*
X338106719Y-67802437D01*
X338413601Y-67883771D01*
X338786624Y-67935063D01*
X339287391Y-67968143D01*
X339977506Y-67994840D01*
X340016710Y-67996173D01*
X341731600Y-68054334D01*
X341731600Y-72720200D01*
X343255600Y-72720200D01*
X343255600Y-66781862D01*
X341731600Y-66781862D01*
X340158587Y-66729494D01*
X339487201Y-66703174D01*
X339012468Y-66669505D01*
X338677063Y-66617641D01*
X338423663Y-66536737D01*
X338194945Y-66415949D01*
X338066629Y-66333705D01*
X337543249Y-65878188D01*
X337233982Y-65326571D01*
X337116352Y-64634778D01*
X337113911Y-64465200D01*
X337188601Y-63740301D01*
X337411726Y-63169375D01*
X337800223Y-62740545D01*
X338371032Y-62441935D01*
X339141092Y-62261668D01*
X340127341Y-62187869D01*
X340366350Y-62184774D01*
X341731600Y-62179200D01*
X341731600Y-66781862D01*
X343255600Y-66781862D01*
X343255600Y-60885825D01*
X340797627Y-60929262D01*
G37*
X340797627Y-60929262D02*
X338339654Y-60972700D01*
X337463877Y-61418229D01*
X336906040Y-61736700D01*
X336509979Y-62059637D01*
X336191752Y-62455842D01*
X336184217Y-62467057D01*
X335750847Y-63325914D01*
X335562543Y-64222109D01*
X335619304Y-65126204D01*
X335921131Y-66008762D01*
X336184217Y-66463342D01*
X336510881Y-66871578D01*
X336918034Y-67202125D01*
X337444960Y-67502326D01*
X337804374Y-67679232D01*
X338106719Y-67802437D01*
X338413601Y-67883771D01*
X338786624Y-67935063D01*
X339287391Y-67968143D01*
X339977506Y-67994840D01*
X340016710Y-67996173D01*
X341731600Y-68054334D01*
X341731600Y-72720200D01*
X343255600Y-72720200D01*
X343255600Y-66781862D01*
X341731600Y-66781862D01*
X340158587Y-66729494D01*
X339487201Y-66703174D01*
X339012468Y-66669505D01*
X338677063Y-66617641D01*
X338423663Y-66536737D01*
X338194945Y-66415949D01*
X338066629Y-66333705D01*
X337543249Y-65878188D01*
X337233982Y-65326571D01*
X337116352Y-64634778D01*
X337113911Y-64465200D01*
X337188601Y-63740301D01*
X337411726Y-63169375D01*
X337800223Y-62740545D01*
X338371032Y-62441935D01*
X339141092Y-62261668D01*
X340127341Y-62187869D01*
X340366350Y-62184774D01*
X341731600Y-62179200D01*
X341731600Y-66781862D01*
X343255600Y-66781862D01*
X343255600Y-60885825D01*
X340797627Y-60929262D01*
G36*
X329170181Y-66655950D02*
G01*
X328801802Y-67816312D01*
X328455957Y-68904870D01*
X328140416Y-69897226D01*
X327862949Y-70768981D01*
X327631327Y-71495737D01*
X327453318Y-72053097D01*
X327336694Y-72416663D01*
X327289437Y-72561450D01*
X327332735Y-72655136D01*
X327567711Y-72705732D01*
X327999382Y-72720200D01*
X328766330Y-72720200D01*
X329237689Y-71196200D01*
X329709049Y-69672200D01*
X333598015Y-69672200D01*
X334068880Y-71196200D01*
X334539746Y-72720200D01*
X335292985Y-72720200D01*
X335711415Y-72711697D01*
X335928886Y-72674227D01*
X335998198Y-72589851D01*
X335984759Y-72485152D01*
X335934283Y-72319489D01*
X335813781Y-71937047D01*
X335631226Y-71362773D01*
X335394597Y-70621615D01*
X335111868Y-69738520D01*
X334791016Y-68738434D01*
X334611525Y-68179950D01*
X333096717Y-68179950D01*
X332977626Y-68217452D01*
X332654745Y-68248003D01*
X332178253Y-68268333D01*
X331635100Y-68275200D01*
X331060094Y-68269063D01*
X330591661Y-68252383D01*
X330279937Y-68227751D01*
X330174600Y-68199656D01*
X330209310Y-68064455D01*
X330304360Y-67732322D01*
X330446137Y-67248600D01*
X330621026Y-66658634D01*
X330815412Y-66007770D01*
X331015679Y-65341352D01*
X331208213Y-64704724D01*
X331379399Y-64143232D01*
X331515622Y-63702220D01*
X331603267Y-63427032D01*
X331628598Y-63357099D01*
X331670155Y-63461164D01*
X331770399Y-63764616D01*
X331915891Y-64223299D01*
X332093189Y-64793059D01*
X332288850Y-65429739D01*
X332489435Y-66089184D01*
X332681501Y-66727238D01*
X332851607Y-67299745D01*
X332986312Y-67762550D01*
X333072173Y-68071496D01*
X333096717Y-68179950D01*
X334611525Y-68179950D01*
X334440016Y-67646305D01*
X334096696Y-66579741D01*
X332270100Y-60909378D01*
X330993922Y-60909200D01*
X329170181Y-66655950D01*
G37*
X329170181Y-66655950D02*
X328801802Y-67816312D01*
X328455957Y-68904870D01*
X328140416Y-69897226D01*
X327862949Y-70768981D01*
X327631327Y-71495737D01*
X327453318Y-72053097D01*
X327336694Y-72416663D01*
X327289437Y-72561450D01*
X327332735Y-72655136D01*
X327567711Y-72705732D01*
X327999382Y-72720200D01*
X328766330Y-72720200D01*
X329237689Y-71196200D01*
X329709049Y-69672200D01*
X333598015Y-69672200D01*
X334068880Y-71196200D01*
X334539746Y-72720200D01*
X335292985Y-72720200D01*
X335711415Y-72711697D01*
X335928886Y-72674227D01*
X335998198Y-72589851D01*
X335984759Y-72485152D01*
X335934283Y-72319489D01*
X335813781Y-71937047D01*
X335631226Y-71362773D01*
X335394597Y-70621615D01*
X335111868Y-69738520D01*
X334791016Y-68738434D01*
X334611525Y-68179950D01*
X333096717Y-68179950D01*
X332977626Y-68217452D01*
X332654745Y-68248003D01*
X332178253Y-68268333D01*
X331635100Y-68275200D01*
X331060094Y-68269063D01*
X330591661Y-68252383D01*
X330279937Y-68227751D01*
X330174600Y-68199656D01*
X330209310Y-68064455D01*
X330304360Y-67732322D01*
X330446137Y-67248600D01*
X330621026Y-66658634D01*
X330815412Y-66007770D01*
X331015679Y-65341352D01*
X331208213Y-64704724D01*
X331379399Y-64143232D01*
X331515622Y-63702220D01*
X331603267Y-63427032D01*
X331628598Y-63357099D01*
X331670155Y-63461164D01*
X331770399Y-63764616D01*
X331915891Y-64223299D01*
X332093189Y-64793059D01*
X332288850Y-65429739D01*
X332489435Y-66089184D01*
X332681501Y-66727238D01*
X332851607Y-67299745D01*
X332986312Y-67762550D01*
X333072173Y-68071496D01*
X333096717Y-68179950D01*
X334611525Y-68179950D01*
X334440016Y-67646305D01*
X334096696Y-66579741D01*
X332270100Y-60909378D01*
X330993922Y-60909200D01*
X329170181Y-66655950D01*
D11*
%TO.C,J1*%
X314612020Y-145854420D02*
X324772020Y-145854420D01*
X314612020Y-147124420D02*
X314612020Y-139504420D01*
X314612020Y-139504420D02*
X324772020Y-139504420D01*
X324772020Y-139504420D02*
X324772020Y-147124420D01*
X324772020Y-147124420D02*
X314612020Y-147124420D01*
%TO.C,J8*%
X314389580Y-92163340D02*
X314139580Y-92163340D01*
X314489580Y-92013340D02*
X314489580Y-91763340D01*
X330509580Y-91893340D02*
X314269580Y-91893340D01*
X330509580Y-104343340D02*
X330509580Y-91893340D01*
X330509580Y-113533340D02*
X330509580Y-107623340D01*
X314269580Y-113533340D02*
X330509580Y-113533340D01*
X314269580Y-113533340D02*
X314269580Y-107623340D01*
X314269580Y-104343340D02*
X314269580Y-91893340D01*
%TO.C,J7*%
X332916180Y-92150640D02*
X332666180Y-92150640D01*
X333016180Y-92000640D02*
X333016180Y-91750640D01*
X349036180Y-91880640D02*
X332796180Y-91880640D01*
X349036180Y-104330640D02*
X349036180Y-91880640D01*
X349036180Y-113520640D02*
X349036180Y-107610640D01*
X332796180Y-113520640D02*
X349036180Y-113520640D01*
X332796180Y-113520640D02*
X332796180Y-107610640D01*
X332796180Y-104330640D02*
X332796180Y-91880640D01*
%TO.C,J6*%
X335351120Y-147086320D02*
X325191120Y-147086320D01*
X335351120Y-139466320D02*
X335351120Y-147086320D01*
X325191120Y-139466320D02*
X335351120Y-139466320D01*
X325191120Y-147086320D02*
X325191120Y-139466320D01*
X325191120Y-145816320D02*
X335351120Y-145816320D01*
%TO.C,J9*%
X339953600Y-145897600D02*
X350113600Y-145897600D01*
X339953600Y-147167600D02*
X339953600Y-139547600D01*
X339953600Y-139547600D02*
X350113600Y-139547600D01*
X350113600Y-139547600D02*
X350113600Y-147167600D01*
X350113600Y-147167600D02*
X339953600Y-147167600D01*
D12*
%TO.C,F2*%
X339437356Y-141147800D02*
G75*
G03*
X339437356Y-141147800I-1802776J0D01*
G01*
D11*
%TO.C,K2*%
X313767720Y-138447020D02*
X313767720Y-115747020D01*
X313767720Y-115747020D02*
X330467720Y-115747020D01*
X330467720Y-115747020D02*
X330467720Y-138447020D01*
X330467720Y-138447020D02*
X313767720Y-138447020D01*
X322467720Y-120797020D02*
X321767720Y-120397020D01*
X321767720Y-121197020D02*
X321767720Y-119997020D01*
X321767720Y-119997020D02*
X322467720Y-119997020D01*
X322467720Y-119997020D02*
X322467720Y-121197020D01*
X322467720Y-121197020D02*
X321767720Y-121197020D01*
X323117720Y-115487020D02*
X321117720Y-115487020D01*
X326617720Y-120597020D02*
X323467720Y-120597020D01*
X320767720Y-120597020D02*
X317617720Y-120597020D01*
%TO.C,K1*%
X332858880Y-138512040D02*
X332858880Y-115812040D01*
X332858880Y-115812040D02*
X349558880Y-115812040D01*
X349558880Y-115812040D02*
X349558880Y-138512040D01*
X349558880Y-138512040D02*
X332858880Y-138512040D01*
X341558880Y-120862040D02*
X340858880Y-120462040D01*
X340858880Y-121262040D02*
X340858880Y-120062040D01*
X340858880Y-120062040D02*
X341558880Y-120062040D01*
X341558880Y-120062040D02*
X341558880Y-121262040D01*
X341558880Y-121262040D02*
X340858880Y-121262040D01*
X342208880Y-115552040D02*
X340208880Y-115552040D01*
X345708880Y-120662040D02*
X342558880Y-120662040D01*
X339858880Y-120662040D02*
X336708880Y-120662040D01*
%TO.C,J1*%
D13*
X314106213Y-146413426D02*
X314106213Y-146913426D01*
X314139546Y-147013426D01*
X314206213Y-147080093D01*
X314306213Y-147113426D01*
X314372880Y-147113426D01*
X313406213Y-147113426D02*
X313806213Y-147113426D01*
X313606213Y-147113426D02*
X313606213Y-146413426D01*
X313672880Y-146513426D01*
X313739546Y-146580093D01*
X313806213Y-146613426D01*
%TO.C,J8*%
X331616973Y-112829546D02*
X331616973Y-113329546D01*
X331650306Y-113429546D01*
X331716973Y-113496213D01*
X331816973Y-113529546D01*
X331883640Y-113529546D01*
X331183640Y-113129546D02*
X331250306Y-113096213D01*
X331283640Y-113062880D01*
X331316973Y-112996213D01*
X331316973Y-112962880D01*
X331283640Y-112896213D01*
X331250306Y-112862880D01*
X331183640Y-112829546D01*
X331050306Y-112829546D01*
X330983640Y-112862880D01*
X330950306Y-112896213D01*
X330916973Y-112962880D01*
X330916973Y-112996213D01*
X330950306Y-113062880D01*
X330983640Y-113096213D01*
X331050306Y-113129546D01*
X331183640Y-113129546D01*
X331250306Y-113162880D01*
X331283640Y-113196213D01*
X331316973Y-113262880D01*
X331316973Y-113396213D01*
X331283640Y-113462880D01*
X331250306Y-113496213D01*
X331183640Y-113529546D01*
X331050306Y-113529546D01*
X330983640Y-113496213D01*
X330950306Y-113462880D01*
X330916973Y-113396213D01*
X330916973Y-113262880D01*
X330950306Y-113196213D01*
X330983640Y-113162880D01*
X331050306Y-113129546D01*
%TO.C,J7*%
X350087853Y-112865106D02*
X350087853Y-113365106D01*
X350121186Y-113465106D01*
X350187853Y-113531773D01*
X350287853Y-113565106D01*
X350354520Y-113565106D01*
X349821186Y-112865106D02*
X349354520Y-112865106D01*
X349654520Y-113565106D01*
%TO.C,J6*%
X336326133Y-146377866D02*
X336326133Y-146877866D01*
X336359466Y-146977866D01*
X336426133Y-147044533D01*
X336526133Y-147077866D01*
X336592800Y-147077866D01*
X335692800Y-146377866D02*
X335826133Y-146377866D01*
X335892800Y-146411200D01*
X335926133Y-146444533D01*
X335992800Y-146544533D01*
X336026133Y-146677866D01*
X336026133Y-146944533D01*
X335992800Y-147011200D01*
X335959466Y-147044533D01*
X335892800Y-147077866D01*
X335759466Y-147077866D01*
X335692800Y-147044533D01*
X335659466Y-147011200D01*
X335626133Y-146944533D01*
X335626133Y-146777866D01*
X335659466Y-146711200D01*
X335692800Y-146677866D01*
X335759466Y-146644533D01*
X335892800Y-146644533D01*
X335959466Y-146677866D01*
X335992800Y-146711200D01*
X336026133Y-146777866D01*
%TO.C,J9*%
X339409693Y-139403026D02*
X339409693Y-139903026D01*
X339443026Y-140003026D01*
X339509693Y-140069693D01*
X339609693Y-140103026D01*
X339676360Y-140103026D01*
X339043026Y-140103026D02*
X338909693Y-140103026D01*
X338843026Y-140069693D01*
X338809693Y-140036360D01*
X338743026Y-139936360D01*
X338709693Y-139803026D01*
X338709693Y-139536360D01*
X338743026Y-139469693D01*
X338776360Y-139436360D01*
X338843026Y-139403026D01*
X338976360Y-139403026D01*
X339043026Y-139436360D01*
X339076360Y-139469693D01*
X339109693Y-139536360D01*
X339109693Y-139703026D01*
X339076360Y-139769693D01*
X339043026Y-139803026D01*
X338976360Y-139836360D01*
X338843026Y-139836360D01*
X338776360Y-139803026D01*
X338743026Y-139769693D01*
X338709693Y-139703026D01*
%TO.C,F2*%
X338480053Y-144176280D02*
X338713386Y-144176280D01*
X338713386Y-144542946D02*
X338713386Y-143842946D01*
X338380053Y-143842946D01*
X338146720Y-143909613D02*
X338113386Y-143876280D01*
X338046720Y-143842946D01*
X337880053Y-143842946D01*
X337813386Y-143876280D01*
X337780053Y-143909613D01*
X337746720Y-143976280D01*
X337746720Y-144042946D01*
X337780053Y-144142946D01*
X338180053Y-144542946D01*
X337746720Y-144542946D01*
%TO.C,K2*%
X331859666Y-138401226D02*
X331859666Y-137701226D01*
X331459666Y-138401226D02*
X331759666Y-138001226D01*
X331459666Y-137701226D02*
X331859666Y-138101226D01*
X331193000Y-137767893D02*
X331159666Y-137734560D01*
X331093000Y-137701226D01*
X330926333Y-137701226D01*
X330859666Y-137734560D01*
X330826333Y-137767893D01*
X330793000Y-137834560D01*
X330793000Y-137901226D01*
X330826333Y-138001226D01*
X331226333Y-138401226D01*
X330793000Y-138401226D01*
%TO.C,K1*%
X350914746Y-138528226D02*
X350914746Y-137828226D01*
X350514746Y-138528226D02*
X350814746Y-138128226D01*
X350514746Y-137828226D02*
X350914746Y-138228226D01*
X349848080Y-138528226D02*
X350248080Y-138528226D01*
X350048080Y-138528226D02*
X350048080Y-137828226D01*
X350114746Y-137928226D01*
X350181413Y-137994893D01*
X350248080Y-138028226D01*
%TD*%
M02*
