%TF.GenerationSoftware,KiCad,Pcbnew,5.1.6-c6e7f7d~87~ubuntu20.04.1*%
%TF.CreationDate,2020-11-14T10:44:13+07:00*%
%TF.ProjectId,pas-slave-camera-hw,7061732d-736c-4617-9665-2d63616d6572,rev?*%
%TF.SameCoordinates,Original*%
%TF.FileFunction,Soldermask,Top*%
%TF.FilePolarity,Negative*%
%FSLAX46Y46*%
G04 Gerber Fmt 4.6, Leading zero omitted, Abs format (unit mm)*
G04 Created by KiCad (PCBNEW 5.1.6-c6e7f7d~87~ubuntu20.04.1) date 2020-11-14 10:44:13*
%MOMM*%
%LPD*%
G01*
G04 APERTURE LIST*
%ADD10C,4.000000*%
%ADD11R,0.900000X1.000000*%
%ADD12O,1.800000X1.800000*%
%ADD13R,1.800000X1.800000*%
%ADD14C,3.100000*%
%ADD15R,3.100000X3.100000*%
%ADD16R,2.310000X2.460000*%
%ADD17C,1.600000*%
%ADD18C,2.600000*%
%ADD19C,3.350000*%
%ADD20R,2.300000X1.600000*%
%ADD21R,1.900000X2.300000*%
%ADD22R,0.400000X1.400000*%
%ADD23C,1.200000*%
%ADD24R,3.100000X5.100000*%
%ADD25R,1.200000X3.100000*%
%ADD26R,2.600000X1.900000*%
%ADD27C,1.624000*%
%ADD28R,1.100000X1.900000*%
%ADD29R,1.700000X1.700000*%
%ADD30R,3.100000X2.390000*%
%ADD31R,1.000000X0.900000*%
%ADD32O,0.900000X0.900000*%
%ADD33O,1.250000X1.900000*%
%ADD34O,1.550000X2.100000*%
%ADD35R,0.550000X1.400000*%
%ADD36C,1.700000*%
%ADD37R,1.850000X0.550000*%
%ADD38R,1.600000X2.100000*%
%ADD39R,3.900000X2.100000*%
%ADD40C,0.900000*%
%ADD41R,5.100000X5.100000*%
%ADD42O,1.000000X3.100000*%
%ADD43R,2.600000X2.600000*%
%ADD44O,2.600000X2.600000*%
%ADD45R,2.400000X2.600000*%
%ADD46R,2.600000X2.400000*%
%ADD47C,1.400000*%
%ADD48C,1.100000*%
%ADD49R,3.640000X2.700000*%
%ADD50R,3.760000X2.700000*%
G04 APERTURE END LIST*
D10*
X332803500Y-143319500D02*
X332803500Y-143827500D01*
X334073500Y-145097500D02*
X332803500Y-143827500D01*
X337629500Y-145161000D02*
X334137000Y-145161000D01*
X336677000Y-140525500D02*
X328866500Y-132715000D01*
X327723500Y-143256000D02*
X322199000Y-143256000D01*
X322199000Y-143256000D02*
X322199000Y-140208000D01*
X322072000Y-132461000D02*
X322072000Y-118618000D01*
X317119000Y-137731500D02*
X322135500Y-132715000D01*
X317119000Y-143446500D02*
X317119000Y-137731500D01*
%TO.C,R42*%
G36*
G01*
X307164050Y-66972000D02*
X306601550Y-66972000D01*
G75*
G02*
X306357800Y-66728250I0J243750D01*
G01*
X306357800Y-66240750D01*
G75*
G02*
X306601550Y-65997000I243750J0D01*
G01*
X307164050Y-65997000D01*
G75*
G02*
X307407800Y-66240750I0J-243750D01*
G01*
X307407800Y-66728250D01*
G75*
G02*
X307164050Y-66972000I-243750J0D01*
G01*
G37*
G36*
G01*
X307164050Y-68547000D02*
X306601550Y-68547000D01*
G75*
G02*
X306357800Y-68303250I0J243750D01*
G01*
X306357800Y-67815750D01*
G75*
G02*
X306601550Y-67572000I243750J0D01*
G01*
X307164050Y-67572000D01*
G75*
G02*
X307407800Y-67815750I0J-243750D01*
G01*
X307407800Y-68303250D01*
G75*
G02*
X307164050Y-68547000I-243750J0D01*
G01*
G37*
%TD*%
D11*
%TO.C,U14*%
X324916800Y-95346520D03*
X323966800Y-93346520D03*
X325866800Y-93346520D03*
%TD*%
%TO.C,R41*%
G36*
G01*
X324566000Y-89253750D02*
X324566000Y-89816250D01*
G75*
G02*
X324322250Y-90060000I-243750J0D01*
G01*
X323834750Y-90060000D01*
G75*
G02*
X323591000Y-89816250I0J243750D01*
G01*
X323591000Y-89253750D01*
G75*
G02*
X323834750Y-89010000I243750J0D01*
G01*
X324322250Y-89010000D01*
G75*
G02*
X324566000Y-89253750I0J-243750D01*
G01*
G37*
G36*
G01*
X326141000Y-89253750D02*
X326141000Y-89816250D01*
G75*
G02*
X325897250Y-90060000I-243750J0D01*
G01*
X325409750Y-90060000D01*
G75*
G02*
X325166000Y-89816250I0J243750D01*
G01*
X325166000Y-89253750D01*
G75*
G02*
X325409750Y-89010000I243750J0D01*
G01*
X325897250Y-89010000D01*
G75*
G02*
X326141000Y-89253750I0J-243750D01*
G01*
G37*
%TD*%
%TO.C,R40*%
G36*
G01*
X325140500Y-91340250D02*
X325140500Y-90777750D01*
G75*
G02*
X325384250Y-90534000I243750J0D01*
G01*
X325871750Y-90534000D01*
G75*
G02*
X326115500Y-90777750I0J-243750D01*
G01*
X326115500Y-91340250D01*
G75*
G02*
X325871750Y-91584000I-243750J0D01*
G01*
X325384250Y-91584000D01*
G75*
G02*
X325140500Y-91340250I0J243750D01*
G01*
G37*
G36*
G01*
X323565500Y-91340250D02*
X323565500Y-90777750D01*
G75*
G02*
X323809250Y-90534000I243750J0D01*
G01*
X324296750Y-90534000D01*
G75*
G02*
X324540500Y-90777750I0J-243750D01*
G01*
X324540500Y-91340250D01*
G75*
G02*
X324296750Y-91584000I-243750J0D01*
G01*
X323809250Y-91584000D01*
G75*
G02*
X323565500Y-91340250I0J243750D01*
G01*
G37*
%TD*%
%TO.C,R5*%
G36*
G01*
X309300500Y-126063430D02*
X309300500Y-126625930D01*
G75*
G02*
X309056750Y-126869680I-243750J0D01*
G01*
X308569250Y-126869680D01*
G75*
G02*
X308325500Y-126625930I0J243750D01*
G01*
X308325500Y-126063430D01*
G75*
G02*
X308569250Y-125819680I243750J0D01*
G01*
X309056750Y-125819680D01*
G75*
G02*
X309300500Y-126063430I0J-243750D01*
G01*
G37*
G36*
G01*
X310875500Y-126063430D02*
X310875500Y-126625930D01*
G75*
G02*
X310631750Y-126869680I-243750J0D01*
G01*
X310144250Y-126869680D01*
G75*
G02*
X309900500Y-126625930I0J243750D01*
G01*
X309900500Y-126063430D01*
G75*
G02*
X310144250Y-125819680I243750J0D01*
G01*
X310631750Y-125819680D01*
G75*
G02*
X310875500Y-126063430I0J-243750D01*
G01*
G37*
%TD*%
D12*
%TO.C,J5*%
X311134760Y-145186400D03*
X308594760Y-145186400D03*
X311134760Y-142646400D03*
X308594760Y-142646400D03*
X311134760Y-140106400D03*
X308594760Y-140106400D03*
X311134760Y-137566400D03*
X308594760Y-137566400D03*
X311134760Y-135026400D03*
D13*
X308594760Y-135026400D03*
%TD*%
D14*
%TO.C,J1*%
X317152020Y-143314420D03*
D15*
X322232020Y-143314420D03*
%TD*%
D16*
%TO.C,U11*%
X355367200Y-119161560D03*
G36*
G01*
X357517200Y-121186560D02*
X357767200Y-121186560D01*
G75*
G02*
X357892200Y-121311560I0J-125000D01*
G01*
X357892200Y-122736560D01*
G75*
G02*
X357767200Y-122861560I-125000J0D01*
G01*
X357517200Y-122861560D01*
G75*
G02*
X357392200Y-122736560I0J125000D01*
G01*
X357392200Y-121311560D01*
G75*
G02*
X357517200Y-121186560I125000J0D01*
G01*
G37*
G36*
G01*
X356867200Y-121186560D02*
X357117200Y-121186560D01*
G75*
G02*
X357242200Y-121311560I0J-125000D01*
G01*
X357242200Y-122736560D01*
G75*
G02*
X357117200Y-122861560I-125000J0D01*
G01*
X356867200Y-122861560D01*
G75*
G02*
X356742200Y-122736560I0J125000D01*
G01*
X356742200Y-121311560D01*
G75*
G02*
X356867200Y-121186560I125000J0D01*
G01*
G37*
G36*
G01*
X356217200Y-121186560D02*
X356467200Y-121186560D01*
G75*
G02*
X356592200Y-121311560I0J-125000D01*
G01*
X356592200Y-122736560D01*
G75*
G02*
X356467200Y-122861560I-125000J0D01*
G01*
X356217200Y-122861560D01*
G75*
G02*
X356092200Y-122736560I0J125000D01*
G01*
X356092200Y-121311560D01*
G75*
G02*
X356217200Y-121186560I125000J0D01*
G01*
G37*
G36*
G01*
X355567200Y-121186560D02*
X355817200Y-121186560D01*
G75*
G02*
X355942200Y-121311560I0J-125000D01*
G01*
X355942200Y-122736560D01*
G75*
G02*
X355817200Y-122861560I-125000J0D01*
G01*
X355567200Y-122861560D01*
G75*
G02*
X355442200Y-122736560I0J125000D01*
G01*
X355442200Y-121311560D01*
G75*
G02*
X355567200Y-121186560I125000J0D01*
G01*
G37*
G36*
G01*
X354917200Y-121186560D02*
X355167200Y-121186560D01*
G75*
G02*
X355292200Y-121311560I0J-125000D01*
G01*
X355292200Y-122736560D01*
G75*
G02*
X355167200Y-122861560I-125000J0D01*
G01*
X354917200Y-122861560D01*
G75*
G02*
X354792200Y-122736560I0J125000D01*
G01*
X354792200Y-121311560D01*
G75*
G02*
X354917200Y-121186560I125000J0D01*
G01*
G37*
G36*
G01*
X354267200Y-121186560D02*
X354517200Y-121186560D01*
G75*
G02*
X354642200Y-121311560I0J-125000D01*
G01*
X354642200Y-122736560D01*
G75*
G02*
X354517200Y-122861560I-125000J0D01*
G01*
X354267200Y-122861560D01*
G75*
G02*
X354142200Y-122736560I0J125000D01*
G01*
X354142200Y-121311560D01*
G75*
G02*
X354267200Y-121186560I125000J0D01*
G01*
G37*
G36*
G01*
X353617200Y-121186560D02*
X353867200Y-121186560D01*
G75*
G02*
X353992200Y-121311560I0J-125000D01*
G01*
X353992200Y-122736560D01*
G75*
G02*
X353867200Y-122861560I-125000J0D01*
G01*
X353617200Y-122861560D01*
G75*
G02*
X353492200Y-122736560I0J125000D01*
G01*
X353492200Y-121311560D01*
G75*
G02*
X353617200Y-121186560I125000J0D01*
G01*
G37*
G36*
G01*
X352967200Y-121186560D02*
X353217200Y-121186560D01*
G75*
G02*
X353342200Y-121311560I0J-125000D01*
G01*
X353342200Y-122736560D01*
G75*
G02*
X353217200Y-122861560I-125000J0D01*
G01*
X352967200Y-122861560D01*
G75*
G02*
X352842200Y-122736560I0J125000D01*
G01*
X352842200Y-121311560D01*
G75*
G02*
X352967200Y-121186560I125000J0D01*
G01*
G37*
G36*
G01*
X352967200Y-115461560D02*
X353217200Y-115461560D01*
G75*
G02*
X353342200Y-115586560I0J-125000D01*
G01*
X353342200Y-117011560D01*
G75*
G02*
X353217200Y-117136560I-125000J0D01*
G01*
X352967200Y-117136560D01*
G75*
G02*
X352842200Y-117011560I0J125000D01*
G01*
X352842200Y-115586560D01*
G75*
G02*
X352967200Y-115461560I125000J0D01*
G01*
G37*
G36*
G01*
X353617200Y-115461560D02*
X353867200Y-115461560D01*
G75*
G02*
X353992200Y-115586560I0J-125000D01*
G01*
X353992200Y-117011560D01*
G75*
G02*
X353867200Y-117136560I-125000J0D01*
G01*
X353617200Y-117136560D01*
G75*
G02*
X353492200Y-117011560I0J125000D01*
G01*
X353492200Y-115586560D01*
G75*
G02*
X353617200Y-115461560I125000J0D01*
G01*
G37*
G36*
G01*
X354267200Y-115461560D02*
X354517200Y-115461560D01*
G75*
G02*
X354642200Y-115586560I0J-125000D01*
G01*
X354642200Y-117011560D01*
G75*
G02*
X354517200Y-117136560I-125000J0D01*
G01*
X354267200Y-117136560D01*
G75*
G02*
X354142200Y-117011560I0J125000D01*
G01*
X354142200Y-115586560D01*
G75*
G02*
X354267200Y-115461560I125000J0D01*
G01*
G37*
G36*
G01*
X354917200Y-115461560D02*
X355167200Y-115461560D01*
G75*
G02*
X355292200Y-115586560I0J-125000D01*
G01*
X355292200Y-117011560D01*
G75*
G02*
X355167200Y-117136560I-125000J0D01*
G01*
X354917200Y-117136560D01*
G75*
G02*
X354792200Y-117011560I0J125000D01*
G01*
X354792200Y-115586560D01*
G75*
G02*
X354917200Y-115461560I125000J0D01*
G01*
G37*
G36*
G01*
X355567200Y-115461560D02*
X355817200Y-115461560D01*
G75*
G02*
X355942200Y-115586560I0J-125000D01*
G01*
X355942200Y-117011560D01*
G75*
G02*
X355817200Y-117136560I-125000J0D01*
G01*
X355567200Y-117136560D01*
G75*
G02*
X355442200Y-117011560I0J125000D01*
G01*
X355442200Y-115586560D01*
G75*
G02*
X355567200Y-115461560I125000J0D01*
G01*
G37*
G36*
G01*
X356217200Y-115461560D02*
X356467200Y-115461560D01*
G75*
G02*
X356592200Y-115586560I0J-125000D01*
G01*
X356592200Y-117011560D01*
G75*
G02*
X356467200Y-117136560I-125000J0D01*
G01*
X356217200Y-117136560D01*
G75*
G02*
X356092200Y-117011560I0J125000D01*
G01*
X356092200Y-115586560D01*
G75*
G02*
X356217200Y-115461560I125000J0D01*
G01*
G37*
G36*
G01*
X356867200Y-115461560D02*
X357117200Y-115461560D01*
G75*
G02*
X357242200Y-115586560I0J-125000D01*
G01*
X357242200Y-117011560D01*
G75*
G02*
X357117200Y-117136560I-125000J0D01*
G01*
X356867200Y-117136560D01*
G75*
G02*
X356742200Y-117011560I0J125000D01*
G01*
X356742200Y-115586560D01*
G75*
G02*
X356867200Y-115461560I125000J0D01*
G01*
G37*
G36*
G01*
X357517200Y-115461560D02*
X357767200Y-115461560D01*
G75*
G02*
X357892200Y-115586560I0J-125000D01*
G01*
X357892200Y-117011560D01*
G75*
G02*
X357767200Y-117136560I-125000J0D01*
G01*
X357517200Y-117136560D01*
G75*
G02*
X357392200Y-117011560I0J125000D01*
G01*
X357392200Y-115586560D01*
G75*
G02*
X357517200Y-115461560I125000J0D01*
G01*
G37*
%TD*%
%TO.C,C4*%
G36*
G01*
X351332520Y-111346670D02*
X351332520Y-111909170D01*
G75*
G02*
X351088770Y-112152920I-243750J0D01*
G01*
X350601270Y-112152920D01*
G75*
G02*
X350357520Y-111909170I0J243750D01*
G01*
X350357520Y-111346670D01*
G75*
G02*
X350601270Y-111102920I243750J0D01*
G01*
X351088770Y-111102920D01*
G75*
G02*
X351332520Y-111346670I0J-243750D01*
G01*
G37*
G36*
G01*
X352907520Y-111346670D02*
X352907520Y-111909170D01*
G75*
G02*
X352663770Y-112152920I-243750J0D01*
G01*
X352176270Y-112152920D01*
G75*
G02*
X351932520Y-111909170I0J243750D01*
G01*
X351932520Y-111346670D01*
G75*
G02*
X352176270Y-111102920I243750J0D01*
G01*
X352663770Y-111102920D01*
G75*
G02*
X352907520Y-111346670I0J-243750D01*
G01*
G37*
%TD*%
D17*
%TO.C,J8*%
X324289580Y-111813340D03*
D18*
X314644580Y-105963340D03*
X330134580Y-105963340D03*
D17*
X325569580Y-109273340D03*
X326829580Y-111813340D03*
X321749580Y-111813340D03*
X320489580Y-109273340D03*
X323029580Y-109273340D03*
X319209580Y-111813340D03*
G36*
G01*
X317149580Y-109806140D02*
X317149580Y-108740540D01*
G75*
G02*
X317416780Y-108473340I267200J0D01*
G01*
X318482380Y-108473340D01*
G75*
G02*
X318749580Y-108740540I0J-267200D01*
G01*
X318749580Y-109806140D01*
G75*
G02*
X318482380Y-110073340I-267200J0D01*
G01*
X317416780Y-110073340D01*
G75*
G02*
X317149580Y-109806140I0J267200D01*
G01*
G37*
D19*
X316674580Y-102913340D03*
X328104580Y-102913340D03*
%TD*%
D17*
%TO.C,J7*%
X342816180Y-111800640D03*
D18*
X333171180Y-105950640D03*
X348661180Y-105950640D03*
D17*
X344096180Y-109260640D03*
X345356180Y-111800640D03*
X340276180Y-111800640D03*
X339016180Y-109260640D03*
X341556180Y-109260640D03*
X337736180Y-111800640D03*
G36*
G01*
X335676180Y-109793440D02*
X335676180Y-108727840D01*
G75*
G02*
X335943380Y-108460640I267200J0D01*
G01*
X337008980Y-108460640D01*
G75*
G02*
X337276180Y-108727840I0J-267200D01*
G01*
X337276180Y-109793440D01*
G75*
G02*
X337008980Y-110060640I-267200J0D01*
G01*
X335943380Y-110060640D01*
G75*
G02*
X335676180Y-109793440I0J267200D01*
G01*
G37*
D19*
X335201180Y-102900640D03*
X346631180Y-102900640D03*
%TD*%
%TO.C,C10*%
G36*
G01*
X320729030Y-70813040D02*
X321291530Y-70813040D01*
G75*
G02*
X321535280Y-71056790I0J-243750D01*
G01*
X321535280Y-71544290D01*
G75*
G02*
X321291530Y-71788040I-243750J0D01*
G01*
X320729030Y-71788040D01*
G75*
G02*
X320485280Y-71544290I0J243750D01*
G01*
X320485280Y-71056790D01*
G75*
G02*
X320729030Y-70813040I243750J0D01*
G01*
G37*
G36*
G01*
X320729030Y-69238040D02*
X321291530Y-69238040D01*
G75*
G02*
X321535280Y-69481790I0J-243750D01*
G01*
X321535280Y-69969290D01*
G75*
G02*
X321291530Y-70213040I-243750J0D01*
G01*
X320729030Y-70213040D01*
G75*
G02*
X320485280Y-69969290I0J243750D01*
G01*
X320485280Y-69481790D01*
G75*
G02*
X320729030Y-69238040I243750J0D01*
G01*
G37*
%TD*%
D20*
%TO.C,L1*%
X316255400Y-92715480D03*
X316255400Y-99115480D03*
%TD*%
D21*
%TO.C,U9*%
X324088680Y-66715240D03*
D22*
X332488680Y-70015240D03*
X333488680Y-70015240D03*
X331488680Y-70015240D03*
X333988680Y-70015240D03*
X334488680Y-70015240D03*
X332988680Y-70015240D03*
X330988680Y-70015240D03*
X329488680Y-70015240D03*
X326488680Y-70015240D03*
X327488680Y-70015240D03*
X331988680Y-70015240D03*
X326988680Y-70015240D03*
X335988680Y-70015240D03*
X336488680Y-70015240D03*
X330488680Y-70015240D03*
X328488680Y-70015240D03*
X334988680Y-70015240D03*
X335488680Y-70015240D03*
X336988680Y-70015240D03*
X337488680Y-70015240D03*
D21*
X339388680Y-66715240D03*
D22*
X325988680Y-70015240D03*
X327988680Y-70015240D03*
X328988680Y-70015240D03*
X329988680Y-70015240D03*
%TD*%
D23*
%TO.C,J3*%
X326850000Y-51660340D03*
X331350000Y-51660340D03*
D24*
X321600000Y-53360340D03*
X336600000Y-53360340D03*
D25*
X325600000Y-56060340D03*
X328100000Y-56060340D03*
X330100000Y-56060340D03*
X332600000Y-56060340D03*
%TD*%
%TO.C,C1*%
G36*
G01*
X356896500Y-129502000D02*
X356896500Y-127292000D01*
G75*
G02*
X357166500Y-127022000I270000J0D01*
G01*
X357976500Y-127022000D01*
G75*
G02*
X358246500Y-127292000I0J-270000D01*
G01*
X358246500Y-129502000D01*
G75*
G02*
X357976500Y-129772000I-270000J0D01*
G01*
X357166500Y-129772000D01*
G75*
G02*
X356896500Y-129502000I0J270000D01*
G01*
G37*
G36*
G01*
X354096500Y-129502000D02*
X354096500Y-127292000D01*
G75*
G02*
X354366500Y-127022000I270000J0D01*
G01*
X355176500Y-127022000D01*
G75*
G02*
X355446500Y-127292000I0J-270000D01*
G01*
X355446500Y-129502000D01*
G75*
G02*
X355176500Y-129772000I-270000J0D01*
G01*
X354366500Y-129772000D01*
G75*
G02*
X354096500Y-129502000I0J270000D01*
G01*
G37*
%TD*%
D26*
%TO.C,D12*%
X326315320Y-116961920D03*
X330315320Y-116961920D03*
%TD*%
%TO.C,D10*%
X343318600Y-121945400D03*
X339318600Y-121945400D03*
%TD*%
D27*
%TO.C,PS1*%
X347646000Y-139300000D03*
X345106000Y-139300000D03*
X322754000Y-139300000D03*
X316150000Y-139300000D03*
%TD*%
D14*
%TO.C,J6*%
X327731120Y-143276320D03*
D15*
X332811120Y-143276320D03*
%TD*%
D14*
%TO.C,J9*%
X342493600Y-143357600D03*
D15*
X347573600Y-143357600D03*
%TD*%
%TO.C,R4*%
G36*
G01*
X324601460Y-87742450D02*
X324601460Y-88304950D01*
G75*
G02*
X324357710Y-88548700I-243750J0D01*
G01*
X323870210Y-88548700D01*
G75*
G02*
X323626460Y-88304950I0J243750D01*
G01*
X323626460Y-87742450D01*
G75*
G02*
X323870210Y-87498700I243750J0D01*
G01*
X324357710Y-87498700D01*
G75*
G02*
X324601460Y-87742450I0J-243750D01*
G01*
G37*
G36*
G01*
X326176460Y-87742450D02*
X326176460Y-88304950D01*
G75*
G02*
X325932710Y-88548700I-243750J0D01*
G01*
X325445210Y-88548700D01*
G75*
G02*
X325201460Y-88304950I0J243750D01*
G01*
X325201460Y-87742450D01*
G75*
G02*
X325445210Y-87498700I243750J0D01*
G01*
X325932710Y-87498700D01*
G75*
G02*
X326176460Y-87742450I0J-243750D01*
G01*
G37*
%TD*%
%TO.C,U5*%
G36*
G01*
X353662900Y-62168600D02*
X353312900Y-62168600D01*
G75*
G02*
X353137900Y-61993600I0J175000D01*
G01*
X353137900Y-60293600D01*
G75*
G02*
X353312900Y-60118600I175000J0D01*
G01*
X353662900Y-60118600D01*
G75*
G02*
X353837900Y-60293600I0J-175000D01*
G01*
X353837900Y-61993600D01*
G75*
G02*
X353662900Y-62168600I-175000J0D01*
G01*
G37*
G36*
G01*
X354932900Y-62168600D02*
X354582900Y-62168600D01*
G75*
G02*
X354407900Y-61993600I0J175000D01*
G01*
X354407900Y-60293600D01*
G75*
G02*
X354582900Y-60118600I175000J0D01*
G01*
X354932900Y-60118600D01*
G75*
G02*
X355107900Y-60293600I0J-175000D01*
G01*
X355107900Y-61993600D01*
G75*
G02*
X354932900Y-62168600I-175000J0D01*
G01*
G37*
G36*
G01*
X356202900Y-62168600D02*
X355852900Y-62168600D01*
G75*
G02*
X355677900Y-61993600I0J175000D01*
G01*
X355677900Y-60293600D01*
G75*
G02*
X355852900Y-60118600I175000J0D01*
G01*
X356202900Y-60118600D01*
G75*
G02*
X356377900Y-60293600I0J-175000D01*
G01*
X356377900Y-61993600D01*
G75*
G02*
X356202900Y-62168600I-175000J0D01*
G01*
G37*
G36*
G01*
X357472900Y-62168600D02*
X357122900Y-62168600D01*
G75*
G02*
X356947900Y-61993600I0J175000D01*
G01*
X356947900Y-60293600D01*
G75*
G02*
X357122900Y-60118600I175000J0D01*
G01*
X357472900Y-60118600D01*
G75*
G02*
X357647900Y-60293600I0J-175000D01*
G01*
X357647900Y-61993600D01*
G75*
G02*
X357472900Y-62168600I-175000J0D01*
G01*
G37*
G36*
G01*
X357472900Y-67118600D02*
X357122900Y-67118600D01*
G75*
G02*
X356947900Y-66943600I0J175000D01*
G01*
X356947900Y-65243600D01*
G75*
G02*
X357122900Y-65068600I175000J0D01*
G01*
X357472900Y-65068600D01*
G75*
G02*
X357647900Y-65243600I0J-175000D01*
G01*
X357647900Y-66943600D01*
G75*
G02*
X357472900Y-67118600I-175000J0D01*
G01*
G37*
G36*
G01*
X356202900Y-67118600D02*
X355852900Y-67118600D01*
G75*
G02*
X355677900Y-66943600I0J175000D01*
G01*
X355677900Y-65243600D01*
G75*
G02*
X355852900Y-65068600I175000J0D01*
G01*
X356202900Y-65068600D01*
G75*
G02*
X356377900Y-65243600I0J-175000D01*
G01*
X356377900Y-66943600D01*
G75*
G02*
X356202900Y-67118600I-175000J0D01*
G01*
G37*
G36*
G01*
X354932900Y-67118600D02*
X354582900Y-67118600D01*
G75*
G02*
X354407900Y-66943600I0J175000D01*
G01*
X354407900Y-65243600D01*
G75*
G02*
X354582900Y-65068600I175000J0D01*
G01*
X354932900Y-65068600D01*
G75*
G02*
X355107900Y-65243600I0J-175000D01*
G01*
X355107900Y-66943600D01*
G75*
G02*
X354932900Y-67118600I-175000J0D01*
G01*
G37*
G36*
G01*
X353662900Y-67118600D02*
X353312900Y-67118600D01*
G75*
G02*
X353137900Y-66943600I0J175000D01*
G01*
X353137900Y-65243600D01*
G75*
G02*
X353312900Y-65068600I175000J0D01*
G01*
X353662900Y-65068600D01*
G75*
G02*
X353837900Y-65243600I0J-175000D01*
G01*
X353837900Y-66943600D01*
G75*
G02*
X353662900Y-67118600I-175000J0D01*
G01*
G37*
%TD*%
D28*
%TO.C,Y1*%
X355992900Y-68543600D03*
X353492900Y-68543600D03*
%TD*%
%TO.C,U10*%
G36*
G01*
X312148480Y-70900180D02*
X312498480Y-70900180D01*
G75*
G02*
X312673480Y-71075180I0J-175000D01*
G01*
X312673480Y-72775180D01*
G75*
G02*
X312498480Y-72950180I-175000J0D01*
G01*
X312148480Y-72950180D01*
G75*
G02*
X311973480Y-72775180I0J175000D01*
G01*
X311973480Y-71075180D01*
G75*
G02*
X312148480Y-70900180I175000J0D01*
G01*
G37*
G36*
G01*
X310878480Y-70900180D02*
X311228480Y-70900180D01*
G75*
G02*
X311403480Y-71075180I0J-175000D01*
G01*
X311403480Y-72775180D01*
G75*
G02*
X311228480Y-72950180I-175000J0D01*
G01*
X310878480Y-72950180D01*
G75*
G02*
X310703480Y-72775180I0J175000D01*
G01*
X310703480Y-71075180D01*
G75*
G02*
X310878480Y-70900180I175000J0D01*
G01*
G37*
G36*
G01*
X309608480Y-70900180D02*
X309958480Y-70900180D01*
G75*
G02*
X310133480Y-71075180I0J-175000D01*
G01*
X310133480Y-72775180D01*
G75*
G02*
X309958480Y-72950180I-175000J0D01*
G01*
X309608480Y-72950180D01*
G75*
G02*
X309433480Y-72775180I0J175000D01*
G01*
X309433480Y-71075180D01*
G75*
G02*
X309608480Y-70900180I175000J0D01*
G01*
G37*
G36*
G01*
X308338480Y-70900180D02*
X308688480Y-70900180D01*
G75*
G02*
X308863480Y-71075180I0J-175000D01*
G01*
X308863480Y-72775180D01*
G75*
G02*
X308688480Y-72950180I-175000J0D01*
G01*
X308338480Y-72950180D01*
G75*
G02*
X308163480Y-72775180I0J175000D01*
G01*
X308163480Y-71075180D01*
G75*
G02*
X308338480Y-70900180I175000J0D01*
G01*
G37*
G36*
G01*
X308338480Y-65950180D02*
X308688480Y-65950180D01*
G75*
G02*
X308863480Y-66125180I0J-175000D01*
G01*
X308863480Y-67825180D01*
G75*
G02*
X308688480Y-68000180I-175000J0D01*
G01*
X308338480Y-68000180D01*
G75*
G02*
X308163480Y-67825180I0J175000D01*
G01*
X308163480Y-66125180D01*
G75*
G02*
X308338480Y-65950180I175000J0D01*
G01*
G37*
G36*
G01*
X309608480Y-65950180D02*
X309958480Y-65950180D01*
G75*
G02*
X310133480Y-66125180I0J-175000D01*
G01*
X310133480Y-67825180D01*
G75*
G02*
X309958480Y-68000180I-175000J0D01*
G01*
X309608480Y-68000180D01*
G75*
G02*
X309433480Y-67825180I0J175000D01*
G01*
X309433480Y-66125180D01*
G75*
G02*
X309608480Y-65950180I175000J0D01*
G01*
G37*
G36*
G01*
X310878480Y-65950180D02*
X311228480Y-65950180D01*
G75*
G02*
X311403480Y-66125180I0J-175000D01*
G01*
X311403480Y-67825180D01*
G75*
G02*
X311228480Y-68000180I-175000J0D01*
G01*
X310878480Y-68000180D01*
G75*
G02*
X310703480Y-67825180I0J175000D01*
G01*
X310703480Y-66125180D01*
G75*
G02*
X310878480Y-65950180I175000J0D01*
G01*
G37*
G36*
G01*
X312148480Y-65950180D02*
X312498480Y-65950180D01*
G75*
G02*
X312673480Y-66125180I0J-175000D01*
G01*
X312673480Y-67825180D01*
G75*
G02*
X312498480Y-68000180I-175000J0D01*
G01*
X312148480Y-68000180D01*
G75*
G02*
X311973480Y-67825180I0J175000D01*
G01*
X311973480Y-66125180D01*
G75*
G02*
X312148480Y-65950180I175000J0D01*
G01*
G37*
%TD*%
D29*
%TO.C,U8*%
X309813960Y-56032400D03*
X317433960Y-53492400D03*
X309813960Y-53492400D03*
X317433960Y-56032400D03*
%TD*%
D30*
%TO.C,U3*%
X309465000Y-94025000D03*
G36*
G01*
X307735000Y-92575000D02*
X307385000Y-92575000D01*
G75*
G02*
X307210000Y-92400000I0J175000D01*
G01*
X307210000Y-90700000D01*
G75*
G02*
X307385000Y-90525000I175000J0D01*
G01*
X307735000Y-90525000D01*
G75*
G02*
X307910000Y-90700000I0J-175000D01*
G01*
X307910000Y-92400000D01*
G75*
G02*
X307735000Y-92575000I-175000J0D01*
G01*
G37*
G36*
G01*
X309005000Y-92575000D02*
X308655000Y-92575000D01*
G75*
G02*
X308480000Y-92400000I0J175000D01*
G01*
X308480000Y-90700000D01*
G75*
G02*
X308655000Y-90525000I175000J0D01*
G01*
X309005000Y-90525000D01*
G75*
G02*
X309180000Y-90700000I0J-175000D01*
G01*
X309180000Y-92400000D01*
G75*
G02*
X309005000Y-92575000I-175000J0D01*
G01*
G37*
G36*
G01*
X310275000Y-92575000D02*
X309925000Y-92575000D01*
G75*
G02*
X309750000Y-92400000I0J175000D01*
G01*
X309750000Y-90700000D01*
G75*
G02*
X309925000Y-90525000I175000J0D01*
G01*
X310275000Y-90525000D01*
G75*
G02*
X310450000Y-90700000I0J-175000D01*
G01*
X310450000Y-92400000D01*
G75*
G02*
X310275000Y-92575000I-175000J0D01*
G01*
G37*
G36*
G01*
X311545000Y-92575000D02*
X311195000Y-92575000D01*
G75*
G02*
X311020000Y-92400000I0J175000D01*
G01*
X311020000Y-90700000D01*
G75*
G02*
X311195000Y-90525000I175000J0D01*
G01*
X311545000Y-90525000D01*
G75*
G02*
X311720000Y-90700000I0J-175000D01*
G01*
X311720000Y-92400000D01*
G75*
G02*
X311545000Y-92575000I-175000J0D01*
G01*
G37*
G36*
G01*
X311545000Y-97525000D02*
X311195000Y-97525000D01*
G75*
G02*
X311020000Y-97350000I0J175000D01*
G01*
X311020000Y-95650000D01*
G75*
G02*
X311195000Y-95475000I175000J0D01*
G01*
X311545000Y-95475000D01*
G75*
G02*
X311720000Y-95650000I0J-175000D01*
G01*
X311720000Y-97350000D01*
G75*
G02*
X311545000Y-97525000I-175000J0D01*
G01*
G37*
G36*
G01*
X310275000Y-97525000D02*
X309925000Y-97525000D01*
G75*
G02*
X309750000Y-97350000I0J175000D01*
G01*
X309750000Y-95650000D01*
G75*
G02*
X309925000Y-95475000I175000J0D01*
G01*
X310275000Y-95475000D01*
G75*
G02*
X310450000Y-95650000I0J-175000D01*
G01*
X310450000Y-97350000D01*
G75*
G02*
X310275000Y-97525000I-175000J0D01*
G01*
G37*
G36*
G01*
X309005000Y-97525000D02*
X308655000Y-97525000D01*
G75*
G02*
X308480000Y-97350000I0J175000D01*
G01*
X308480000Y-95650000D01*
G75*
G02*
X308655000Y-95475000I175000J0D01*
G01*
X309005000Y-95475000D01*
G75*
G02*
X309180000Y-95650000I0J-175000D01*
G01*
X309180000Y-97350000D01*
G75*
G02*
X309005000Y-97525000I-175000J0D01*
G01*
G37*
G36*
G01*
X307735000Y-97525000D02*
X307385000Y-97525000D01*
G75*
G02*
X307210000Y-97350000I0J175000D01*
G01*
X307210000Y-95650000D01*
G75*
G02*
X307385000Y-95475000I175000J0D01*
G01*
X307735000Y-95475000D01*
G75*
G02*
X307910000Y-95650000I0J-175000D01*
G01*
X307910000Y-97350000D01*
G75*
G02*
X307735000Y-97525000I-175000J0D01*
G01*
G37*
%TD*%
%TO.C,TH3*%
G36*
G01*
X343564979Y-137416900D02*
X340609421Y-137416900D01*
G75*
G02*
X340337200Y-137144679I0J272221D01*
G01*
X340337200Y-136464121D01*
G75*
G02*
X340609421Y-136191900I272221J0D01*
G01*
X343564979Y-136191900D01*
G75*
G02*
X343837200Y-136464121I0J-272221D01*
G01*
X343837200Y-137144679D01*
G75*
G02*
X343564979Y-137416900I-272221J0D01*
G01*
G37*
G36*
G01*
X343564979Y-133141900D02*
X340609421Y-133141900D01*
G75*
G02*
X340337200Y-132869679I0J272221D01*
G01*
X340337200Y-132189121D01*
G75*
G02*
X340609421Y-131916900I272221J0D01*
G01*
X343564979Y-131916900D01*
G75*
G02*
X343837200Y-132189121I0J-272221D01*
G01*
X343837200Y-132869679D01*
G75*
G02*
X343564979Y-133141900I-272221J0D01*
G01*
G37*
%TD*%
%TO.C,TH2*%
G36*
G01*
X323848460Y-103621339D02*
X323848460Y-100665781D01*
G75*
G02*
X324120681Y-100393560I272221J0D01*
G01*
X324801239Y-100393560D01*
G75*
G02*
X325073460Y-100665781I0J-272221D01*
G01*
X325073460Y-103621339D01*
G75*
G02*
X324801239Y-103893560I-272221J0D01*
G01*
X324120681Y-103893560D01*
G75*
G02*
X323848460Y-103621339I0J272221D01*
G01*
G37*
G36*
G01*
X319573460Y-103621339D02*
X319573460Y-100665781D01*
G75*
G02*
X319845681Y-100393560I272221J0D01*
G01*
X320526239Y-100393560D01*
G75*
G02*
X320798460Y-100665781I0J-272221D01*
G01*
X320798460Y-103621339D01*
G75*
G02*
X320526239Y-103893560I-272221J0D01*
G01*
X319845681Y-103893560D01*
G75*
G02*
X319573460Y-103621339I0J272221D01*
G01*
G37*
%TD*%
%TO.C,TH1*%
G36*
G01*
X323863700Y-107553259D02*
X323863700Y-104597701D01*
G75*
G02*
X324135921Y-104325480I272221J0D01*
G01*
X324816479Y-104325480D01*
G75*
G02*
X325088700Y-104597701I0J-272221D01*
G01*
X325088700Y-107553259D01*
G75*
G02*
X324816479Y-107825480I-272221J0D01*
G01*
X324135921Y-107825480D01*
G75*
G02*
X323863700Y-107553259I0J272221D01*
G01*
G37*
G36*
G01*
X319588700Y-107553259D02*
X319588700Y-104597701D01*
G75*
G02*
X319860921Y-104325480I272221J0D01*
G01*
X320541479Y-104325480D01*
G75*
G02*
X320813700Y-104597701I0J-272221D01*
G01*
X320813700Y-107553259D01*
G75*
G02*
X320541479Y-107825480I-272221J0D01*
G01*
X319860921Y-107825480D01*
G75*
G02*
X319588700Y-107553259I0J272221D01*
G01*
G37*
%TD*%
D31*
%TO.C,Q2*%
X320885820Y-60690760D03*
X322885820Y-59740760D03*
X322885820Y-61640760D03*
%TD*%
%TO.C,Q1*%
X317476900Y-74273600D03*
X319476900Y-73323600D03*
X319476900Y-75223600D03*
%TD*%
D32*
%TO.C,J4*%
X311810000Y-48280000D03*
X316810000Y-48280000D03*
D33*
X310435000Y-45530000D03*
X318185000Y-45530000D03*
D34*
X310585000Y-49330000D03*
X318035000Y-49330000D03*
D35*
X313010000Y-49380000D03*
X313660000Y-49380000D03*
X314310000Y-49380000D03*
X314960000Y-49380000D03*
X315610000Y-49380000D03*
%TD*%
D36*
%TO.C,F2*%
X337634580Y-141147800D03*
X337634580Y-146147800D03*
%TD*%
D37*
%TO.C,U7*%
X342742400Y-69380400D03*
X342742400Y-68730400D03*
X342742400Y-68080400D03*
X342742400Y-67430400D03*
X342742400Y-66780400D03*
X342742400Y-66130400D03*
X342742400Y-65480400D03*
X342742400Y-64830400D03*
X342742400Y-64180400D03*
X342742400Y-63530400D03*
X342742400Y-62880400D03*
X342742400Y-62230400D03*
X342742400Y-61580400D03*
X342742400Y-60930400D03*
X349942400Y-60930400D03*
X349942400Y-61580400D03*
X349942400Y-62230400D03*
X349942400Y-62880400D03*
X349942400Y-63530400D03*
X349942400Y-64180400D03*
X349942400Y-64830400D03*
X349942400Y-65480400D03*
X349942400Y-66130400D03*
X349942400Y-66780400D03*
X349942400Y-67430400D03*
X349942400Y-68080400D03*
X349942400Y-68730400D03*
X349942400Y-69380400D03*
%TD*%
D38*
%TO.C,U6*%
X306275000Y-84475000D03*
X310875000Y-84475000D03*
X308575000Y-84475000D03*
D39*
X308575000Y-78175000D03*
%TD*%
D40*
%TO.C,U4*%
X345984260Y-86188640D03*
D41*
X343964260Y-88178640D03*
D42*
X350894260Y-79588640D03*
X349624260Y-79588640D03*
X348354260Y-79588640D03*
X347084260Y-79588640D03*
X345814260Y-79588640D03*
X344544260Y-79588640D03*
X343274260Y-79588640D03*
X342004260Y-79588640D03*
X340734260Y-79588640D03*
X339464260Y-79588640D03*
X338194260Y-79588640D03*
X336924260Y-79588640D03*
X335654260Y-79588640D03*
X334384260Y-79588640D03*
X333084260Y-79588640D03*
X331814260Y-79588640D03*
X330544260Y-79588640D03*
X329274260Y-79588640D03*
X328004260Y-79588640D03*
X328004260Y-97588640D03*
X329274260Y-97588640D03*
X330544260Y-97588640D03*
X331814260Y-97588640D03*
X333084260Y-97588640D03*
X334384260Y-97618640D03*
X335654260Y-97618640D03*
X336924260Y-97618640D03*
X338194260Y-97618640D03*
X339464260Y-97618640D03*
X340734260Y-97618640D03*
X342004260Y-97618640D03*
X343274260Y-97618640D03*
X344544260Y-97618640D03*
X345814260Y-97618640D03*
X347084260Y-97618640D03*
X348354260Y-97618640D03*
X349624260Y-97618640D03*
X350894260Y-97618640D03*
D40*
X344984260Y-86188640D03*
X343984260Y-86188640D03*
X342984260Y-86188640D03*
X341984260Y-86188640D03*
X341984260Y-87188640D03*
X342984260Y-87188640D03*
X343984260Y-87188640D03*
X344984260Y-87188640D03*
X345984260Y-87188640D03*
X345984260Y-89188640D03*
X344984260Y-89188640D03*
X343984260Y-89188640D03*
X342984260Y-89188640D03*
X341984260Y-89188640D03*
X341984260Y-88188640D03*
X342984260Y-88188640D03*
X343984260Y-88188640D03*
X344984260Y-88188640D03*
X345984260Y-88188640D03*
X341984260Y-90188640D03*
X342984260Y-90188640D03*
X343984260Y-90188640D03*
X344984260Y-90188640D03*
X345984260Y-90188640D03*
%TD*%
D31*
%TO.C,U2*%
X317527700Y-67127080D03*
X319527700Y-66177080D03*
X319527700Y-68077080D03*
%TD*%
%TO.C,U1*%
X317502300Y-70695660D03*
X319502300Y-69745660D03*
X319502300Y-71645660D03*
%TD*%
%TO.C,R39*%
G36*
G01*
X337323260Y-60524670D02*
X337323260Y-59962170D01*
G75*
G02*
X337567010Y-59718420I243750J0D01*
G01*
X338054510Y-59718420D01*
G75*
G02*
X338298260Y-59962170I0J-243750D01*
G01*
X338298260Y-60524670D01*
G75*
G02*
X338054510Y-60768420I-243750J0D01*
G01*
X337567010Y-60768420D01*
G75*
G02*
X337323260Y-60524670I0J243750D01*
G01*
G37*
G36*
G01*
X335748260Y-60524670D02*
X335748260Y-59962170D01*
G75*
G02*
X335992010Y-59718420I243750J0D01*
G01*
X336479510Y-59718420D01*
G75*
G02*
X336723260Y-59962170I0J-243750D01*
G01*
X336723260Y-60524670D01*
G75*
G02*
X336479510Y-60768420I-243750J0D01*
G01*
X335992010Y-60768420D01*
G75*
G02*
X335748260Y-60524670I0J243750D01*
G01*
G37*
%TD*%
%TO.C,R38*%
G36*
G01*
X351932420Y-113440790D02*
X351932420Y-112878290D01*
G75*
G02*
X352176170Y-112634540I243750J0D01*
G01*
X352663670Y-112634540D01*
G75*
G02*
X352907420Y-112878290I0J-243750D01*
G01*
X352907420Y-113440790D01*
G75*
G02*
X352663670Y-113684540I-243750J0D01*
G01*
X352176170Y-113684540D01*
G75*
G02*
X351932420Y-113440790I0J243750D01*
G01*
G37*
G36*
G01*
X350357420Y-113440790D02*
X350357420Y-112878290D01*
G75*
G02*
X350601170Y-112634540I243750J0D01*
G01*
X351088670Y-112634540D01*
G75*
G02*
X351332420Y-112878290I0J-243750D01*
G01*
X351332420Y-113440790D01*
G75*
G02*
X351088670Y-113684540I-243750J0D01*
G01*
X350601170Y-113684540D01*
G75*
G02*
X350357420Y-113440790I0J243750D01*
G01*
G37*
%TD*%
%TO.C,R37*%
G36*
G01*
X351935160Y-110291190D02*
X351935160Y-109728690D01*
G75*
G02*
X352178910Y-109484940I243750J0D01*
G01*
X352666410Y-109484940D01*
G75*
G02*
X352910160Y-109728690I0J-243750D01*
G01*
X352910160Y-110291190D01*
G75*
G02*
X352666410Y-110534940I-243750J0D01*
G01*
X352178910Y-110534940D01*
G75*
G02*
X351935160Y-110291190I0J243750D01*
G01*
G37*
G36*
G01*
X350360160Y-110291190D02*
X350360160Y-109728690D01*
G75*
G02*
X350603910Y-109484940I243750J0D01*
G01*
X351091410Y-109484940D01*
G75*
G02*
X351335160Y-109728690I0J-243750D01*
G01*
X351335160Y-110291190D01*
G75*
G02*
X351091410Y-110534940I-243750J0D01*
G01*
X350603910Y-110534940D01*
G75*
G02*
X350360160Y-110291190I0J243750D01*
G01*
G37*
%TD*%
%TO.C,R36*%
G36*
G01*
X343654500Y-128483990D02*
X343654500Y-127921490D01*
G75*
G02*
X343898250Y-127677740I243750J0D01*
G01*
X344385750Y-127677740D01*
G75*
G02*
X344629500Y-127921490I0J-243750D01*
G01*
X344629500Y-128483990D01*
G75*
G02*
X344385750Y-128727740I-243750J0D01*
G01*
X343898250Y-128727740D01*
G75*
G02*
X343654500Y-128483990I0J243750D01*
G01*
G37*
G36*
G01*
X342079500Y-128483990D02*
X342079500Y-127921490D01*
G75*
G02*
X342323250Y-127677740I243750J0D01*
G01*
X342810750Y-127677740D01*
G75*
G02*
X343054500Y-127921490I0J-243750D01*
G01*
X343054500Y-128483990D01*
G75*
G02*
X342810750Y-128727740I-243750J0D01*
G01*
X342323250Y-128727740D01*
G75*
G02*
X342079500Y-128483990I0J243750D01*
G01*
G37*
%TD*%
%TO.C,R35*%
G36*
G01*
X343704500Y-130008990D02*
X343704500Y-129446490D01*
G75*
G02*
X343948250Y-129202740I243750J0D01*
G01*
X344435750Y-129202740D01*
G75*
G02*
X344679500Y-129446490I0J-243750D01*
G01*
X344679500Y-130008990D01*
G75*
G02*
X344435750Y-130252740I-243750J0D01*
G01*
X343948250Y-130252740D01*
G75*
G02*
X343704500Y-130008990I0J243750D01*
G01*
G37*
G36*
G01*
X342129500Y-130008990D02*
X342129500Y-129446490D01*
G75*
G02*
X342373250Y-129202740I243750J0D01*
G01*
X342860750Y-129202740D01*
G75*
G02*
X343104500Y-129446490I0J-243750D01*
G01*
X343104500Y-130008990D01*
G75*
G02*
X342860750Y-130252740I-243750J0D01*
G01*
X342373250Y-130252740D01*
G75*
G02*
X342129500Y-130008990I0J243750D01*
G01*
G37*
%TD*%
%TO.C,R34*%
G36*
G01*
X309369280Y-127661090D02*
X309369280Y-128223590D01*
G75*
G02*
X309125530Y-128467340I-243750J0D01*
G01*
X308638030Y-128467340D01*
G75*
G02*
X308394280Y-128223590I0J243750D01*
G01*
X308394280Y-127661090D01*
G75*
G02*
X308638030Y-127417340I243750J0D01*
G01*
X309125530Y-127417340D01*
G75*
G02*
X309369280Y-127661090I0J-243750D01*
G01*
G37*
G36*
G01*
X310944280Y-127661090D02*
X310944280Y-128223590D01*
G75*
G02*
X310700530Y-128467340I-243750J0D01*
G01*
X310213030Y-128467340D01*
G75*
G02*
X309969280Y-128223590I0J243750D01*
G01*
X309969280Y-127661090D01*
G75*
G02*
X310213030Y-127417340I243750J0D01*
G01*
X310700530Y-127417340D01*
G75*
G02*
X310944280Y-127661090I0J-243750D01*
G01*
G37*
%TD*%
%TO.C,R33*%
G36*
G01*
X347279100Y-128483590D02*
X347279100Y-127921090D01*
G75*
G02*
X347522850Y-127677340I243750J0D01*
G01*
X348010350Y-127677340D01*
G75*
G02*
X348254100Y-127921090I0J-243750D01*
G01*
X348254100Y-128483590D01*
G75*
G02*
X348010350Y-128727340I-243750J0D01*
G01*
X347522850Y-128727340D01*
G75*
G02*
X347279100Y-128483590I0J243750D01*
G01*
G37*
G36*
G01*
X345704100Y-128483590D02*
X345704100Y-127921090D01*
G75*
G02*
X345947850Y-127677340I243750J0D01*
G01*
X346435350Y-127677340D01*
G75*
G02*
X346679100Y-127921090I0J-243750D01*
G01*
X346679100Y-128483590D01*
G75*
G02*
X346435350Y-128727340I-243750J0D01*
G01*
X345947850Y-128727340D01*
G75*
G02*
X345704100Y-128483590I0J243750D01*
G01*
G37*
%TD*%
%TO.C,R32*%
G36*
G01*
X347279100Y-130008590D02*
X347279100Y-129446090D01*
G75*
G02*
X347522850Y-129202340I243750J0D01*
G01*
X348010350Y-129202340D01*
G75*
G02*
X348254100Y-129446090I0J-243750D01*
G01*
X348254100Y-130008590D01*
G75*
G02*
X348010350Y-130252340I-243750J0D01*
G01*
X347522850Y-130252340D01*
G75*
G02*
X347279100Y-130008590I0J243750D01*
G01*
G37*
G36*
G01*
X345704100Y-130008590D02*
X345704100Y-129446090D01*
G75*
G02*
X345947850Y-129202340I243750J0D01*
G01*
X346435350Y-129202340D01*
G75*
G02*
X346679100Y-129446090I0J-243750D01*
G01*
X346679100Y-130008590D01*
G75*
G02*
X346435350Y-130252340I-243750J0D01*
G01*
X345947850Y-130252340D01*
G75*
G02*
X345704100Y-130008590I0J243750D01*
G01*
G37*
%TD*%
%TO.C,R31*%
G36*
G01*
X309362680Y-129192070D02*
X309362680Y-129754570D01*
G75*
G02*
X309118930Y-129998320I-243750J0D01*
G01*
X308631430Y-129998320D01*
G75*
G02*
X308387680Y-129754570I0J243750D01*
G01*
X308387680Y-129192070D01*
G75*
G02*
X308631430Y-128948320I243750J0D01*
G01*
X309118930Y-128948320D01*
G75*
G02*
X309362680Y-129192070I0J-243750D01*
G01*
G37*
G36*
G01*
X310937680Y-129192070D02*
X310937680Y-129754570D01*
G75*
G02*
X310693930Y-129998320I-243750J0D01*
G01*
X310206430Y-129998320D01*
G75*
G02*
X309962680Y-129754570I0J243750D01*
G01*
X309962680Y-129192070D01*
G75*
G02*
X310206430Y-128948320I243750J0D01*
G01*
X310693930Y-128948320D01*
G75*
G02*
X310937680Y-129192070I0J-243750D01*
G01*
G37*
%TD*%
%TO.C,R30*%
G36*
G01*
X307587070Y-75019080D02*
X308149570Y-75019080D01*
G75*
G02*
X308393320Y-75262830I0J-243750D01*
G01*
X308393320Y-75750330D01*
G75*
G02*
X308149570Y-75994080I-243750J0D01*
G01*
X307587070Y-75994080D01*
G75*
G02*
X307343320Y-75750330I0J243750D01*
G01*
X307343320Y-75262830D01*
G75*
G02*
X307587070Y-75019080I243750J0D01*
G01*
G37*
G36*
G01*
X307587070Y-73444080D02*
X308149570Y-73444080D01*
G75*
G02*
X308393320Y-73687830I0J-243750D01*
G01*
X308393320Y-74175330D01*
G75*
G02*
X308149570Y-74419080I-243750J0D01*
G01*
X307587070Y-74419080D01*
G75*
G02*
X307343320Y-74175330I0J243750D01*
G01*
X307343320Y-73687830D01*
G75*
G02*
X307587070Y-73444080I243750J0D01*
G01*
G37*
%TD*%
%TO.C,R29*%
G36*
G01*
X309123770Y-75016740D02*
X309686270Y-75016740D01*
G75*
G02*
X309930020Y-75260490I0J-243750D01*
G01*
X309930020Y-75747990D01*
G75*
G02*
X309686270Y-75991740I-243750J0D01*
G01*
X309123770Y-75991740D01*
G75*
G02*
X308880020Y-75747990I0J243750D01*
G01*
X308880020Y-75260490D01*
G75*
G02*
X309123770Y-75016740I243750J0D01*
G01*
G37*
G36*
G01*
X309123770Y-73441740D02*
X309686270Y-73441740D01*
G75*
G02*
X309930020Y-73685490I0J-243750D01*
G01*
X309930020Y-74172990D01*
G75*
G02*
X309686270Y-74416740I-243750J0D01*
G01*
X309123770Y-74416740D01*
G75*
G02*
X308880020Y-74172990I0J243750D01*
G01*
X308880020Y-73685490D01*
G75*
G02*
X309123770Y-73441740I243750J0D01*
G01*
G37*
%TD*%
%TO.C,R28*%
G36*
G01*
X311261070Y-74416740D02*
X310698570Y-74416740D01*
G75*
G02*
X310454820Y-74172990I0J243750D01*
G01*
X310454820Y-73685490D01*
G75*
G02*
X310698570Y-73441740I243750J0D01*
G01*
X311261070Y-73441740D01*
G75*
G02*
X311504820Y-73685490I0J-243750D01*
G01*
X311504820Y-74172990D01*
G75*
G02*
X311261070Y-74416740I-243750J0D01*
G01*
G37*
G36*
G01*
X311261070Y-75991740D02*
X310698570Y-75991740D01*
G75*
G02*
X310454820Y-75747990I0J243750D01*
G01*
X310454820Y-75260490D01*
G75*
G02*
X310698570Y-75016740I243750J0D01*
G01*
X311261070Y-75016740D01*
G75*
G02*
X311504820Y-75260490I0J-243750D01*
G01*
X311504820Y-75747990D01*
G75*
G02*
X311261070Y-75991740I-243750J0D01*
G01*
G37*
%TD*%
%TO.C,R27*%
G36*
G01*
X312123990Y-64482320D02*
X312686490Y-64482320D01*
G75*
G02*
X312930240Y-64726070I0J-243750D01*
G01*
X312930240Y-65213570D01*
G75*
G02*
X312686490Y-65457320I-243750J0D01*
G01*
X312123990Y-65457320D01*
G75*
G02*
X311880240Y-65213570I0J243750D01*
G01*
X311880240Y-64726070D01*
G75*
G02*
X312123990Y-64482320I243750J0D01*
G01*
G37*
G36*
G01*
X312123990Y-62907320D02*
X312686490Y-62907320D01*
G75*
G02*
X312930240Y-63151070I0J-243750D01*
G01*
X312930240Y-63638570D01*
G75*
G02*
X312686490Y-63882320I-243750J0D01*
G01*
X312123990Y-63882320D01*
G75*
G02*
X311880240Y-63638570I0J243750D01*
G01*
X311880240Y-63151070D01*
G75*
G02*
X312123990Y-62907320I243750J0D01*
G01*
G37*
%TD*%
%TO.C,R26*%
G36*
G01*
X310609670Y-64495860D02*
X311172170Y-64495860D01*
G75*
G02*
X311415920Y-64739610I0J-243750D01*
G01*
X311415920Y-65227110D01*
G75*
G02*
X311172170Y-65470860I-243750J0D01*
G01*
X310609670Y-65470860D01*
G75*
G02*
X310365920Y-65227110I0J243750D01*
G01*
X310365920Y-64739610D01*
G75*
G02*
X310609670Y-64495860I243750J0D01*
G01*
G37*
G36*
G01*
X310609670Y-62920860D02*
X311172170Y-62920860D01*
G75*
G02*
X311415920Y-63164610I0J-243750D01*
G01*
X311415920Y-63652110D01*
G75*
G02*
X311172170Y-63895860I-243750J0D01*
G01*
X310609670Y-63895860D01*
G75*
G02*
X310365920Y-63652110I0J243750D01*
G01*
X310365920Y-63164610D01*
G75*
G02*
X310609670Y-62920860I243750J0D01*
G01*
G37*
%TD*%
%TO.C,R25*%
G36*
G01*
X308081300Y-61237550D02*
X308081300Y-61800050D01*
G75*
G02*
X307837550Y-62043800I-243750J0D01*
G01*
X307350050Y-62043800D01*
G75*
G02*
X307106300Y-61800050I0J243750D01*
G01*
X307106300Y-61237550D01*
G75*
G02*
X307350050Y-60993800I243750J0D01*
G01*
X307837550Y-60993800D01*
G75*
G02*
X308081300Y-61237550I0J-243750D01*
G01*
G37*
G36*
G01*
X309656300Y-61237550D02*
X309656300Y-61800050D01*
G75*
G02*
X309412550Y-62043800I-243750J0D01*
G01*
X308925050Y-62043800D01*
G75*
G02*
X308681300Y-61800050I0J243750D01*
G01*
X308681300Y-61237550D01*
G75*
G02*
X308925050Y-60993800I243750J0D01*
G01*
X309412550Y-60993800D01*
G75*
G02*
X309656300Y-61237550I0J-243750D01*
G01*
G37*
%TD*%
%TO.C,R24*%
G36*
G01*
X325201320Y-83681630D02*
X325201320Y-83119130D01*
G75*
G02*
X325445070Y-82875380I243750J0D01*
G01*
X325932570Y-82875380D01*
G75*
G02*
X326176320Y-83119130I0J-243750D01*
G01*
X326176320Y-83681630D01*
G75*
G02*
X325932570Y-83925380I-243750J0D01*
G01*
X325445070Y-83925380D01*
G75*
G02*
X325201320Y-83681630I0J243750D01*
G01*
G37*
G36*
G01*
X323626320Y-83681630D02*
X323626320Y-83119130D01*
G75*
G02*
X323870070Y-82875380I243750J0D01*
G01*
X324357570Y-82875380D01*
G75*
G02*
X324601320Y-83119130I0J-243750D01*
G01*
X324601320Y-83681630D01*
G75*
G02*
X324357570Y-83925380I-243750J0D01*
G01*
X323870070Y-83925380D01*
G75*
G02*
X323626320Y-83681630I0J243750D01*
G01*
G37*
%TD*%
%TO.C,R23*%
G36*
G01*
X325201320Y-82156630D02*
X325201320Y-81594130D01*
G75*
G02*
X325445070Y-81350380I243750J0D01*
G01*
X325932570Y-81350380D01*
G75*
G02*
X326176320Y-81594130I0J-243750D01*
G01*
X326176320Y-82156630D01*
G75*
G02*
X325932570Y-82400380I-243750J0D01*
G01*
X325445070Y-82400380D01*
G75*
G02*
X325201320Y-82156630I0J243750D01*
G01*
G37*
G36*
G01*
X323626320Y-82156630D02*
X323626320Y-81594130D01*
G75*
G02*
X323870070Y-81350380I243750J0D01*
G01*
X324357570Y-81350380D01*
G75*
G02*
X324601320Y-81594130I0J-243750D01*
G01*
X324601320Y-82156630D01*
G75*
G02*
X324357570Y-82400380I-243750J0D01*
G01*
X323870070Y-82400380D01*
G75*
G02*
X323626320Y-82156630I0J243750D01*
G01*
G37*
%TD*%
%TO.C,R22*%
G36*
G01*
X326653470Y-74043360D02*
X326090970Y-74043360D01*
G75*
G02*
X325847220Y-73799610I0J243750D01*
G01*
X325847220Y-73312110D01*
G75*
G02*
X326090970Y-73068360I243750J0D01*
G01*
X326653470Y-73068360D01*
G75*
G02*
X326897220Y-73312110I0J-243750D01*
G01*
X326897220Y-73799610D01*
G75*
G02*
X326653470Y-74043360I-243750J0D01*
G01*
G37*
G36*
G01*
X326653470Y-75618360D02*
X326090970Y-75618360D01*
G75*
G02*
X325847220Y-75374610I0J243750D01*
G01*
X325847220Y-74887110D01*
G75*
G02*
X326090970Y-74643360I243750J0D01*
G01*
X326653470Y-74643360D01*
G75*
G02*
X326897220Y-74887110I0J-243750D01*
G01*
X326897220Y-75374610D01*
G75*
G02*
X326653470Y-75618360I-243750J0D01*
G01*
G37*
%TD*%
%TO.C,R21*%
G36*
G01*
X307659350Y-56105780D02*
X307096850Y-56105780D01*
G75*
G02*
X306853100Y-55862030I0J243750D01*
G01*
X306853100Y-55374530D01*
G75*
G02*
X307096850Y-55130780I243750J0D01*
G01*
X307659350Y-55130780D01*
G75*
G02*
X307903100Y-55374530I0J-243750D01*
G01*
X307903100Y-55862030D01*
G75*
G02*
X307659350Y-56105780I-243750J0D01*
G01*
G37*
G36*
G01*
X307659350Y-57680780D02*
X307096850Y-57680780D01*
G75*
G02*
X306853100Y-57437030I0J243750D01*
G01*
X306853100Y-56949530D01*
G75*
G02*
X307096850Y-56705780I243750J0D01*
G01*
X307659350Y-56705780D01*
G75*
G02*
X307903100Y-56949530I0J-243750D01*
G01*
X307903100Y-57437030D01*
G75*
G02*
X307659350Y-57680780I-243750J0D01*
G01*
G37*
%TD*%
%TO.C,R20*%
G36*
G01*
X338398510Y-105823680D02*
X337836010Y-105823680D01*
G75*
G02*
X337592260Y-105579930I0J243750D01*
G01*
X337592260Y-105092430D01*
G75*
G02*
X337836010Y-104848680I243750J0D01*
G01*
X338398510Y-104848680D01*
G75*
G02*
X338642260Y-105092430I0J-243750D01*
G01*
X338642260Y-105579930D01*
G75*
G02*
X338398510Y-105823680I-243750J0D01*
G01*
G37*
G36*
G01*
X338398510Y-107398680D02*
X337836010Y-107398680D01*
G75*
G02*
X337592260Y-107154930I0J243750D01*
G01*
X337592260Y-106667430D01*
G75*
G02*
X337836010Y-106423680I243750J0D01*
G01*
X338398510Y-106423680D01*
G75*
G02*
X338642260Y-106667430I0J-243750D01*
G01*
X338642260Y-107154930D01*
G75*
G02*
X338398510Y-107398680I-243750J0D01*
G01*
G37*
%TD*%
%TO.C,R19*%
G36*
G01*
X339923510Y-105848680D02*
X339361010Y-105848680D01*
G75*
G02*
X339117260Y-105604930I0J243750D01*
G01*
X339117260Y-105117430D01*
G75*
G02*
X339361010Y-104873680I243750J0D01*
G01*
X339923510Y-104873680D01*
G75*
G02*
X340167260Y-105117430I0J-243750D01*
G01*
X340167260Y-105604930D01*
G75*
G02*
X339923510Y-105848680I-243750J0D01*
G01*
G37*
G36*
G01*
X339923510Y-107423680D02*
X339361010Y-107423680D01*
G75*
G02*
X339117260Y-107179930I0J243750D01*
G01*
X339117260Y-106692430D01*
G75*
G02*
X339361010Y-106448680I243750J0D01*
G01*
X339923510Y-106448680D01*
G75*
G02*
X340167260Y-106692430I0J-243750D01*
G01*
X340167260Y-107179930D01*
G75*
G02*
X339923510Y-107423680I-243750J0D01*
G01*
G37*
%TD*%
%TO.C,R18*%
G36*
G01*
X316598990Y-59456700D02*
X317161490Y-59456700D01*
G75*
G02*
X317405240Y-59700450I0J-243750D01*
G01*
X317405240Y-60187950D01*
G75*
G02*
X317161490Y-60431700I-243750J0D01*
G01*
X316598990Y-60431700D01*
G75*
G02*
X316355240Y-60187950I0J243750D01*
G01*
X316355240Y-59700450D01*
G75*
G02*
X316598990Y-59456700I243750J0D01*
G01*
G37*
G36*
G01*
X316598990Y-57881700D02*
X317161490Y-57881700D01*
G75*
G02*
X317405240Y-58125450I0J-243750D01*
G01*
X317405240Y-58612950D01*
G75*
G02*
X317161490Y-58856700I-243750J0D01*
G01*
X316598990Y-58856700D01*
G75*
G02*
X316355240Y-58612950I0J243750D01*
G01*
X316355240Y-58125450D01*
G75*
G02*
X316598990Y-57881700I243750J0D01*
G01*
G37*
%TD*%
%TO.C,R17*%
G36*
G01*
X339561270Y-60830100D02*
X338998770Y-60830100D01*
G75*
G02*
X338755020Y-60586350I0J243750D01*
G01*
X338755020Y-60098850D01*
G75*
G02*
X338998770Y-59855100I243750J0D01*
G01*
X339561270Y-59855100D01*
G75*
G02*
X339805020Y-60098850I0J-243750D01*
G01*
X339805020Y-60586350D01*
G75*
G02*
X339561270Y-60830100I-243750J0D01*
G01*
G37*
G36*
G01*
X339561270Y-62405100D02*
X338998770Y-62405100D01*
G75*
G02*
X338755020Y-62161350I0J243750D01*
G01*
X338755020Y-61673850D01*
G75*
G02*
X338998770Y-61430100I243750J0D01*
G01*
X339561270Y-61430100D01*
G75*
G02*
X339805020Y-61673850I0J-243750D01*
G01*
X339805020Y-62161350D01*
G75*
G02*
X339561270Y-62405100I-243750J0D01*
G01*
G37*
%TD*%
%TO.C,R16*%
G36*
G01*
X311673520Y-86786030D02*
X311673520Y-86223530D01*
G75*
G02*
X311917270Y-85979780I243750J0D01*
G01*
X312404770Y-85979780D01*
G75*
G02*
X312648520Y-86223530I0J-243750D01*
G01*
X312648520Y-86786030D01*
G75*
G02*
X312404770Y-87029780I-243750J0D01*
G01*
X311917270Y-87029780D01*
G75*
G02*
X311673520Y-86786030I0J243750D01*
G01*
G37*
G36*
G01*
X310098520Y-86786030D02*
X310098520Y-86223530D01*
G75*
G02*
X310342270Y-85979780I243750J0D01*
G01*
X310829770Y-85979780D01*
G75*
G02*
X311073520Y-86223530I0J-243750D01*
G01*
X311073520Y-86786030D01*
G75*
G02*
X310829770Y-87029780I-243750J0D01*
G01*
X310342270Y-87029780D01*
G75*
G02*
X310098520Y-86786030I0J243750D01*
G01*
G37*
%TD*%
%TO.C,R15*%
G36*
G01*
X309241250Y-88480000D02*
X308678750Y-88480000D01*
G75*
G02*
X308435000Y-88236250I0J243750D01*
G01*
X308435000Y-87748750D01*
G75*
G02*
X308678750Y-87505000I243750J0D01*
G01*
X309241250Y-87505000D01*
G75*
G02*
X309485000Y-87748750I0J-243750D01*
G01*
X309485000Y-88236250D01*
G75*
G02*
X309241250Y-88480000I-243750J0D01*
G01*
G37*
G36*
G01*
X309241250Y-90055000D02*
X308678750Y-90055000D01*
G75*
G02*
X308435000Y-89811250I0J243750D01*
G01*
X308435000Y-89323750D01*
G75*
G02*
X308678750Y-89080000I243750J0D01*
G01*
X309241250Y-89080000D01*
G75*
G02*
X309485000Y-89323750I0J-243750D01*
G01*
X309485000Y-89811250D01*
G75*
G02*
X309241250Y-90055000I-243750J0D01*
G01*
G37*
%TD*%
%TO.C,R14*%
G36*
G01*
X310208750Y-89107500D02*
X310771250Y-89107500D01*
G75*
G02*
X311015000Y-89351250I0J-243750D01*
G01*
X311015000Y-89838750D01*
G75*
G02*
X310771250Y-90082500I-243750J0D01*
G01*
X310208750Y-90082500D01*
G75*
G02*
X309965000Y-89838750I0J243750D01*
G01*
X309965000Y-89351250D01*
G75*
G02*
X310208750Y-89107500I243750J0D01*
G01*
G37*
G36*
G01*
X310208750Y-87532500D02*
X310771250Y-87532500D01*
G75*
G02*
X311015000Y-87776250I0J-243750D01*
G01*
X311015000Y-88263750D01*
G75*
G02*
X310771250Y-88507500I-243750J0D01*
G01*
X310208750Y-88507500D01*
G75*
G02*
X309965000Y-88263750I0J243750D01*
G01*
X309965000Y-87776250D01*
G75*
G02*
X310208750Y-87532500I243750J0D01*
G01*
G37*
%TD*%
%TO.C,R13*%
G36*
G01*
X325505320Y-60198270D02*
X325505320Y-59635770D01*
G75*
G02*
X325749070Y-59392020I243750J0D01*
G01*
X326236570Y-59392020D01*
G75*
G02*
X326480320Y-59635770I0J-243750D01*
G01*
X326480320Y-60198270D01*
G75*
G02*
X326236570Y-60442020I-243750J0D01*
G01*
X325749070Y-60442020D01*
G75*
G02*
X325505320Y-60198270I0J243750D01*
G01*
G37*
G36*
G01*
X323930320Y-60198270D02*
X323930320Y-59635770D01*
G75*
G02*
X324174070Y-59392020I243750J0D01*
G01*
X324661570Y-59392020D01*
G75*
G02*
X324905320Y-59635770I0J-243750D01*
G01*
X324905320Y-60198270D01*
G75*
G02*
X324661570Y-60442020I-243750J0D01*
G01*
X324174070Y-60442020D01*
G75*
G02*
X323930320Y-60198270I0J243750D01*
G01*
G37*
%TD*%
%TO.C,R12*%
G36*
G01*
X325475320Y-61768270D02*
X325475320Y-61205770D01*
G75*
G02*
X325719070Y-60962020I243750J0D01*
G01*
X326206570Y-60962020D01*
G75*
G02*
X326450320Y-61205770I0J-243750D01*
G01*
X326450320Y-61768270D01*
G75*
G02*
X326206570Y-62012020I-243750J0D01*
G01*
X325719070Y-62012020D01*
G75*
G02*
X325475320Y-61768270I0J243750D01*
G01*
G37*
G36*
G01*
X323900320Y-61768270D02*
X323900320Y-61205770D01*
G75*
G02*
X324144070Y-60962020I243750J0D01*
G01*
X324631570Y-60962020D01*
G75*
G02*
X324875320Y-61205770I0J-243750D01*
G01*
X324875320Y-61768270D01*
G75*
G02*
X324631570Y-62012020I-243750J0D01*
G01*
X324144070Y-62012020D01*
G75*
G02*
X323900320Y-61768270I0J243750D01*
G01*
G37*
%TD*%
%TO.C,R11*%
G36*
G01*
X306399420Y-89222650D02*
X306399420Y-89785150D01*
G75*
G02*
X306155670Y-90028900I-243750J0D01*
G01*
X305668170Y-90028900D01*
G75*
G02*
X305424420Y-89785150I0J243750D01*
G01*
X305424420Y-89222650D01*
G75*
G02*
X305668170Y-88978900I243750J0D01*
G01*
X306155670Y-88978900D01*
G75*
G02*
X306399420Y-89222650I0J-243750D01*
G01*
G37*
G36*
G01*
X307974420Y-89222650D02*
X307974420Y-89785150D01*
G75*
G02*
X307730670Y-90028900I-243750J0D01*
G01*
X307243170Y-90028900D01*
G75*
G02*
X306999420Y-89785150I0J243750D01*
G01*
X306999420Y-89222650D01*
G75*
G02*
X307243170Y-88978900I243750J0D01*
G01*
X307730670Y-88978900D01*
G75*
G02*
X307974420Y-89222650I0J-243750D01*
G01*
G37*
%TD*%
%TO.C,R10*%
G36*
G01*
X325203220Y-85216330D02*
X325203220Y-84653830D01*
G75*
G02*
X325446970Y-84410080I243750J0D01*
G01*
X325934470Y-84410080D01*
G75*
G02*
X326178220Y-84653830I0J-243750D01*
G01*
X326178220Y-85216330D01*
G75*
G02*
X325934470Y-85460080I-243750J0D01*
G01*
X325446970Y-85460080D01*
G75*
G02*
X325203220Y-85216330I0J243750D01*
G01*
G37*
G36*
G01*
X323628220Y-85216330D02*
X323628220Y-84653830D01*
G75*
G02*
X323871970Y-84410080I243750J0D01*
G01*
X324359470Y-84410080D01*
G75*
G02*
X324603220Y-84653830I0J-243750D01*
G01*
X324603220Y-85216330D01*
G75*
G02*
X324359470Y-85460080I-243750J0D01*
G01*
X323871970Y-85460080D01*
G75*
G02*
X323628220Y-85216330I0J243750D01*
G01*
G37*
%TD*%
%TO.C,R9*%
G36*
G01*
X325201460Y-86755550D02*
X325201460Y-86193050D01*
G75*
G02*
X325445210Y-85949300I243750J0D01*
G01*
X325932710Y-85949300D01*
G75*
G02*
X326176460Y-86193050I0J-243750D01*
G01*
X326176460Y-86755550D01*
G75*
G02*
X325932710Y-86999300I-243750J0D01*
G01*
X325445210Y-86999300D01*
G75*
G02*
X325201460Y-86755550I0J243750D01*
G01*
G37*
G36*
G01*
X323626460Y-86755550D02*
X323626460Y-86193050D01*
G75*
G02*
X323870210Y-85949300I243750J0D01*
G01*
X324357710Y-85949300D01*
G75*
G02*
X324601460Y-86193050I0J-243750D01*
G01*
X324601460Y-86755550D01*
G75*
G02*
X324357710Y-86999300I-243750J0D01*
G01*
X323870210Y-86999300D01*
G75*
G02*
X323626460Y-86755550I0J243750D01*
G01*
G37*
%TD*%
%TO.C,R8*%
G36*
G01*
X346442050Y-75099500D02*
X345879550Y-75099500D01*
G75*
G02*
X345635800Y-74855750I0J243750D01*
G01*
X345635800Y-74368250D01*
G75*
G02*
X345879550Y-74124500I243750J0D01*
G01*
X346442050Y-74124500D01*
G75*
G02*
X346685800Y-74368250I0J-243750D01*
G01*
X346685800Y-74855750D01*
G75*
G02*
X346442050Y-75099500I-243750J0D01*
G01*
G37*
G36*
G01*
X346442050Y-76674500D02*
X345879550Y-76674500D01*
G75*
G02*
X345635800Y-76430750I0J243750D01*
G01*
X345635800Y-75943250D01*
G75*
G02*
X345879550Y-75699500I243750J0D01*
G01*
X346442050Y-75699500D01*
G75*
G02*
X346685800Y-75943250I0J-243750D01*
G01*
X346685800Y-76430750D01*
G75*
G02*
X346442050Y-76674500I-243750J0D01*
G01*
G37*
%TD*%
%TO.C,R7*%
G36*
G01*
X316282650Y-74007700D02*
X315720150Y-74007700D01*
G75*
G02*
X315476400Y-73763950I0J243750D01*
G01*
X315476400Y-73276450D01*
G75*
G02*
X315720150Y-73032700I243750J0D01*
G01*
X316282650Y-73032700D01*
G75*
G02*
X316526400Y-73276450I0J-243750D01*
G01*
X316526400Y-73763950D01*
G75*
G02*
X316282650Y-74007700I-243750J0D01*
G01*
G37*
G36*
G01*
X316282650Y-75582700D02*
X315720150Y-75582700D01*
G75*
G02*
X315476400Y-75338950I0J243750D01*
G01*
X315476400Y-74851450D01*
G75*
G02*
X315720150Y-74607700I243750J0D01*
G01*
X316282650Y-74607700D01*
G75*
G02*
X316526400Y-74851450I0J-243750D01*
G01*
X316526400Y-75338950D01*
G75*
G02*
X316282650Y-75582700I-243750J0D01*
G01*
G37*
%TD*%
%TO.C,R6*%
G36*
G01*
X321266130Y-74033000D02*
X320703630Y-74033000D01*
G75*
G02*
X320459880Y-73789250I0J243750D01*
G01*
X320459880Y-73301750D01*
G75*
G02*
X320703630Y-73058000I243750J0D01*
G01*
X321266130Y-73058000D01*
G75*
G02*
X321509880Y-73301750I0J-243750D01*
G01*
X321509880Y-73789250D01*
G75*
G02*
X321266130Y-74033000I-243750J0D01*
G01*
G37*
G36*
G01*
X321266130Y-75608000D02*
X320703630Y-75608000D01*
G75*
G02*
X320459880Y-75364250I0J243750D01*
G01*
X320459880Y-74876750D01*
G75*
G02*
X320703630Y-74633000I243750J0D01*
G01*
X321266130Y-74633000D01*
G75*
G02*
X321509880Y-74876750I0J-243750D01*
G01*
X321509880Y-75364250D01*
G75*
G02*
X321266130Y-75608000I-243750J0D01*
G01*
G37*
%TD*%
%TO.C,R3*%
G36*
G01*
X309308320Y-124531810D02*
X309308320Y-125094310D01*
G75*
G02*
X309064570Y-125338060I-243750J0D01*
G01*
X308577070Y-125338060D01*
G75*
G02*
X308333320Y-125094310I0J243750D01*
G01*
X308333320Y-124531810D01*
G75*
G02*
X308577070Y-124288060I243750J0D01*
G01*
X309064570Y-124288060D01*
G75*
G02*
X309308320Y-124531810I0J-243750D01*
G01*
G37*
G36*
G01*
X310883320Y-124531810D02*
X310883320Y-125094310D01*
G75*
G02*
X310639570Y-125338060I-243750J0D01*
G01*
X310152070Y-125338060D01*
G75*
G02*
X309908320Y-125094310I0J243750D01*
G01*
X309908320Y-124531810D01*
G75*
G02*
X310152070Y-124288060I243750J0D01*
G01*
X310639570Y-124288060D01*
G75*
G02*
X310883320Y-124531810I0J-243750D01*
G01*
G37*
%TD*%
%TO.C,R2*%
G36*
G01*
X323625790Y-74071100D02*
X323063290Y-74071100D01*
G75*
G02*
X322819540Y-73827350I0J243750D01*
G01*
X322819540Y-73339850D01*
G75*
G02*
X323063290Y-73096100I243750J0D01*
G01*
X323625790Y-73096100D01*
G75*
G02*
X323869540Y-73339850I0J-243750D01*
G01*
X323869540Y-73827350D01*
G75*
G02*
X323625790Y-74071100I-243750J0D01*
G01*
G37*
G36*
G01*
X323625790Y-75646100D02*
X323063290Y-75646100D01*
G75*
G02*
X322819540Y-75402350I0J243750D01*
G01*
X322819540Y-74914850D01*
G75*
G02*
X323063290Y-74671100I243750J0D01*
G01*
X323625790Y-74671100D01*
G75*
G02*
X323869540Y-74914850I0J-243750D01*
G01*
X323869540Y-75402350D01*
G75*
G02*
X323625790Y-75646100I-243750J0D01*
G01*
G37*
%TD*%
%TO.C,R1*%
G36*
G01*
X337325760Y-62084670D02*
X337325760Y-61522170D01*
G75*
G02*
X337569510Y-61278420I243750J0D01*
G01*
X338057010Y-61278420D01*
G75*
G02*
X338300760Y-61522170I0J-243750D01*
G01*
X338300760Y-62084670D01*
G75*
G02*
X338057010Y-62328420I-243750J0D01*
G01*
X337569510Y-62328420D01*
G75*
G02*
X337325760Y-62084670I0J243750D01*
G01*
G37*
G36*
G01*
X335750760Y-62084670D02*
X335750760Y-61522170D01*
G75*
G02*
X335994510Y-61278420I243750J0D01*
G01*
X336482010Y-61278420D01*
G75*
G02*
X336725760Y-61522170I0J-243750D01*
G01*
X336725760Y-62084670D01*
G75*
G02*
X336482010Y-62328420I-243750J0D01*
G01*
X335994510Y-62328420D01*
G75*
G02*
X335750760Y-62084670I0J243750D01*
G01*
G37*
%TD*%
%TO.C,Q6*%
X332721200Y-61000600D03*
X334721200Y-60050600D03*
X334721200Y-61950600D03*
%TD*%
D11*
%TO.C,Q5*%
X343367000Y-124702740D03*
X344317000Y-126702740D03*
X342417000Y-126702740D03*
%TD*%
%TO.C,Q4*%
X346941600Y-124702340D03*
X347891600Y-126702340D03*
X345991600Y-126702340D03*
%TD*%
%TO.C,Q3*%
X308272180Y-65013840D03*
X307322180Y-63013840D03*
X309222180Y-63013840D03*
%TD*%
D43*
%TO.C,K2*%
X322117720Y-118397020D03*
D44*
X328117720Y-120397020D03*
X328117720Y-132597020D03*
X316117720Y-132597020D03*
X316117720Y-120397020D03*
%TD*%
D43*
%TO.C,K1*%
X341208880Y-118462040D03*
D44*
X347208880Y-120462040D03*
X347208880Y-132662040D03*
X335208880Y-132662040D03*
X335208880Y-120462040D03*
%TD*%
D12*
%TO.C,J2*%
X356643940Y-112222280D03*
X356643940Y-109682280D03*
X356643940Y-107142280D03*
X356643940Y-104602280D03*
X356643940Y-102062280D03*
D13*
X356643940Y-99522280D03*
%TD*%
D45*
%TO.C,D14*%
X351576640Y-132601860D03*
X351576640Y-128301860D03*
%TD*%
%TO.C,D13*%
X356463600Y-136634000D03*
X356463600Y-132334000D03*
%TD*%
D31*
%TO.C,D8*%
X320884800Y-97805200D03*
X322884800Y-96855200D03*
X322884800Y-98755200D03*
%TD*%
D45*
%TO.C,D6*%
X320598800Y-89729200D03*
X320598800Y-85429200D03*
%TD*%
%TO.C,D5*%
X316014100Y-81226880D03*
X316014100Y-85526880D03*
%TD*%
D46*
%TO.C,D4*%
X311066180Y-108097320D03*
X306766180Y-108097320D03*
%TD*%
%TO.C,D3*%
X306766180Y-112735360D03*
X311066180Y-112735360D03*
%TD*%
%TO.C,C31*%
G36*
G01*
X355719760Y-126338910D02*
X355719760Y-125776410D01*
G75*
G02*
X355963510Y-125532660I243750J0D01*
G01*
X356451010Y-125532660D01*
G75*
G02*
X356694760Y-125776410I0J-243750D01*
G01*
X356694760Y-126338910D01*
G75*
G02*
X356451010Y-126582660I-243750J0D01*
G01*
X355963510Y-126582660D01*
G75*
G02*
X355719760Y-126338910I0J243750D01*
G01*
G37*
G36*
G01*
X354144760Y-126338910D02*
X354144760Y-125776410D01*
G75*
G02*
X354388510Y-125532660I243750J0D01*
G01*
X354876010Y-125532660D01*
G75*
G02*
X355119760Y-125776410I0J-243750D01*
G01*
X355119760Y-126338910D01*
G75*
G02*
X354876010Y-126582660I-243750J0D01*
G01*
X354388510Y-126582660D01*
G75*
G02*
X354144760Y-126338910I0J243750D01*
G01*
G37*
%TD*%
%TO.C,C30*%
G36*
G01*
X355727180Y-124812370D02*
X355727180Y-124249870D01*
G75*
G02*
X355970930Y-124006120I243750J0D01*
G01*
X356458430Y-124006120D01*
G75*
G02*
X356702180Y-124249870I0J-243750D01*
G01*
X356702180Y-124812370D01*
G75*
G02*
X356458430Y-125056120I-243750J0D01*
G01*
X355970930Y-125056120D01*
G75*
G02*
X355727180Y-124812370I0J243750D01*
G01*
G37*
G36*
G01*
X354152180Y-124812370D02*
X354152180Y-124249870D01*
G75*
G02*
X354395930Y-124006120I243750J0D01*
G01*
X354883430Y-124006120D01*
G75*
G02*
X355127180Y-124249870I0J-243750D01*
G01*
X355127180Y-124812370D01*
G75*
G02*
X354883430Y-125056120I-243750J0D01*
G01*
X354395930Y-125056120D01*
G75*
G02*
X354152180Y-124812370I0J243750D01*
G01*
G37*
%TD*%
%TO.C,C29*%
G36*
G01*
X357976750Y-124985500D02*
X357414250Y-124985500D01*
G75*
G02*
X357170500Y-124741750I0J243750D01*
G01*
X357170500Y-124254250D01*
G75*
G02*
X357414250Y-124010500I243750J0D01*
G01*
X357976750Y-124010500D01*
G75*
G02*
X358220500Y-124254250I0J-243750D01*
G01*
X358220500Y-124741750D01*
G75*
G02*
X357976750Y-124985500I-243750J0D01*
G01*
G37*
G36*
G01*
X357976750Y-126560500D02*
X357414250Y-126560500D01*
G75*
G02*
X357170500Y-126316750I0J243750D01*
G01*
X357170500Y-125829250D01*
G75*
G02*
X357414250Y-125585500I243750J0D01*
G01*
X357976750Y-125585500D01*
G75*
G02*
X358220500Y-125829250I0J-243750D01*
G01*
X358220500Y-126316750D01*
G75*
G02*
X357976750Y-126560500I-243750J0D01*
G01*
G37*
%TD*%
%TO.C,C27*%
G36*
G01*
X312189550Y-75001500D02*
X312752050Y-75001500D01*
G75*
G02*
X312995800Y-75245250I0J-243750D01*
G01*
X312995800Y-75732750D01*
G75*
G02*
X312752050Y-75976500I-243750J0D01*
G01*
X312189550Y-75976500D01*
G75*
G02*
X311945800Y-75732750I0J243750D01*
G01*
X311945800Y-75245250D01*
G75*
G02*
X312189550Y-75001500I243750J0D01*
G01*
G37*
G36*
G01*
X312189550Y-73426500D02*
X312752050Y-73426500D01*
G75*
G02*
X312995800Y-73670250I0J-243750D01*
G01*
X312995800Y-74157750D01*
G75*
G02*
X312752050Y-74401500I-243750J0D01*
G01*
X312189550Y-74401500D01*
G75*
G02*
X311945800Y-74157750I0J243750D01*
G01*
X311945800Y-73670250D01*
G75*
G02*
X312189550Y-73426500I243750J0D01*
G01*
G37*
%TD*%
%TO.C,C26*%
G36*
G01*
X344900830Y-75084500D02*
X344338330Y-75084500D01*
G75*
G02*
X344094580Y-74840750I0J243750D01*
G01*
X344094580Y-74353250D01*
G75*
G02*
X344338330Y-74109500I243750J0D01*
G01*
X344900830Y-74109500D01*
G75*
G02*
X345144580Y-74353250I0J-243750D01*
G01*
X345144580Y-74840750D01*
G75*
G02*
X344900830Y-75084500I-243750J0D01*
G01*
G37*
G36*
G01*
X344900830Y-76659500D02*
X344338330Y-76659500D01*
G75*
G02*
X344094580Y-76415750I0J243750D01*
G01*
X344094580Y-75928250D01*
G75*
G02*
X344338330Y-75684500I243750J0D01*
G01*
X344900830Y-75684500D01*
G75*
G02*
X345144580Y-75928250I0J-243750D01*
G01*
X345144580Y-76415750D01*
G75*
G02*
X344900830Y-76659500I-243750J0D01*
G01*
G37*
%TD*%
%TO.C,C25*%
G36*
G01*
X320004160Y-64288090D02*
X320004160Y-64850590D01*
G75*
G02*
X319760410Y-65094340I-243750J0D01*
G01*
X319272910Y-65094340D01*
G75*
G02*
X319029160Y-64850590I0J243750D01*
G01*
X319029160Y-64288090D01*
G75*
G02*
X319272910Y-64044340I243750J0D01*
G01*
X319760410Y-64044340D01*
G75*
G02*
X320004160Y-64288090I0J-243750D01*
G01*
G37*
G36*
G01*
X321579160Y-64288090D02*
X321579160Y-64850590D01*
G75*
G02*
X321335410Y-65094340I-243750J0D01*
G01*
X320847910Y-65094340D01*
G75*
G02*
X320604160Y-64850590I0J243750D01*
G01*
X320604160Y-64288090D01*
G75*
G02*
X320847910Y-64044340I243750J0D01*
G01*
X321335410Y-64044340D01*
G75*
G02*
X321579160Y-64288090I0J-243750D01*
G01*
G37*
%TD*%
%TO.C,C24*%
G36*
G01*
X341471830Y-105810940D02*
X340909330Y-105810940D01*
G75*
G02*
X340665580Y-105567190I0J243750D01*
G01*
X340665580Y-105079690D01*
G75*
G02*
X340909330Y-104835940I243750J0D01*
G01*
X341471830Y-104835940D01*
G75*
G02*
X341715580Y-105079690I0J-243750D01*
G01*
X341715580Y-105567190D01*
G75*
G02*
X341471830Y-105810940I-243750J0D01*
G01*
G37*
G36*
G01*
X341471830Y-107385940D02*
X340909330Y-107385940D01*
G75*
G02*
X340665580Y-107142190I0J243750D01*
G01*
X340665580Y-106654690D01*
G75*
G02*
X340909330Y-106410940I243750J0D01*
G01*
X341471830Y-106410940D01*
G75*
G02*
X341715580Y-106654690I0J-243750D01*
G01*
X341715580Y-107142190D01*
G75*
G02*
X341471830Y-107385940I-243750J0D01*
G01*
G37*
%TD*%
%TO.C,C23*%
G36*
G01*
X307633870Y-53050720D02*
X307071370Y-53050720D01*
G75*
G02*
X306827620Y-52806970I0J243750D01*
G01*
X306827620Y-52319470D01*
G75*
G02*
X307071370Y-52075720I243750J0D01*
G01*
X307633870Y-52075720D01*
G75*
G02*
X307877620Y-52319470I0J-243750D01*
G01*
X307877620Y-52806970D01*
G75*
G02*
X307633870Y-53050720I-243750J0D01*
G01*
G37*
G36*
G01*
X307633870Y-54625720D02*
X307071370Y-54625720D01*
G75*
G02*
X306827620Y-54381970I0J243750D01*
G01*
X306827620Y-53894470D01*
G75*
G02*
X307071370Y-53650720I243750J0D01*
G01*
X307633870Y-53650720D01*
G75*
G02*
X307877620Y-53894470I0J-243750D01*
G01*
X307877620Y-54381970D01*
G75*
G02*
X307633870Y-54625720I-243750J0D01*
G01*
G37*
%TD*%
%TO.C,C22*%
G36*
G01*
X354430400Y-59424850D02*
X354430400Y-58862350D01*
G75*
G02*
X354674150Y-58618600I243750J0D01*
G01*
X355161650Y-58618600D01*
G75*
G02*
X355405400Y-58862350I0J-243750D01*
G01*
X355405400Y-59424850D01*
G75*
G02*
X355161650Y-59668600I-243750J0D01*
G01*
X354674150Y-59668600D01*
G75*
G02*
X354430400Y-59424850I0J243750D01*
G01*
G37*
G36*
G01*
X352855400Y-59424850D02*
X352855400Y-58862350D01*
G75*
G02*
X353099150Y-58618600I243750J0D01*
G01*
X353586650Y-58618600D01*
G75*
G02*
X353830400Y-58862350I0J-243750D01*
G01*
X353830400Y-59424850D01*
G75*
G02*
X353586650Y-59668600I-243750J0D01*
G01*
X353099150Y-59668600D01*
G75*
G02*
X352855400Y-59424850I0J243750D01*
G01*
G37*
%TD*%
%TO.C,C21*%
G36*
G01*
X312684850Y-80233700D02*
X313247350Y-80233700D01*
G75*
G02*
X313491100Y-80477450I0J-243750D01*
G01*
X313491100Y-80964950D01*
G75*
G02*
X313247350Y-81208700I-243750J0D01*
G01*
X312684850Y-81208700D01*
G75*
G02*
X312441100Y-80964950I0J243750D01*
G01*
X312441100Y-80477450D01*
G75*
G02*
X312684850Y-80233700I243750J0D01*
G01*
G37*
G36*
G01*
X312684850Y-78658700D02*
X313247350Y-78658700D01*
G75*
G02*
X313491100Y-78902450I0J-243750D01*
G01*
X313491100Y-79389950D01*
G75*
G02*
X313247350Y-79633700I-243750J0D01*
G01*
X312684850Y-79633700D01*
G75*
G02*
X312441100Y-79389950I0J243750D01*
G01*
X312441100Y-78902450D01*
G75*
G02*
X312684850Y-78658700I243750J0D01*
G01*
G37*
%TD*%
%TO.C,C20*%
G36*
G01*
X352177930Y-63916380D02*
X351615430Y-63916380D01*
G75*
G02*
X351371680Y-63672630I0J243750D01*
G01*
X351371680Y-63185130D01*
G75*
G02*
X351615430Y-62941380I243750J0D01*
G01*
X352177930Y-62941380D01*
G75*
G02*
X352421680Y-63185130I0J-243750D01*
G01*
X352421680Y-63672630D01*
G75*
G02*
X352177930Y-63916380I-243750J0D01*
G01*
G37*
G36*
G01*
X352177930Y-65491380D02*
X351615430Y-65491380D01*
G75*
G02*
X351371680Y-65247630I0J243750D01*
G01*
X351371680Y-64760130D01*
G75*
G02*
X351615430Y-64516380I243750J0D01*
G01*
X352177930Y-64516380D01*
G75*
G02*
X352421680Y-64760130I0J-243750D01*
G01*
X352421680Y-65247630D01*
G75*
G02*
X352177930Y-65491380I-243750J0D01*
G01*
G37*
%TD*%
%TO.C,C19*%
G36*
G01*
X341061270Y-60842600D02*
X340498770Y-60842600D01*
G75*
G02*
X340255020Y-60598850I0J243750D01*
G01*
X340255020Y-60111350D01*
G75*
G02*
X340498770Y-59867600I243750J0D01*
G01*
X341061270Y-59867600D01*
G75*
G02*
X341305020Y-60111350I0J-243750D01*
G01*
X341305020Y-60598850D01*
G75*
G02*
X341061270Y-60842600I-243750J0D01*
G01*
G37*
G36*
G01*
X341061270Y-62417600D02*
X340498770Y-62417600D01*
G75*
G02*
X340255020Y-62173850I0J243750D01*
G01*
X340255020Y-61686350D01*
G75*
G02*
X340498770Y-61442600I243750J0D01*
G01*
X341061270Y-61442600D01*
G75*
G02*
X341305020Y-61686350I0J-243750D01*
G01*
X341305020Y-62173850D01*
G75*
G02*
X341061270Y-62417600I-243750J0D01*
G01*
G37*
%TD*%
%TO.C,C18*%
G36*
G01*
X357286650Y-69206100D02*
X357849150Y-69206100D01*
G75*
G02*
X358092900Y-69449850I0J-243750D01*
G01*
X358092900Y-69937350D01*
G75*
G02*
X357849150Y-70181100I-243750J0D01*
G01*
X357286650Y-70181100D01*
G75*
G02*
X357042900Y-69937350I0J243750D01*
G01*
X357042900Y-69449850D01*
G75*
G02*
X357286650Y-69206100I243750J0D01*
G01*
G37*
G36*
G01*
X357286650Y-67631100D02*
X357849150Y-67631100D01*
G75*
G02*
X358092900Y-67874850I0J-243750D01*
G01*
X358092900Y-68362350D01*
G75*
G02*
X357849150Y-68606100I-243750J0D01*
G01*
X357286650Y-68606100D01*
G75*
G02*
X357042900Y-68362350I0J243750D01*
G01*
X357042900Y-67874850D01*
G75*
G02*
X357286650Y-67631100I243750J0D01*
G01*
G37*
%TD*%
%TO.C,C17*%
G36*
G01*
X312331250Y-88482500D02*
X311768750Y-88482500D01*
G75*
G02*
X311525000Y-88238750I0J243750D01*
G01*
X311525000Y-87751250D01*
G75*
G02*
X311768750Y-87507500I243750J0D01*
G01*
X312331250Y-87507500D01*
G75*
G02*
X312575000Y-87751250I0J-243750D01*
G01*
X312575000Y-88238750D01*
G75*
G02*
X312331250Y-88482500I-243750J0D01*
G01*
G37*
G36*
G01*
X312331250Y-90057500D02*
X311768750Y-90057500D01*
G75*
G02*
X311525000Y-89813750I0J243750D01*
G01*
X311525000Y-89326250D01*
G75*
G02*
X311768750Y-89082500I243750J0D01*
G01*
X312331250Y-89082500D01*
G75*
G02*
X312575000Y-89326250I0J-243750D01*
G01*
X312575000Y-89813750D01*
G75*
G02*
X312331250Y-90057500I-243750J0D01*
G01*
G37*
%TD*%
%TO.C,C16*%
G36*
G01*
X315617960Y-88667300D02*
X313407960Y-88667300D01*
G75*
G02*
X313137960Y-88397300I0J270000D01*
G01*
X313137960Y-87587300D01*
G75*
G02*
X313407960Y-87317300I270000J0D01*
G01*
X315617960Y-87317300D01*
G75*
G02*
X315887960Y-87587300I0J-270000D01*
G01*
X315887960Y-88397300D01*
G75*
G02*
X315617960Y-88667300I-270000J0D01*
G01*
G37*
G36*
G01*
X315617960Y-91467300D02*
X313407960Y-91467300D01*
G75*
G02*
X313137960Y-91197300I0J270000D01*
G01*
X313137960Y-90387300D01*
G75*
G02*
X313407960Y-90117300I270000J0D01*
G01*
X315617960Y-90117300D01*
G75*
G02*
X315887960Y-90387300I0J-270000D01*
G01*
X315887960Y-91197300D01*
G75*
G02*
X315617960Y-91467300I-270000J0D01*
G01*
G37*
%TD*%
%TO.C,C15*%
G36*
G01*
X330421670Y-59771660D02*
X330984170Y-59771660D01*
G75*
G02*
X331227920Y-60015410I0J-243750D01*
G01*
X331227920Y-60502910D01*
G75*
G02*
X330984170Y-60746660I-243750J0D01*
G01*
X330421670Y-60746660D01*
G75*
G02*
X330177920Y-60502910I0J243750D01*
G01*
X330177920Y-60015410D01*
G75*
G02*
X330421670Y-59771660I243750J0D01*
G01*
G37*
G36*
G01*
X330421670Y-58196660D02*
X330984170Y-58196660D01*
G75*
G02*
X331227920Y-58440410I0J-243750D01*
G01*
X331227920Y-58927910D01*
G75*
G02*
X330984170Y-59171660I-243750J0D01*
G01*
X330421670Y-59171660D01*
G75*
G02*
X330177920Y-58927910I0J243750D01*
G01*
X330177920Y-58440410D01*
G75*
G02*
X330421670Y-58196660I243750J0D01*
G01*
G37*
%TD*%
%TO.C,C14*%
G36*
G01*
X305718750Y-96562500D02*
X306281250Y-96562500D01*
G75*
G02*
X306525000Y-96806250I0J-243750D01*
G01*
X306525000Y-97293750D01*
G75*
G02*
X306281250Y-97537500I-243750J0D01*
G01*
X305718750Y-97537500D01*
G75*
G02*
X305475000Y-97293750I0J243750D01*
G01*
X305475000Y-96806250D01*
G75*
G02*
X305718750Y-96562500I243750J0D01*
G01*
G37*
G36*
G01*
X305718750Y-94987500D02*
X306281250Y-94987500D01*
G75*
G02*
X306525000Y-95231250I0J-243750D01*
G01*
X306525000Y-95718750D01*
G75*
G02*
X306281250Y-95962500I-243750J0D01*
G01*
X305718750Y-95962500D01*
G75*
G02*
X305475000Y-95718750I0J243750D01*
G01*
X305475000Y-95231250D01*
G75*
G02*
X305718750Y-94987500I243750J0D01*
G01*
G37*
%TD*%
%TO.C,C13*%
G36*
G01*
X305693750Y-92100000D02*
X306256250Y-92100000D01*
G75*
G02*
X306500000Y-92343750I0J-243750D01*
G01*
X306500000Y-92831250D01*
G75*
G02*
X306256250Y-93075000I-243750J0D01*
G01*
X305693750Y-93075000D01*
G75*
G02*
X305450000Y-92831250I0J243750D01*
G01*
X305450000Y-92343750D01*
G75*
G02*
X305693750Y-92100000I243750J0D01*
G01*
G37*
G36*
G01*
X305693750Y-90525000D02*
X306256250Y-90525000D01*
G75*
G02*
X306500000Y-90768750I0J-243750D01*
G01*
X306500000Y-91256250D01*
G75*
G02*
X306256250Y-91500000I-243750J0D01*
G01*
X305693750Y-91500000D01*
G75*
G02*
X305450000Y-91256250I0J243750D01*
G01*
X305450000Y-90768750D01*
G75*
G02*
X305693750Y-90525000I243750J0D01*
G01*
G37*
%TD*%
%TO.C,C12*%
G36*
G01*
X306455900Y-98298690D02*
X306455900Y-98861190D01*
G75*
G02*
X306212150Y-99104940I-243750J0D01*
G01*
X305724650Y-99104940D01*
G75*
G02*
X305480900Y-98861190I0J243750D01*
G01*
X305480900Y-98298690D01*
G75*
G02*
X305724650Y-98054940I243750J0D01*
G01*
X306212150Y-98054940D01*
G75*
G02*
X306455900Y-98298690I0J-243750D01*
G01*
G37*
G36*
G01*
X308030900Y-98298690D02*
X308030900Y-98861190D01*
G75*
G02*
X307787150Y-99104940I-243750J0D01*
G01*
X307299650Y-99104940D01*
G75*
G02*
X307055900Y-98861190I0J243750D01*
G01*
X307055900Y-98298690D01*
G75*
G02*
X307299650Y-98054940I243750J0D01*
G01*
X307787150Y-98054940D01*
G75*
G02*
X308030900Y-98298690I0J-243750D01*
G01*
G37*
%TD*%
%TO.C,C11*%
G36*
G01*
X320754430Y-67307840D02*
X321316930Y-67307840D01*
G75*
G02*
X321560680Y-67551590I0J-243750D01*
G01*
X321560680Y-68039090D01*
G75*
G02*
X321316930Y-68282840I-243750J0D01*
G01*
X320754430Y-68282840D01*
G75*
G02*
X320510680Y-68039090I0J243750D01*
G01*
X320510680Y-67551590D01*
G75*
G02*
X320754430Y-67307840I243750J0D01*
G01*
G37*
G36*
G01*
X320754430Y-65732840D02*
X321316930Y-65732840D01*
G75*
G02*
X321560680Y-65976590I0J-243750D01*
G01*
X321560680Y-66464090D01*
G75*
G02*
X321316930Y-66707840I-243750J0D01*
G01*
X320754430Y-66707840D01*
G75*
G02*
X320510680Y-66464090I0J243750D01*
G01*
X320510680Y-65976590D01*
G75*
G02*
X320754430Y-65732840I243750J0D01*
G01*
G37*
%TD*%
%TO.C,C9*%
G36*
G01*
X306618000Y-103047700D02*
X306618000Y-105257700D01*
G75*
G02*
X306348000Y-105527700I-270000J0D01*
G01*
X305538000Y-105527700D01*
G75*
G02*
X305268000Y-105257700I0J270000D01*
G01*
X305268000Y-103047700D01*
G75*
G02*
X305538000Y-102777700I270000J0D01*
G01*
X306348000Y-102777700D01*
G75*
G02*
X306618000Y-103047700I0J-270000D01*
G01*
G37*
G36*
G01*
X309418000Y-103047700D02*
X309418000Y-105257700D01*
G75*
G02*
X309148000Y-105527700I-270000J0D01*
G01*
X308338000Y-105527700D01*
G75*
G02*
X308068000Y-105257700I0J270000D01*
G01*
X308068000Y-103047700D01*
G75*
G02*
X308338000Y-102777700I270000J0D01*
G01*
X309148000Y-102777700D01*
G75*
G02*
X309418000Y-103047700I0J-270000D01*
G01*
G37*
%TD*%
%TO.C,C8*%
G36*
G01*
X306618000Y-99814280D02*
X306618000Y-102024280D01*
G75*
G02*
X306348000Y-102294280I-270000J0D01*
G01*
X305538000Y-102294280D01*
G75*
G02*
X305268000Y-102024280I0J270000D01*
G01*
X305268000Y-99814280D01*
G75*
G02*
X305538000Y-99544280I270000J0D01*
G01*
X306348000Y-99544280D01*
G75*
G02*
X306618000Y-99814280I0J-270000D01*
G01*
G37*
G36*
G01*
X309418000Y-99814280D02*
X309418000Y-102024280D01*
G75*
G02*
X309148000Y-102294280I-270000J0D01*
G01*
X308338000Y-102294280D01*
G75*
G02*
X308068000Y-102024280I0J270000D01*
G01*
X308068000Y-99814280D01*
G75*
G02*
X308338000Y-99544280I270000J0D01*
G01*
X309148000Y-99544280D01*
G75*
G02*
X309418000Y-99814280I0J-270000D01*
G01*
G37*
%TD*%
%TO.C,C7*%
G36*
G01*
X315758250Y-67731820D02*
X316320750Y-67731820D01*
G75*
G02*
X316564500Y-67975570I0J-243750D01*
G01*
X316564500Y-68463070D01*
G75*
G02*
X316320750Y-68706820I-243750J0D01*
G01*
X315758250Y-68706820D01*
G75*
G02*
X315514500Y-68463070I0J243750D01*
G01*
X315514500Y-67975570D01*
G75*
G02*
X315758250Y-67731820I243750J0D01*
G01*
G37*
G36*
G01*
X315758250Y-66156820D02*
X316320750Y-66156820D01*
G75*
G02*
X316564500Y-66400570I0J-243750D01*
G01*
X316564500Y-66888070D01*
G75*
G02*
X316320750Y-67131820I-243750J0D01*
G01*
X315758250Y-67131820D01*
G75*
G02*
X315514500Y-66888070I0J243750D01*
G01*
X315514500Y-66400570D01*
G75*
G02*
X315758250Y-66156820I243750J0D01*
G01*
G37*
%TD*%
%TO.C,C6*%
G36*
G01*
X315732850Y-71280200D02*
X316295350Y-71280200D01*
G75*
G02*
X316539100Y-71523950I0J-243750D01*
G01*
X316539100Y-72011450D01*
G75*
G02*
X316295350Y-72255200I-243750J0D01*
G01*
X315732850Y-72255200D01*
G75*
G02*
X315489100Y-72011450I0J243750D01*
G01*
X315489100Y-71523950D01*
G75*
G02*
X315732850Y-71280200I243750J0D01*
G01*
G37*
G36*
G01*
X315732850Y-69705200D02*
X316295350Y-69705200D01*
G75*
G02*
X316539100Y-69948950I0J-243750D01*
G01*
X316539100Y-70436450D01*
G75*
G02*
X316295350Y-70680200I-243750J0D01*
G01*
X315732850Y-70680200D01*
G75*
G02*
X315489100Y-70436450I0J243750D01*
G01*
X315489100Y-69948950D01*
G75*
G02*
X315732850Y-69705200I243750J0D01*
G01*
G37*
%TD*%
%TO.C,C5*%
G36*
G01*
X347992050Y-75104500D02*
X347429550Y-75104500D01*
G75*
G02*
X347185800Y-74860750I0J243750D01*
G01*
X347185800Y-74373250D01*
G75*
G02*
X347429550Y-74129500I243750J0D01*
G01*
X347992050Y-74129500D01*
G75*
G02*
X348235800Y-74373250I0J-243750D01*
G01*
X348235800Y-74860750D01*
G75*
G02*
X347992050Y-75104500I-243750J0D01*
G01*
G37*
G36*
G01*
X347992050Y-76679500D02*
X347429550Y-76679500D01*
G75*
G02*
X347185800Y-76435750I0J243750D01*
G01*
X347185800Y-75948250D01*
G75*
G02*
X347429550Y-75704500I243750J0D01*
G01*
X347992050Y-75704500D01*
G75*
G02*
X348235800Y-75948250I0J-243750D01*
G01*
X348235800Y-76435750D01*
G75*
G02*
X347992050Y-76679500I-243750J0D01*
G01*
G37*
%TD*%
%TO.C,C3*%
G36*
G01*
X351847440Y-76992580D02*
X351847440Y-74782580D01*
G75*
G02*
X352117440Y-74512580I270000J0D01*
G01*
X352927440Y-74512580D01*
G75*
G02*
X353197440Y-74782580I0J-270000D01*
G01*
X353197440Y-76992580D01*
G75*
G02*
X352927440Y-77262580I-270000J0D01*
G01*
X352117440Y-77262580D01*
G75*
G02*
X351847440Y-76992580I0J270000D01*
G01*
G37*
G36*
G01*
X349047440Y-76992580D02*
X349047440Y-74782580D01*
G75*
G02*
X349317440Y-74512580I270000J0D01*
G01*
X350127440Y-74512580D01*
G75*
G02*
X350397440Y-74782580I0J-270000D01*
G01*
X350397440Y-76992580D01*
G75*
G02*
X350127440Y-77262580I-270000J0D01*
G01*
X349317440Y-77262580D01*
G75*
G02*
X349047440Y-76992580I0J270000D01*
G01*
G37*
%TD*%
%TO.C,C2*%
G36*
G01*
X325139630Y-74063580D02*
X324577130Y-74063580D01*
G75*
G02*
X324333380Y-73819830I0J243750D01*
G01*
X324333380Y-73332330D01*
G75*
G02*
X324577130Y-73088580I243750J0D01*
G01*
X325139630Y-73088580D01*
G75*
G02*
X325383380Y-73332330I0J-243750D01*
G01*
X325383380Y-73819830D01*
G75*
G02*
X325139630Y-74063580I-243750J0D01*
G01*
G37*
G36*
G01*
X325139630Y-75638580D02*
X324577130Y-75638580D01*
G75*
G02*
X324333380Y-75394830I0J243750D01*
G01*
X324333380Y-74907330D01*
G75*
G02*
X324577130Y-74663580I243750J0D01*
G01*
X325139630Y-74663580D01*
G75*
G02*
X325383380Y-74907330I0J-243750D01*
G01*
X325383380Y-75394830D01*
G75*
G02*
X325139630Y-75638580I-243750J0D01*
G01*
G37*
%TD*%
D47*
%TO.C,BT1*%
X352001120Y-50246280D03*
D48*
X344501120Y-50246280D03*
D49*
X356231120Y-50246280D03*
D50*
X340431120Y-50246280D03*
%TD*%
M02*
