M48
; DRILL file {KiCad 5.1.6-c6e7f7d~87~ubuntu20.04.1} date Sat Nov 14 10:44:03 2020
; FORMAT={-:-/ absolute / inch / decimal}
; #@! TF.CreationDate,2020-11-14T10:44:03+07:00
; #@! TF.GenerationSoftware,Kicad,Pcbnew,5.1.6-c6e7f7d~87~ubuntu20.04.1
FMAT,2
INCH
T1C0.0079
T2C0.0118
T3C0.0157
T4C0.0217
T5C0.0264
T6C0.0300
T7C0.0335
T8C0.0354
T9C0.0394
T10C0.0512
T11C0.0598
T12C0.0642
T13C0.0315
T14C0.0394
T15C0.0433
T16C0.0512
T17C0.1280
%
G90
G05
T1
X12.1443Y-3.6762
X12.1443Y-3.7274
X12.1837Y-3.6762
X12.1837Y-3.7274
X12.223Y-3.6762
X12.223Y-3.7274
X13.9318Y-4.6619
X13.9318Y-4.7209
X13.9908Y-4.6619
X13.9908Y-4.7209
X14.0499Y-4.6619
X14.0499Y-4.7209
T2
X12.0Y-3.875
X12.0Y-3.925
X12.0Y-3.975
X12.0Y-4.025
X12.0Y-4.075
X12.0Y-4.125
X12.025Y-3.175
X12.025Y-3.225
X12.025Y-3.275
X12.05Y-2.4
X12.05Y-2.45
X12.05Y-2.8
X12.05Y-2.85
X12.05Y-4.5
X12.05Y-4.55
X12.05Y-4.6
X12.05Y-4.65
X12.075Y-2.025
X12.075Y-2.375
X12.075Y-2.95
X12.075Y-3.0
X12.075Y-3.175
X12.075Y-3.225
X12.075Y-3.275
X12.075Y-3.475
X12.075Y-3.675
X12.075Y-3.7
X12.0767Y-3.7921
X12.1Y-2.8
X12.1Y-2.85
X12.1Y-4.5
X12.1Y-4.55
X12.1Y-4.6
X12.1Y-4.65
X12.125Y-2.025
X12.125Y-2.375
X12.125Y-3.475
X12.1539Y-3.3983
X12.2056Y-3.8695
X12.219Y-5.768
X12.225Y-3.0
X12.225Y-3.175
X12.225Y-3.225
X12.2342Y-2.3596
X12.2422Y-3.0192
X12.258Y-2.339
X12.269Y-5.768
X12.2747Y-4.8076
X12.275Y-2.075
X12.275Y-2.125
X12.2793Y-2.3158
X12.3Y-1.775
X12.3Y-1.825
X12.3Y-5.7
X12.3Y-5.75
X12.3308Y-2.3382
X12.3312Y-2.314
X12.3312Y-2.3624
X12.332Y-3.3275
X12.332Y-3.3515
X12.332Y-3.3755
X12.333Y-3.3995
X12.3446Y-4.3796
X12.35Y-1.775
X12.35Y-1.825
X12.3556Y-2.3626
X12.3558Y-2.3382
X12.3565Y-3.3525
X12.3565Y-3.3765
X12.3568Y-2.314
X12.357Y-3.328
X12.358Y-3.4
X12.3616Y-4.36
X12.362Y-4.396
X12.378Y-4.3784
X12.3796Y-4.4132
X12.3962Y-4.396
X12.4Y-1.775
X12.4Y-1.825
X12.4017Y-2.3145
X12.402Y-3.167
X12.4022Y-2.3385
X12.4022Y-2.362
X12.403Y-3.1895
X12.403Y-3.2135
X12.4035Y-3.2375
X12.4202Y-4.6326
X12.4206Y-4.608
X12.4206Y-4.657
X12.425Y-3.725
X12.425Y-3.775
X12.425Y-3.825
X12.4257Y-2.3145
X12.4262Y-2.3385
X12.4265Y-3.1665
X12.4267Y-2.362
X12.4275Y-3.214
X12.4275Y-3.238
X12.428Y-3.189
X12.4452Y-4.6326
X12.4456Y-4.608
X12.4456Y-4.657
X12.45Y-1.775
X12.45Y-1.825
X12.4685Y-3.124
X12.4689Y-2.8606
X12.469Y-2.5595
X12.469Y-2.8845
X12.469Y-3.098
X12.4694Y-4.6334
X12.4695Y-2.5345
X12.4698Y-4.6088
X12.4698Y-4.6578
X12.47Y-4.15
X12.47Y-4.2
X12.475Y-3.45
X12.475Y-3.475
X12.475Y-3.5
X12.475Y-3.725
X12.475Y-3.775
X12.475Y-3.825
X12.494Y-3.062
X12.5Y-3.45
X12.5Y-3.475
X12.5Y-3.5
X12.5Y-4.15
X12.5Y-4.2
X12.5039Y-2.3751
X12.5176Y-2.815
X12.5176Y-2.9464
X12.525Y-2.55
X12.525Y-3.45
X12.525Y-3.475
X12.525Y-3.5
X12.525Y-3.725
X12.525Y-3.775
X12.525Y-3.825
X12.55Y-2.075
X12.55Y-2.125
X12.55Y-2.55
X12.55Y-2.675
X12.55Y-2.7
X12.55Y-3.2
X12.55Y-3.25
X12.6Y-3.2
X12.6Y-3.25
X12.6Y-3.825
X12.6Y-3.875
X12.6226Y-2.1424
X12.6226Y-2.1656
X12.623Y-2.3592
X12.6232Y-2.414
X12.6232Y-2.4378
X12.624Y-2.189
X12.635Y-3.705
X12.6381Y-3.1299
X12.6386Y-3.1541
X12.6388Y-3.178
X12.645Y-2.3592
X12.6458Y-2.1654
X12.646Y-2.1424
X12.6462Y-2.414
X12.6464Y-2.1888
X12.6466Y-2.4372
X12.6627Y-3.1303
X12.6629Y-3.1542
X12.6634Y-3.178
X12.6742Y-3.0291
X12.675Y-2.65
X12.675Y-2.675
X12.675Y-4.125
X12.675Y-4.175
X12.675Y-4.225
X12.675Y-4.275
X12.687Y-2.899
X12.7Y-2.375
X12.7Y-2.75
X12.7Y-2.8
X12.725Y-2.375
X12.75Y-2.75
X12.75Y-2.8
X12.755Y-3.705
X12.766Y-2.998
X12.8Y-2.75
X12.8019Y-2.9987
X12.875Y-2.35
X12.875Y-2.4
X12.875Y-4.15
X12.875Y-4.2
X12.9Y-1.775
X12.9Y-1.825
X12.9Y-1.875
X12.9Y-2.9
X12.9Y-2.95
X12.925Y-4.15
X12.925Y-4.2
X12.95Y-1.775
X12.95Y-1.825
X12.95Y-1.875
X12.95Y-2.95
X12.95Y-3.475
X12.95Y-3.525
X12.95Y-3.575
X12.95Y-3.625
X12.9598Y-3.2206
X12.96Y-3.26
X12.9616Y-2.8453
X12.998Y-3.219
X12.9996Y-3.2572
X13.0Y-1.775
X13.0Y-1.825
X13.0Y-1.875
X13.0Y-2.4
X13.0Y-3.475
X13.0Y-3.525
X13.0Y-3.575
X13.0Y-3.625
X13.0126Y-2.8508
X13.015Y-4.583
X13.016Y-4.6094
X13.04Y-4.5838
X13.0404Y-3.22
X13.0406Y-4.6096
X13.0446Y-3.2582
X13.05Y-2.4
X13.05Y-3.475
X13.05Y-3.525
X13.05Y-3.575
X13.05Y-3.625
X13.0835Y-2.8458
X13.1Y-2.65
X13.1Y-2.7
X13.125Y-4.25
X13.147Y-3.453
X13.1495Y-3.4198
X13.15Y-2.65
X13.15Y-2.7
X13.1624Y-2.8542
X13.175Y-4.25
X13.1761Y-3.403
X13.1767Y-3.3705
X13.1876Y-2.8754
X13.199Y-3.3019
X13.2Y-4.15
X13.2Y-4.2
X13.2053Y-2.4061
X13.2054Y-2.5774
X13.215Y-3.3636
X13.2162Y-3.3876
X13.2162Y-3.4118
X13.2183Y-2.8682
X13.2198Y-3.3255
X13.2347Y-2.5546
X13.2392Y-3.2436
X13.2493Y-2.8737
X13.2661Y-4.6186
X13.269Y-2.4025
X13.2722Y-3.2162
X13.2807Y-2.8754
X13.2842Y-4.6008
X13.2842Y-4.636
X13.3003Y-5.0079
X13.3005Y-4.6534
X13.3014Y-4.6188
X13.3172Y-5.0249
X13.3177Y-4.6366
X13.325Y-4.425
X13.3346Y-5.0422
X13.35Y-4.45
X13.3517Y-5.0593
X13.375Y-4.475
X13.3859Y-3.968
X13.395Y-2.9759
X13.4Y-1.9
X13.4135Y-2.9235
X13.4205Y-3.9742
X13.4264Y-2.9739
X13.4274Y-2.4928
X13.4341Y-2.8978
X13.45Y-1.9
X13.4534Y-2.9577
X13.4547Y-3.9858
X13.475Y-4.9
X13.475Y-4.95
X13.4814Y-2.9413
X13.4864Y-3.9975
X13.5084Y-2.9252
X13.51Y-4.0299
X13.5116Y-3.2394
X13.5328Y-2.9052
X13.5359Y-3.2399
X13.5396Y-3.2027
X13.55Y-2.4
X13.55Y-2.45
X13.5582Y-2.8866
X13.5599Y-3.2402
X13.5729Y-3.9701
X13.5867Y-2.8731
X13.6Y-2.4
X13.6Y-2.45
X13.6Y-4.9
X13.6Y-4.95
X13.6244Y-4.6784
X13.625Y-2.075
X13.625Y-2.125
X13.625Y-2.175
X13.6426Y-4.6438
X13.65Y-2.85
X13.65Y-2.9
X13.675Y-2.075
X13.675Y-2.125
X13.675Y-2.175
X13.7Y-2.9
X13.7Y-4.85
X13.7Y-4.9
X13.7Y-4.95
X13.71Y-2.742
X13.7213Y-3.2438
X13.7217Y-3.2681
X13.7248Y-2.6578
X13.725Y-2.075
X13.725Y-2.125
X13.725Y-2.175
X13.725Y-4.375
X13.725Y-4.4
X13.7453Y-3.2438
X13.7465Y-3.2678
X13.75Y-4.375
X13.75Y-4.4
X13.7553Y-2.9121
X13.7555Y-2.8638
X13.7555Y-2.8879
X13.77Y-3.2442
X13.7714Y-3.2681
X13.7792Y-2.8633
X13.7796Y-2.8877
X13.7796Y-2.9122
X13.8Y-3.7
X13.8Y-3.75
X13.8125Y-5.4221
X13.8143Y-5.396
X13.825Y-3.225
X13.825Y-3.275
X13.8367Y-5.4241
X13.8372Y-5.3965
X13.85Y-3.7
X13.85Y-3.75
X13.8542Y-2.6242
X13.8544Y-2.6004
X13.8554Y-2.3541
X13.861Y-5.4221
X13.8613Y-5.3968
X13.8749Y-4.3379
X13.8749Y-4.3621
X13.8749Y-4.3873
X13.875Y-3.975
X13.875Y-4.0
X13.875Y-4.025
X13.875Y-5.55
X13.875Y-5.6
X13.875Y-5.65
X13.9Y-2.5
X13.9Y-3.975
X13.9Y-4.0
X13.9Y-4.025
X13.925Y-2.525
X13.925Y-3.975
X13.925Y-4.0
X13.925Y-4.025
X13.925Y-5.55
X13.925Y-5.6
X13.925Y-5.65
X13.95Y-2.275
X13.95Y-2.95
X13.95Y-3.0
X13.95Y-3.05
X13.95Y-3.975
X13.95Y-4.0
X13.95Y-4.025
X13.975Y-3.975
X13.975Y-4.0
X13.975Y-4.025
X13.975Y-5.55
X13.975Y-5.6
X13.975Y-5.65
X14.0Y-2.275
X14.0Y-2.95
X14.0Y-3.0
X14.0Y-3.05
X14.0185Y-2.349
X14.0185Y-2.483
X14.025Y-5.025
X14.025Y-5.075
X14.025Y-5.55
X14.025Y-5.6
X14.025Y-5.65
X14.05Y-2.525
X14.05Y-2.8
X14.1Y-2.525
X14.1Y-2.8
X14.125Y-4.575
X14.125Y-4.625
X14.125Y-4.675
X14.125Y-4.725
X14.125Y-4.775
X14.125Y-4.825
X14.125Y-5.025
X14.125Y-5.075
T3
X13.4639Y-3.3933
X13.4639Y-3.4326
X13.4639Y-3.472
X13.4639Y-3.5114
X13.4639Y-3.5507
X13.5033Y-3.3933
X13.5033Y-3.4326
X13.5033Y-3.472
X13.5033Y-3.5114
X13.5033Y-3.5507
X13.5427Y-3.3933
X13.5427Y-3.4326
X13.5427Y-3.472
X13.5427Y-3.5114
X13.5427Y-3.5507
X13.5821Y-3.3933
X13.5821Y-3.4326
X13.5821Y-3.472
X13.5821Y-3.5114
X13.5821Y-3.5507
X13.6214Y-3.3933
X13.6214Y-3.4326
X13.6214Y-3.472
X13.6214Y-3.5114
X13.6214Y-3.5507
T5
X13.2927Y-5.557
X13.2927Y-5.7539
T6
X12.4469Y-5.4843
X12.7069Y-5.4843
X13.5869Y-5.4843
X13.6869Y-5.4843
T8
X12.5177Y-4.3021
X12.5673Y-4.4021
X12.6177Y-4.3021
X12.6673Y-4.4021
X12.7177Y-4.3021
X12.7673Y-4.4021
X12.8177Y-4.3021
X12.8673Y-4.4021
X13.2471Y-4.3016
X13.2967Y-4.4016
X13.3471Y-4.3016
X13.3967Y-4.4016
X13.4471Y-4.3016
X13.4967Y-4.4016
X13.5471Y-4.3016
X13.5967Y-4.4016
T9
X12.1494Y-5.316
X12.1494Y-5.416
X12.1494Y-5.516
X12.1494Y-5.616
X12.1494Y-5.716
X12.2494Y-5.316
X12.2494Y-5.416
X12.2494Y-5.516
X12.2494Y-5.616
X12.2494Y-5.716
X14.0411Y-3.9182
X14.0411Y-4.0182
X14.0411Y-4.1182
X14.0411Y-4.2182
X14.0411Y-4.3182
X14.0411Y-4.4182
T10
X13.1972Y-4.7426
X13.1972Y-5.2229
X13.4334Y-4.6639
X13.6696Y-4.7426
X13.6696Y-5.2229
X12.4456Y-4.74
X12.4456Y-5.2204
X12.6818Y-4.6613
X12.918Y-4.74
X12.918Y-5.2204
T11
X12.4863Y-5.6423
X12.6863Y-5.6423
X12.9028Y-5.6408
X13.1028Y-5.6408
X13.484Y-5.644
X13.684Y-5.644
T12
X12.3876Y-4.1718
X12.9974Y-4.1718
X13.117Y-4.1713
X13.7268Y-4.1713
T13
X12.276Y-1.9008
X12.4728Y-1.9008
T14
X13.563Y-1.9782
T15
X12.8681Y-2.0339
X13.0453Y-2.0339
T16
X13.8583Y-1.9782
T17
X12.4675Y-4.0517
X12.9175Y-4.0517
X13.1969Y-4.0512
X13.6469Y-4.0512
T4
G00X12.2219Y-1.8053
M15
G01X12.2219Y-1.7797
M16
G05
G00X12.527Y-1.8053
M15
G01X12.527Y-1.7797
M16
G05
T7
G00X12.2278Y-1.953
M15
G01X12.2278Y-1.9313
M16
G05
G00X12.5211Y-1.953
M15
G01X12.5211Y-1.9313
M16
G05
T0
M30
