%TF.GenerationSoftware,KiCad,Pcbnew,5.1.6-c6e7f7d~87~ubuntu20.04.1*%
%TF.CreationDate,2020-11-14T10:44:13+07:00*%
%TF.ProjectId,pas-slave-camera-hw,7061732d-736c-4617-9665-2d63616d6572,rev?*%
%TF.SameCoordinates,Original*%
%TF.FileFunction,Soldermask,Bot*%
%TF.FilePolarity,Negative*%
%FSLAX46Y46*%
G04 Gerber Fmt 4.6, Leading zero omitted, Abs format (unit mm)*
G04 Created by KiCad (PCBNEW 5.1.6-c6e7f7d~87~ubuntu20.04.1) date 2020-11-14 10:44:13*
%MOMM*%
%LPD*%
G01*
G04 APERTURE LIST*
%ADD10O,1.800000X1.800000*%
%ADD11R,1.800000X1.800000*%
%ADD12C,3.100000*%
%ADD13R,3.100000X3.100000*%
%ADD14C,1.600000*%
%ADD15C,2.600000*%
%ADD16C,3.350000*%
%ADD17C,1.200000*%
%ADD18C,1.624000*%
%ADD19O,0.900000X0.900000*%
%ADD20O,1.250000X1.900000*%
%ADD21O,1.550000X2.100000*%
%ADD22C,1.700000*%
%ADD23C,0.900000*%
%ADD24R,2.600000X2.600000*%
%ADD25O,2.600000X2.600000*%
%ADD26C,1.400000*%
%ADD27C,1.100000*%
G04 APERTURE END LIST*
D10*
%TO.C,J5*%
X311134760Y-145186400D03*
X308594760Y-145186400D03*
X311134760Y-142646400D03*
X308594760Y-142646400D03*
X311134760Y-140106400D03*
X308594760Y-140106400D03*
X311134760Y-137566400D03*
X308594760Y-137566400D03*
X311134760Y-135026400D03*
D11*
X308594760Y-135026400D03*
%TD*%
D12*
%TO.C,J1*%
X317152020Y-143314420D03*
D13*
X322232020Y-143314420D03*
%TD*%
D14*
%TO.C,J8*%
X324289580Y-111813340D03*
D15*
X314644580Y-105963340D03*
X330134580Y-105963340D03*
D14*
X325569580Y-109273340D03*
X326829580Y-111813340D03*
X321749580Y-111813340D03*
X320489580Y-109273340D03*
X323029580Y-109273340D03*
X319209580Y-111813340D03*
G36*
G01*
X317149580Y-109806140D02*
X317149580Y-108740540D01*
G75*
G02*
X317416780Y-108473340I267200J0D01*
G01*
X318482380Y-108473340D01*
G75*
G02*
X318749580Y-108740540I0J-267200D01*
G01*
X318749580Y-109806140D01*
G75*
G02*
X318482380Y-110073340I-267200J0D01*
G01*
X317416780Y-110073340D01*
G75*
G02*
X317149580Y-109806140I0J267200D01*
G01*
G37*
D16*
X316674580Y-102913340D03*
X328104580Y-102913340D03*
%TD*%
D14*
%TO.C,J7*%
X342816180Y-111800640D03*
D15*
X333171180Y-105950640D03*
X348661180Y-105950640D03*
D14*
X344096180Y-109260640D03*
X345356180Y-111800640D03*
X340276180Y-111800640D03*
X339016180Y-109260640D03*
X341556180Y-109260640D03*
X337736180Y-111800640D03*
G36*
G01*
X335676180Y-109793440D02*
X335676180Y-108727840D01*
G75*
G02*
X335943380Y-108460640I267200J0D01*
G01*
X337008980Y-108460640D01*
G75*
G02*
X337276180Y-108727840I0J-267200D01*
G01*
X337276180Y-109793440D01*
G75*
G02*
X337008980Y-110060640I-267200J0D01*
G01*
X335943380Y-110060640D01*
G75*
G02*
X335676180Y-109793440I0J267200D01*
G01*
G37*
D16*
X335201180Y-102900640D03*
X346631180Y-102900640D03*
%TD*%
D17*
%TO.C,J3*%
X326850000Y-51660340D03*
X331350000Y-51660340D03*
%TD*%
D18*
%TO.C,PS1*%
X347646000Y-139300000D03*
X345106000Y-139300000D03*
X322754000Y-139300000D03*
X316150000Y-139300000D03*
%TD*%
D12*
%TO.C,J6*%
X327731120Y-143276320D03*
D13*
X332811120Y-143276320D03*
%TD*%
D12*
%TO.C,J9*%
X342493600Y-143357600D03*
D13*
X347573600Y-143357600D03*
%TD*%
D19*
%TO.C,J4*%
X311810000Y-48280000D03*
X316810000Y-48280000D03*
D20*
X310435000Y-45530000D03*
X318185000Y-45530000D03*
D21*
X310585000Y-49330000D03*
X318035000Y-49330000D03*
%TD*%
D22*
%TO.C,F2*%
X337634580Y-141147800D03*
X337634580Y-146147800D03*
%TD*%
D23*
%TO.C,U4*%
X345984260Y-86188640D03*
X344984260Y-86188640D03*
X343984260Y-86188640D03*
X342984260Y-86188640D03*
X341984260Y-86188640D03*
X341984260Y-87188640D03*
X342984260Y-87188640D03*
X343984260Y-87188640D03*
X344984260Y-87188640D03*
X345984260Y-87188640D03*
X345984260Y-89188640D03*
X344984260Y-89188640D03*
X343984260Y-89188640D03*
X342984260Y-89188640D03*
X341984260Y-89188640D03*
X341984260Y-88188640D03*
X342984260Y-88188640D03*
X343984260Y-88188640D03*
X344984260Y-88188640D03*
X345984260Y-88188640D03*
X341984260Y-90188640D03*
X342984260Y-90188640D03*
X343984260Y-90188640D03*
X344984260Y-90188640D03*
X345984260Y-90188640D03*
%TD*%
D24*
%TO.C,K2*%
X322117720Y-118397020D03*
D25*
X328117720Y-120397020D03*
X328117720Y-132597020D03*
X316117720Y-132597020D03*
X316117720Y-120397020D03*
%TD*%
D24*
%TO.C,K1*%
X341208880Y-118462040D03*
D25*
X347208880Y-120462040D03*
X347208880Y-132662040D03*
X335208880Y-132662040D03*
X335208880Y-120462040D03*
%TD*%
D10*
%TO.C,J2*%
X356643940Y-112222280D03*
X356643940Y-109682280D03*
X356643940Y-107142280D03*
X356643940Y-104602280D03*
X356643940Y-102062280D03*
D11*
X356643940Y-99522280D03*
%TD*%
D26*
%TO.C,BT1*%
X352001120Y-50246280D03*
D27*
X344501120Y-50246280D03*
%TD*%
M02*
