%TF.GenerationSoftware,KiCad,Pcbnew,5.1.6-c6e7f7d~87~ubuntu20.04.1*%
%TF.CreationDate,2020-11-14T10:44:13+07:00*%
%TF.ProjectId,pas-slave-camera-hw,7061732d-736c-4617-9665-2d63616d6572,rev?*%
%TF.SameCoordinates,Original*%
%TF.FileFunction,Legend,Top*%
%TF.FilePolarity,Positive*%
%FSLAX46Y46*%
G04 Gerber Fmt 4.6, Leading zero omitted, Abs format (unit mm)*
G04 Created by KiCad (PCBNEW 5.1.6-c6e7f7d~87~ubuntu20.04.1) date 2020-11-14 10:44:13*
%MOMM*%
%LPD*%
G01*
G04 APERTURE LIST*
%ADD10C,0.150000*%
%ADD11C,0.120000*%
%ADD12C,0.010000*%
%ADD13C,0.050000*%
%ADD14C,0.127000*%
G04 APERTURE END LIST*
D10*
X340876200Y-146047666D02*
X341009533Y-146047666D01*
X341076200Y-146081000D01*
X341142866Y-146147666D01*
X341176200Y-146281000D01*
X341176200Y-146514333D01*
X341142866Y-146647666D01*
X341076200Y-146714333D01*
X341009533Y-146747666D01*
X340876200Y-146747666D01*
X340809533Y-146714333D01*
X340742866Y-146647666D01*
X340709533Y-146514333D01*
X340709533Y-146281000D01*
X340742866Y-146147666D01*
X340809533Y-146081000D01*
X340876200Y-146047666D01*
X341476200Y-146047666D02*
X341476200Y-146614333D01*
X341509533Y-146681000D01*
X341542866Y-146714333D01*
X341609533Y-146747666D01*
X341742866Y-146747666D01*
X341809533Y-146714333D01*
X341842866Y-146681000D01*
X341876200Y-146614333D01*
X341876200Y-146047666D01*
X342109533Y-146047666D02*
X342509533Y-146047666D01*
X342309533Y-146747666D02*
X342309533Y-146047666D01*
X343109533Y-146747666D02*
X342709533Y-146747666D01*
X342909533Y-146747666D02*
X342909533Y-146047666D01*
X342842866Y-146147666D01*
X342776200Y-146214333D01*
X342709533Y-146247666D01*
X343376200Y-146114333D02*
X343409533Y-146081000D01*
X343476200Y-146047666D01*
X343642866Y-146047666D01*
X343709533Y-146081000D01*
X343742866Y-146114333D01*
X343776200Y-146181000D01*
X343776200Y-146247666D01*
X343742866Y-146347666D01*
X343342866Y-146747666D01*
X343776200Y-146747666D01*
X343976200Y-146047666D02*
X344209533Y-146747666D01*
X344442866Y-146047666D01*
X344676200Y-146481000D02*
X345209533Y-146481000D01*
X346057800Y-146022266D02*
X346191133Y-146022266D01*
X346257800Y-146055600D01*
X346324466Y-146122266D01*
X346357800Y-146255600D01*
X346357800Y-146488933D01*
X346324466Y-146622266D01*
X346257800Y-146688933D01*
X346191133Y-146722266D01*
X346057800Y-146722266D01*
X345991133Y-146688933D01*
X345924466Y-146622266D01*
X345891133Y-146488933D01*
X345891133Y-146255600D01*
X345924466Y-146122266D01*
X345991133Y-146055600D01*
X346057800Y-146022266D01*
X346657800Y-146022266D02*
X346657800Y-146588933D01*
X346691133Y-146655600D01*
X346724466Y-146688933D01*
X346791133Y-146722266D01*
X346924466Y-146722266D01*
X346991133Y-146688933D01*
X347024466Y-146655600D01*
X347057800Y-146588933D01*
X347057800Y-146022266D01*
X347291133Y-146022266D02*
X347691133Y-146022266D01*
X347491133Y-146722266D02*
X347491133Y-146022266D01*
X348291133Y-146722266D02*
X347891133Y-146722266D01*
X348091133Y-146722266D02*
X348091133Y-146022266D01*
X348024466Y-146122266D01*
X347957800Y-146188933D01*
X347891133Y-146222266D01*
X348557800Y-146088933D02*
X348591133Y-146055600D01*
X348657800Y-146022266D01*
X348824466Y-146022266D01*
X348891133Y-146055600D01*
X348924466Y-146088933D01*
X348957800Y-146155600D01*
X348957800Y-146222266D01*
X348924466Y-146322266D01*
X348524466Y-146722266D01*
X348957800Y-146722266D01*
X349157800Y-146022266D02*
X349391133Y-146722266D01*
X349624466Y-146022266D01*
X349857800Y-146455600D02*
X350391133Y-146455600D01*
X350124466Y-146722266D02*
X350124466Y-146188933D01*
X327839320Y-145913046D02*
X327972653Y-145913046D01*
X328039320Y-145946380D01*
X328105986Y-146013046D01*
X328139320Y-146146380D01*
X328139320Y-146379713D01*
X328105986Y-146513046D01*
X328039320Y-146579713D01*
X327972653Y-146613046D01*
X327839320Y-146613046D01*
X327772653Y-146579713D01*
X327705986Y-146513046D01*
X327672653Y-146379713D01*
X327672653Y-146146380D01*
X327705986Y-146013046D01*
X327772653Y-145946380D01*
X327839320Y-145913046D01*
X328439320Y-145913046D02*
X328439320Y-146479713D01*
X328472653Y-146546380D01*
X328505986Y-146579713D01*
X328572653Y-146613046D01*
X328705986Y-146613046D01*
X328772653Y-146579713D01*
X328805986Y-146546380D01*
X328839320Y-146479713D01*
X328839320Y-145913046D01*
X329072653Y-145913046D02*
X329472653Y-145913046D01*
X329272653Y-146613046D02*
X329272653Y-145913046D01*
X329672653Y-145979713D02*
X329705986Y-145946380D01*
X329772653Y-145913046D01*
X329939320Y-145913046D01*
X330005986Y-145946380D01*
X330039320Y-145979713D01*
X330072653Y-146046380D01*
X330072653Y-146113046D01*
X330039320Y-146213046D01*
X329639320Y-146613046D01*
X330072653Y-146613046D01*
X330339320Y-145979713D02*
X330372653Y-145946380D01*
X330439320Y-145913046D01*
X330605986Y-145913046D01*
X330672653Y-145946380D01*
X330705986Y-145979713D01*
X330739320Y-146046380D01*
X330739320Y-146113046D01*
X330705986Y-146213046D01*
X330305986Y-146613046D01*
X330739320Y-146613046D01*
X331172653Y-145913046D02*
X331239320Y-145913046D01*
X331305986Y-145946380D01*
X331339320Y-145979713D01*
X331372653Y-146046380D01*
X331405986Y-146179713D01*
X331405986Y-146346380D01*
X331372653Y-146479713D01*
X331339320Y-146546380D01*
X331305986Y-146579713D01*
X331239320Y-146613046D01*
X331172653Y-146613046D01*
X331105986Y-146579713D01*
X331072653Y-146546380D01*
X331039320Y-146479713D01*
X331005986Y-146346380D01*
X331005986Y-146179713D01*
X331039320Y-146046380D01*
X331072653Y-145979713D01*
X331105986Y-145946380D01*
X331172653Y-145913046D01*
X331605986Y-145913046D02*
X331839320Y-146613046D01*
X332072653Y-145913046D01*
X317885653Y-146613046D02*
X317885653Y-145913046D01*
X318218986Y-146613046D02*
X318218986Y-145913046D01*
X318618986Y-146613046D01*
X318618986Y-145913046D01*
X318918986Y-145979713D02*
X318952320Y-145946380D01*
X319018986Y-145913046D01*
X319185653Y-145913046D01*
X319252320Y-145946380D01*
X319285653Y-145979713D01*
X319318986Y-146046380D01*
X319318986Y-146113046D01*
X319285653Y-146213046D01*
X318885653Y-146613046D01*
X319318986Y-146613046D01*
X319585653Y-145979713D02*
X319618986Y-145946380D01*
X319685653Y-145913046D01*
X319852320Y-145913046D01*
X319918986Y-145946380D01*
X319952320Y-145979713D01*
X319985653Y-146046380D01*
X319985653Y-146113046D01*
X319952320Y-146213046D01*
X319552320Y-146613046D01*
X319985653Y-146613046D01*
X320418986Y-145913046D02*
X320485653Y-145913046D01*
X320552320Y-145946380D01*
X320585653Y-145979713D01*
X320618986Y-146046380D01*
X320652320Y-146179713D01*
X320652320Y-146346380D01*
X320618986Y-146479713D01*
X320585653Y-146546380D01*
X320552320Y-146579713D01*
X320485653Y-146613046D01*
X320418986Y-146613046D01*
X320352320Y-146579713D01*
X320318986Y-146546380D01*
X320285653Y-146479713D01*
X320252320Y-146346380D01*
X320252320Y-146179713D01*
X320285653Y-146046380D01*
X320318986Y-145979713D01*
X320352320Y-145946380D01*
X320418986Y-145913046D01*
X320852320Y-145913046D02*
X321085653Y-146613046D01*
X321318986Y-145913046D01*
X353046773Y-99235466D02*
X353480106Y-99235466D01*
X353246773Y-99502133D01*
X353346773Y-99502133D01*
X353413440Y-99535466D01*
X353446773Y-99568800D01*
X353480106Y-99635466D01*
X353480106Y-99802133D01*
X353446773Y-99868800D01*
X353413440Y-99902133D01*
X353346773Y-99935466D01*
X353146773Y-99935466D01*
X353080106Y-99902133D01*
X353046773Y-99868800D01*
X353680106Y-99235466D02*
X353913440Y-99935466D01*
X354146773Y-99235466D01*
X354313440Y-99235466D02*
X354746773Y-99235466D01*
X354513440Y-99502133D01*
X354613440Y-99502133D01*
X354680106Y-99535466D01*
X354713440Y-99568800D01*
X354746773Y-99635466D01*
X354746773Y-99802133D01*
X354713440Y-99868800D01*
X354680106Y-99902133D01*
X354613440Y-99935466D01*
X354413440Y-99935466D01*
X354346773Y-99902133D01*
X354313440Y-99868800D01*
X353283586Y-101885000D02*
X353216920Y-101851666D01*
X353116920Y-101851666D01*
X353016920Y-101885000D01*
X352950253Y-101951666D01*
X352916920Y-102018333D01*
X352883586Y-102151666D01*
X352883586Y-102251666D01*
X352916920Y-102385000D01*
X352950253Y-102451666D01*
X353016920Y-102518333D01*
X353116920Y-102551666D01*
X353183586Y-102551666D01*
X353283586Y-102518333D01*
X353316920Y-102485000D01*
X353316920Y-102251666D01*
X353183586Y-102251666D01*
X353616920Y-102551666D02*
X353616920Y-101851666D01*
X354016920Y-102551666D01*
X354016920Y-101851666D01*
X354350253Y-102551666D02*
X354350253Y-101851666D01*
X354516920Y-101851666D01*
X354616920Y-101885000D01*
X354683586Y-101951666D01*
X354716920Y-102018333D01*
X354750253Y-102151666D01*
X354750253Y-102251666D01*
X354716920Y-102385000D01*
X354683586Y-102451666D01*
X354616920Y-102518333D01*
X354516920Y-102551666D01*
X354350253Y-102551666D01*
X353314693Y-105071346D02*
X353081360Y-104738013D01*
X352914693Y-105071346D02*
X352914693Y-104371346D01*
X353181360Y-104371346D01*
X353248026Y-104404680D01*
X353281360Y-104438013D01*
X353314693Y-104504680D01*
X353314693Y-104604680D01*
X353281360Y-104671346D01*
X353248026Y-104704680D01*
X353181360Y-104738013D01*
X352914693Y-104738013D01*
X353548026Y-104371346D02*
X354014693Y-105071346D01*
X354014693Y-104371346D02*
X353548026Y-105071346D01*
X354281360Y-105071346D02*
X354281360Y-104371346D01*
X354448026Y-104371346D01*
X354548026Y-104404680D01*
X354614693Y-104471346D01*
X354648026Y-104538013D01*
X354681360Y-104671346D01*
X354681360Y-104771346D01*
X354648026Y-104904680D01*
X354614693Y-104971346D01*
X354548026Y-105038013D01*
X354448026Y-105071346D01*
X354281360Y-105071346D01*
X353085986Y-106987546D02*
X353485986Y-106987546D01*
X353285986Y-107687546D02*
X353285986Y-106987546D01*
X353652653Y-106987546D02*
X354119320Y-107687546D01*
X354119320Y-106987546D02*
X353652653Y-107687546D01*
X354385986Y-107687546D02*
X354385986Y-106987546D01*
X354552653Y-106987546D01*
X354652653Y-107020880D01*
X354719320Y-107087546D01*
X354752653Y-107154213D01*
X354785986Y-107287546D01*
X354785986Y-107387546D01*
X354752653Y-107520880D01*
X354719320Y-107587546D01*
X354652653Y-107654213D01*
X354552653Y-107687546D01*
X354385986Y-107687546D01*
X353289640Y-110181826D02*
X353289640Y-109481826D01*
X353756306Y-109481826D02*
X353889640Y-109481826D01*
X353956306Y-109515160D01*
X354022973Y-109581826D01*
X354056306Y-109715160D01*
X354056306Y-109948493D01*
X354022973Y-110081826D01*
X353956306Y-110148493D01*
X353889640Y-110181826D01*
X353756306Y-110181826D01*
X353689640Y-110148493D01*
X353622973Y-110081826D01*
X353589640Y-109948493D01*
X353589640Y-109715160D01*
X353622973Y-109581826D01*
X353689640Y-109515160D01*
X353756306Y-109481826D01*
X354489640Y-109481826D02*
X354556306Y-109481826D01*
X354622973Y-109515160D01*
X354656306Y-109548493D01*
X354689640Y-109615160D01*
X354722973Y-109748493D01*
X354722973Y-109915160D01*
X354689640Y-110048493D01*
X354656306Y-110115160D01*
X354622973Y-110148493D01*
X354556306Y-110181826D01*
X354489640Y-110181826D01*
X354422973Y-110148493D01*
X354389640Y-110115160D01*
X354356306Y-110048493D01*
X354322973Y-109915160D01*
X354322973Y-109748493D01*
X354356306Y-109615160D01*
X354389640Y-109548493D01*
X354422973Y-109515160D01*
X354489640Y-109481826D01*
X353589813Y-112238320D02*
X353823146Y-112238320D01*
X353923146Y-112604986D02*
X353589813Y-112604986D01*
X353589813Y-111904986D01*
X353923146Y-111904986D01*
X354223146Y-112604986D02*
X354223146Y-111904986D01*
X354623146Y-112604986D01*
X354623146Y-111904986D01*
D11*
%TO.C,R42*%
X306372800Y-67434779D02*
X306372800Y-67109221D01*
X307392800Y-67434779D02*
X307392800Y-67109221D01*
%TO.C,U14*%
X323336800Y-95106520D02*
X324266800Y-95106520D01*
X326496800Y-95106520D02*
X325566800Y-95106520D01*
X326496800Y-95106520D02*
X326496800Y-92946520D01*
X323336800Y-95106520D02*
X323336800Y-93646520D01*
%TO.C,R41*%
X325028779Y-89025000D02*
X324703221Y-89025000D01*
X325028779Y-90045000D02*
X324703221Y-90045000D01*
%TO.C,R40*%
X324677721Y-91569000D02*
X325003279Y-91569000D01*
X324677721Y-90549000D02*
X325003279Y-90549000D01*
%TO.C,R5*%
X309763279Y-125834680D02*
X309437721Y-125834680D01*
X309763279Y-126854680D02*
X309437721Y-126854680D01*
%TO.C,J5*%
X307264760Y-133696400D02*
X308594760Y-133696400D01*
X307264760Y-135026400D02*
X307264760Y-133696400D01*
X309864760Y-133696400D02*
X312464760Y-133696400D01*
X309864760Y-136296400D02*
X309864760Y-133696400D01*
X307264760Y-136296400D02*
X309864760Y-136296400D01*
X312464760Y-133696400D02*
X312464760Y-146516400D01*
X307264760Y-136296400D02*
X307264760Y-146516400D01*
X307264760Y-146516400D02*
X312464760Y-146516400D01*
%TO.C,U13*%
X303682400Y-147421600D02*
X303682400Y-42421600D01*
X303682400Y-42421600D02*
X359682400Y-42421600D01*
X359682400Y-42421600D02*
X359682400Y-147421600D01*
X359682400Y-147421600D02*
X303682400Y-147421600D01*
%TO.C,U11*%
X358127200Y-119161560D02*
X358127200Y-115511560D01*
X358127200Y-119161560D02*
X358127200Y-121361560D01*
X352607200Y-119161560D02*
X352607200Y-116961560D01*
X352607200Y-119161560D02*
X352607200Y-121361560D01*
%TO.C,C4*%
X351795299Y-111117920D02*
X351469741Y-111117920D01*
X351795299Y-112137920D02*
X351469741Y-112137920D01*
%TO.C,C10*%
X320500280Y-70350261D02*
X320500280Y-70675819D01*
X321520280Y-70350261D02*
X321520280Y-70675819D01*
%TO.C,L1*%
X317655400Y-92215480D02*
X319955400Y-92215480D01*
X319955400Y-92215480D02*
X319955400Y-99615480D01*
X319955400Y-99615480D02*
X317655400Y-99615480D01*
X314855400Y-99615480D02*
X312555400Y-99615480D01*
X312555400Y-99615480D02*
X312555400Y-92215480D01*
X312555400Y-92215480D02*
X314855400Y-92215480D01*
%TO.C,U9*%
X335274214Y-51550773D02*
G75*
G03*
X335274214Y-51550773I-3535534J0D01*
G01*
X335488680Y-63365240D02*
X340738680Y-63365240D01*
X335488680Y-47777240D02*
X335488680Y-63365240D01*
X327988680Y-47777240D02*
X335488680Y-47777240D01*
X322738680Y-71115240D02*
X340738680Y-71115240D01*
X322738680Y-63365240D02*
X322738680Y-71115240D01*
X322738680Y-63365240D02*
X327988680Y-63365240D01*
X327988680Y-47777240D02*
X327988680Y-63365240D01*
X340738680Y-63365240D02*
X340738680Y-71115240D01*
%TO.C,J3*%
X332100000Y-58060340D02*
X333100000Y-58060340D01*
X332600000Y-57560340D02*
X332100000Y-58060340D01*
X333100000Y-58060340D02*
X332600000Y-57560340D01*
X321740000Y-55200340D02*
X321740000Y-57180340D01*
X336460000Y-57180340D02*
X336460000Y-55200340D01*
X336460000Y-57180340D02*
X321740000Y-57180340D01*
X321740000Y-51500340D02*
X321740000Y-42960340D01*
X336460000Y-42960340D02*
X321740000Y-42960340D01*
X336460000Y-51500340D02*
X336460000Y-42960340D01*
%TO.C,C1*%
X355569436Y-127037000D02*
X356773564Y-127037000D01*
X355569436Y-129757000D02*
X356773564Y-129757000D01*
%TO.C,D12*%
X331715320Y-118611920D02*
X331715320Y-115311920D01*
X331715320Y-115311920D02*
X326315320Y-115311920D01*
X331715320Y-118611920D02*
X326315320Y-118611920D01*
%TO.C,D10*%
X337918600Y-120295400D02*
X337918600Y-123595400D01*
X337918600Y-123595400D02*
X343318600Y-123595400D01*
X337918600Y-120295400D02*
X343318600Y-120295400D01*
%TO.C,PS1*%
X314678000Y-123824000D02*
X349678000Y-123824000D01*
X314678000Y-123824000D02*
X314678000Y-140824000D01*
X349678000Y-123824000D02*
X349678000Y-140824000D01*
X314678000Y-140824000D02*
X349678000Y-140824000D01*
D12*
%TO.C,U12*%
G36*
X357061028Y-73579368D02*
G01*
X357035501Y-73618644D01*
X357014106Y-73648972D01*
X357013927Y-73649205D01*
X356999119Y-73675052D01*
X356977198Y-73721032D01*
X356952632Y-73777716D01*
X356949984Y-73784142D01*
X356930934Y-73833069D01*
X356918040Y-73875465D01*
X356910093Y-73919675D01*
X356905880Y-73974042D01*
X356904190Y-74046912D01*
X356903886Y-74101642D01*
X356904223Y-74189644D01*
X356906512Y-74254095D01*
X356911856Y-74303181D01*
X356921359Y-74345091D01*
X356936122Y-74388010D01*
X356945694Y-74412094D01*
X356978002Y-74481330D01*
X357019866Y-74557759D01*
X357056819Y-74616638D01*
X357100815Y-74681076D01*
X357147411Y-74749572D01*
X357182717Y-74801676D01*
X357247629Y-74918059D01*
X357290213Y-75044412D01*
X357312133Y-75186849D01*
X357316087Y-75292267D01*
X357314510Y-75383317D01*
X357308825Y-75453745D01*
X357297604Y-75514568D01*
X357279417Y-75576802D01*
X357279012Y-75578017D01*
X357217536Y-75718253D01*
X357132347Y-75847620D01*
X357027920Y-75961863D01*
X356908731Y-76056728D01*
X356779253Y-76127959D01*
X356658206Y-76168213D01*
X356548814Y-76197836D01*
X356465450Y-76232109D01*
X356402408Y-76274648D01*
X356353982Y-76329069D01*
X356323593Y-76380305D01*
X356288150Y-76472541D01*
X356281271Y-76558949D01*
X356302696Y-76647007D01*
X356313368Y-76672186D01*
X356370397Y-76767109D01*
X356442333Y-76834175D01*
X356530293Y-76874124D01*
X356635394Y-76887697D01*
X356638210Y-76887705D01*
X356719277Y-76880172D01*
X356791277Y-76855225D01*
X356860481Y-76809335D01*
X356933156Y-76738977D01*
X356963111Y-76704946D01*
X357037661Y-76615668D01*
X357096124Y-76540729D01*
X357144444Y-76471611D01*
X357188569Y-76399794D01*
X357234446Y-76316758D01*
X357235635Y-76314525D01*
X357315945Y-76149496D01*
X357376267Y-75990929D01*
X357418527Y-75830722D01*
X357444650Y-75660772D01*
X357456561Y-75472976D01*
X357457797Y-75379580D01*
X357455216Y-75230355D01*
X357446447Y-75103364D01*
X357430101Y-74989454D01*
X357404789Y-74879473D01*
X357369121Y-74764268D01*
X357360720Y-74740072D01*
X357322211Y-74599129D01*
X357311116Y-74472930D01*
X357327475Y-74362005D01*
X357331508Y-74349073D01*
X357349873Y-74303947D01*
X357367648Y-74276945D01*
X357377163Y-74272761D01*
X357388374Y-74290584D01*
X357398766Y-74330628D01*
X357404781Y-74372788D01*
X357416758Y-74439845D01*
X357437032Y-74507160D01*
X357450330Y-74538205D01*
X357473972Y-74573102D01*
X357518994Y-74627747D01*
X357583615Y-74700167D01*
X357666054Y-74788393D01*
X357764530Y-74890454D01*
X357816219Y-74943017D01*
X357925653Y-75054569D01*
X358014476Y-75147758D01*
X358085099Y-75226089D01*
X358139929Y-75293065D01*
X358181378Y-75352191D01*
X358211853Y-75406971D01*
X358233766Y-75460907D01*
X358249524Y-75517506D01*
X358261538Y-75580269D01*
X358263685Y-75593756D01*
X358272457Y-75747445D01*
X358249991Y-75895569D01*
X358196193Y-76038747D01*
X358194664Y-76041831D01*
X358182174Y-76065073D01*
X358166524Y-76089957D01*
X358146011Y-76118302D01*
X358118936Y-76151926D01*
X358083598Y-76192648D01*
X358038294Y-76242287D01*
X357981324Y-76302659D01*
X357910986Y-76375585D01*
X357825580Y-76462883D01*
X357723405Y-76566371D01*
X357602758Y-76687868D01*
X357461940Y-76829192D01*
X357400761Y-76890501D01*
X357272535Y-77018652D01*
X357149751Y-77140766D01*
X357034430Y-77254874D01*
X356928588Y-77359007D01*
X356834243Y-77451196D01*
X356753413Y-77529472D01*
X356688117Y-77591867D01*
X356640371Y-77636412D01*
X356612195Y-77661138D01*
X356607011Y-77664944D01*
X356551147Y-77691273D01*
X356501802Y-77693166D01*
X356446834Y-77670530D01*
X356435025Y-77663613D01*
X356410152Y-77643973D01*
X356365579Y-77603852D01*
X356303651Y-77545617D01*
X356226714Y-77471634D01*
X356137113Y-77384269D01*
X356037196Y-77285891D01*
X355929307Y-77178865D01*
X355815792Y-77065559D01*
X355698998Y-76948338D01*
X355581269Y-76829569D01*
X355464953Y-76711620D01*
X355352393Y-76596856D01*
X355245938Y-76487645D01*
X355147932Y-76386353D01*
X355060720Y-76295347D01*
X354986650Y-76216994D01*
X354928067Y-76153660D01*
X354887316Y-76107712D01*
X354866744Y-76081516D01*
X354866537Y-76081182D01*
X354809220Y-75958453D01*
X354776858Y-75822844D01*
X354769515Y-75681183D01*
X354787255Y-75540299D01*
X354830143Y-75407023D01*
X354859640Y-75347830D01*
X354914068Y-75269058D01*
X354996272Y-75175901D01*
X355105897Y-75068690D01*
X355242583Y-74947753D01*
X355405974Y-74813419D01*
X355595713Y-74666018D01*
X355617462Y-74649561D01*
X355766564Y-74533200D01*
X355889931Y-74428150D01*
X355990269Y-74331603D01*
X356070281Y-74240753D01*
X356132671Y-74152791D01*
X356179769Y-74065720D01*
X356202500Y-74020865D01*
X356221618Y-73990679D01*
X356230748Y-73982580D01*
X356243116Y-73997013D01*
X356258213Y-74035289D01*
X356273935Y-74089871D01*
X356288178Y-74153220D01*
X356298837Y-74217799D01*
X356300665Y-74232977D01*
X356301141Y-74333277D01*
X356284577Y-74444851D01*
X356253756Y-74554174D01*
X356217512Y-74636929D01*
X356155968Y-74727323D01*
X356072727Y-74816548D01*
X355976889Y-74895706D01*
X355907152Y-74940378D01*
X355807191Y-75006341D01*
X355736638Y-75077000D01*
X355693176Y-75155717D01*
X355674492Y-75245852D01*
X355673373Y-75279851D01*
X355688130Y-75382239D01*
X355728652Y-75470961D01*
X355790813Y-75543044D01*
X355870481Y-75595513D01*
X355963529Y-75625395D01*
X356065827Y-75629716D01*
X356140248Y-75616075D01*
X356193654Y-75589988D01*
X356254441Y-75542794D01*
X356315526Y-75481647D01*
X356369826Y-75413702D01*
X356410257Y-75346116D01*
X356412730Y-75340830D01*
X356448166Y-75250440D01*
X356476265Y-75154080D01*
X356493946Y-75063788D01*
X356498525Y-75005392D01*
X356493485Y-74962639D01*
X356479887Y-74899687D01*
X356460015Y-74826177D01*
X356443764Y-74774115D01*
X356399858Y-74617262D01*
X356378399Y-74474702D01*
X356379220Y-74338438D01*
X356402158Y-74200474D01*
X356429899Y-74102854D01*
X356463862Y-74024987D01*
X356515905Y-73937198D01*
X356579137Y-73849175D01*
X356646672Y-73770609D01*
X356704292Y-73716906D01*
X356777727Y-73664788D01*
X356861481Y-73615781D01*
X356945274Y-73575208D01*
X357018823Y-73548394D01*
X357039235Y-73543444D01*
X357089734Y-73533345D01*
X357061028Y-73579368D01*
G37*
X357061028Y-73579368D02*
X357035501Y-73618644D01*
X357014106Y-73648972D01*
X357013927Y-73649205D01*
X356999119Y-73675052D01*
X356977198Y-73721032D01*
X356952632Y-73777716D01*
X356949984Y-73784142D01*
X356930934Y-73833069D01*
X356918040Y-73875465D01*
X356910093Y-73919675D01*
X356905880Y-73974042D01*
X356904190Y-74046912D01*
X356903886Y-74101642D01*
X356904223Y-74189644D01*
X356906512Y-74254095D01*
X356911856Y-74303181D01*
X356921359Y-74345091D01*
X356936122Y-74388010D01*
X356945694Y-74412094D01*
X356978002Y-74481330D01*
X357019866Y-74557759D01*
X357056819Y-74616638D01*
X357100815Y-74681076D01*
X357147411Y-74749572D01*
X357182717Y-74801676D01*
X357247629Y-74918059D01*
X357290213Y-75044412D01*
X357312133Y-75186849D01*
X357316087Y-75292267D01*
X357314510Y-75383317D01*
X357308825Y-75453745D01*
X357297604Y-75514568D01*
X357279417Y-75576802D01*
X357279012Y-75578017D01*
X357217536Y-75718253D01*
X357132347Y-75847620D01*
X357027920Y-75961863D01*
X356908731Y-76056728D01*
X356779253Y-76127959D01*
X356658206Y-76168213D01*
X356548814Y-76197836D01*
X356465450Y-76232109D01*
X356402408Y-76274648D01*
X356353982Y-76329069D01*
X356323593Y-76380305D01*
X356288150Y-76472541D01*
X356281271Y-76558949D01*
X356302696Y-76647007D01*
X356313368Y-76672186D01*
X356370397Y-76767109D01*
X356442333Y-76834175D01*
X356530293Y-76874124D01*
X356635394Y-76887697D01*
X356638210Y-76887705D01*
X356719277Y-76880172D01*
X356791277Y-76855225D01*
X356860481Y-76809335D01*
X356933156Y-76738977D01*
X356963111Y-76704946D01*
X357037661Y-76615668D01*
X357096124Y-76540729D01*
X357144444Y-76471611D01*
X357188569Y-76399794D01*
X357234446Y-76316758D01*
X357235635Y-76314525D01*
X357315945Y-76149496D01*
X357376267Y-75990929D01*
X357418527Y-75830722D01*
X357444650Y-75660772D01*
X357456561Y-75472976D01*
X357457797Y-75379580D01*
X357455216Y-75230355D01*
X357446447Y-75103364D01*
X357430101Y-74989454D01*
X357404789Y-74879473D01*
X357369121Y-74764268D01*
X357360720Y-74740072D01*
X357322211Y-74599129D01*
X357311116Y-74472930D01*
X357327475Y-74362005D01*
X357331508Y-74349073D01*
X357349873Y-74303947D01*
X357367648Y-74276945D01*
X357377163Y-74272761D01*
X357388374Y-74290584D01*
X357398766Y-74330628D01*
X357404781Y-74372788D01*
X357416758Y-74439845D01*
X357437032Y-74507160D01*
X357450330Y-74538205D01*
X357473972Y-74573102D01*
X357518994Y-74627747D01*
X357583615Y-74700167D01*
X357666054Y-74788393D01*
X357764530Y-74890454D01*
X357816219Y-74943017D01*
X357925653Y-75054569D01*
X358014476Y-75147758D01*
X358085099Y-75226089D01*
X358139929Y-75293065D01*
X358181378Y-75352191D01*
X358211853Y-75406971D01*
X358233766Y-75460907D01*
X358249524Y-75517506D01*
X358261538Y-75580269D01*
X358263685Y-75593756D01*
X358272457Y-75747445D01*
X358249991Y-75895569D01*
X358196193Y-76038747D01*
X358194664Y-76041831D01*
X358182174Y-76065073D01*
X358166524Y-76089957D01*
X358146011Y-76118302D01*
X358118936Y-76151926D01*
X358083598Y-76192648D01*
X358038294Y-76242287D01*
X357981324Y-76302659D01*
X357910986Y-76375585D01*
X357825580Y-76462883D01*
X357723405Y-76566371D01*
X357602758Y-76687868D01*
X357461940Y-76829192D01*
X357400761Y-76890501D01*
X357272535Y-77018652D01*
X357149751Y-77140766D01*
X357034430Y-77254874D01*
X356928588Y-77359007D01*
X356834243Y-77451196D01*
X356753413Y-77529472D01*
X356688117Y-77591867D01*
X356640371Y-77636412D01*
X356612195Y-77661138D01*
X356607011Y-77664944D01*
X356551147Y-77691273D01*
X356501802Y-77693166D01*
X356446834Y-77670530D01*
X356435025Y-77663613D01*
X356410152Y-77643973D01*
X356365579Y-77603852D01*
X356303651Y-77545617D01*
X356226714Y-77471634D01*
X356137113Y-77384269D01*
X356037196Y-77285891D01*
X355929307Y-77178865D01*
X355815792Y-77065559D01*
X355698998Y-76948338D01*
X355581269Y-76829569D01*
X355464953Y-76711620D01*
X355352393Y-76596856D01*
X355245938Y-76487645D01*
X355147932Y-76386353D01*
X355060720Y-76295347D01*
X354986650Y-76216994D01*
X354928067Y-76153660D01*
X354887316Y-76107712D01*
X354866744Y-76081516D01*
X354866537Y-76081182D01*
X354809220Y-75958453D01*
X354776858Y-75822844D01*
X354769515Y-75681183D01*
X354787255Y-75540299D01*
X354830143Y-75407023D01*
X354859640Y-75347830D01*
X354914068Y-75269058D01*
X354996272Y-75175901D01*
X355105897Y-75068690D01*
X355242583Y-74947753D01*
X355405974Y-74813419D01*
X355595713Y-74666018D01*
X355617462Y-74649561D01*
X355766564Y-74533200D01*
X355889931Y-74428150D01*
X355990269Y-74331603D01*
X356070281Y-74240753D01*
X356132671Y-74152791D01*
X356179769Y-74065720D01*
X356202500Y-74020865D01*
X356221618Y-73990679D01*
X356230748Y-73982580D01*
X356243116Y-73997013D01*
X356258213Y-74035289D01*
X356273935Y-74089871D01*
X356288178Y-74153220D01*
X356298837Y-74217799D01*
X356300665Y-74232977D01*
X356301141Y-74333277D01*
X356284577Y-74444851D01*
X356253756Y-74554174D01*
X356217512Y-74636929D01*
X356155968Y-74727323D01*
X356072727Y-74816548D01*
X355976889Y-74895706D01*
X355907152Y-74940378D01*
X355807191Y-75006341D01*
X355736638Y-75077000D01*
X355693176Y-75155717D01*
X355674492Y-75245852D01*
X355673373Y-75279851D01*
X355688130Y-75382239D01*
X355728652Y-75470961D01*
X355790813Y-75543044D01*
X355870481Y-75595513D01*
X355963529Y-75625395D01*
X356065827Y-75629716D01*
X356140248Y-75616075D01*
X356193654Y-75589988D01*
X356254441Y-75542794D01*
X356315526Y-75481647D01*
X356369826Y-75413702D01*
X356410257Y-75346116D01*
X356412730Y-75340830D01*
X356448166Y-75250440D01*
X356476265Y-75154080D01*
X356493946Y-75063788D01*
X356498525Y-75005392D01*
X356493485Y-74962639D01*
X356479887Y-74899687D01*
X356460015Y-74826177D01*
X356443764Y-74774115D01*
X356399858Y-74617262D01*
X356378399Y-74474702D01*
X356379220Y-74338438D01*
X356402158Y-74200474D01*
X356429899Y-74102854D01*
X356463862Y-74024987D01*
X356515905Y-73937198D01*
X356579137Y-73849175D01*
X356646672Y-73770609D01*
X356704292Y-73716906D01*
X356777727Y-73664788D01*
X356861481Y-73615781D01*
X356945274Y-73575208D01*
X357018823Y-73548394D01*
X357039235Y-73543444D01*
X357089734Y-73533345D01*
X357061028Y-73579368D01*
G36*
X358879775Y-78618080D02*
G01*
X358784525Y-78618080D01*
X358784525Y-78411705D01*
X358419400Y-78411705D01*
X358419400Y-78618080D01*
X358323382Y-78618080D01*
X358327734Y-78352173D01*
X358332087Y-78086267D01*
X358375028Y-78081313D01*
X358397118Y-78079933D01*
X358410253Y-78086456D01*
X358417212Y-78107365D01*
X358420771Y-78149140D01*
X358422653Y-78192438D01*
X358427337Y-78308517D01*
X358783113Y-78317481D01*
X358787787Y-78201874D01*
X358790763Y-78142319D01*
X358795577Y-78107411D01*
X358805071Y-78090061D01*
X358822084Y-78083183D01*
X358836118Y-78081244D01*
X358879775Y-78076221D01*
X358879775Y-78618080D01*
G37*
X358879775Y-78618080D02*
X358784525Y-78618080D01*
X358784525Y-78411705D01*
X358419400Y-78411705D01*
X358419400Y-78618080D01*
X358323382Y-78618080D01*
X358327734Y-78352173D01*
X358332087Y-78086267D01*
X358375028Y-78081313D01*
X358397118Y-78079933D01*
X358410253Y-78086456D01*
X358417212Y-78107365D01*
X358420771Y-78149140D01*
X358422653Y-78192438D01*
X358427337Y-78308517D01*
X358783113Y-78317481D01*
X358787787Y-78201874D01*
X358790763Y-78142319D01*
X358795577Y-78107411D01*
X358805071Y-78090061D01*
X358822084Y-78083183D01*
X358836118Y-78081244D01*
X358879775Y-78076221D01*
X358879775Y-78618080D01*
G36*
X358260650Y-78172684D02*
G01*
X358042368Y-78177100D01*
X357824087Y-78181517D01*
X357824087Y-78530767D01*
X358042368Y-78535184D01*
X358260650Y-78539600D01*
X358260650Y-78618080D01*
X357772176Y-78618080D01*
X357745272Y-78577019D01*
X357733768Y-78554318D01*
X357726440Y-78524136D01*
X357722727Y-78480257D01*
X357722067Y-78416465D01*
X357723603Y-78337456D01*
X357726298Y-78247545D01*
X357731815Y-78181273D01*
X357744446Y-78135038D01*
X357768481Y-78105235D01*
X357808211Y-78088262D01*
X357867928Y-78080517D01*
X357951922Y-78078396D01*
X358032221Y-78078330D01*
X358260650Y-78078330D01*
X358260650Y-78172684D01*
G37*
X358260650Y-78172684D02*
X358042368Y-78177100D01*
X357824087Y-78181517D01*
X357824087Y-78530767D01*
X358042368Y-78535184D01*
X358260650Y-78539600D01*
X358260650Y-78618080D01*
X357772176Y-78618080D01*
X357745272Y-78577019D01*
X357733768Y-78554318D01*
X357726440Y-78524136D01*
X357722727Y-78480257D01*
X357722067Y-78416465D01*
X357723603Y-78337456D01*
X357726298Y-78247545D01*
X357731815Y-78181273D01*
X357744446Y-78135038D01*
X357768481Y-78105235D01*
X357808211Y-78088262D01*
X357867928Y-78080517D01*
X357951922Y-78078396D01*
X358032221Y-78078330D01*
X358260650Y-78078330D01*
X358260650Y-78172684D01*
G36*
X357673275Y-78172631D02*
G01*
X357470868Y-78177074D01*
X357268462Y-78181517D01*
X357268462Y-78308517D01*
X357432181Y-78313052D01*
X357595899Y-78317587D01*
X357590931Y-78360677D01*
X357585962Y-78403767D01*
X357422319Y-78408301D01*
X357258675Y-78412836D01*
X357263569Y-78471801D01*
X357268462Y-78530767D01*
X357470868Y-78535210D01*
X357673275Y-78539653D01*
X357673275Y-78618080D01*
X357164507Y-78618080D01*
X357168859Y-78352173D01*
X357173212Y-78086267D01*
X357423243Y-78081895D01*
X357673275Y-78077523D01*
X357673275Y-78172631D01*
G37*
X357673275Y-78172631D02*
X357470868Y-78177074D01*
X357268462Y-78181517D01*
X357268462Y-78308517D01*
X357432181Y-78313052D01*
X357595899Y-78317587D01*
X357590931Y-78360677D01*
X357585962Y-78403767D01*
X357422319Y-78408301D01*
X357258675Y-78412836D01*
X357263569Y-78471801D01*
X357268462Y-78530767D01*
X357470868Y-78535210D01*
X357673275Y-78539653D01*
X357673275Y-78618080D01*
X357164507Y-78618080D01*
X357168859Y-78352173D01*
X357173212Y-78086267D01*
X357423243Y-78081895D01*
X357673275Y-78077523D01*
X357673275Y-78172631D01*
G36*
X356859681Y-78081914D02*
G01*
X357125587Y-78086267D01*
X357130610Y-78129923D01*
X357135633Y-78173580D01*
X356911275Y-78173580D01*
X356911275Y-78618080D01*
X356816920Y-78618080D01*
X356812504Y-78399798D01*
X356808087Y-78181517D01*
X356593775Y-78172129D01*
X356593775Y-78077562D01*
X356859681Y-78081914D01*
G37*
X356859681Y-78081914D02*
X357125587Y-78086267D01*
X357130610Y-78129923D01*
X357135633Y-78173580D01*
X356911275Y-78173580D01*
X356911275Y-78618080D01*
X356816920Y-78618080D01*
X356812504Y-78399798D01*
X356808087Y-78181517D01*
X356593775Y-78172129D01*
X356593775Y-78077562D01*
X356859681Y-78081914D01*
G36*
X356411218Y-78190473D02*
G01*
X356472402Y-78195861D01*
X356511604Y-78209115D01*
X356533702Y-78233733D01*
X356543573Y-78273214D01*
X356546095Y-78331054D01*
X356546150Y-78349338D01*
X356546150Y-78459330D01*
X356370420Y-78459330D01*
X356293932Y-78459565D01*
X356243848Y-78461016D01*
X356214823Y-78464802D01*
X356201513Y-78472041D01*
X356198572Y-78483853D01*
X356199764Y-78495048D01*
X356203682Y-78510861D01*
X356213901Y-78521375D01*
X356236170Y-78527907D01*
X356276239Y-78531773D01*
X356339856Y-78534289D01*
X356375493Y-78535273D01*
X356450695Y-78537495D01*
X356499744Y-78540353D01*
X356528229Y-78545278D01*
X356541738Y-78553699D01*
X356545859Y-78567044D01*
X356546150Y-78578929D01*
X356546150Y-78618080D01*
X356349656Y-78618080D01*
X356264407Y-78617413D01*
X356205362Y-78614972D01*
X356166994Y-78610092D01*
X356143776Y-78602109D01*
X356131375Y-78591855D01*
X356117322Y-78558099D01*
X356107882Y-78502379D01*
X356103242Y-78434168D01*
X356103592Y-78362943D01*
X356106881Y-78324392D01*
X356196900Y-78324392D01*
X356198253Y-78344075D01*
X356206632Y-78355861D01*
X356228514Y-78361774D01*
X356270377Y-78363839D01*
X356323900Y-78364080D01*
X356386886Y-78363657D01*
X356424601Y-78361038D01*
X356443523Y-78354200D01*
X356450129Y-78341118D01*
X356450900Y-78324392D01*
X356449546Y-78304709D01*
X356441167Y-78292923D01*
X356419285Y-78287010D01*
X356377422Y-78284945D01*
X356323900Y-78284705D01*
X356260913Y-78285127D01*
X356223198Y-78287746D01*
X356204276Y-78294584D01*
X356197670Y-78307666D01*
X356196900Y-78324392D01*
X356106881Y-78324392D01*
X356109118Y-78298179D01*
X356120010Y-78249350D01*
X356124369Y-78239193D01*
X356150090Y-78189455D01*
X356323173Y-78189455D01*
X356411218Y-78190473D01*
G37*
X356411218Y-78190473D02*
X356472402Y-78195861D01*
X356511604Y-78209115D01*
X356533702Y-78233733D01*
X356543573Y-78273214D01*
X356546095Y-78331054D01*
X356546150Y-78349338D01*
X356546150Y-78459330D01*
X356370420Y-78459330D01*
X356293932Y-78459565D01*
X356243848Y-78461016D01*
X356214823Y-78464802D01*
X356201513Y-78472041D01*
X356198572Y-78483853D01*
X356199764Y-78495048D01*
X356203682Y-78510861D01*
X356213901Y-78521375D01*
X356236170Y-78527907D01*
X356276239Y-78531773D01*
X356339856Y-78534289D01*
X356375493Y-78535273D01*
X356450695Y-78537495D01*
X356499744Y-78540353D01*
X356528229Y-78545278D01*
X356541738Y-78553699D01*
X356545859Y-78567044D01*
X356546150Y-78578929D01*
X356546150Y-78618080D01*
X356349656Y-78618080D01*
X356264407Y-78617413D01*
X356205362Y-78614972D01*
X356166994Y-78610092D01*
X356143776Y-78602109D01*
X356131375Y-78591855D01*
X356117322Y-78558099D01*
X356107882Y-78502379D01*
X356103242Y-78434168D01*
X356103592Y-78362943D01*
X356106881Y-78324392D01*
X356196900Y-78324392D01*
X356198253Y-78344075D01*
X356206632Y-78355861D01*
X356228514Y-78361774D01*
X356270377Y-78363839D01*
X356323900Y-78364080D01*
X356386886Y-78363657D01*
X356424601Y-78361038D01*
X356443523Y-78354200D01*
X356450129Y-78341118D01*
X356450900Y-78324392D01*
X356449546Y-78304709D01*
X356441167Y-78292923D01*
X356419285Y-78287010D01*
X356377422Y-78284945D01*
X356323900Y-78284705D01*
X356260913Y-78285127D01*
X356223198Y-78287746D01*
X356204276Y-78294584D01*
X356197670Y-78307666D01*
X356196900Y-78324392D01*
X356106881Y-78324392D01*
X356109118Y-78298179D01*
X356120010Y-78249350D01*
X356124369Y-78239193D01*
X356150090Y-78189455D01*
X356323173Y-78189455D01*
X356411218Y-78190473D01*
G36*
X355803441Y-78189472D02*
G01*
X355891287Y-78191322D01*
X355955175Y-78197704D01*
X355998994Y-78211316D01*
X356026636Y-78234855D01*
X356041990Y-78271021D01*
X356048947Y-78322511D01*
X356051395Y-78392023D01*
X356052296Y-78442313D01*
X356055732Y-78618080D01*
X355959885Y-78618080D01*
X355950837Y-78292642D01*
X355768275Y-78283120D01*
X355768275Y-78618080D01*
X355673025Y-78618080D01*
X355673025Y-78283120D01*
X355581743Y-78287881D01*
X355490462Y-78292642D01*
X355481414Y-78618080D01*
X355387275Y-78618080D01*
X355387275Y-78189455D01*
X355687747Y-78189455D01*
X355803441Y-78189472D01*
G37*
X355803441Y-78189472D02*
X355891287Y-78191322D01*
X355955175Y-78197704D01*
X355998994Y-78211316D01*
X356026636Y-78234855D01*
X356041990Y-78271021D01*
X356048947Y-78322511D01*
X356051395Y-78392023D01*
X356052296Y-78442313D01*
X356055732Y-78618080D01*
X355959885Y-78618080D01*
X355950837Y-78292642D01*
X355768275Y-78283120D01*
X355768275Y-78618080D01*
X355673025Y-78618080D01*
X355673025Y-78283120D01*
X355581743Y-78287881D01*
X355490462Y-78292642D01*
X355481414Y-78618080D01*
X355387275Y-78618080D01*
X355387275Y-78189455D01*
X355687747Y-78189455D01*
X355803441Y-78189472D01*
G36*
X355088564Y-78189698D02*
G01*
X355165509Y-78190785D01*
X355231665Y-78193569D01*
X355280117Y-78197633D01*
X355303951Y-78202559D01*
X355304221Y-78202720D01*
X355327889Y-78235280D01*
X355344411Y-78297757D01*
X355353584Y-78389084D01*
X355355525Y-78471131D01*
X355355525Y-78618080D01*
X355151093Y-78618080D01*
X355063613Y-78617423D01*
X355002551Y-78615053D01*
X354962596Y-78610369D01*
X354938437Y-78602773D01*
X354925521Y-78592606D01*
X354913400Y-78563890D01*
X354903210Y-78514932D01*
X354900354Y-78488434D01*
X354990400Y-78488434D01*
X354993605Y-78513320D01*
X355007171Y-78528349D01*
X355037020Y-78535473D01*
X355089077Y-78536649D01*
X355132561Y-78535345D01*
X355193779Y-78532244D01*
X355230161Y-78527260D01*
X355248622Y-78518160D01*
X355256074Y-78502714D01*
X355257410Y-78495048D01*
X355258317Y-78477807D01*
X355251032Y-78467254D01*
X355229546Y-78461749D01*
X355187849Y-78459654D01*
X355126441Y-78459330D01*
X355060221Y-78460015D01*
X355019644Y-78462940D01*
X354998616Y-78469409D01*
X354991044Y-78480726D01*
X354990400Y-78488434D01*
X354900354Y-78488434D01*
X354897950Y-78466143D01*
X354891519Y-78365153D01*
X355071928Y-78360648D01*
X355149882Y-78358327D01*
X355201479Y-78355283D01*
X355232109Y-78350433D01*
X355247164Y-78342694D01*
X355252032Y-78330983D01*
X355252337Y-78324392D01*
X355250010Y-78310373D01*
X355239388Y-78300753D01*
X355215011Y-78294294D01*
X355171418Y-78289752D01*
X355103147Y-78285887D01*
X355077712Y-78284705D01*
X354903087Y-78276767D01*
X354893041Y-78189455D01*
X355088564Y-78189698D01*
G37*
X355088564Y-78189698D02*
X355165509Y-78190785D01*
X355231665Y-78193569D01*
X355280117Y-78197633D01*
X355303951Y-78202559D01*
X355304221Y-78202720D01*
X355327889Y-78235280D01*
X355344411Y-78297757D01*
X355353584Y-78389084D01*
X355355525Y-78471131D01*
X355355525Y-78618080D01*
X355151093Y-78618080D01*
X355063613Y-78617423D01*
X355002551Y-78615053D01*
X354962596Y-78610369D01*
X354938437Y-78602773D01*
X354925521Y-78592606D01*
X354913400Y-78563890D01*
X354903210Y-78514932D01*
X354900354Y-78488434D01*
X354990400Y-78488434D01*
X354993605Y-78513320D01*
X355007171Y-78528349D01*
X355037020Y-78535473D01*
X355089077Y-78536649D01*
X355132561Y-78535345D01*
X355193779Y-78532244D01*
X355230161Y-78527260D01*
X355248622Y-78518160D01*
X355256074Y-78502714D01*
X355257410Y-78495048D01*
X355258317Y-78477807D01*
X355251032Y-78467254D01*
X355229546Y-78461749D01*
X355187849Y-78459654D01*
X355126441Y-78459330D01*
X355060221Y-78460015D01*
X355019644Y-78462940D01*
X354998616Y-78469409D01*
X354991044Y-78480726D01*
X354990400Y-78488434D01*
X354900354Y-78488434D01*
X354897950Y-78466143D01*
X354891519Y-78365153D01*
X355071928Y-78360648D01*
X355149882Y-78358327D01*
X355201479Y-78355283D01*
X355232109Y-78350433D01*
X355247164Y-78342694D01*
X355252032Y-78330983D01*
X355252337Y-78324392D01*
X355250010Y-78310373D01*
X355239388Y-78300753D01*
X355215011Y-78294294D01*
X355171418Y-78289752D01*
X355103147Y-78285887D01*
X355077712Y-78284705D01*
X354903087Y-78276767D01*
X354893041Y-78189455D01*
X355088564Y-78189698D01*
G36*
X354776087Y-78054517D02*
G01*
X354780483Y-78289156D01*
X354784879Y-78523794D01*
X354832077Y-78533234D01*
X354867118Y-78546600D01*
X354878961Y-78572447D01*
X354879275Y-78580376D01*
X354876377Y-78602845D01*
X354862281Y-78614018D01*
X354828884Y-78617773D01*
X354800458Y-78618080D01*
X354748550Y-78615039D01*
X354718935Y-78603975D01*
X354705208Y-78587373D01*
X354699312Y-78560657D01*
X354694433Y-78507752D01*
X354690890Y-78434209D01*
X354689001Y-78345581D01*
X354688775Y-78300569D01*
X354688775Y-78044471D01*
X354776087Y-78054517D01*
G37*
X354776087Y-78054517D02*
X354780483Y-78289156D01*
X354784879Y-78523794D01*
X354832077Y-78533234D01*
X354867118Y-78546600D01*
X354878961Y-78572447D01*
X354879275Y-78580376D01*
X354876377Y-78602845D01*
X354862281Y-78614018D01*
X354828884Y-78617773D01*
X354800458Y-78618080D01*
X354748550Y-78615039D01*
X354718935Y-78603975D01*
X354705208Y-78587373D01*
X354699312Y-78560657D01*
X354694433Y-78507752D01*
X354690890Y-78434209D01*
X354689001Y-78345581D01*
X354688775Y-78300569D01*
X354688775Y-78044471D01*
X354776087Y-78054517D01*
G36*
X354406993Y-78081885D02*
G01*
X354649087Y-78086267D01*
X354654110Y-78129923D01*
X354659133Y-78173580D01*
X354260150Y-78173580D01*
X354260150Y-78316455D01*
X354579758Y-78316455D01*
X354569712Y-78403767D01*
X354414931Y-78408311D01*
X354260150Y-78412854D01*
X354260150Y-78618080D01*
X354164900Y-78618080D01*
X354164900Y-78077503D01*
X354406993Y-78081885D01*
G37*
X354406993Y-78081885D02*
X354649087Y-78086267D01*
X354654110Y-78129923D01*
X354659133Y-78173580D01*
X354260150Y-78173580D01*
X354260150Y-78316455D01*
X354579758Y-78316455D01*
X354569712Y-78403767D01*
X354414931Y-78408311D01*
X354260150Y-78412854D01*
X354260150Y-78618080D01*
X354164900Y-78618080D01*
X354164900Y-78077503D01*
X354406993Y-78081885D01*
D11*
%TO.C,R4*%
X325064239Y-87513700D02*
X324738681Y-87513700D01*
X325064239Y-88533700D02*
X324738681Y-88533700D01*
%TO.C,U5*%
X352832900Y-63618600D02*
X352832900Y-67068600D01*
X352832900Y-63618600D02*
X352832900Y-61668600D01*
X357952900Y-63618600D02*
X357952900Y-65568600D01*
X357952900Y-63618600D02*
X357952900Y-61668600D01*
%TO.C,Y1*%
X355417900Y-67668600D02*
X354067900Y-67668600D01*
X355417900Y-69418600D02*
X354067900Y-69418600D01*
%TO.C,U10*%
X307858480Y-69450180D02*
X307858480Y-71400180D01*
X307858480Y-69450180D02*
X307858480Y-67500180D01*
X312978480Y-69450180D02*
X312978480Y-71400180D01*
X312978480Y-69450180D02*
X312978480Y-66000180D01*
%TO.C,U8*%
X314623960Y-57362400D02*
X316273960Y-57362400D01*
X316273960Y-57362400D02*
X316273960Y-52162400D01*
X316273960Y-52162400D02*
X310973960Y-52162400D01*
X310973960Y-52162400D02*
X310973960Y-57362400D01*
X310973960Y-57362400D02*
X312623960Y-57362400D01*
X318763960Y-57422400D02*
X318763960Y-52102400D01*
X318763960Y-52102400D02*
X308483960Y-52102400D01*
X308483960Y-52102400D02*
X308483960Y-57422400D01*
X308483960Y-57422400D02*
X318763960Y-57422400D01*
X312623960Y-57362400D02*
G75*
G02*
X314623960Y-57362400I1000000J0D01*
G01*
%TO.C,U3*%
X312025000Y-94025000D02*
X312025000Y-92075000D01*
X312025000Y-94025000D02*
X312025000Y-95975000D01*
X306905000Y-94025000D02*
X306905000Y-92075000D01*
X306905000Y-94025000D02*
X306905000Y-97475000D01*
%TO.C,TH3*%
X343797200Y-136053152D02*
X343797200Y-133280648D01*
X340377200Y-136053152D02*
X340377200Y-133280648D01*
%TO.C,TH2*%
X320937208Y-100433560D02*
X323709712Y-100433560D01*
X320937208Y-103853560D02*
X323709712Y-103853560D01*
%TO.C,TH1*%
X320952448Y-104365480D02*
X323724952Y-104365480D01*
X320952448Y-107785480D02*
X323724952Y-107785480D01*
%TO.C,Q2*%
X321125820Y-59110760D02*
X321125820Y-60040760D01*
X321125820Y-62270760D02*
X321125820Y-61340760D01*
X321125820Y-62270760D02*
X323285820Y-62270760D01*
X321125820Y-59110760D02*
X322585820Y-59110760D01*
%TO.C,Q1*%
X317716900Y-72693600D02*
X317716900Y-73623600D01*
X317716900Y-75853600D02*
X317716900Y-74923600D01*
X317716900Y-75853600D02*
X319876900Y-75853600D01*
X317716900Y-72693600D02*
X319176900Y-72693600D01*
D10*
%TO.C,J4*%
X318460000Y-48130000D02*
X318460000Y-46730000D01*
X318460000Y-44330000D02*
X318460000Y-44180000D01*
X318460000Y-44180000D02*
X318160000Y-44180000D01*
X318160000Y-44180000D02*
X318160000Y-43730000D01*
X310460000Y-43730000D02*
X310460000Y-44180000D01*
X310460000Y-44180000D02*
X310160000Y-44180000D01*
X310160000Y-44180000D02*
X310160000Y-44330000D01*
X310160000Y-46730000D02*
X310160000Y-48130000D01*
X315385000Y-50305000D02*
X316110000Y-50305000D01*
X316110000Y-50305000D02*
X316110000Y-49880000D01*
X316110000Y-49880000D02*
X317110000Y-49880000D01*
X312510000Y-49880000D02*
X311510000Y-49880000D01*
%TO.C,U7*%
X349217400Y-69905400D02*
X350817400Y-69905400D01*
X349217400Y-59830400D02*
X343467400Y-59830400D01*
X349217400Y-70480400D02*
X343467400Y-70480400D01*
X349217400Y-59830400D02*
X349217400Y-60480400D01*
X343467400Y-59830400D02*
X343467400Y-60480400D01*
X343467400Y-70480400D02*
X343467400Y-69830400D01*
X349217400Y-70480400D02*
X349217400Y-69905400D01*
D11*
%TO.C,U6*%
X305165000Y-85425000D02*
X305165000Y-79415000D01*
X311985000Y-83175000D02*
X311985000Y-79415000D01*
X305165000Y-79415000D02*
X306425000Y-79415000D01*
X311985000Y-79415000D02*
X310725000Y-79415000D01*
D13*
%TO.C,U4*%
X326854260Y-97588640D02*
X326854260Y-79588640D01*
X352384260Y-97588640D02*
X326854260Y-97588640D01*
X352384260Y-79588640D02*
X352384260Y-97588640D01*
X326854260Y-79588640D02*
X352384260Y-79588640D01*
D10*
X352439260Y-79571640D02*
X358408260Y-79571640D01*
X352439260Y-97605640D02*
X358408260Y-97605640D01*
X358408260Y-97605640D02*
X358408260Y-79571640D01*
D11*
%TO.C,U2*%
X317767700Y-65547080D02*
X319227700Y-65547080D01*
X317767700Y-68707080D02*
X319927700Y-68707080D01*
X317767700Y-68707080D02*
X317767700Y-67777080D01*
X317767700Y-65547080D02*
X317767700Y-66477080D01*
%TO.C,U1*%
X317742300Y-69115660D02*
X319202300Y-69115660D01*
X317742300Y-72275660D02*
X319902300Y-72275660D01*
X317742300Y-72275660D02*
X317742300Y-71345660D01*
X317742300Y-69115660D02*
X317742300Y-70045660D01*
%TO.C,R39*%
X336860481Y-60753420D02*
X337186039Y-60753420D01*
X336860481Y-59733420D02*
X337186039Y-59733420D01*
%TO.C,R38*%
X351469641Y-113669540D02*
X351795199Y-113669540D01*
X351469641Y-112649540D02*
X351795199Y-112649540D01*
%TO.C,R37*%
X351472381Y-110519940D02*
X351797939Y-110519940D01*
X351472381Y-109499940D02*
X351797939Y-109499940D01*
%TO.C,R36*%
X343191721Y-128712740D02*
X343517279Y-128712740D01*
X343191721Y-127692740D02*
X343517279Y-127692740D01*
%TO.C,R35*%
X343241721Y-130237740D02*
X343567279Y-130237740D01*
X343241721Y-129217740D02*
X343567279Y-129217740D01*
%TO.C,R34*%
X309832059Y-127432340D02*
X309506501Y-127432340D01*
X309832059Y-128452340D02*
X309506501Y-128452340D01*
%TO.C,R33*%
X346816321Y-128712340D02*
X347141879Y-128712340D01*
X346816321Y-127692340D02*
X347141879Y-127692340D01*
%TO.C,R32*%
X346816321Y-130237340D02*
X347141879Y-130237340D01*
X346816321Y-129217340D02*
X347141879Y-129217340D01*
%TO.C,R31*%
X309825459Y-128963320D02*
X309499901Y-128963320D01*
X309825459Y-129983320D02*
X309499901Y-129983320D01*
%TO.C,R30*%
X307358320Y-74556301D02*
X307358320Y-74881859D01*
X308378320Y-74556301D02*
X308378320Y-74881859D01*
%TO.C,R29*%
X308895020Y-74553961D02*
X308895020Y-74879519D01*
X309915020Y-74553961D02*
X309915020Y-74879519D01*
%TO.C,R28*%
X311489820Y-74879519D02*
X311489820Y-74553961D01*
X310469820Y-74879519D02*
X310469820Y-74553961D01*
%TO.C,R27*%
X311895240Y-64019541D02*
X311895240Y-64345099D01*
X312915240Y-64019541D02*
X312915240Y-64345099D01*
%TO.C,R26*%
X310380920Y-64033081D02*
X310380920Y-64358639D01*
X311400920Y-64033081D02*
X311400920Y-64358639D01*
%TO.C,R25*%
X308544079Y-61008800D02*
X308218521Y-61008800D01*
X308544079Y-62028800D02*
X308218521Y-62028800D01*
%TO.C,R24*%
X324738541Y-83910380D02*
X325064099Y-83910380D01*
X324738541Y-82890380D02*
X325064099Y-82890380D01*
%TO.C,R23*%
X324738541Y-82385380D02*
X325064099Y-82385380D01*
X324738541Y-81365380D02*
X325064099Y-81365380D01*
%TO.C,R22*%
X326882220Y-74506139D02*
X326882220Y-74180581D01*
X325862220Y-74506139D02*
X325862220Y-74180581D01*
%TO.C,R21*%
X307888100Y-56568559D02*
X307888100Y-56243001D01*
X306868100Y-56568559D02*
X306868100Y-56243001D01*
%TO.C,R20*%
X338627260Y-106286459D02*
X338627260Y-105960901D01*
X337607260Y-106286459D02*
X337607260Y-105960901D01*
%TO.C,R19*%
X340152260Y-106311459D02*
X340152260Y-105985901D01*
X339132260Y-106311459D02*
X339132260Y-105985901D01*
%TO.C,R18*%
X316370240Y-58993921D02*
X316370240Y-59319479D01*
X317390240Y-58993921D02*
X317390240Y-59319479D01*
%TO.C,R17*%
X339790020Y-61292879D02*
X339790020Y-60967321D01*
X338770020Y-61292879D02*
X338770020Y-60967321D01*
%TO.C,R16*%
X311210741Y-87014780D02*
X311536299Y-87014780D01*
X311210741Y-85994780D02*
X311536299Y-85994780D01*
%TO.C,R15*%
X309470000Y-88942779D02*
X309470000Y-88617221D01*
X308450000Y-88942779D02*
X308450000Y-88617221D01*
%TO.C,R14*%
X309980000Y-88644721D02*
X309980000Y-88970279D01*
X311000000Y-88644721D02*
X311000000Y-88970279D01*
%TO.C,R13*%
X325042541Y-60427020D02*
X325368099Y-60427020D01*
X325042541Y-59407020D02*
X325368099Y-59407020D01*
%TO.C,R12*%
X325012541Y-61997020D02*
X325338099Y-61997020D01*
X325012541Y-60977020D02*
X325338099Y-60977020D01*
%TO.C,R11*%
X306862199Y-88993900D02*
X306536641Y-88993900D01*
X306862199Y-90013900D02*
X306536641Y-90013900D01*
%TO.C,R10*%
X324740441Y-85445080D02*
X325065999Y-85445080D01*
X324740441Y-84425080D02*
X325065999Y-84425080D01*
%TO.C,R9*%
X324738681Y-86984300D02*
X325064239Y-86984300D01*
X324738681Y-85964300D02*
X325064239Y-85964300D01*
%TO.C,R8*%
X346670800Y-75562279D02*
X346670800Y-75236721D01*
X345650800Y-75562279D02*
X345650800Y-75236721D01*
%TO.C,R7*%
X316511400Y-74470479D02*
X316511400Y-74144921D01*
X315491400Y-74470479D02*
X315491400Y-74144921D01*
%TO.C,R6*%
X321494880Y-74495779D02*
X321494880Y-74170221D01*
X320474880Y-74495779D02*
X320474880Y-74170221D01*
%TO.C,R3*%
X309771099Y-124303060D02*
X309445541Y-124303060D01*
X309771099Y-125323060D02*
X309445541Y-125323060D01*
%TO.C,R2*%
X323854540Y-74533879D02*
X323854540Y-74208321D01*
X322834540Y-74533879D02*
X322834540Y-74208321D01*
%TO.C,R1*%
X336862981Y-62313420D02*
X337188539Y-62313420D01*
X336862981Y-61293420D02*
X337188539Y-61293420D01*
%TO.C,Q6*%
X332961200Y-59420600D02*
X334421200Y-59420600D01*
X332961200Y-62580600D02*
X335121200Y-62580600D01*
X332961200Y-62580600D02*
X332961200Y-61650600D01*
X332961200Y-59420600D02*
X332961200Y-60350600D01*
%TO.C,Q5*%
X344947000Y-124942740D02*
X344947000Y-126402740D01*
X341787000Y-124942740D02*
X341787000Y-127102740D01*
X341787000Y-124942740D02*
X342717000Y-124942740D01*
X344947000Y-124942740D02*
X344017000Y-124942740D01*
%TO.C,Q4*%
X348521600Y-124942340D02*
X348521600Y-126402340D01*
X345361600Y-124942340D02*
X345361600Y-127102340D01*
X345361600Y-124942340D02*
X346291600Y-124942340D01*
X348521600Y-124942340D02*
X347591600Y-124942340D01*
%TO.C,Q3*%
X306692180Y-64773840D02*
X306692180Y-63313840D01*
X309852180Y-64773840D02*
X309852180Y-62613840D01*
X309852180Y-64773840D02*
X308922180Y-64773840D01*
X306692180Y-64773840D02*
X307622180Y-64773840D01*
%TO.C,J2*%
X355313940Y-98192280D02*
X356643940Y-98192280D01*
X355313940Y-99522280D02*
X355313940Y-98192280D01*
X355313940Y-100792280D02*
X357973940Y-100792280D01*
X357973940Y-100792280D02*
X357973940Y-113552280D01*
X355313940Y-100792280D02*
X355313940Y-113552280D01*
X355313940Y-113552280D02*
X357973940Y-113552280D01*
%TO.C,D14*%
X353726640Y-126901860D02*
X353726640Y-132601860D01*
X349426640Y-126901860D02*
X349426640Y-132601860D01*
X353726640Y-126901860D02*
X349426640Y-126901860D01*
%TO.C,D13*%
X358613600Y-130934000D02*
X358613600Y-136634000D01*
X354313600Y-130934000D02*
X354313600Y-136634000D01*
X358613600Y-130934000D02*
X354313600Y-130934000D01*
%TO.C,D8*%
X321124800Y-96225200D02*
X322584800Y-96225200D01*
X321124800Y-99385200D02*
X323284800Y-99385200D01*
X321124800Y-99385200D02*
X321124800Y-98455200D01*
X321124800Y-96225200D02*
X321124800Y-97155200D01*
%TO.C,D6*%
X322748800Y-84029200D02*
X322748800Y-89729200D01*
X318448800Y-84029200D02*
X318448800Y-89729200D01*
X322748800Y-84029200D02*
X318448800Y-84029200D01*
%TO.C,D5*%
X313864100Y-86926880D02*
X313864100Y-81226880D01*
X318164100Y-86926880D02*
X318164100Y-81226880D01*
X313864100Y-86926880D02*
X318164100Y-86926880D01*
%TO.C,D4*%
X305366180Y-105947320D02*
X311066180Y-105947320D01*
X305366180Y-110247320D02*
X311066180Y-110247320D01*
X305366180Y-105947320D02*
X305366180Y-110247320D01*
%TO.C,D3*%
X312466180Y-114885360D02*
X306766180Y-114885360D01*
X312466180Y-110585360D02*
X306766180Y-110585360D01*
X312466180Y-114885360D02*
X312466180Y-110585360D01*
%TO.C,C31*%
X355256981Y-126567660D02*
X355582539Y-126567660D01*
X355256981Y-125547660D02*
X355582539Y-125547660D01*
%TO.C,C30*%
X355264401Y-125041120D02*
X355589959Y-125041120D01*
X355264401Y-124021120D02*
X355589959Y-124021120D01*
%TO.C,C29*%
X358205500Y-125448279D02*
X358205500Y-125122721D01*
X357185500Y-125448279D02*
X357185500Y-125122721D01*
%TO.C,C27*%
X311960800Y-74538721D02*
X311960800Y-74864279D01*
X312980800Y-74538721D02*
X312980800Y-74864279D01*
%TO.C,C26*%
X345129580Y-75547279D02*
X345129580Y-75221721D01*
X344109580Y-75547279D02*
X344109580Y-75221721D01*
%TO.C,C25*%
X320466939Y-64059340D02*
X320141381Y-64059340D01*
X320466939Y-65079340D02*
X320141381Y-65079340D01*
%TO.C,C24*%
X341700580Y-106273719D02*
X341700580Y-105948161D01*
X340680580Y-106273719D02*
X340680580Y-105948161D01*
%TO.C,C23*%
X307862620Y-53513499D02*
X307862620Y-53187941D01*
X306842620Y-53513499D02*
X306842620Y-53187941D01*
%TO.C,C22*%
X353967621Y-59653600D02*
X354293179Y-59653600D01*
X353967621Y-58633600D02*
X354293179Y-58633600D01*
%TO.C,C21*%
X312456100Y-79770921D02*
X312456100Y-80096479D01*
X313476100Y-79770921D02*
X313476100Y-80096479D01*
%TO.C,C20*%
X352406680Y-64379159D02*
X352406680Y-64053601D01*
X351386680Y-64379159D02*
X351386680Y-64053601D01*
%TO.C,C19*%
X341290020Y-61305379D02*
X341290020Y-60979821D01*
X340270020Y-61305379D02*
X340270020Y-60979821D01*
%TO.C,C18*%
X357057900Y-68743321D02*
X357057900Y-69068879D01*
X358077900Y-68743321D02*
X358077900Y-69068879D01*
%TO.C,C17*%
X312560000Y-88945279D02*
X312560000Y-88619721D01*
X311540000Y-88945279D02*
X311540000Y-88619721D01*
%TO.C,C16*%
X315872960Y-89994364D02*
X315872960Y-88790236D01*
X313152960Y-89994364D02*
X313152960Y-88790236D01*
%TO.C,C15*%
X330192920Y-59308881D02*
X330192920Y-59634439D01*
X331212920Y-59308881D02*
X331212920Y-59634439D01*
%TO.C,C14*%
X305490000Y-96099721D02*
X305490000Y-96425279D01*
X306510000Y-96099721D02*
X306510000Y-96425279D01*
%TO.C,C13*%
X305465000Y-91637221D02*
X305465000Y-91962779D01*
X306485000Y-91637221D02*
X306485000Y-91962779D01*
%TO.C,C12*%
X306918679Y-98069940D02*
X306593121Y-98069940D01*
X306918679Y-99089940D02*
X306593121Y-99089940D01*
%TO.C,C11*%
X320525680Y-66845061D02*
X320525680Y-67170619D01*
X321545680Y-66845061D02*
X321545680Y-67170619D01*
%TO.C,C9*%
X307945064Y-102792700D02*
X306740936Y-102792700D01*
X307945064Y-105512700D02*
X306740936Y-105512700D01*
%TO.C,C8*%
X307945064Y-99559280D02*
X306740936Y-99559280D01*
X307945064Y-102279280D02*
X306740936Y-102279280D01*
%TO.C,C7*%
X315529500Y-67269041D02*
X315529500Y-67594599D01*
X316549500Y-67269041D02*
X316549500Y-67594599D01*
%TO.C,C6*%
X315504100Y-70817421D02*
X315504100Y-71142979D01*
X316524100Y-70817421D02*
X316524100Y-71142979D01*
%TO.C,C5*%
X348220800Y-75567279D02*
X348220800Y-75241721D01*
X347200800Y-75567279D02*
X347200800Y-75241721D01*
%TO.C,C3*%
X350520376Y-77247580D02*
X351724504Y-77247580D01*
X350520376Y-74527580D02*
X351724504Y-74527580D01*
%TO.C,C2*%
X325368380Y-74526359D02*
X325368380Y-74200801D01*
X324348380Y-74526359D02*
X324348380Y-74200801D01*
D14*
%TO.C,BT1*%
X355301120Y-51946280D02*
X355301120Y-57446280D01*
X355301120Y-48546280D02*
X355301120Y-43046280D01*
X350101120Y-57446280D02*
X355301120Y-57446280D01*
X350101120Y-43046280D02*
X355301120Y-43046280D01*
X350101121Y-57446280D02*
G75*
G02*
X340701120Y-51946280I-2090348J7210134D01*
G01*
X340701119Y-48546281D02*
G75*
G02*
X350101120Y-43046280I7309654J-1710133D01*
G01*
%TO.C,R42*%
D10*
X304756400Y-68693466D02*
X304523066Y-68360133D01*
X304356400Y-68693466D02*
X304356400Y-67993466D01*
X304623066Y-67993466D01*
X304689733Y-68026800D01*
X304723066Y-68060133D01*
X304756400Y-68126800D01*
X304756400Y-68226800D01*
X304723066Y-68293466D01*
X304689733Y-68326800D01*
X304623066Y-68360133D01*
X304356400Y-68360133D01*
X305356400Y-68226800D02*
X305356400Y-68693466D01*
X305189733Y-67960133D02*
X305023066Y-68460133D01*
X305456400Y-68460133D01*
X305689733Y-68060133D02*
X305723066Y-68026800D01*
X305789733Y-67993466D01*
X305956400Y-67993466D01*
X306023066Y-68026800D01*
X306056400Y-68060133D01*
X306089733Y-68126800D01*
X306089733Y-68193466D01*
X306056400Y-68293466D01*
X305656400Y-68693466D01*
X306089733Y-68693466D01*
%TO.C,U14*%
X321205333Y-94866666D02*
X321205333Y-95433333D01*
X321238666Y-95500000D01*
X321272000Y-95533333D01*
X321338666Y-95566666D01*
X321472000Y-95566666D01*
X321538666Y-95533333D01*
X321572000Y-95500000D01*
X321605333Y-95433333D01*
X321605333Y-94866666D01*
X322305333Y-95566666D02*
X321905333Y-95566666D01*
X322105333Y-95566666D02*
X322105333Y-94866666D01*
X322038666Y-94966666D01*
X321972000Y-95033333D01*
X321905333Y-95066666D01*
X322905333Y-95100000D02*
X322905333Y-95566666D01*
X322738666Y-94833333D02*
X322572000Y-95333333D01*
X323005333Y-95333333D01*
%TO.C,R41*%
X327039720Y-97466586D02*
X326806386Y-97133253D01*
X326639720Y-97466586D02*
X326639720Y-96766586D01*
X326906386Y-96766586D01*
X326973053Y-96799920D01*
X327006386Y-96833253D01*
X327039720Y-96899920D01*
X327039720Y-96999920D01*
X327006386Y-97066586D01*
X326973053Y-97099920D01*
X326906386Y-97133253D01*
X326639720Y-97133253D01*
X327639720Y-96999920D02*
X327639720Y-97466586D01*
X327473053Y-96733253D02*
X327306386Y-97233253D01*
X327739720Y-97233253D01*
X328373053Y-97466586D02*
X327973053Y-97466586D01*
X328173053Y-97466586D02*
X328173053Y-96766586D01*
X328106386Y-96866586D01*
X328039720Y-96933253D01*
X327973053Y-96966586D01*
%TO.C,R40*%
X321763480Y-84315366D02*
X321530146Y-83982033D01*
X321363480Y-84315366D02*
X321363480Y-83615366D01*
X321630146Y-83615366D01*
X321696813Y-83648700D01*
X321730146Y-83682033D01*
X321763480Y-83748700D01*
X321763480Y-83848700D01*
X321730146Y-83915366D01*
X321696813Y-83948700D01*
X321630146Y-83982033D01*
X321363480Y-83982033D01*
X322363480Y-83848700D02*
X322363480Y-84315366D01*
X322196813Y-83582033D02*
X322030146Y-84082033D01*
X322463480Y-84082033D01*
X322863480Y-83615366D02*
X322930146Y-83615366D01*
X322996813Y-83648700D01*
X323030146Y-83682033D01*
X323063480Y-83748700D01*
X323096813Y-83882033D01*
X323096813Y-84048700D01*
X323063480Y-84182033D01*
X323030146Y-84248700D01*
X322996813Y-84282033D01*
X322930146Y-84315366D01*
X322863480Y-84315366D01*
X322796813Y-84282033D01*
X322763480Y-84248700D01*
X322730146Y-84182033D01*
X322696813Y-84048700D01*
X322696813Y-83882033D01*
X322730146Y-83748700D01*
X322763480Y-83682033D01*
X322796813Y-83648700D01*
X322863480Y-83615366D01*
%TO.C,R5*%
X309483833Y-128091346D02*
X309250500Y-127758013D01*
X309083833Y-128091346D02*
X309083833Y-127391346D01*
X309350500Y-127391346D01*
X309417166Y-127424680D01*
X309450500Y-127458013D01*
X309483833Y-127524680D01*
X309483833Y-127624680D01*
X309450500Y-127691346D01*
X309417166Y-127724680D01*
X309350500Y-127758013D01*
X309083833Y-127758013D01*
X310117166Y-127391346D02*
X309783833Y-127391346D01*
X309750500Y-127724680D01*
X309783833Y-127691346D01*
X309850500Y-127658013D01*
X310017166Y-127658013D01*
X310083833Y-127691346D01*
X310117166Y-127724680D01*
X310150500Y-127791346D01*
X310150500Y-127958013D01*
X310117166Y-128024680D01*
X310083833Y-128058013D01*
X310017166Y-128091346D01*
X309850500Y-128091346D01*
X309783833Y-128058013D01*
X309750500Y-128024680D01*
%TO.C,J5*%
X309631426Y-132313066D02*
X309631426Y-132813066D01*
X309598093Y-132913066D01*
X309531426Y-132979733D01*
X309431426Y-133013066D01*
X309364760Y-133013066D01*
X310298093Y-132313066D02*
X309964760Y-132313066D01*
X309931426Y-132646400D01*
X309964760Y-132613066D01*
X310031426Y-132579733D01*
X310198093Y-132579733D01*
X310264760Y-132613066D01*
X310298093Y-132646400D01*
X310331426Y-132713066D01*
X310331426Y-132879733D01*
X310298093Y-132946400D01*
X310264760Y-132979733D01*
X310198093Y-133013066D01*
X310031426Y-133013066D01*
X309964760Y-132979733D01*
X309931426Y-132946400D01*
%TO.C,U11*%
X350765853Y-122169126D02*
X350765853Y-122735793D01*
X350799186Y-122802460D01*
X350832520Y-122835793D01*
X350899186Y-122869126D01*
X351032520Y-122869126D01*
X351099186Y-122835793D01*
X351132520Y-122802460D01*
X351165853Y-122735793D01*
X351165853Y-122169126D01*
X351865853Y-122869126D02*
X351465853Y-122869126D01*
X351665853Y-122869126D02*
X351665853Y-122169126D01*
X351599186Y-122269126D01*
X351532520Y-122335793D01*
X351465853Y-122369126D01*
X352532520Y-122869126D02*
X352132520Y-122869126D01*
X352332520Y-122869126D02*
X352332520Y-122169126D01*
X352265853Y-122269126D01*
X352199186Y-122335793D01*
X352132520Y-122369126D01*
%TO.C,C4*%
X349331453Y-113836260D02*
X349298120Y-113869593D01*
X349198120Y-113902926D01*
X349131453Y-113902926D01*
X349031453Y-113869593D01*
X348964786Y-113802926D01*
X348931453Y-113736260D01*
X348898120Y-113602926D01*
X348898120Y-113502926D01*
X348931453Y-113369593D01*
X348964786Y-113302926D01*
X349031453Y-113236260D01*
X349131453Y-113202926D01*
X349198120Y-113202926D01*
X349298120Y-113236260D01*
X349331453Y-113269593D01*
X349931453Y-113436260D02*
X349931453Y-113902926D01*
X349764786Y-113169593D02*
X349598120Y-113669593D01*
X350031453Y-113669593D01*
%TO.C,C10*%
X322307800Y-72137080D02*
X322274466Y-72170413D01*
X322174466Y-72203746D01*
X322107800Y-72203746D01*
X322007800Y-72170413D01*
X321941133Y-72103746D01*
X321907800Y-72037080D01*
X321874466Y-71903746D01*
X321874466Y-71803746D01*
X321907800Y-71670413D01*
X321941133Y-71603746D01*
X322007800Y-71537080D01*
X322107800Y-71503746D01*
X322174466Y-71503746D01*
X322274466Y-71537080D01*
X322307800Y-71570413D01*
X322974466Y-72203746D02*
X322574466Y-72203746D01*
X322774466Y-72203746D02*
X322774466Y-71503746D01*
X322707800Y-71603746D01*
X322641133Y-71670413D01*
X322574466Y-71703746D01*
X323407800Y-71503746D02*
X323474466Y-71503746D01*
X323541133Y-71537080D01*
X323574466Y-71570413D01*
X323607800Y-71637080D01*
X323641133Y-71770413D01*
X323641133Y-71937080D01*
X323607800Y-72070413D01*
X323574466Y-72137080D01*
X323541133Y-72170413D01*
X323474466Y-72203746D01*
X323407800Y-72203746D01*
X323341133Y-72170413D01*
X323307800Y-72137080D01*
X323274466Y-72070413D01*
X323241133Y-71937080D01*
X323241133Y-71770413D01*
X323274466Y-71637080D01*
X323307800Y-71570413D01*
X323341133Y-71537080D01*
X323407800Y-71503746D01*
%TO.C,L1*%
X311688733Y-99998966D02*
X311355400Y-99998966D01*
X311355400Y-99298966D01*
X312288733Y-99998966D02*
X311888733Y-99998966D01*
X312088733Y-99998966D02*
X312088733Y-99298966D01*
X312022066Y-99398966D01*
X311955400Y-99465633D01*
X311888733Y-99498966D01*
%TO.C,U9*%
X339239926Y-71496126D02*
X339239926Y-72062793D01*
X339273260Y-72129460D01*
X339306593Y-72162793D01*
X339373260Y-72196126D01*
X339506593Y-72196126D01*
X339573260Y-72162793D01*
X339606593Y-72129460D01*
X339639926Y-72062793D01*
X339639926Y-71496126D01*
X340006593Y-72196126D02*
X340139926Y-72196126D01*
X340206593Y-72162793D01*
X340239926Y-72129460D01*
X340306593Y-72029460D01*
X340339926Y-71896126D01*
X340339926Y-71629460D01*
X340306593Y-71562793D01*
X340273260Y-71529460D01*
X340206593Y-71496126D01*
X340073260Y-71496126D01*
X340006593Y-71529460D01*
X339973260Y-71562793D01*
X339939926Y-71629460D01*
X339939926Y-71796126D01*
X339973260Y-71862793D01*
X340006593Y-71896126D01*
X340073260Y-71929460D01*
X340206593Y-71929460D01*
X340273260Y-71896126D01*
X340306593Y-71862793D01*
X340339926Y-71796126D01*
%TO.C,J3*%
X320543266Y-56487266D02*
X320543266Y-56987266D01*
X320509933Y-57087266D01*
X320443266Y-57153933D01*
X320343266Y-57187266D01*
X320276600Y-57187266D01*
X320809933Y-56487266D02*
X321243266Y-56487266D01*
X321009933Y-56753933D01*
X321109933Y-56753933D01*
X321176600Y-56787266D01*
X321209933Y-56820600D01*
X321243266Y-56887266D01*
X321243266Y-57053933D01*
X321209933Y-57120600D01*
X321176600Y-57153933D01*
X321109933Y-57187266D01*
X320909933Y-57187266D01*
X320843266Y-57153933D01*
X320809933Y-57120600D01*
%TO.C,C1*%
X354406373Y-130681540D02*
X354373040Y-130714873D01*
X354273040Y-130748206D01*
X354206373Y-130748206D01*
X354106373Y-130714873D01*
X354039706Y-130648206D01*
X354006373Y-130581540D01*
X353973040Y-130448206D01*
X353973040Y-130348206D01*
X354006373Y-130214873D01*
X354039706Y-130148206D01*
X354106373Y-130081540D01*
X354206373Y-130048206D01*
X354273040Y-130048206D01*
X354373040Y-130081540D01*
X354406373Y-130114873D01*
X355073040Y-130748206D02*
X354673040Y-130748206D01*
X354873040Y-130748206D02*
X354873040Y-130048206D01*
X354806373Y-130148206D01*
X354739706Y-130214873D01*
X354673040Y-130248206D01*
%TO.C,D12*%
X324869440Y-119623006D02*
X324869440Y-118923006D01*
X325036106Y-118923006D01*
X325136106Y-118956340D01*
X325202773Y-119023006D01*
X325236106Y-119089673D01*
X325269440Y-119223006D01*
X325269440Y-119323006D01*
X325236106Y-119456340D01*
X325202773Y-119523006D01*
X325136106Y-119589673D01*
X325036106Y-119623006D01*
X324869440Y-119623006D01*
X325936106Y-119623006D02*
X325536106Y-119623006D01*
X325736106Y-119623006D02*
X325736106Y-118923006D01*
X325669440Y-119023006D01*
X325602773Y-119089673D01*
X325536106Y-119123006D01*
X326202773Y-118989673D02*
X326236106Y-118956340D01*
X326302773Y-118923006D01*
X326469440Y-118923006D01*
X326536106Y-118956340D01*
X326569440Y-118989673D01*
X326602773Y-119056340D01*
X326602773Y-119123006D01*
X326569440Y-119223006D01*
X326169440Y-119623006D01*
X326602773Y-119623006D01*
%TO.C,D10*%
X335880340Y-123567626D02*
X335880340Y-122867626D01*
X336047006Y-122867626D01*
X336147006Y-122900960D01*
X336213673Y-122967626D01*
X336247006Y-123034293D01*
X336280340Y-123167626D01*
X336280340Y-123267626D01*
X336247006Y-123400960D01*
X336213673Y-123467626D01*
X336147006Y-123534293D01*
X336047006Y-123567626D01*
X335880340Y-123567626D01*
X336947006Y-123567626D02*
X336547006Y-123567626D01*
X336747006Y-123567626D02*
X336747006Y-122867626D01*
X336680340Y-122967626D01*
X336613673Y-123034293D01*
X336547006Y-123067626D01*
X337380340Y-122867626D02*
X337447006Y-122867626D01*
X337513673Y-122900960D01*
X337547006Y-122934293D01*
X337580340Y-123000960D01*
X337613673Y-123134293D01*
X337613673Y-123300960D01*
X337580340Y-123434293D01*
X337547006Y-123500960D01*
X337513673Y-123534293D01*
X337447006Y-123567626D01*
X337380340Y-123567626D01*
X337313673Y-123534293D01*
X337280340Y-123500960D01*
X337247006Y-123434293D01*
X337213673Y-123300960D01*
X337213673Y-123134293D01*
X337247006Y-123000960D01*
X337280340Y-122934293D01*
X337313673Y-122900960D01*
X337380340Y-122867626D01*
%TO.C,PS1*%
X312773960Y-140778666D02*
X312773960Y-140078666D01*
X313040626Y-140078666D01*
X313107293Y-140112000D01*
X313140626Y-140145333D01*
X313173960Y-140212000D01*
X313173960Y-140312000D01*
X313140626Y-140378666D01*
X313107293Y-140412000D01*
X313040626Y-140445333D01*
X312773960Y-140445333D01*
X313440626Y-140745333D02*
X313540626Y-140778666D01*
X313707293Y-140778666D01*
X313773960Y-140745333D01*
X313807293Y-140712000D01*
X313840626Y-140645333D01*
X313840626Y-140578666D01*
X313807293Y-140512000D01*
X313773960Y-140478666D01*
X313707293Y-140445333D01*
X313573960Y-140412000D01*
X313507293Y-140378666D01*
X313473960Y-140345333D01*
X313440626Y-140278666D01*
X313440626Y-140212000D01*
X313473960Y-140145333D01*
X313507293Y-140112000D01*
X313573960Y-140078666D01*
X313740626Y-140078666D01*
X313840626Y-140112000D01*
X314507293Y-140778666D02*
X314107293Y-140778666D01*
X314307293Y-140778666D02*
X314307293Y-140078666D01*
X314240626Y-140178666D01*
X314173960Y-140245333D01*
X314107293Y-140278666D01*
%TO.C,R4*%
X321828333Y-81850666D02*
X321595000Y-81517333D01*
X321428333Y-81850666D02*
X321428333Y-81150666D01*
X321695000Y-81150666D01*
X321761666Y-81184000D01*
X321795000Y-81217333D01*
X321828333Y-81284000D01*
X321828333Y-81384000D01*
X321795000Y-81450666D01*
X321761666Y-81484000D01*
X321695000Y-81517333D01*
X321428333Y-81517333D01*
X322428333Y-81384000D02*
X322428333Y-81850666D01*
X322261666Y-81117333D02*
X322095000Y-81617333D01*
X322528333Y-81617333D01*
%TO.C,U5*%
X351480186Y-66423746D02*
X351480186Y-66990413D01*
X351513520Y-67057080D01*
X351546853Y-67090413D01*
X351613520Y-67123746D01*
X351746853Y-67123746D01*
X351813520Y-67090413D01*
X351846853Y-67057080D01*
X351880186Y-66990413D01*
X351880186Y-66423746D01*
X352546853Y-66423746D02*
X352213520Y-66423746D01*
X352180186Y-66757080D01*
X352213520Y-66723746D01*
X352280186Y-66690413D01*
X352446853Y-66690413D01*
X352513520Y-66723746D01*
X352546853Y-66757080D01*
X352580186Y-66823746D01*
X352580186Y-66990413D01*
X352546853Y-67057080D01*
X352513520Y-67090413D01*
X352446853Y-67123746D01*
X352280186Y-67123746D01*
X352213520Y-67090413D01*
X352180186Y-67057080D01*
%TO.C,Y1*%
X351873226Y-69264373D02*
X351873226Y-69597706D01*
X351639893Y-68897706D02*
X351873226Y-69264373D01*
X352106560Y-68897706D01*
X352706560Y-69597706D02*
X352306560Y-69597706D01*
X352506560Y-69597706D02*
X352506560Y-68897706D01*
X352439893Y-68997706D01*
X352373226Y-69064373D01*
X352306560Y-69097706D01*
%TO.C,U10*%
X305703713Y-72176846D02*
X305703713Y-72743513D01*
X305737046Y-72810180D01*
X305770380Y-72843513D01*
X305837046Y-72876846D01*
X305970380Y-72876846D01*
X306037046Y-72843513D01*
X306070380Y-72810180D01*
X306103713Y-72743513D01*
X306103713Y-72176846D01*
X306803713Y-72876846D02*
X306403713Y-72876846D01*
X306603713Y-72876846D02*
X306603713Y-72176846D01*
X306537046Y-72276846D01*
X306470380Y-72343513D01*
X306403713Y-72376846D01*
X307237046Y-72176846D02*
X307303713Y-72176846D01*
X307370380Y-72210180D01*
X307403713Y-72243513D01*
X307437046Y-72310180D01*
X307470380Y-72443513D01*
X307470380Y-72610180D01*
X307437046Y-72743513D01*
X307403713Y-72810180D01*
X307370380Y-72843513D01*
X307303713Y-72876846D01*
X307237046Y-72876846D01*
X307170380Y-72843513D01*
X307137046Y-72810180D01*
X307103713Y-72743513D01*
X307070380Y-72610180D01*
X307070380Y-72443513D01*
X307103713Y-72310180D01*
X307137046Y-72243513D01*
X307170380Y-72210180D01*
X307237046Y-72176846D01*
%TO.C,U8*%
X308533866Y-57772506D02*
X308533866Y-58339173D01*
X308567200Y-58405840D01*
X308600533Y-58439173D01*
X308667200Y-58472506D01*
X308800533Y-58472506D01*
X308867200Y-58439173D01*
X308900533Y-58405840D01*
X308933866Y-58339173D01*
X308933866Y-57772506D01*
X309367200Y-58072506D02*
X309300533Y-58039173D01*
X309267200Y-58005840D01*
X309233866Y-57939173D01*
X309233866Y-57905840D01*
X309267200Y-57839173D01*
X309300533Y-57805840D01*
X309367200Y-57772506D01*
X309500533Y-57772506D01*
X309567200Y-57805840D01*
X309600533Y-57839173D01*
X309633866Y-57905840D01*
X309633866Y-57939173D01*
X309600533Y-58005840D01*
X309567200Y-58039173D01*
X309500533Y-58072506D01*
X309367200Y-58072506D01*
X309300533Y-58105840D01*
X309267200Y-58139173D01*
X309233866Y-58205840D01*
X309233866Y-58339173D01*
X309267200Y-58405840D01*
X309300533Y-58439173D01*
X309367200Y-58472506D01*
X309500533Y-58472506D01*
X309567200Y-58439173D01*
X309600533Y-58405840D01*
X309633866Y-58339173D01*
X309633866Y-58205840D01*
X309600533Y-58139173D01*
X309567200Y-58105840D01*
X309500533Y-58072506D01*
%TO.C,U3*%
X310913846Y-97901966D02*
X310913846Y-98468633D01*
X310947180Y-98535300D01*
X310980513Y-98568633D01*
X311047180Y-98601966D01*
X311180513Y-98601966D01*
X311247180Y-98568633D01*
X311280513Y-98535300D01*
X311313846Y-98468633D01*
X311313846Y-97901966D01*
X311580513Y-97901966D02*
X312013846Y-97901966D01*
X311780513Y-98168633D01*
X311880513Y-98168633D01*
X311947180Y-98201966D01*
X311980513Y-98235300D01*
X312013846Y-98301966D01*
X312013846Y-98468633D01*
X311980513Y-98535300D01*
X311947180Y-98568633D01*
X311880513Y-98601966D01*
X311680513Y-98601966D01*
X311613846Y-98568633D01*
X311580513Y-98535300D01*
%TO.C,TH3*%
X338060460Y-136860486D02*
X338460460Y-136860486D01*
X338260460Y-137560486D02*
X338260460Y-136860486D01*
X338693793Y-137560486D02*
X338693793Y-136860486D01*
X338693793Y-137193820D02*
X339093793Y-137193820D01*
X339093793Y-137560486D02*
X339093793Y-136860486D01*
X339360460Y-136860486D02*
X339793793Y-136860486D01*
X339560460Y-137127153D01*
X339660460Y-137127153D01*
X339727126Y-137160486D01*
X339760460Y-137193820D01*
X339793793Y-137260486D01*
X339793793Y-137427153D01*
X339760460Y-137493820D01*
X339727126Y-137527153D01*
X339660460Y-137560486D01*
X339460460Y-137560486D01*
X339393793Y-137527153D01*
X339360460Y-137493820D01*
%TO.C,TH2*%
X317580440Y-100581666D02*
X317980440Y-100581666D01*
X317780440Y-101281666D02*
X317780440Y-100581666D01*
X318213773Y-101281666D02*
X318213773Y-100581666D01*
X318213773Y-100915000D02*
X318613773Y-100915000D01*
X318613773Y-101281666D02*
X318613773Y-100581666D01*
X318913773Y-100648333D02*
X318947106Y-100615000D01*
X319013773Y-100581666D01*
X319180440Y-100581666D01*
X319247106Y-100615000D01*
X319280440Y-100648333D01*
X319313773Y-100715000D01*
X319313773Y-100781666D01*
X319280440Y-100881666D01*
X318880440Y-101281666D01*
X319313773Y-101281666D01*
%TO.C,TH1*%
X317522020Y-107205986D02*
X317922020Y-107205986D01*
X317722020Y-107905986D02*
X317722020Y-107205986D01*
X318155353Y-107905986D02*
X318155353Y-107205986D01*
X318155353Y-107539320D02*
X318555353Y-107539320D01*
X318555353Y-107905986D02*
X318555353Y-107205986D01*
X319255353Y-107905986D02*
X318855353Y-107905986D01*
X319055353Y-107905986D02*
X319055353Y-107205986D01*
X318988686Y-107305986D01*
X318922020Y-107372653D01*
X318855353Y-107405986D01*
%TO.C,Q2*%
X319257053Y-62354253D02*
X319190386Y-62320920D01*
X319123720Y-62254253D01*
X319023720Y-62154253D01*
X318957053Y-62120920D01*
X318890386Y-62120920D01*
X318923720Y-62287586D02*
X318857053Y-62254253D01*
X318790386Y-62187586D01*
X318757053Y-62054253D01*
X318757053Y-61820920D01*
X318790386Y-61687586D01*
X318857053Y-61620920D01*
X318923720Y-61587586D01*
X319057053Y-61587586D01*
X319123720Y-61620920D01*
X319190386Y-61687586D01*
X319223720Y-61820920D01*
X319223720Y-62054253D01*
X319190386Y-62187586D01*
X319123720Y-62254253D01*
X319057053Y-62287586D01*
X318923720Y-62287586D01*
X319490386Y-61654253D02*
X319523720Y-61620920D01*
X319590386Y-61587586D01*
X319757053Y-61587586D01*
X319823720Y-61620920D01*
X319857053Y-61654253D01*
X319890386Y-61720920D01*
X319890386Y-61787586D01*
X319857053Y-61887586D01*
X319457053Y-62287586D01*
X319890386Y-62287586D01*
%TO.C,Q1*%
X317418093Y-77012593D02*
X317351426Y-76979260D01*
X317284760Y-76912593D01*
X317184760Y-76812593D01*
X317118093Y-76779260D01*
X317051426Y-76779260D01*
X317084760Y-76945926D02*
X317018093Y-76912593D01*
X316951426Y-76845926D01*
X316918093Y-76712593D01*
X316918093Y-76479260D01*
X316951426Y-76345926D01*
X317018093Y-76279260D01*
X317084760Y-76245926D01*
X317218093Y-76245926D01*
X317284760Y-76279260D01*
X317351426Y-76345926D01*
X317384760Y-76479260D01*
X317384760Y-76712593D01*
X317351426Y-76845926D01*
X317284760Y-76912593D01*
X317218093Y-76945926D01*
X317084760Y-76945926D01*
X318051426Y-76945926D02*
X317651426Y-76945926D01*
X317851426Y-76945926D02*
X317851426Y-76245926D01*
X317784760Y-76345926D01*
X317718093Y-76412593D01*
X317651426Y-76445926D01*
%TO.C,J4*%
X308137906Y-49918826D02*
X308137906Y-50418826D01*
X308104573Y-50518826D01*
X308037906Y-50585493D01*
X307937906Y-50618826D01*
X307871240Y-50618826D01*
X308771240Y-50152160D02*
X308771240Y-50618826D01*
X308604573Y-49885493D02*
X308437906Y-50385493D01*
X308871240Y-50385493D01*
%TO.C,U7*%
X341630066Y-70929706D02*
X341630066Y-71496373D01*
X341663400Y-71563040D01*
X341696733Y-71596373D01*
X341763400Y-71629706D01*
X341896733Y-71629706D01*
X341963400Y-71596373D01*
X341996733Y-71563040D01*
X342030066Y-71496373D01*
X342030066Y-70929706D01*
X342296733Y-70929706D02*
X342763400Y-70929706D01*
X342463400Y-71629706D01*
%TO.C,U6*%
X304995646Y-76121466D02*
X304995646Y-76688133D01*
X305028980Y-76754800D01*
X305062313Y-76788133D01*
X305128980Y-76821466D01*
X305262313Y-76821466D01*
X305328980Y-76788133D01*
X305362313Y-76754800D01*
X305395646Y-76688133D01*
X305395646Y-76121466D01*
X306028980Y-76121466D02*
X305895646Y-76121466D01*
X305828980Y-76154800D01*
X305795646Y-76188133D01*
X305728980Y-76288133D01*
X305695646Y-76421466D01*
X305695646Y-76688133D01*
X305728980Y-76754800D01*
X305762313Y-76788133D01*
X305828980Y-76821466D01*
X305962313Y-76821466D01*
X306028980Y-76788133D01*
X306062313Y-76754800D01*
X306095646Y-76688133D01*
X306095646Y-76521466D01*
X306062313Y-76454800D01*
X306028980Y-76421466D01*
X305962313Y-76388133D01*
X305828980Y-76388133D01*
X305762313Y-76421466D01*
X305728980Y-76454800D01*
X305695646Y-76521466D01*
%TO.C,U4*%
X325495986Y-96903746D02*
X325495986Y-97470413D01*
X325529320Y-97537080D01*
X325562653Y-97570413D01*
X325629320Y-97603746D01*
X325762653Y-97603746D01*
X325829320Y-97570413D01*
X325862653Y-97537080D01*
X325895986Y-97470413D01*
X325895986Y-96903746D01*
X326529320Y-97137080D02*
X326529320Y-97603746D01*
X326362653Y-96870413D02*
X326195986Y-97370413D01*
X326629320Y-97370413D01*
%TO.C,U2*%
X316595826Y-68679266D02*
X316595826Y-69245933D01*
X316629160Y-69312600D01*
X316662493Y-69345933D01*
X316729160Y-69379266D01*
X316862493Y-69379266D01*
X316929160Y-69345933D01*
X316962493Y-69312600D01*
X316995826Y-69245933D01*
X316995826Y-68679266D01*
X317295826Y-68745933D02*
X317329160Y-68712600D01*
X317395826Y-68679266D01*
X317562493Y-68679266D01*
X317629160Y-68712600D01*
X317662493Y-68745933D01*
X317695826Y-68812600D01*
X317695826Y-68879266D01*
X317662493Y-68979266D01*
X317262493Y-69379266D01*
X317695826Y-69379266D01*
%TO.C,U1*%
X316732986Y-71945706D02*
X316732986Y-72512373D01*
X316766320Y-72579040D01*
X316799653Y-72612373D01*
X316866320Y-72645706D01*
X316999653Y-72645706D01*
X317066320Y-72612373D01*
X317099653Y-72579040D01*
X317132986Y-72512373D01*
X317132986Y-71945706D01*
X317832986Y-72645706D02*
X317432986Y-72645706D01*
X317632986Y-72645706D02*
X317632986Y-71945706D01*
X317566320Y-72045706D01*
X317499653Y-72112373D01*
X317432986Y-72145706D01*
%TO.C,R39*%
X336163500Y-59308166D02*
X335930166Y-58974833D01*
X335763500Y-59308166D02*
X335763500Y-58608166D01*
X336030166Y-58608166D01*
X336096833Y-58641500D01*
X336130166Y-58674833D01*
X336163500Y-58741500D01*
X336163500Y-58841500D01*
X336130166Y-58908166D01*
X336096833Y-58941500D01*
X336030166Y-58974833D01*
X335763500Y-58974833D01*
X336396833Y-58608166D02*
X336830166Y-58608166D01*
X336596833Y-58874833D01*
X336696833Y-58874833D01*
X336763500Y-58908166D01*
X336796833Y-58941500D01*
X336830166Y-59008166D01*
X336830166Y-59174833D01*
X336796833Y-59241500D01*
X336763500Y-59274833D01*
X336696833Y-59308166D01*
X336496833Y-59308166D01*
X336430166Y-59274833D01*
X336396833Y-59241500D01*
X337163500Y-59308166D02*
X337296833Y-59308166D01*
X337363500Y-59274833D01*
X337396833Y-59241500D01*
X337463500Y-59141500D01*
X337496833Y-59008166D01*
X337496833Y-58741500D01*
X337463500Y-58674833D01*
X337430166Y-58641500D01*
X337363500Y-58608166D01*
X337230166Y-58608166D01*
X337163500Y-58641500D01*
X337130166Y-58674833D01*
X337096833Y-58741500D01*
X337096833Y-58908166D01*
X337130166Y-58974833D01*
X337163500Y-59008166D01*
X337230166Y-59041500D01*
X337363500Y-59041500D01*
X337430166Y-59008166D01*
X337463500Y-58974833D01*
X337496833Y-58908166D01*
%TO.C,R38*%
X348662840Y-112320506D02*
X348429506Y-111987173D01*
X348262840Y-112320506D02*
X348262840Y-111620506D01*
X348529506Y-111620506D01*
X348596173Y-111653840D01*
X348629506Y-111687173D01*
X348662840Y-111753840D01*
X348662840Y-111853840D01*
X348629506Y-111920506D01*
X348596173Y-111953840D01*
X348529506Y-111987173D01*
X348262840Y-111987173D01*
X348896173Y-111620506D02*
X349329506Y-111620506D01*
X349096173Y-111887173D01*
X349196173Y-111887173D01*
X349262840Y-111920506D01*
X349296173Y-111953840D01*
X349329506Y-112020506D01*
X349329506Y-112187173D01*
X349296173Y-112253840D01*
X349262840Y-112287173D01*
X349196173Y-112320506D01*
X348996173Y-112320506D01*
X348929506Y-112287173D01*
X348896173Y-112253840D01*
X349729506Y-111920506D02*
X349662840Y-111887173D01*
X349629506Y-111853840D01*
X349596173Y-111787173D01*
X349596173Y-111753840D01*
X349629506Y-111687173D01*
X349662840Y-111653840D01*
X349729506Y-111620506D01*
X349862840Y-111620506D01*
X349929506Y-111653840D01*
X349962840Y-111687173D01*
X349996173Y-111753840D01*
X349996173Y-111787173D01*
X349962840Y-111853840D01*
X349929506Y-111887173D01*
X349862840Y-111920506D01*
X349729506Y-111920506D01*
X349662840Y-111953840D01*
X349629506Y-111987173D01*
X349596173Y-112053840D01*
X349596173Y-112187173D01*
X349629506Y-112253840D01*
X349662840Y-112287173D01*
X349729506Y-112320506D01*
X349862840Y-112320506D01*
X349929506Y-112287173D01*
X349962840Y-112253840D01*
X349996173Y-112187173D01*
X349996173Y-112053840D01*
X349962840Y-111987173D01*
X349929506Y-111953840D01*
X349862840Y-111920506D01*
%TO.C,R37*%
X348614580Y-110804126D02*
X348381246Y-110470793D01*
X348214580Y-110804126D02*
X348214580Y-110104126D01*
X348481246Y-110104126D01*
X348547913Y-110137460D01*
X348581246Y-110170793D01*
X348614580Y-110237460D01*
X348614580Y-110337460D01*
X348581246Y-110404126D01*
X348547913Y-110437460D01*
X348481246Y-110470793D01*
X348214580Y-110470793D01*
X348847913Y-110104126D02*
X349281246Y-110104126D01*
X349047913Y-110370793D01*
X349147913Y-110370793D01*
X349214580Y-110404126D01*
X349247913Y-110437460D01*
X349281246Y-110504126D01*
X349281246Y-110670793D01*
X349247913Y-110737460D01*
X349214580Y-110770793D01*
X349147913Y-110804126D01*
X348947913Y-110804126D01*
X348881246Y-110770793D01*
X348847913Y-110737460D01*
X349514580Y-110104126D02*
X349981246Y-110104126D01*
X349681246Y-110804126D01*
%TO.C,R36*%
X340397680Y-128886386D02*
X340164346Y-128553053D01*
X339997680Y-128886386D02*
X339997680Y-128186386D01*
X340264346Y-128186386D01*
X340331013Y-128219720D01*
X340364346Y-128253053D01*
X340397680Y-128319720D01*
X340397680Y-128419720D01*
X340364346Y-128486386D01*
X340331013Y-128519720D01*
X340264346Y-128553053D01*
X339997680Y-128553053D01*
X340631013Y-128186386D02*
X341064346Y-128186386D01*
X340831013Y-128453053D01*
X340931013Y-128453053D01*
X340997680Y-128486386D01*
X341031013Y-128519720D01*
X341064346Y-128586386D01*
X341064346Y-128753053D01*
X341031013Y-128819720D01*
X340997680Y-128853053D01*
X340931013Y-128886386D01*
X340731013Y-128886386D01*
X340664346Y-128853053D01*
X340631013Y-128819720D01*
X341664346Y-128186386D02*
X341531013Y-128186386D01*
X341464346Y-128219720D01*
X341431013Y-128253053D01*
X341364346Y-128353053D01*
X341331013Y-128486386D01*
X341331013Y-128753053D01*
X341364346Y-128819720D01*
X341397680Y-128853053D01*
X341464346Y-128886386D01*
X341597680Y-128886386D01*
X341664346Y-128853053D01*
X341697680Y-128819720D01*
X341731013Y-128753053D01*
X341731013Y-128586386D01*
X341697680Y-128519720D01*
X341664346Y-128486386D01*
X341597680Y-128453053D01*
X341464346Y-128453053D01*
X341397680Y-128486386D01*
X341364346Y-128519720D01*
X341331013Y-128586386D01*
%TO.C,R35*%
X340461180Y-130390066D02*
X340227846Y-130056733D01*
X340061180Y-130390066D02*
X340061180Y-129690066D01*
X340327846Y-129690066D01*
X340394513Y-129723400D01*
X340427846Y-129756733D01*
X340461180Y-129823400D01*
X340461180Y-129923400D01*
X340427846Y-129990066D01*
X340394513Y-130023400D01*
X340327846Y-130056733D01*
X340061180Y-130056733D01*
X340694513Y-129690066D02*
X341127846Y-129690066D01*
X340894513Y-129956733D01*
X340994513Y-129956733D01*
X341061180Y-129990066D01*
X341094513Y-130023400D01*
X341127846Y-130090066D01*
X341127846Y-130256733D01*
X341094513Y-130323400D01*
X341061180Y-130356733D01*
X340994513Y-130390066D01*
X340794513Y-130390066D01*
X340727846Y-130356733D01*
X340694513Y-130323400D01*
X341761180Y-129690066D02*
X341427846Y-129690066D01*
X341394513Y-130023400D01*
X341427846Y-129990066D01*
X341494513Y-129956733D01*
X341661180Y-129956733D01*
X341727846Y-129990066D01*
X341761180Y-130023400D01*
X341794513Y-130090066D01*
X341794513Y-130256733D01*
X341761180Y-130323400D01*
X341727846Y-130356733D01*
X341661180Y-130390066D01*
X341494513Y-130390066D01*
X341427846Y-130356733D01*
X341394513Y-130323400D01*
%TO.C,R34*%
X306763000Y-128594286D02*
X306529666Y-128260953D01*
X306363000Y-128594286D02*
X306363000Y-127894286D01*
X306629666Y-127894286D01*
X306696333Y-127927620D01*
X306729666Y-127960953D01*
X306763000Y-128027620D01*
X306763000Y-128127620D01*
X306729666Y-128194286D01*
X306696333Y-128227620D01*
X306629666Y-128260953D01*
X306363000Y-128260953D01*
X306996333Y-127894286D02*
X307429666Y-127894286D01*
X307196333Y-128160953D01*
X307296333Y-128160953D01*
X307363000Y-128194286D01*
X307396333Y-128227620D01*
X307429666Y-128294286D01*
X307429666Y-128460953D01*
X307396333Y-128527620D01*
X307363000Y-128560953D01*
X307296333Y-128594286D01*
X307096333Y-128594286D01*
X307029666Y-128560953D01*
X306996333Y-128527620D01*
X308029666Y-128127620D02*
X308029666Y-128594286D01*
X307863000Y-127860953D02*
X307696333Y-128360953D01*
X308129666Y-128360953D01*
%TO.C,R33*%
X348845720Y-128596826D02*
X348612386Y-128263493D01*
X348445720Y-128596826D02*
X348445720Y-127896826D01*
X348712386Y-127896826D01*
X348779053Y-127930160D01*
X348812386Y-127963493D01*
X348845720Y-128030160D01*
X348845720Y-128130160D01*
X348812386Y-128196826D01*
X348779053Y-128230160D01*
X348712386Y-128263493D01*
X348445720Y-128263493D01*
X349079053Y-127896826D02*
X349512386Y-127896826D01*
X349279053Y-128163493D01*
X349379053Y-128163493D01*
X349445720Y-128196826D01*
X349479053Y-128230160D01*
X349512386Y-128296826D01*
X349512386Y-128463493D01*
X349479053Y-128530160D01*
X349445720Y-128563493D01*
X349379053Y-128596826D01*
X349179053Y-128596826D01*
X349112386Y-128563493D01*
X349079053Y-128530160D01*
X349745720Y-127896826D02*
X350179053Y-127896826D01*
X349945720Y-128163493D01*
X350045720Y-128163493D01*
X350112386Y-128196826D01*
X350145720Y-128230160D01*
X350179053Y-128296826D01*
X350179053Y-128463493D01*
X350145720Y-128530160D01*
X350112386Y-128563493D01*
X350045720Y-128596826D01*
X349845720Y-128596826D01*
X349779053Y-128563493D01*
X349745720Y-128530160D01*
%TO.C,R32*%
X345233840Y-131327326D02*
X345000506Y-130993993D01*
X344833840Y-131327326D02*
X344833840Y-130627326D01*
X345100506Y-130627326D01*
X345167173Y-130660660D01*
X345200506Y-130693993D01*
X345233840Y-130760660D01*
X345233840Y-130860660D01*
X345200506Y-130927326D01*
X345167173Y-130960660D01*
X345100506Y-130993993D01*
X344833840Y-130993993D01*
X345467173Y-130627326D02*
X345900506Y-130627326D01*
X345667173Y-130893993D01*
X345767173Y-130893993D01*
X345833840Y-130927326D01*
X345867173Y-130960660D01*
X345900506Y-131027326D01*
X345900506Y-131193993D01*
X345867173Y-131260660D01*
X345833840Y-131293993D01*
X345767173Y-131327326D01*
X345567173Y-131327326D01*
X345500506Y-131293993D01*
X345467173Y-131260660D01*
X346167173Y-130693993D02*
X346200506Y-130660660D01*
X346267173Y-130627326D01*
X346433840Y-130627326D01*
X346500506Y-130660660D01*
X346533840Y-130693993D01*
X346567173Y-130760660D01*
X346567173Y-130827326D01*
X346533840Y-130927326D01*
X346133840Y-131327326D01*
X346567173Y-131327326D01*
%TO.C,R31*%
X306702040Y-130164006D02*
X306468706Y-129830673D01*
X306302040Y-130164006D02*
X306302040Y-129464006D01*
X306568706Y-129464006D01*
X306635373Y-129497340D01*
X306668706Y-129530673D01*
X306702040Y-129597340D01*
X306702040Y-129697340D01*
X306668706Y-129764006D01*
X306635373Y-129797340D01*
X306568706Y-129830673D01*
X306302040Y-129830673D01*
X306935373Y-129464006D02*
X307368706Y-129464006D01*
X307135373Y-129730673D01*
X307235373Y-129730673D01*
X307302040Y-129764006D01*
X307335373Y-129797340D01*
X307368706Y-129864006D01*
X307368706Y-130030673D01*
X307335373Y-130097340D01*
X307302040Y-130130673D01*
X307235373Y-130164006D01*
X307035373Y-130164006D01*
X306968706Y-130130673D01*
X306935373Y-130097340D01*
X308035373Y-130164006D02*
X307635373Y-130164006D01*
X307835373Y-130164006D02*
X307835373Y-129464006D01*
X307768706Y-129564006D01*
X307702040Y-129630673D01*
X307635373Y-129664006D01*
%TO.C,R30*%
X305693660Y-74040166D02*
X305460326Y-73706833D01*
X305293660Y-74040166D02*
X305293660Y-73340166D01*
X305560326Y-73340166D01*
X305626993Y-73373500D01*
X305660326Y-73406833D01*
X305693660Y-73473500D01*
X305693660Y-73573500D01*
X305660326Y-73640166D01*
X305626993Y-73673500D01*
X305560326Y-73706833D01*
X305293660Y-73706833D01*
X305926993Y-73340166D02*
X306360326Y-73340166D01*
X306126993Y-73606833D01*
X306226993Y-73606833D01*
X306293660Y-73640166D01*
X306326993Y-73673500D01*
X306360326Y-73740166D01*
X306360326Y-73906833D01*
X306326993Y-73973500D01*
X306293660Y-74006833D01*
X306226993Y-74040166D01*
X306026993Y-74040166D01*
X305960326Y-74006833D01*
X305926993Y-73973500D01*
X306793660Y-73340166D02*
X306860326Y-73340166D01*
X306926993Y-73373500D01*
X306960326Y-73406833D01*
X306993660Y-73473500D01*
X307026993Y-73606833D01*
X307026993Y-73773500D01*
X306993660Y-73906833D01*
X306960326Y-73973500D01*
X306926993Y-74006833D01*
X306860326Y-74040166D01*
X306793660Y-74040166D01*
X306726993Y-74006833D01*
X306693660Y-73973500D01*
X306660326Y-73906833D01*
X306626993Y-73773500D01*
X306626993Y-73606833D01*
X306660326Y-73473500D01*
X306693660Y-73406833D01*
X306726993Y-73373500D01*
X306793660Y-73340166D01*
%TO.C,R29*%
X308688320Y-76989106D02*
X308454986Y-76655773D01*
X308288320Y-76989106D02*
X308288320Y-76289106D01*
X308554986Y-76289106D01*
X308621653Y-76322440D01*
X308654986Y-76355773D01*
X308688320Y-76422440D01*
X308688320Y-76522440D01*
X308654986Y-76589106D01*
X308621653Y-76622440D01*
X308554986Y-76655773D01*
X308288320Y-76655773D01*
X308954986Y-76355773D02*
X308988320Y-76322440D01*
X309054986Y-76289106D01*
X309221653Y-76289106D01*
X309288320Y-76322440D01*
X309321653Y-76355773D01*
X309354986Y-76422440D01*
X309354986Y-76489106D01*
X309321653Y-76589106D01*
X308921653Y-76989106D01*
X309354986Y-76989106D01*
X309688320Y-76989106D02*
X309821653Y-76989106D01*
X309888320Y-76955773D01*
X309921653Y-76922440D01*
X309988320Y-76822440D01*
X310021653Y-76689106D01*
X310021653Y-76422440D01*
X309988320Y-76355773D01*
X309954986Y-76322440D01*
X309888320Y-76289106D01*
X309754986Y-76289106D01*
X309688320Y-76322440D01*
X309654986Y-76355773D01*
X309621653Y-76422440D01*
X309621653Y-76589106D01*
X309654986Y-76655773D01*
X309688320Y-76689106D01*
X309754986Y-76722440D01*
X309888320Y-76722440D01*
X309954986Y-76689106D01*
X309988320Y-76655773D01*
X310021653Y-76589106D01*
%TO.C,R28*%
X310700000Y-76976406D02*
X310466666Y-76643073D01*
X310300000Y-76976406D02*
X310300000Y-76276406D01*
X310566666Y-76276406D01*
X310633333Y-76309740D01*
X310666666Y-76343073D01*
X310700000Y-76409740D01*
X310700000Y-76509740D01*
X310666666Y-76576406D01*
X310633333Y-76609740D01*
X310566666Y-76643073D01*
X310300000Y-76643073D01*
X310966666Y-76343073D02*
X311000000Y-76309740D01*
X311066666Y-76276406D01*
X311233333Y-76276406D01*
X311300000Y-76309740D01*
X311333333Y-76343073D01*
X311366666Y-76409740D01*
X311366666Y-76476406D01*
X311333333Y-76576406D01*
X310933333Y-76976406D01*
X311366666Y-76976406D01*
X311766666Y-76576406D02*
X311700000Y-76543073D01*
X311666666Y-76509740D01*
X311633333Y-76443073D01*
X311633333Y-76409740D01*
X311666666Y-76343073D01*
X311700000Y-76309740D01*
X311766666Y-76276406D01*
X311900000Y-76276406D01*
X311966666Y-76309740D01*
X312000000Y-76343073D01*
X312033333Y-76409740D01*
X312033333Y-76443073D01*
X312000000Y-76509740D01*
X311966666Y-76543073D01*
X311900000Y-76576406D01*
X311766666Y-76576406D01*
X311700000Y-76609740D01*
X311666666Y-76643073D01*
X311633333Y-76709740D01*
X311633333Y-76843073D01*
X311666666Y-76909740D01*
X311700000Y-76943073D01*
X311766666Y-76976406D01*
X311900000Y-76976406D01*
X311966666Y-76943073D01*
X312000000Y-76909740D01*
X312033333Y-76843073D01*
X312033333Y-76709740D01*
X312000000Y-76643073D01*
X311966666Y-76609740D01*
X311900000Y-76576406D01*
%TO.C,R27*%
X313661640Y-65447346D02*
X313428306Y-65114013D01*
X313261640Y-65447346D02*
X313261640Y-64747346D01*
X313528306Y-64747346D01*
X313594973Y-64780680D01*
X313628306Y-64814013D01*
X313661640Y-64880680D01*
X313661640Y-64980680D01*
X313628306Y-65047346D01*
X313594973Y-65080680D01*
X313528306Y-65114013D01*
X313261640Y-65114013D01*
X313928306Y-64814013D02*
X313961640Y-64780680D01*
X314028306Y-64747346D01*
X314194973Y-64747346D01*
X314261640Y-64780680D01*
X314294973Y-64814013D01*
X314328306Y-64880680D01*
X314328306Y-64947346D01*
X314294973Y-65047346D01*
X313894973Y-65447346D01*
X314328306Y-65447346D01*
X314561640Y-64747346D02*
X315028306Y-64747346D01*
X314728306Y-65447346D01*
%TO.C,R26*%
X310702540Y-62579686D02*
X310469206Y-62246353D01*
X310302540Y-62579686D02*
X310302540Y-61879686D01*
X310569206Y-61879686D01*
X310635873Y-61913020D01*
X310669206Y-61946353D01*
X310702540Y-62013020D01*
X310702540Y-62113020D01*
X310669206Y-62179686D01*
X310635873Y-62213020D01*
X310569206Y-62246353D01*
X310302540Y-62246353D01*
X310969206Y-61946353D02*
X311002540Y-61913020D01*
X311069206Y-61879686D01*
X311235873Y-61879686D01*
X311302540Y-61913020D01*
X311335873Y-61946353D01*
X311369206Y-62013020D01*
X311369206Y-62079686D01*
X311335873Y-62179686D01*
X310935873Y-62579686D01*
X311369206Y-62579686D01*
X311969206Y-61879686D02*
X311835873Y-61879686D01*
X311769206Y-61913020D01*
X311735873Y-61946353D01*
X311669206Y-62046353D01*
X311635873Y-62179686D01*
X311635873Y-62446353D01*
X311669206Y-62513020D01*
X311702540Y-62546353D01*
X311769206Y-62579686D01*
X311902540Y-62579686D01*
X311969206Y-62546353D01*
X312002540Y-62513020D01*
X312035873Y-62446353D01*
X312035873Y-62279686D01*
X312002540Y-62213020D01*
X311969206Y-62179686D01*
X311902540Y-62146353D01*
X311769206Y-62146353D01*
X311702540Y-62179686D01*
X311669206Y-62213020D01*
X311635873Y-62279686D01*
%TO.C,R25*%
X305416800Y-62191066D02*
X305183466Y-61857733D01*
X305016800Y-62191066D02*
X305016800Y-61491066D01*
X305283466Y-61491066D01*
X305350133Y-61524400D01*
X305383466Y-61557733D01*
X305416800Y-61624400D01*
X305416800Y-61724400D01*
X305383466Y-61791066D01*
X305350133Y-61824400D01*
X305283466Y-61857733D01*
X305016800Y-61857733D01*
X305683466Y-61557733D02*
X305716800Y-61524400D01*
X305783466Y-61491066D01*
X305950133Y-61491066D01*
X306016800Y-61524400D01*
X306050133Y-61557733D01*
X306083466Y-61624400D01*
X306083466Y-61691066D01*
X306050133Y-61791066D01*
X305650133Y-62191066D01*
X306083466Y-62191066D01*
X306716800Y-61491066D02*
X306383466Y-61491066D01*
X306350133Y-61824400D01*
X306383466Y-61791066D01*
X306450133Y-61757733D01*
X306616800Y-61757733D01*
X306683466Y-61791066D01*
X306716800Y-61824400D01*
X306750133Y-61891066D01*
X306750133Y-62057733D01*
X306716800Y-62124400D01*
X306683466Y-62157733D01*
X306616800Y-62191066D01*
X306450133Y-62191066D01*
X306383466Y-62157733D01*
X306350133Y-62124400D01*
%TO.C,R24*%
X321812500Y-78802666D02*
X321579166Y-78469333D01*
X321412500Y-78802666D02*
X321412500Y-78102666D01*
X321679166Y-78102666D01*
X321745833Y-78136000D01*
X321779166Y-78169333D01*
X321812500Y-78236000D01*
X321812500Y-78336000D01*
X321779166Y-78402666D01*
X321745833Y-78436000D01*
X321679166Y-78469333D01*
X321412500Y-78469333D01*
X322079166Y-78169333D02*
X322112500Y-78136000D01*
X322179166Y-78102666D01*
X322345833Y-78102666D01*
X322412500Y-78136000D01*
X322445833Y-78169333D01*
X322479166Y-78236000D01*
X322479166Y-78302666D01*
X322445833Y-78402666D01*
X322045833Y-78802666D01*
X322479166Y-78802666D01*
X323079166Y-78336000D02*
X323079166Y-78802666D01*
X322912500Y-78069333D02*
X322745833Y-78569333D01*
X323179166Y-78569333D01*
%TO.C,R23*%
X321812500Y-77786666D02*
X321579166Y-77453333D01*
X321412500Y-77786666D02*
X321412500Y-77086666D01*
X321679166Y-77086666D01*
X321745833Y-77120000D01*
X321779166Y-77153333D01*
X321812500Y-77220000D01*
X321812500Y-77320000D01*
X321779166Y-77386666D01*
X321745833Y-77420000D01*
X321679166Y-77453333D01*
X321412500Y-77453333D01*
X322079166Y-77153333D02*
X322112500Y-77120000D01*
X322179166Y-77086666D01*
X322345833Y-77086666D01*
X322412500Y-77120000D01*
X322445833Y-77153333D01*
X322479166Y-77220000D01*
X322479166Y-77286666D01*
X322445833Y-77386666D01*
X322045833Y-77786666D01*
X322479166Y-77786666D01*
X322712500Y-77086666D02*
X323145833Y-77086666D01*
X322912500Y-77353333D01*
X323012500Y-77353333D01*
X323079166Y-77386666D01*
X323112500Y-77420000D01*
X323145833Y-77486666D01*
X323145833Y-77653333D01*
X323112500Y-77720000D01*
X323079166Y-77753333D01*
X323012500Y-77786666D01*
X322812500Y-77786666D01*
X322745833Y-77753333D01*
X322712500Y-77720000D01*
%TO.C,R22*%
X327646880Y-75749586D02*
X327413546Y-75416253D01*
X327246880Y-75749586D02*
X327246880Y-75049586D01*
X327513546Y-75049586D01*
X327580213Y-75082920D01*
X327613546Y-75116253D01*
X327646880Y-75182920D01*
X327646880Y-75282920D01*
X327613546Y-75349586D01*
X327580213Y-75382920D01*
X327513546Y-75416253D01*
X327246880Y-75416253D01*
X327913546Y-75116253D02*
X327946880Y-75082920D01*
X328013546Y-75049586D01*
X328180213Y-75049586D01*
X328246880Y-75082920D01*
X328280213Y-75116253D01*
X328313546Y-75182920D01*
X328313546Y-75249586D01*
X328280213Y-75349586D01*
X327880213Y-75749586D01*
X328313546Y-75749586D01*
X328580213Y-75116253D02*
X328613546Y-75082920D01*
X328680213Y-75049586D01*
X328846880Y-75049586D01*
X328913546Y-75082920D01*
X328946880Y-75116253D01*
X328980213Y-75182920D01*
X328980213Y-75249586D01*
X328946880Y-75349586D01*
X328546880Y-75749586D01*
X328980213Y-75749586D01*
%TO.C,R21*%
X305152640Y-57690186D02*
X304919306Y-57356853D01*
X304752640Y-57690186D02*
X304752640Y-56990186D01*
X305019306Y-56990186D01*
X305085973Y-57023520D01*
X305119306Y-57056853D01*
X305152640Y-57123520D01*
X305152640Y-57223520D01*
X305119306Y-57290186D01*
X305085973Y-57323520D01*
X305019306Y-57356853D01*
X304752640Y-57356853D01*
X305419306Y-57056853D02*
X305452640Y-57023520D01*
X305519306Y-56990186D01*
X305685973Y-56990186D01*
X305752640Y-57023520D01*
X305785973Y-57056853D01*
X305819306Y-57123520D01*
X305819306Y-57190186D01*
X305785973Y-57290186D01*
X305385973Y-57690186D01*
X305819306Y-57690186D01*
X306485973Y-57690186D02*
X306085973Y-57690186D01*
X306285973Y-57690186D02*
X306285973Y-56990186D01*
X306219306Y-57090186D01*
X306152640Y-57156853D01*
X306085973Y-57190186D01*
%TO.C,R20*%
X335851080Y-107550386D02*
X335617746Y-107217053D01*
X335451080Y-107550386D02*
X335451080Y-106850386D01*
X335717746Y-106850386D01*
X335784413Y-106883720D01*
X335817746Y-106917053D01*
X335851080Y-106983720D01*
X335851080Y-107083720D01*
X335817746Y-107150386D01*
X335784413Y-107183720D01*
X335717746Y-107217053D01*
X335451080Y-107217053D01*
X336117746Y-106917053D02*
X336151080Y-106883720D01*
X336217746Y-106850386D01*
X336384413Y-106850386D01*
X336451080Y-106883720D01*
X336484413Y-106917053D01*
X336517746Y-106983720D01*
X336517746Y-107050386D01*
X336484413Y-107150386D01*
X336084413Y-107550386D01*
X336517746Y-107550386D01*
X336951080Y-106850386D02*
X337017746Y-106850386D01*
X337084413Y-106883720D01*
X337117746Y-106917053D01*
X337151080Y-106983720D01*
X337184413Y-107117053D01*
X337184413Y-107283720D01*
X337151080Y-107417053D01*
X337117746Y-107483720D01*
X337084413Y-107517053D01*
X337017746Y-107550386D01*
X336951080Y-107550386D01*
X336884413Y-107517053D01*
X336851080Y-107483720D01*
X336817746Y-107417053D01*
X336784413Y-107283720D01*
X336784413Y-107117053D01*
X336817746Y-106983720D01*
X336851080Y-106917053D01*
X336884413Y-106883720D01*
X336951080Y-106850386D01*
%TO.C,R19*%
X338690800Y-104517626D02*
X338457466Y-104184293D01*
X338290800Y-104517626D02*
X338290800Y-103817626D01*
X338557466Y-103817626D01*
X338624133Y-103850960D01*
X338657466Y-103884293D01*
X338690800Y-103950960D01*
X338690800Y-104050960D01*
X338657466Y-104117626D01*
X338624133Y-104150960D01*
X338557466Y-104184293D01*
X338290800Y-104184293D01*
X339357466Y-104517626D02*
X338957466Y-104517626D01*
X339157466Y-104517626D02*
X339157466Y-103817626D01*
X339090800Y-103917626D01*
X339024133Y-103984293D01*
X338957466Y-104017626D01*
X339690800Y-104517626D02*
X339824133Y-104517626D01*
X339890800Y-104484293D01*
X339924133Y-104450960D01*
X339990800Y-104350960D01*
X340024133Y-104217626D01*
X340024133Y-103950960D01*
X339990800Y-103884293D01*
X339957466Y-103850960D01*
X339890800Y-103817626D01*
X339757466Y-103817626D01*
X339690800Y-103850960D01*
X339657466Y-103884293D01*
X339624133Y-103950960D01*
X339624133Y-104117626D01*
X339657466Y-104184293D01*
X339690800Y-104217626D01*
X339757466Y-104250960D01*
X339890800Y-104250960D01*
X339957466Y-104217626D01*
X339990800Y-104184293D01*
X340024133Y-104117626D01*
%TO.C,R18*%
X314545560Y-60616266D02*
X314312226Y-60282933D01*
X314145560Y-60616266D02*
X314145560Y-59916266D01*
X314412226Y-59916266D01*
X314478893Y-59949600D01*
X314512226Y-59982933D01*
X314545560Y-60049600D01*
X314545560Y-60149600D01*
X314512226Y-60216266D01*
X314478893Y-60249600D01*
X314412226Y-60282933D01*
X314145560Y-60282933D01*
X315212226Y-60616266D02*
X314812226Y-60616266D01*
X315012226Y-60616266D02*
X315012226Y-59916266D01*
X314945560Y-60016266D01*
X314878893Y-60082933D01*
X314812226Y-60116266D01*
X315612226Y-60216266D02*
X315545560Y-60182933D01*
X315512226Y-60149600D01*
X315478893Y-60082933D01*
X315478893Y-60049600D01*
X315512226Y-59982933D01*
X315545560Y-59949600D01*
X315612226Y-59916266D01*
X315745560Y-59916266D01*
X315812226Y-59949600D01*
X315845560Y-59982933D01*
X315878893Y-60049600D01*
X315878893Y-60082933D01*
X315845560Y-60149600D01*
X315812226Y-60182933D01*
X315745560Y-60216266D01*
X315612226Y-60216266D01*
X315545560Y-60249600D01*
X315512226Y-60282933D01*
X315478893Y-60349600D01*
X315478893Y-60482933D01*
X315512226Y-60549600D01*
X315545560Y-60582933D01*
X315612226Y-60616266D01*
X315745560Y-60616266D01*
X315812226Y-60582933D01*
X315845560Y-60549600D01*
X315878893Y-60482933D01*
X315878893Y-60349600D01*
X315845560Y-60282933D01*
X315812226Y-60249600D01*
X315745560Y-60216266D01*
%TO.C,R17*%
X338957500Y-63435666D02*
X338724166Y-63102333D01*
X338557500Y-63435666D02*
X338557500Y-62735666D01*
X338824166Y-62735666D01*
X338890833Y-62769000D01*
X338924166Y-62802333D01*
X338957500Y-62869000D01*
X338957500Y-62969000D01*
X338924166Y-63035666D01*
X338890833Y-63069000D01*
X338824166Y-63102333D01*
X338557500Y-63102333D01*
X339624166Y-63435666D02*
X339224166Y-63435666D01*
X339424166Y-63435666D02*
X339424166Y-62735666D01*
X339357500Y-62835666D01*
X339290833Y-62902333D01*
X339224166Y-62935666D01*
X339857500Y-62735666D02*
X340324166Y-62735666D01*
X340024166Y-63435666D01*
%TO.C,R16*%
X312678660Y-85604786D02*
X312445326Y-85271453D01*
X312278660Y-85604786D02*
X312278660Y-84904786D01*
X312545326Y-84904786D01*
X312611993Y-84938120D01*
X312645326Y-84971453D01*
X312678660Y-85038120D01*
X312678660Y-85138120D01*
X312645326Y-85204786D01*
X312611993Y-85238120D01*
X312545326Y-85271453D01*
X312278660Y-85271453D01*
X313345326Y-85604786D02*
X312945326Y-85604786D01*
X313145326Y-85604786D02*
X313145326Y-84904786D01*
X313078660Y-85004786D01*
X313011993Y-85071453D01*
X312945326Y-85104786D01*
X313945326Y-84904786D02*
X313811993Y-84904786D01*
X313745326Y-84938120D01*
X313711993Y-84971453D01*
X313645326Y-85071453D01*
X313611993Y-85204786D01*
X313611993Y-85471453D01*
X313645326Y-85538120D01*
X313678660Y-85571453D01*
X313745326Y-85604786D01*
X313878660Y-85604786D01*
X313945326Y-85571453D01*
X313978660Y-85538120D01*
X314011993Y-85471453D01*
X314011993Y-85304786D01*
X313978660Y-85238120D01*
X313945326Y-85204786D01*
X313878660Y-85171453D01*
X313745326Y-85171453D01*
X313678660Y-85204786D01*
X313645326Y-85238120D01*
X313611993Y-85304786D01*
%TO.C,R15*%
X306765540Y-88068586D02*
X306532206Y-87735253D01*
X306365540Y-88068586D02*
X306365540Y-87368586D01*
X306632206Y-87368586D01*
X306698873Y-87401920D01*
X306732206Y-87435253D01*
X306765540Y-87501920D01*
X306765540Y-87601920D01*
X306732206Y-87668586D01*
X306698873Y-87701920D01*
X306632206Y-87735253D01*
X306365540Y-87735253D01*
X307432206Y-88068586D02*
X307032206Y-88068586D01*
X307232206Y-88068586D02*
X307232206Y-87368586D01*
X307165540Y-87468586D01*
X307098873Y-87535253D01*
X307032206Y-87568586D01*
X308065540Y-87368586D02*
X307732206Y-87368586D01*
X307698873Y-87701920D01*
X307732206Y-87668586D01*
X307798873Y-87635253D01*
X307965540Y-87635253D01*
X308032206Y-87668586D01*
X308065540Y-87701920D01*
X308098873Y-87768586D01*
X308098873Y-87935253D01*
X308065540Y-88001920D01*
X308032206Y-88035253D01*
X307965540Y-88068586D01*
X307798873Y-88068586D01*
X307732206Y-88035253D01*
X307698873Y-88001920D01*
%TO.C,R14*%
X308434320Y-87169426D02*
X308200986Y-86836093D01*
X308034320Y-87169426D02*
X308034320Y-86469426D01*
X308300986Y-86469426D01*
X308367653Y-86502760D01*
X308400986Y-86536093D01*
X308434320Y-86602760D01*
X308434320Y-86702760D01*
X308400986Y-86769426D01*
X308367653Y-86802760D01*
X308300986Y-86836093D01*
X308034320Y-86836093D01*
X309100986Y-87169426D02*
X308700986Y-87169426D01*
X308900986Y-87169426D02*
X308900986Y-86469426D01*
X308834320Y-86569426D01*
X308767653Y-86636093D01*
X308700986Y-86669426D01*
X309700986Y-86702760D02*
X309700986Y-87169426D01*
X309534320Y-86436093D02*
X309367653Y-86936093D01*
X309800986Y-86936093D01*
%TO.C,R13*%
X324276300Y-58975426D02*
X324042966Y-58642093D01*
X323876300Y-58975426D02*
X323876300Y-58275426D01*
X324142966Y-58275426D01*
X324209633Y-58308760D01*
X324242966Y-58342093D01*
X324276300Y-58408760D01*
X324276300Y-58508760D01*
X324242966Y-58575426D01*
X324209633Y-58608760D01*
X324142966Y-58642093D01*
X323876300Y-58642093D01*
X324942966Y-58975426D02*
X324542966Y-58975426D01*
X324742966Y-58975426D02*
X324742966Y-58275426D01*
X324676300Y-58375426D01*
X324609633Y-58442093D01*
X324542966Y-58475426D01*
X325176300Y-58275426D02*
X325609633Y-58275426D01*
X325376300Y-58542093D01*
X325476300Y-58542093D01*
X325542966Y-58575426D01*
X325576300Y-58608760D01*
X325609633Y-58675426D01*
X325609633Y-58842093D01*
X325576300Y-58908760D01*
X325542966Y-58942093D01*
X325476300Y-58975426D01*
X325276300Y-58975426D01*
X325209633Y-58942093D01*
X325176300Y-58908760D01*
%TO.C,R12*%
X324207720Y-63115626D02*
X323974386Y-62782293D01*
X323807720Y-63115626D02*
X323807720Y-62415626D01*
X324074386Y-62415626D01*
X324141053Y-62448960D01*
X324174386Y-62482293D01*
X324207720Y-62548960D01*
X324207720Y-62648960D01*
X324174386Y-62715626D01*
X324141053Y-62748960D01*
X324074386Y-62782293D01*
X323807720Y-62782293D01*
X324874386Y-63115626D02*
X324474386Y-63115626D01*
X324674386Y-63115626D02*
X324674386Y-62415626D01*
X324607720Y-62515626D01*
X324541053Y-62582293D01*
X324474386Y-62615626D01*
X325141053Y-62482293D02*
X325174386Y-62448960D01*
X325241053Y-62415626D01*
X325407720Y-62415626D01*
X325474386Y-62448960D01*
X325507720Y-62482293D01*
X325541053Y-62548960D01*
X325541053Y-62615626D01*
X325507720Y-62715626D01*
X325107720Y-63115626D01*
X325541053Y-63115626D01*
%TO.C,R11*%
X304484620Y-88548646D02*
X304251286Y-88215313D01*
X304084620Y-88548646D02*
X304084620Y-87848646D01*
X304351286Y-87848646D01*
X304417953Y-87881980D01*
X304451286Y-87915313D01*
X304484620Y-87981980D01*
X304484620Y-88081980D01*
X304451286Y-88148646D01*
X304417953Y-88181980D01*
X304351286Y-88215313D01*
X304084620Y-88215313D01*
X305151286Y-88548646D02*
X304751286Y-88548646D01*
X304951286Y-88548646D02*
X304951286Y-87848646D01*
X304884620Y-87948646D01*
X304817953Y-88015313D01*
X304751286Y-88048646D01*
X305817953Y-88548646D02*
X305417953Y-88548646D01*
X305617953Y-88548646D02*
X305617953Y-87848646D01*
X305551286Y-87948646D01*
X305484620Y-88015313D01*
X305417953Y-88048646D01*
%TO.C,R10*%
X321812500Y-79818666D02*
X321579166Y-79485333D01*
X321412500Y-79818666D02*
X321412500Y-79118666D01*
X321679166Y-79118666D01*
X321745833Y-79152000D01*
X321779166Y-79185333D01*
X321812500Y-79252000D01*
X321812500Y-79352000D01*
X321779166Y-79418666D01*
X321745833Y-79452000D01*
X321679166Y-79485333D01*
X321412500Y-79485333D01*
X322479166Y-79818666D02*
X322079166Y-79818666D01*
X322279166Y-79818666D02*
X322279166Y-79118666D01*
X322212500Y-79218666D01*
X322145833Y-79285333D01*
X322079166Y-79318666D01*
X322912500Y-79118666D02*
X322979166Y-79118666D01*
X323045833Y-79152000D01*
X323079166Y-79185333D01*
X323112500Y-79252000D01*
X323145833Y-79385333D01*
X323145833Y-79552000D01*
X323112500Y-79685333D01*
X323079166Y-79752000D01*
X323045833Y-79785333D01*
X322979166Y-79818666D01*
X322912500Y-79818666D01*
X322845833Y-79785333D01*
X322812500Y-79752000D01*
X322779166Y-79685333D01*
X322745833Y-79552000D01*
X322745833Y-79385333D01*
X322779166Y-79252000D01*
X322812500Y-79185333D01*
X322845833Y-79152000D01*
X322912500Y-79118666D01*
%TO.C,R9*%
X321828333Y-80834666D02*
X321595000Y-80501333D01*
X321428333Y-80834666D02*
X321428333Y-80134666D01*
X321695000Y-80134666D01*
X321761666Y-80168000D01*
X321795000Y-80201333D01*
X321828333Y-80268000D01*
X321828333Y-80368000D01*
X321795000Y-80434666D01*
X321761666Y-80468000D01*
X321695000Y-80501333D01*
X321428333Y-80501333D01*
X322161666Y-80834666D02*
X322295000Y-80834666D01*
X322361666Y-80801333D01*
X322395000Y-80768000D01*
X322461666Y-80668000D01*
X322495000Y-80534666D01*
X322495000Y-80268000D01*
X322461666Y-80201333D01*
X322428333Y-80168000D01*
X322361666Y-80134666D01*
X322228333Y-80134666D01*
X322161666Y-80168000D01*
X322128333Y-80201333D01*
X322095000Y-80268000D01*
X322095000Y-80434666D01*
X322128333Y-80501333D01*
X322161666Y-80534666D01*
X322228333Y-80568000D01*
X322361666Y-80568000D01*
X322428333Y-80534666D01*
X322461666Y-80501333D01*
X322495000Y-80434666D01*
%TO.C,R8*%
X346085333Y-73809026D02*
X345852000Y-73475693D01*
X345685333Y-73809026D02*
X345685333Y-73109026D01*
X345952000Y-73109026D01*
X346018666Y-73142360D01*
X346052000Y-73175693D01*
X346085333Y-73242360D01*
X346085333Y-73342360D01*
X346052000Y-73409026D01*
X346018666Y-73442360D01*
X345952000Y-73475693D01*
X345685333Y-73475693D01*
X346485333Y-73409026D02*
X346418666Y-73375693D01*
X346385333Y-73342360D01*
X346352000Y-73275693D01*
X346352000Y-73242360D01*
X346385333Y-73175693D01*
X346418666Y-73142360D01*
X346485333Y-73109026D01*
X346618666Y-73109026D01*
X346685333Y-73142360D01*
X346718666Y-73175693D01*
X346752000Y-73242360D01*
X346752000Y-73275693D01*
X346718666Y-73342360D01*
X346685333Y-73375693D01*
X346618666Y-73409026D01*
X346485333Y-73409026D01*
X346418666Y-73442360D01*
X346385333Y-73475693D01*
X346352000Y-73542360D01*
X346352000Y-73675693D01*
X346385333Y-73742360D01*
X346418666Y-73775693D01*
X346485333Y-73809026D01*
X346618666Y-73809026D01*
X346685333Y-73775693D01*
X346718666Y-73742360D01*
X346752000Y-73675693D01*
X346752000Y-73542360D01*
X346718666Y-73475693D01*
X346685333Y-73442360D01*
X346618666Y-73409026D01*
%TO.C,R7*%
X314406453Y-75782606D02*
X314173120Y-75449273D01*
X314006453Y-75782606D02*
X314006453Y-75082606D01*
X314273120Y-75082606D01*
X314339786Y-75115940D01*
X314373120Y-75149273D01*
X314406453Y-75215940D01*
X314406453Y-75315940D01*
X314373120Y-75382606D01*
X314339786Y-75415940D01*
X314273120Y-75449273D01*
X314006453Y-75449273D01*
X314639786Y-75082606D02*
X315106453Y-75082606D01*
X314806453Y-75782606D01*
%TO.C,R6*%
X320703113Y-76714786D02*
X320469780Y-76381453D01*
X320303113Y-76714786D02*
X320303113Y-76014786D01*
X320569780Y-76014786D01*
X320636446Y-76048120D01*
X320669780Y-76081453D01*
X320703113Y-76148120D01*
X320703113Y-76248120D01*
X320669780Y-76314786D01*
X320636446Y-76348120D01*
X320569780Y-76381453D01*
X320303113Y-76381453D01*
X321303113Y-76014786D02*
X321169780Y-76014786D01*
X321103113Y-76048120D01*
X321069780Y-76081453D01*
X321003113Y-76181453D01*
X320969780Y-76314786D01*
X320969780Y-76581453D01*
X321003113Y-76648120D01*
X321036446Y-76681453D01*
X321103113Y-76714786D01*
X321236446Y-76714786D01*
X321303113Y-76681453D01*
X321336446Y-76648120D01*
X321369780Y-76581453D01*
X321369780Y-76414786D01*
X321336446Y-76348120D01*
X321303113Y-76314786D01*
X321236446Y-76281453D01*
X321103113Y-76281453D01*
X321036446Y-76314786D01*
X321003113Y-76348120D01*
X320969780Y-76414786D01*
%TO.C,R3*%
X307319853Y-125513266D02*
X307086520Y-125179933D01*
X306919853Y-125513266D02*
X306919853Y-124813266D01*
X307186520Y-124813266D01*
X307253186Y-124846600D01*
X307286520Y-124879933D01*
X307319853Y-124946600D01*
X307319853Y-125046600D01*
X307286520Y-125113266D01*
X307253186Y-125146600D01*
X307186520Y-125179933D01*
X306919853Y-125179933D01*
X307553186Y-124813266D02*
X307986520Y-124813266D01*
X307753186Y-125079933D01*
X307853186Y-125079933D01*
X307919853Y-125113266D01*
X307953186Y-125146600D01*
X307986520Y-125213266D01*
X307986520Y-125379933D01*
X307953186Y-125446600D01*
X307919853Y-125479933D01*
X307853186Y-125513266D01*
X307653186Y-125513266D01*
X307586520Y-125479933D01*
X307553186Y-125446600D01*
%TO.C,R2*%
X322643673Y-76689386D02*
X322410340Y-76356053D01*
X322243673Y-76689386D02*
X322243673Y-75989386D01*
X322510340Y-75989386D01*
X322577006Y-76022720D01*
X322610340Y-76056053D01*
X322643673Y-76122720D01*
X322643673Y-76222720D01*
X322610340Y-76289386D01*
X322577006Y-76322720D01*
X322510340Y-76356053D01*
X322243673Y-76356053D01*
X322910340Y-76056053D02*
X322943673Y-76022720D01*
X323010340Y-75989386D01*
X323177006Y-75989386D01*
X323243673Y-76022720D01*
X323277006Y-76056053D01*
X323310340Y-76122720D01*
X323310340Y-76189386D01*
X323277006Y-76289386D01*
X322877006Y-76689386D01*
X323310340Y-76689386D01*
%TO.C,R1*%
X336115833Y-63372166D02*
X335882500Y-63038833D01*
X335715833Y-63372166D02*
X335715833Y-62672166D01*
X335982500Y-62672166D01*
X336049166Y-62705500D01*
X336082500Y-62738833D01*
X336115833Y-62805500D01*
X336115833Y-62905500D01*
X336082500Y-62972166D01*
X336049166Y-63005500D01*
X335982500Y-63038833D01*
X335715833Y-63038833D01*
X336782500Y-63372166D02*
X336382500Y-63372166D01*
X336582500Y-63372166D02*
X336582500Y-62672166D01*
X336515833Y-62772166D01*
X336449166Y-62838833D01*
X336382500Y-62872166D01*
%TO.C,Q6*%
X331149333Y-62867333D02*
X331082666Y-62834000D01*
X331016000Y-62767333D01*
X330916000Y-62667333D01*
X330849333Y-62634000D01*
X330782666Y-62634000D01*
X330816000Y-62800666D02*
X330749333Y-62767333D01*
X330682666Y-62700666D01*
X330649333Y-62567333D01*
X330649333Y-62334000D01*
X330682666Y-62200666D01*
X330749333Y-62134000D01*
X330816000Y-62100666D01*
X330949333Y-62100666D01*
X331016000Y-62134000D01*
X331082666Y-62200666D01*
X331116000Y-62334000D01*
X331116000Y-62567333D01*
X331082666Y-62700666D01*
X331016000Y-62767333D01*
X330949333Y-62800666D01*
X330816000Y-62800666D01*
X331716000Y-62100666D02*
X331582666Y-62100666D01*
X331516000Y-62134000D01*
X331482666Y-62167333D01*
X331416000Y-62267333D01*
X331382666Y-62400666D01*
X331382666Y-62667333D01*
X331416000Y-62734000D01*
X331449333Y-62767333D01*
X331516000Y-62800666D01*
X331649333Y-62800666D01*
X331716000Y-62767333D01*
X331749333Y-62734000D01*
X331782666Y-62667333D01*
X331782666Y-62500666D01*
X331749333Y-62434000D01*
X331716000Y-62400666D01*
X331649333Y-62367333D01*
X331516000Y-62367333D01*
X331449333Y-62400666D01*
X331416000Y-62434000D01*
X331382666Y-62500666D01*
%TO.C,Q5*%
X340773393Y-127385873D02*
X340706726Y-127352540D01*
X340640060Y-127285873D01*
X340540060Y-127185873D01*
X340473393Y-127152540D01*
X340406726Y-127152540D01*
X340440060Y-127319206D02*
X340373393Y-127285873D01*
X340306726Y-127219206D01*
X340273393Y-127085873D01*
X340273393Y-126852540D01*
X340306726Y-126719206D01*
X340373393Y-126652540D01*
X340440060Y-126619206D01*
X340573393Y-126619206D01*
X340640060Y-126652540D01*
X340706726Y-126719206D01*
X340740060Y-126852540D01*
X340740060Y-127085873D01*
X340706726Y-127219206D01*
X340640060Y-127285873D01*
X340573393Y-127319206D01*
X340440060Y-127319206D01*
X341373393Y-126619206D02*
X341040060Y-126619206D01*
X341006726Y-126952540D01*
X341040060Y-126919206D01*
X341106726Y-126885873D01*
X341273393Y-126885873D01*
X341340060Y-126919206D01*
X341373393Y-126952540D01*
X341406726Y-127019206D01*
X341406726Y-127185873D01*
X341373393Y-127252540D01*
X341340060Y-127285873D01*
X341273393Y-127319206D01*
X341106726Y-127319206D01*
X341040060Y-127285873D01*
X341006726Y-127252540D01*
%TO.C,Q4*%
X345805133Y-123842573D02*
X345738466Y-123809240D01*
X345671800Y-123742573D01*
X345571800Y-123642573D01*
X345505133Y-123609240D01*
X345438466Y-123609240D01*
X345471800Y-123775906D02*
X345405133Y-123742573D01*
X345338466Y-123675906D01*
X345305133Y-123542573D01*
X345305133Y-123309240D01*
X345338466Y-123175906D01*
X345405133Y-123109240D01*
X345471800Y-123075906D01*
X345605133Y-123075906D01*
X345671800Y-123109240D01*
X345738466Y-123175906D01*
X345771800Y-123309240D01*
X345771800Y-123542573D01*
X345738466Y-123675906D01*
X345671800Y-123742573D01*
X345605133Y-123775906D01*
X345471800Y-123775906D01*
X346371800Y-123309240D02*
X346371800Y-123775906D01*
X346205133Y-123042573D02*
X346038466Y-123542573D01*
X346471800Y-123542573D01*
%TO.C,Q3*%
X305749333Y-65610533D02*
X305682666Y-65577200D01*
X305616000Y-65510533D01*
X305516000Y-65410533D01*
X305449333Y-65377200D01*
X305382666Y-65377200D01*
X305416000Y-65543866D02*
X305349333Y-65510533D01*
X305282666Y-65443866D01*
X305249333Y-65310533D01*
X305249333Y-65077200D01*
X305282666Y-64943866D01*
X305349333Y-64877200D01*
X305416000Y-64843866D01*
X305549333Y-64843866D01*
X305616000Y-64877200D01*
X305682666Y-64943866D01*
X305716000Y-65077200D01*
X305716000Y-65310533D01*
X305682666Y-65443866D01*
X305616000Y-65510533D01*
X305549333Y-65543866D01*
X305416000Y-65543866D01*
X305949333Y-64843866D02*
X306382666Y-64843866D01*
X306149333Y-65110533D01*
X306249333Y-65110533D01*
X306316000Y-65143866D01*
X306349333Y-65177200D01*
X306382666Y-65243866D01*
X306382666Y-65410533D01*
X306349333Y-65477200D01*
X306316000Y-65510533D01*
X306249333Y-65543866D01*
X306049333Y-65543866D01*
X305982666Y-65510533D01*
X305949333Y-65477200D01*
%TO.C,J2*%
X357571386Y-114259566D02*
X357571386Y-114759566D01*
X357538053Y-114859566D01*
X357471386Y-114926233D01*
X357371386Y-114959566D01*
X357304720Y-114959566D01*
X357871386Y-114326233D02*
X357904720Y-114292900D01*
X357971386Y-114259566D01*
X358138053Y-114259566D01*
X358204720Y-114292900D01*
X358238053Y-114326233D01*
X358271386Y-114392900D01*
X358271386Y-114459566D01*
X358238053Y-114559566D01*
X357838053Y-114959566D01*
X358271386Y-114959566D01*
%TO.C,D14*%
X349873200Y-135002706D02*
X349873200Y-134302706D01*
X350039866Y-134302706D01*
X350139866Y-134336040D01*
X350206533Y-134402706D01*
X350239866Y-134469373D01*
X350273200Y-134602706D01*
X350273200Y-134702706D01*
X350239866Y-134836040D01*
X350206533Y-134902706D01*
X350139866Y-134969373D01*
X350039866Y-135002706D01*
X349873200Y-135002706D01*
X350939866Y-135002706D02*
X350539866Y-135002706D01*
X350739866Y-135002706D02*
X350739866Y-134302706D01*
X350673200Y-134402706D01*
X350606533Y-134469373D01*
X350539866Y-134502706D01*
X351539866Y-134536040D02*
X351539866Y-135002706D01*
X351373200Y-134269373D02*
X351206533Y-134769373D01*
X351639866Y-134769373D01*
%TO.C,D13*%
X352273500Y-138058326D02*
X352273500Y-137358326D01*
X352440166Y-137358326D01*
X352540166Y-137391660D01*
X352606833Y-137458326D01*
X352640166Y-137524993D01*
X352673500Y-137658326D01*
X352673500Y-137758326D01*
X352640166Y-137891660D01*
X352606833Y-137958326D01*
X352540166Y-138024993D01*
X352440166Y-138058326D01*
X352273500Y-138058326D01*
X353340166Y-138058326D02*
X352940166Y-138058326D01*
X353140166Y-138058326D02*
X353140166Y-137358326D01*
X353073500Y-137458326D01*
X353006833Y-137524993D01*
X352940166Y-137558326D01*
X353573500Y-137358326D02*
X354006833Y-137358326D01*
X353773500Y-137624993D01*
X353873500Y-137624993D01*
X353940166Y-137658326D01*
X353973500Y-137691660D01*
X354006833Y-137758326D01*
X354006833Y-137924993D01*
X353973500Y-137991660D01*
X353940166Y-138024993D01*
X353873500Y-138058326D01*
X353673500Y-138058326D01*
X353606833Y-138024993D01*
X353573500Y-137991660D01*
%TO.C,D8*%
X320331053Y-100316466D02*
X320331053Y-99616466D01*
X320497720Y-99616466D01*
X320597720Y-99649800D01*
X320664386Y-99716466D01*
X320697720Y-99783133D01*
X320731053Y-99916466D01*
X320731053Y-100016466D01*
X320697720Y-100149800D01*
X320664386Y-100216466D01*
X320597720Y-100283133D01*
X320497720Y-100316466D01*
X320331053Y-100316466D01*
X321131053Y-99916466D02*
X321064386Y-99883133D01*
X321031053Y-99849800D01*
X320997720Y-99783133D01*
X320997720Y-99749800D01*
X321031053Y-99683133D01*
X321064386Y-99649800D01*
X321131053Y-99616466D01*
X321264386Y-99616466D01*
X321331053Y-99649800D01*
X321364386Y-99683133D01*
X321397720Y-99749800D01*
X321397720Y-99783133D01*
X321364386Y-99849800D01*
X321331053Y-99883133D01*
X321264386Y-99916466D01*
X321131053Y-99916466D01*
X321064386Y-99949800D01*
X321031053Y-99983133D01*
X320997720Y-100049800D01*
X320997720Y-100183133D01*
X321031053Y-100249800D01*
X321064386Y-100283133D01*
X321131053Y-100316466D01*
X321264386Y-100316466D01*
X321331053Y-100283133D01*
X321364386Y-100249800D01*
X321397720Y-100183133D01*
X321397720Y-100049800D01*
X321364386Y-99983133D01*
X321331053Y-99949800D01*
X321264386Y-99916466D01*
%TO.C,D6*%
X320729833Y-92102106D02*
X320729833Y-91402106D01*
X320896500Y-91402106D01*
X320996500Y-91435440D01*
X321063166Y-91502106D01*
X321096500Y-91568773D01*
X321129833Y-91702106D01*
X321129833Y-91802106D01*
X321096500Y-91935440D01*
X321063166Y-92002106D01*
X320996500Y-92068773D01*
X320896500Y-92102106D01*
X320729833Y-92102106D01*
X321729833Y-91402106D02*
X321596500Y-91402106D01*
X321529833Y-91435440D01*
X321496500Y-91468773D01*
X321429833Y-91568773D01*
X321396500Y-91702106D01*
X321396500Y-91968773D01*
X321429833Y-92035440D01*
X321463166Y-92068773D01*
X321529833Y-92102106D01*
X321663166Y-92102106D01*
X321729833Y-92068773D01*
X321763166Y-92035440D01*
X321796500Y-91968773D01*
X321796500Y-91802106D01*
X321763166Y-91735440D01*
X321729833Y-91702106D01*
X321663166Y-91668773D01*
X321529833Y-91668773D01*
X321463166Y-91702106D01*
X321429833Y-91735440D01*
X321396500Y-91802106D01*
%TO.C,D5*%
X318461613Y-80651786D02*
X318461613Y-79951786D01*
X318628280Y-79951786D01*
X318728280Y-79985120D01*
X318794946Y-80051786D01*
X318828280Y-80118453D01*
X318861613Y-80251786D01*
X318861613Y-80351786D01*
X318828280Y-80485120D01*
X318794946Y-80551786D01*
X318728280Y-80618453D01*
X318628280Y-80651786D01*
X318461613Y-80651786D01*
X319494946Y-79951786D02*
X319161613Y-79951786D01*
X319128280Y-80285120D01*
X319161613Y-80251786D01*
X319228280Y-80218453D01*
X319394946Y-80218453D01*
X319461613Y-80251786D01*
X319494946Y-80285120D01*
X319528280Y-80351786D01*
X319528280Y-80518453D01*
X319494946Y-80585120D01*
X319461613Y-80618453D01*
X319394946Y-80651786D01*
X319228280Y-80651786D01*
X319161613Y-80618453D01*
X319128280Y-80585120D01*
%TO.C,D4*%
X304011553Y-110341846D02*
X304011553Y-109641846D01*
X304178220Y-109641846D01*
X304278220Y-109675180D01*
X304344886Y-109741846D01*
X304378220Y-109808513D01*
X304411553Y-109941846D01*
X304411553Y-110041846D01*
X304378220Y-110175180D01*
X304344886Y-110241846D01*
X304278220Y-110308513D01*
X304178220Y-110341846D01*
X304011553Y-110341846D01*
X305011553Y-109875180D02*
X305011553Y-110341846D01*
X304844886Y-109608513D02*
X304678220Y-110108513D01*
X305111553Y-110108513D01*
%TO.C,D3*%
X303988693Y-114972266D02*
X303988693Y-114272266D01*
X304155360Y-114272266D01*
X304255360Y-114305600D01*
X304322026Y-114372266D01*
X304355360Y-114438933D01*
X304388693Y-114572266D01*
X304388693Y-114672266D01*
X304355360Y-114805600D01*
X304322026Y-114872266D01*
X304255360Y-114938933D01*
X304155360Y-114972266D01*
X303988693Y-114972266D01*
X304622026Y-114272266D02*
X305055360Y-114272266D01*
X304822026Y-114538933D01*
X304922026Y-114538933D01*
X304988693Y-114572266D01*
X305022026Y-114605600D01*
X305055360Y-114672266D01*
X305055360Y-114838933D01*
X305022026Y-114905600D01*
X304988693Y-114938933D01*
X304922026Y-114972266D01*
X304722026Y-114972266D01*
X304655360Y-114938933D01*
X304622026Y-114905600D01*
%TO.C,C31*%
X352472840Y-126569280D02*
X352439506Y-126602613D01*
X352339506Y-126635946D01*
X352272840Y-126635946D01*
X352172840Y-126602613D01*
X352106173Y-126535946D01*
X352072840Y-126469280D01*
X352039506Y-126335946D01*
X352039506Y-126235946D01*
X352072840Y-126102613D01*
X352106173Y-126035946D01*
X352172840Y-125969280D01*
X352272840Y-125935946D01*
X352339506Y-125935946D01*
X352439506Y-125969280D01*
X352472840Y-126002613D01*
X352706173Y-125935946D02*
X353139506Y-125935946D01*
X352906173Y-126202613D01*
X353006173Y-126202613D01*
X353072840Y-126235946D01*
X353106173Y-126269280D01*
X353139506Y-126335946D01*
X353139506Y-126502613D01*
X353106173Y-126569280D01*
X353072840Y-126602613D01*
X353006173Y-126635946D01*
X352806173Y-126635946D01*
X352739506Y-126602613D01*
X352706173Y-126569280D01*
X353806173Y-126635946D02*
X353406173Y-126635946D01*
X353606173Y-126635946D02*
X353606173Y-125935946D01*
X353539506Y-126035946D01*
X353472840Y-126102613D01*
X353406173Y-126135946D01*
%TO.C,C30*%
X352500780Y-125116400D02*
X352467446Y-125149733D01*
X352367446Y-125183066D01*
X352300780Y-125183066D01*
X352200780Y-125149733D01*
X352134113Y-125083066D01*
X352100780Y-125016400D01*
X352067446Y-124883066D01*
X352067446Y-124783066D01*
X352100780Y-124649733D01*
X352134113Y-124583066D01*
X352200780Y-124516400D01*
X352300780Y-124483066D01*
X352367446Y-124483066D01*
X352467446Y-124516400D01*
X352500780Y-124549733D01*
X352734113Y-124483066D02*
X353167446Y-124483066D01*
X352934113Y-124749733D01*
X353034113Y-124749733D01*
X353100780Y-124783066D01*
X353134113Y-124816400D01*
X353167446Y-124883066D01*
X353167446Y-125049733D01*
X353134113Y-125116400D01*
X353100780Y-125149733D01*
X353034113Y-125183066D01*
X352834113Y-125183066D01*
X352767446Y-125149733D01*
X352734113Y-125116400D01*
X353600780Y-124483066D02*
X353667446Y-124483066D01*
X353734113Y-124516400D01*
X353767446Y-124549733D01*
X353800780Y-124616400D01*
X353834113Y-124749733D01*
X353834113Y-124916400D01*
X353800780Y-125049733D01*
X353767446Y-125116400D01*
X353734113Y-125149733D01*
X353667446Y-125183066D01*
X353600780Y-125183066D01*
X353534113Y-125149733D01*
X353500780Y-125116400D01*
X353467446Y-125049733D01*
X353434113Y-124916400D01*
X353434113Y-124749733D01*
X353467446Y-124616400D01*
X353500780Y-124549733D01*
X353534113Y-124516400D01*
X353600780Y-124483066D01*
%TO.C,C29*%
X357275980Y-123714320D02*
X357242646Y-123747653D01*
X357142646Y-123780986D01*
X357075980Y-123780986D01*
X356975980Y-123747653D01*
X356909313Y-123680986D01*
X356875980Y-123614320D01*
X356842646Y-123480986D01*
X356842646Y-123380986D01*
X356875980Y-123247653D01*
X356909313Y-123180986D01*
X356975980Y-123114320D01*
X357075980Y-123080986D01*
X357142646Y-123080986D01*
X357242646Y-123114320D01*
X357275980Y-123147653D01*
X357542646Y-123147653D02*
X357575980Y-123114320D01*
X357642646Y-123080986D01*
X357809313Y-123080986D01*
X357875980Y-123114320D01*
X357909313Y-123147653D01*
X357942646Y-123214320D01*
X357942646Y-123280986D01*
X357909313Y-123380986D01*
X357509313Y-123780986D01*
X357942646Y-123780986D01*
X358275980Y-123780986D02*
X358409313Y-123780986D01*
X358475980Y-123747653D01*
X358509313Y-123714320D01*
X358575980Y-123614320D01*
X358609313Y-123480986D01*
X358609313Y-123214320D01*
X358575980Y-123147653D01*
X358542646Y-123114320D01*
X358475980Y-123080986D01*
X358342646Y-123080986D01*
X358275980Y-123114320D01*
X358242646Y-123147653D01*
X358209313Y-123214320D01*
X358209313Y-123380986D01*
X358242646Y-123447653D01*
X358275980Y-123480986D01*
X358342646Y-123514320D01*
X358475980Y-123514320D01*
X358542646Y-123480986D01*
X358575980Y-123447653D01*
X358609313Y-123380986D01*
%TO.C,C27*%
X312991080Y-76975780D02*
X312957746Y-77009113D01*
X312857746Y-77042446D01*
X312791080Y-77042446D01*
X312691080Y-77009113D01*
X312624413Y-76942446D01*
X312591080Y-76875780D01*
X312557746Y-76742446D01*
X312557746Y-76642446D01*
X312591080Y-76509113D01*
X312624413Y-76442446D01*
X312691080Y-76375780D01*
X312791080Y-76342446D01*
X312857746Y-76342446D01*
X312957746Y-76375780D01*
X312991080Y-76409113D01*
X313257746Y-76409113D02*
X313291080Y-76375780D01*
X313357746Y-76342446D01*
X313524413Y-76342446D01*
X313591080Y-76375780D01*
X313624413Y-76409113D01*
X313657746Y-76475780D01*
X313657746Y-76542446D01*
X313624413Y-76642446D01*
X313224413Y-77042446D01*
X313657746Y-77042446D01*
X313891080Y-76342446D02*
X314357746Y-76342446D01*
X314057746Y-77042446D01*
%TO.C,C26*%
X343796200Y-73607740D02*
X343762866Y-73641073D01*
X343662866Y-73674406D01*
X343596200Y-73674406D01*
X343496200Y-73641073D01*
X343429533Y-73574406D01*
X343396200Y-73507740D01*
X343362866Y-73374406D01*
X343362866Y-73274406D01*
X343396200Y-73141073D01*
X343429533Y-73074406D01*
X343496200Y-73007740D01*
X343596200Y-72974406D01*
X343662866Y-72974406D01*
X343762866Y-73007740D01*
X343796200Y-73041073D01*
X344062866Y-73041073D02*
X344096200Y-73007740D01*
X344162866Y-72974406D01*
X344329533Y-72974406D01*
X344396200Y-73007740D01*
X344429533Y-73041073D01*
X344462866Y-73107740D01*
X344462866Y-73174406D01*
X344429533Y-73274406D01*
X344029533Y-73674406D01*
X344462866Y-73674406D01*
X345062866Y-72974406D02*
X344929533Y-72974406D01*
X344862866Y-73007740D01*
X344829533Y-73041073D01*
X344762866Y-73141073D01*
X344729533Y-73274406D01*
X344729533Y-73541073D01*
X344762866Y-73607740D01*
X344796200Y-73641073D01*
X344862866Y-73674406D01*
X344996200Y-73674406D01*
X345062866Y-73641073D01*
X345096200Y-73607740D01*
X345129533Y-73541073D01*
X345129533Y-73374406D01*
X345096200Y-73307740D01*
X345062866Y-73274406D01*
X344996200Y-73241073D01*
X344862866Y-73241073D01*
X344796200Y-73274406D01*
X344762866Y-73307740D01*
X344729533Y-73374406D01*
%TO.C,C25*%
X317298920Y-64964120D02*
X317265586Y-64997453D01*
X317165586Y-65030786D01*
X317098920Y-65030786D01*
X316998920Y-64997453D01*
X316932253Y-64930786D01*
X316898920Y-64864120D01*
X316865586Y-64730786D01*
X316865586Y-64630786D01*
X316898920Y-64497453D01*
X316932253Y-64430786D01*
X316998920Y-64364120D01*
X317098920Y-64330786D01*
X317165586Y-64330786D01*
X317265586Y-64364120D01*
X317298920Y-64397453D01*
X317565586Y-64397453D02*
X317598920Y-64364120D01*
X317665586Y-64330786D01*
X317832253Y-64330786D01*
X317898920Y-64364120D01*
X317932253Y-64397453D01*
X317965586Y-64464120D01*
X317965586Y-64530786D01*
X317932253Y-64630786D01*
X317532253Y-65030786D01*
X317965586Y-65030786D01*
X318598920Y-64330786D02*
X318265586Y-64330786D01*
X318232253Y-64664120D01*
X318265586Y-64630786D01*
X318332253Y-64597453D01*
X318498920Y-64597453D01*
X318565586Y-64630786D01*
X318598920Y-64664120D01*
X318632253Y-64730786D01*
X318632253Y-64897453D01*
X318598920Y-64964120D01*
X318565586Y-64997453D01*
X318498920Y-65030786D01*
X318332253Y-65030786D01*
X318265586Y-64997453D01*
X318232253Y-64964120D01*
%TO.C,C24*%
X341012360Y-104476360D02*
X340979026Y-104509693D01*
X340879026Y-104543026D01*
X340812360Y-104543026D01*
X340712360Y-104509693D01*
X340645693Y-104443026D01*
X340612360Y-104376360D01*
X340579026Y-104243026D01*
X340579026Y-104143026D01*
X340612360Y-104009693D01*
X340645693Y-103943026D01*
X340712360Y-103876360D01*
X340812360Y-103843026D01*
X340879026Y-103843026D01*
X340979026Y-103876360D01*
X341012360Y-103909693D01*
X341279026Y-103909693D02*
X341312360Y-103876360D01*
X341379026Y-103843026D01*
X341545693Y-103843026D01*
X341612360Y-103876360D01*
X341645693Y-103909693D01*
X341679026Y-103976360D01*
X341679026Y-104043026D01*
X341645693Y-104143026D01*
X341245693Y-104543026D01*
X341679026Y-104543026D01*
X342279026Y-104076360D02*
X342279026Y-104543026D01*
X342112360Y-103809693D02*
X341945693Y-104309693D01*
X342379026Y-104309693D01*
%TO.C,C23*%
X305117080Y-54697440D02*
X305083746Y-54730773D01*
X304983746Y-54764106D01*
X304917080Y-54764106D01*
X304817080Y-54730773D01*
X304750413Y-54664106D01*
X304717080Y-54597440D01*
X304683746Y-54464106D01*
X304683746Y-54364106D01*
X304717080Y-54230773D01*
X304750413Y-54164106D01*
X304817080Y-54097440D01*
X304917080Y-54064106D01*
X304983746Y-54064106D01*
X305083746Y-54097440D01*
X305117080Y-54130773D01*
X305383746Y-54130773D02*
X305417080Y-54097440D01*
X305483746Y-54064106D01*
X305650413Y-54064106D01*
X305717080Y-54097440D01*
X305750413Y-54130773D01*
X305783746Y-54197440D01*
X305783746Y-54264106D01*
X305750413Y-54364106D01*
X305350413Y-54764106D01*
X305783746Y-54764106D01*
X306017080Y-54064106D02*
X306450413Y-54064106D01*
X306217080Y-54330773D01*
X306317080Y-54330773D01*
X306383746Y-54364106D01*
X306417080Y-54397440D01*
X306450413Y-54464106D01*
X306450413Y-54630773D01*
X306417080Y-54697440D01*
X306383746Y-54730773D01*
X306317080Y-54764106D01*
X306117080Y-54764106D01*
X306050413Y-54730773D01*
X306017080Y-54697440D01*
%TO.C,C22*%
X351162200Y-59238960D02*
X351128866Y-59272293D01*
X351028866Y-59305626D01*
X350962200Y-59305626D01*
X350862200Y-59272293D01*
X350795533Y-59205626D01*
X350762200Y-59138960D01*
X350728866Y-59005626D01*
X350728866Y-58905626D01*
X350762200Y-58772293D01*
X350795533Y-58705626D01*
X350862200Y-58638960D01*
X350962200Y-58605626D01*
X351028866Y-58605626D01*
X351128866Y-58638960D01*
X351162200Y-58672293D01*
X351428866Y-58672293D02*
X351462200Y-58638960D01*
X351528866Y-58605626D01*
X351695533Y-58605626D01*
X351762200Y-58638960D01*
X351795533Y-58672293D01*
X351828866Y-58738960D01*
X351828866Y-58805626D01*
X351795533Y-58905626D01*
X351395533Y-59305626D01*
X351828866Y-59305626D01*
X352095533Y-58672293D02*
X352128866Y-58638960D01*
X352195533Y-58605626D01*
X352362200Y-58605626D01*
X352428866Y-58638960D01*
X352462200Y-58672293D01*
X352495533Y-58738960D01*
X352495533Y-58805626D01*
X352462200Y-58905626D01*
X352062200Y-59305626D01*
X352495533Y-59305626D01*
%TO.C,C21*%
X314319500Y-79139860D02*
X314286166Y-79173193D01*
X314186166Y-79206526D01*
X314119500Y-79206526D01*
X314019500Y-79173193D01*
X313952833Y-79106526D01*
X313919500Y-79039860D01*
X313886166Y-78906526D01*
X313886166Y-78806526D01*
X313919500Y-78673193D01*
X313952833Y-78606526D01*
X314019500Y-78539860D01*
X314119500Y-78506526D01*
X314186166Y-78506526D01*
X314286166Y-78539860D01*
X314319500Y-78573193D01*
X314586166Y-78573193D02*
X314619500Y-78539860D01*
X314686166Y-78506526D01*
X314852833Y-78506526D01*
X314919500Y-78539860D01*
X314952833Y-78573193D01*
X314986166Y-78639860D01*
X314986166Y-78706526D01*
X314952833Y-78806526D01*
X314552833Y-79206526D01*
X314986166Y-79206526D01*
X315652833Y-79206526D02*
X315252833Y-79206526D01*
X315452833Y-79206526D02*
X315452833Y-78506526D01*
X315386166Y-78606526D01*
X315319500Y-78673193D01*
X315252833Y-78706526D01*
%TO.C,C20*%
X350716680Y-64666380D02*
X350750013Y-64699713D01*
X350783346Y-64799713D01*
X350783346Y-64866380D01*
X350750013Y-64966380D01*
X350683346Y-65033046D01*
X350616680Y-65066380D01*
X350483346Y-65099713D01*
X350383346Y-65099713D01*
X350250013Y-65066380D01*
X350183346Y-65033046D01*
X350116680Y-64966380D01*
X350083346Y-64866380D01*
X350083346Y-64799713D01*
X350116680Y-64699713D01*
X350150013Y-64666380D01*
X350150013Y-64399713D02*
X350116680Y-64366380D01*
X350083346Y-64299713D01*
X350083346Y-64133046D01*
X350116680Y-64066380D01*
X350150013Y-64033046D01*
X350216680Y-63999713D01*
X350283346Y-63999713D01*
X350383346Y-64033046D01*
X350783346Y-64433046D01*
X350783346Y-63999713D01*
X350083346Y-63566380D02*
X350083346Y-63499713D01*
X350116680Y-63433046D01*
X350150013Y-63399713D01*
X350216680Y-63366380D01*
X350350013Y-63333046D01*
X350516680Y-63333046D01*
X350650013Y-63366380D01*
X350716680Y-63399713D01*
X350750013Y-63433046D01*
X350783346Y-63499713D01*
X350783346Y-63566380D01*
X350750013Y-63633046D01*
X350716680Y-63666380D01*
X350650013Y-63699713D01*
X350516680Y-63733046D01*
X350350013Y-63733046D01*
X350216680Y-63699713D01*
X350150013Y-63666380D01*
X350116680Y-63633046D01*
X350083346Y-63566380D01*
%TO.C,C19*%
X340608500Y-59432000D02*
X340575166Y-59465333D01*
X340475166Y-59498666D01*
X340408500Y-59498666D01*
X340308500Y-59465333D01*
X340241833Y-59398666D01*
X340208500Y-59332000D01*
X340175166Y-59198666D01*
X340175166Y-59098666D01*
X340208500Y-58965333D01*
X340241833Y-58898666D01*
X340308500Y-58832000D01*
X340408500Y-58798666D01*
X340475166Y-58798666D01*
X340575166Y-58832000D01*
X340608500Y-58865333D01*
X341275166Y-59498666D02*
X340875166Y-59498666D01*
X341075166Y-59498666D02*
X341075166Y-58798666D01*
X341008500Y-58898666D01*
X340941833Y-58965333D01*
X340875166Y-58998666D01*
X341608500Y-59498666D02*
X341741833Y-59498666D01*
X341808500Y-59465333D01*
X341841833Y-59432000D01*
X341908500Y-59332000D01*
X341941833Y-59198666D01*
X341941833Y-58932000D01*
X341908500Y-58865333D01*
X341875166Y-58832000D01*
X341808500Y-58798666D01*
X341675166Y-58798666D01*
X341608500Y-58832000D01*
X341575166Y-58865333D01*
X341541833Y-58932000D01*
X341541833Y-59098666D01*
X341575166Y-59165333D01*
X341608500Y-59198666D01*
X341675166Y-59232000D01*
X341808500Y-59232000D01*
X341875166Y-59198666D01*
X341908500Y-59165333D01*
X341941833Y-59098666D01*
%TO.C,C18*%
X356928000Y-71278560D02*
X356894666Y-71311893D01*
X356794666Y-71345226D01*
X356728000Y-71345226D01*
X356628000Y-71311893D01*
X356561333Y-71245226D01*
X356528000Y-71178560D01*
X356494666Y-71045226D01*
X356494666Y-70945226D01*
X356528000Y-70811893D01*
X356561333Y-70745226D01*
X356628000Y-70678560D01*
X356728000Y-70645226D01*
X356794666Y-70645226D01*
X356894666Y-70678560D01*
X356928000Y-70711893D01*
X357594666Y-71345226D02*
X357194666Y-71345226D01*
X357394666Y-71345226D02*
X357394666Y-70645226D01*
X357328000Y-70745226D01*
X357261333Y-70811893D01*
X357194666Y-70845226D01*
X357994666Y-70945226D02*
X357928000Y-70911893D01*
X357894666Y-70878560D01*
X357861333Y-70811893D01*
X357861333Y-70778560D01*
X357894666Y-70711893D01*
X357928000Y-70678560D01*
X357994666Y-70645226D01*
X358128000Y-70645226D01*
X358194666Y-70678560D01*
X358228000Y-70711893D01*
X358261333Y-70778560D01*
X358261333Y-70811893D01*
X358228000Y-70878560D01*
X358194666Y-70911893D01*
X358128000Y-70945226D01*
X357994666Y-70945226D01*
X357928000Y-70978560D01*
X357894666Y-71011893D01*
X357861333Y-71078560D01*
X357861333Y-71211893D01*
X357894666Y-71278560D01*
X357928000Y-71311893D01*
X357994666Y-71345226D01*
X358128000Y-71345226D01*
X358194666Y-71311893D01*
X358228000Y-71278560D01*
X358261333Y-71211893D01*
X358261333Y-71078560D01*
X358228000Y-71011893D01*
X358194666Y-70978560D01*
X358128000Y-70945226D01*
%TO.C,C17*%
X313435580Y-86737000D02*
X313402246Y-86770333D01*
X313302246Y-86803666D01*
X313235580Y-86803666D01*
X313135580Y-86770333D01*
X313068913Y-86703666D01*
X313035580Y-86637000D01*
X313002246Y-86503666D01*
X313002246Y-86403666D01*
X313035580Y-86270333D01*
X313068913Y-86203666D01*
X313135580Y-86137000D01*
X313235580Y-86103666D01*
X313302246Y-86103666D01*
X313402246Y-86137000D01*
X313435580Y-86170333D01*
X314102246Y-86803666D02*
X313702246Y-86803666D01*
X313902246Y-86803666D02*
X313902246Y-86103666D01*
X313835580Y-86203666D01*
X313768913Y-86270333D01*
X313702246Y-86303666D01*
X314335580Y-86103666D02*
X314802246Y-86103666D01*
X314502246Y-86803666D01*
%TO.C,C16*%
X316732500Y-91413140D02*
X316699166Y-91446473D01*
X316599166Y-91479806D01*
X316532500Y-91479806D01*
X316432500Y-91446473D01*
X316365833Y-91379806D01*
X316332500Y-91313140D01*
X316299166Y-91179806D01*
X316299166Y-91079806D01*
X316332500Y-90946473D01*
X316365833Y-90879806D01*
X316432500Y-90813140D01*
X316532500Y-90779806D01*
X316599166Y-90779806D01*
X316699166Y-90813140D01*
X316732500Y-90846473D01*
X317399166Y-91479806D02*
X316999166Y-91479806D01*
X317199166Y-91479806D02*
X317199166Y-90779806D01*
X317132500Y-90879806D01*
X317065833Y-90946473D01*
X316999166Y-90979806D01*
X317999166Y-90779806D02*
X317865833Y-90779806D01*
X317799166Y-90813140D01*
X317765833Y-90846473D01*
X317699166Y-90946473D01*
X317665833Y-91079806D01*
X317665833Y-91346473D01*
X317699166Y-91413140D01*
X317732500Y-91446473D01*
X317799166Y-91479806D01*
X317932500Y-91479806D01*
X317999166Y-91446473D01*
X318032500Y-91413140D01*
X318065833Y-91346473D01*
X318065833Y-91179806D01*
X318032500Y-91113140D01*
X317999166Y-91079806D01*
X317932500Y-91046473D01*
X317799166Y-91046473D01*
X317732500Y-91079806D01*
X317699166Y-91113140D01*
X317665833Y-91179806D01*
%TO.C,C15*%
X328353000Y-60854400D02*
X328319666Y-60887733D01*
X328219666Y-60921066D01*
X328153000Y-60921066D01*
X328053000Y-60887733D01*
X327986333Y-60821066D01*
X327953000Y-60754400D01*
X327919666Y-60621066D01*
X327919666Y-60521066D01*
X327953000Y-60387733D01*
X327986333Y-60321066D01*
X328053000Y-60254400D01*
X328153000Y-60221066D01*
X328219666Y-60221066D01*
X328319666Y-60254400D01*
X328353000Y-60287733D01*
X329019666Y-60921066D02*
X328619666Y-60921066D01*
X328819666Y-60921066D02*
X328819666Y-60221066D01*
X328753000Y-60321066D01*
X328686333Y-60387733D01*
X328619666Y-60421066D01*
X329653000Y-60221066D02*
X329319666Y-60221066D01*
X329286333Y-60554400D01*
X329319666Y-60521066D01*
X329386333Y-60487733D01*
X329553000Y-60487733D01*
X329619666Y-60521066D01*
X329653000Y-60554400D01*
X329686333Y-60621066D01*
X329686333Y-60787733D01*
X329653000Y-60854400D01*
X329619666Y-60887733D01*
X329553000Y-60921066D01*
X329386333Y-60921066D01*
X329319666Y-60887733D01*
X329286333Y-60854400D01*
%TO.C,C14*%
X304192520Y-94895480D02*
X304159186Y-94928813D01*
X304059186Y-94962146D01*
X303992520Y-94962146D01*
X303892520Y-94928813D01*
X303825853Y-94862146D01*
X303792520Y-94795480D01*
X303759186Y-94662146D01*
X303759186Y-94562146D01*
X303792520Y-94428813D01*
X303825853Y-94362146D01*
X303892520Y-94295480D01*
X303992520Y-94262146D01*
X304059186Y-94262146D01*
X304159186Y-94295480D01*
X304192520Y-94328813D01*
X304859186Y-94962146D02*
X304459186Y-94962146D01*
X304659186Y-94962146D02*
X304659186Y-94262146D01*
X304592520Y-94362146D01*
X304525853Y-94428813D01*
X304459186Y-94462146D01*
X305459186Y-94495480D02*
X305459186Y-94962146D01*
X305292520Y-94228813D02*
X305125853Y-94728813D01*
X305559186Y-94728813D01*
%TO.C,C13*%
X305205980Y-94059820D02*
X305172646Y-94093153D01*
X305072646Y-94126486D01*
X305005980Y-94126486D01*
X304905980Y-94093153D01*
X304839313Y-94026486D01*
X304805980Y-93959820D01*
X304772646Y-93826486D01*
X304772646Y-93726486D01*
X304805980Y-93593153D01*
X304839313Y-93526486D01*
X304905980Y-93459820D01*
X305005980Y-93426486D01*
X305072646Y-93426486D01*
X305172646Y-93459820D01*
X305205980Y-93493153D01*
X305872646Y-94126486D02*
X305472646Y-94126486D01*
X305672646Y-94126486D02*
X305672646Y-93426486D01*
X305605980Y-93526486D01*
X305539313Y-93593153D01*
X305472646Y-93626486D01*
X306105980Y-93426486D02*
X306539313Y-93426486D01*
X306305980Y-93693153D01*
X306405980Y-93693153D01*
X306472646Y-93726486D01*
X306505980Y-93759820D01*
X306539313Y-93826486D01*
X306539313Y-93993153D01*
X306505980Y-94059820D01*
X306472646Y-94093153D01*
X306405980Y-94126486D01*
X306205980Y-94126486D01*
X306139313Y-94093153D01*
X306105980Y-94059820D01*
%TO.C,C12*%
X308866120Y-99081400D02*
X308832786Y-99114733D01*
X308732786Y-99148066D01*
X308666120Y-99148066D01*
X308566120Y-99114733D01*
X308499453Y-99048066D01*
X308466120Y-98981400D01*
X308432786Y-98848066D01*
X308432786Y-98748066D01*
X308466120Y-98614733D01*
X308499453Y-98548066D01*
X308566120Y-98481400D01*
X308666120Y-98448066D01*
X308732786Y-98448066D01*
X308832786Y-98481400D01*
X308866120Y-98514733D01*
X309532786Y-99148066D02*
X309132786Y-99148066D01*
X309332786Y-99148066D02*
X309332786Y-98448066D01*
X309266120Y-98548066D01*
X309199453Y-98614733D01*
X309132786Y-98648066D01*
X309799453Y-98514733D02*
X309832786Y-98481400D01*
X309899453Y-98448066D01*
X310066120Y-98448066D01*
X310132786Y-98481400D01*
X310166120Y-98514733D01*
X310199453Y-98581400D01*
X310199453Y-98648066D01*
X310166120Y-98748066D01*
X309766120Y-99148066D01*
X310199453Y-99148066D01*
%TO.C,C11*%
X320849840Y-68957000D02*
X320816506Y-68990333D01*
X320716506Y-69023666D01*
X320649840Y-69023666D01*
X320549840Y-68990333D01*
X320483173Y-68923666D01*
X320449840Y-68857000D01*
X320416506Y-68723666D01*
X320416506Y-68623666D01*
X320449840Y-68490333D01*
X320483173Y-68423666D01*
X320549840Y-68357000D01*
X320649840Y-68323666D01*
X320716506Y-68323666D01*
X320816506Y-68357000D01*
X320849840Y-68390333D01*
X321516506Y-69023666D02*
X321116506Y-69023666D01*
X321316506Y-69023666D02*
X321316506Y-68323666D01*
X321249840Y-68423666D01*
X321183173Y-68490333D01*
X321116506Y-68523666D01*
X322183173Y-69023666D02*
X321783173Y-69023666D01*
X321983173Y-69023666D02*
X321983173Y-68323666D01*
X321916506Y-68423666D01*
X321849840Y-68490333D01*
X321783173Y-68523666D01*
%TO.C,C9*%
X304238833Y-105647300D02*
X304205500Y-105680633D01*
X304105500Y-105713966D01*
X304038833Y-105713966D01*
X303938833Y-105680633D01*
X303872166Y-105613966D01*
X303838833Y-105547300D01*
X303805500Y-105413966D01*
X303805500Y-105313966D01*
X303838833Y-105180633D01*
X303872166Y-105113966D01*
X303938833Y-105047300D01*
X304038833Y-105013966D01*
X304105500Y-105013966D01*
X304205500Y-105047300D01*
X304238833Y-105080633D01*
X304572166Y-105713966D02*
X304705500Y-105713966D01*
X304772166Y-105680633D01*
X304805500Y-105647300D01*
X304872166Y-105547300D01*
X304905500Y-105413966D01*
X304905500Y-105147300D01*
X304872166Y-105080633D01*
X304838833Y-105047300D01*
X304772166Y-105013966D01*
X304638833Y-105013966D01*
X304572166Y-105047300D01*
X304538833Y-105080633D01*
X304505500Y-105147300D01*
X304505500Y-105313966D01*
X304538833Y-105380633D01*
X304572166Y-105413966D01*
X304638833Y-105447300D01*
X304772166Y-105447300D01*
X304838833Y-105413966D01*
X304872166Y-105380633D01*
X304905500Y-105313966D01*
%TO.C,C8*%
X304238833Y-102345300D02*
X304205500Y-102378633D01*
X304105500Y-102411966D01*
X304038833Y-102411966D01*
X303938833Y-102378633D01*
X303872166Y-102311966D01*
X303838833Y-102245300D01*
X303805500Y-102111966D01*
X303805500Y-102011966D01*
X303838833Y-101878633D01*
X303872166Y-101811966D01*
X303938833Y-101745300D01*
X304038833Y-101711966D01*
X304105500Y-101711966D01*
X304205500Y-101745300D01*
X304238833Y-101778633D01*
X304638833Y-102011966D02*
X304572166Y-101978633D01*
X304538833Y-101945300D01*
X304505500Y-101878633D01*
X304505500Y-101845300D01*
X304538833Y-101778633D01*
X304572166Y-101745300D01*
X304638833Y-101711966D01*
X304772166Y-101711966D01*
X304838833Y-101745300D01*
X304872166Y-101778633D01*
X304905500Y-101845300D01*
X304905500Y-101878633D01*
X304872166Y-101945300D01*
X304838833Y-101978633D01*
X304772166Y-102011966D01*
X304638833Y-102011966D01*
X304572166Y-102045300D01*
X304538833Y-102078633D01*
X304505500Y-102145300D01*
X304505500Y-102278633D01*
X304538833Y-102345300D01*
X304572166Y-102378633D01*
X304638833Y-102411966D01*
X304772166Y-102411966D01*
X304838833Y-102378633D01*
X304872166Y-102345300D01*
X304905500Y-102278633D01*
X304905500Y-102145300D01*
X304872166Y-102078633D01*
X304838833Y-102045300D01*
X304772166Y-102011966D01*
%TO.C,C7*%
X314444553Y-68720780D02*
X314411220Y-68754113D01*
X314311220Y-68787446D01*
X314244553Y-68787446D01*
X314144553Y-68754113D01*
X314077886Y-68687446D01*
X314044553Y-68620780D01*
X314011220Y-68487446D01*
X314011220Y-68387446D01*
X314044553Y-68254113D01*
X314077886Y-68187446D01*
X314144553Y-68120780D01*
X314244553Y-68087446D01*
X314311220Y-68087446D01*
X314411220Y-68120780D01*
X314444553Y-68154113D01*
X314677886Y-68087446D02*
X315144553Y-68087446D01*
X314844553Y-68787446D01*
%TO.C,C6*%
X314386133Y-72266620D02*
X314352800Y-72299953D01*
X314252800Y-72333286D01*
X314186133Y-72333286D01*
X314086133Y-72299953D01*
X314019466Y-72233286D01*
X313986133Y-72166620D01*
X313952800Y-72033286D01*
X313952800Y-71933286D01*
X313986133Y-71799953D01*
X314019466Y-71733286D01*
X314086133Y-71666620D01*
X314186133Y-71633286D01*
X314252800Y-71633286D01*
X314352800Y-71666620D01*
X314386133Y-71699953D01*
X314986133Y-71633286D02*
X314852800Y-71633286D01*
X314786133Y-71666620D01*
X314752800Y-71699953D01*
X314686133Y-71799953D01*
X314652800Y-71933286D01*
X314652800Y-72199953D01*
X314686133Y-72266620D01*
X314719466Y-72299953D01*
X314786133Y-72333286D01*
X314919466Y-72333286D01*
X314986133Y-72299953D01*
X315019466Y-72266620D01*
X315052800Y-72199953D01*
X315052800Y-72033286D01*
X315019466Y-71966620D01*
X314986133Y-71933286D01*
X314919466Y-71899953D01*
X314786133Y-71899953D01*
X314719466Y-71933286D01*
X314686133Y-71966620D01*
X314652800Y-72033286D01*
%TO.C,C5*%
X347771893Y-73686480D02*
X347738560Y-73719813D01*
X347638560Y-73753146D01*
X347571893Y-73753146D01*
X347471893Y-73719813D01*
X347405226Y-73653146D01*
X347371893Y-73586480D01*
X347338560Y-73453146D01*
X347338560Y-73353146D01*
X347371893Y-73219813D01*
X347405226Y-73153146D01*
X347471893Y-73086480D01*
X347571893Y-73053146D01*
X347638560Y-73053146D01*
X347738560Y-73086480D01*
X347771893Y-73119813D01*
X348405226Y-73053146D02*
X348071893Y-73053146D01*
X348038560Y-73386480D01*
X348071893Y-73353146D01*
X348138560Y-73319813D01*
X348305226Y-73319813D01*
X348371893Y-73353146D01*
X348405226Y-73386480D01*
X348438560Y-73453146D01*
X348438560Y-73619813D01*
X348405226Y-73686480D01*
X348371893Y-73719813D01*
X348305226Y-73753146D01*
X348138560Y-73753146D01*
X348071893Y-73719813D01*
X348038560Y-73686480D01*
%TO.C,C3*%
X349575293Y-74031920D02*
X349541960Y-74065253D01*
X349441960Y-74098586D01*
X349375293Y-74098586D01*
X349275293Y-74065253D01*
X349208626Y-73998586D01*
X349175293Y-73931920D01*
X349141960Y-73798586D01*
X349141960Y-73698586D01*
X349175293Y-73565253D01*
X349208626Y-73498586D01*
X349275293Y-73431920D01*
X349375293Y-73398586D01*
X349441960Y-73398586D01*
X349541960Y-73431920D01*
X349575293Y-73465253D01*
X349808626Y-73398586D02*
X350241960Y-73398586D01*
X350008626Y-73665253D01*
X350108626Y-73665253D01*
X350175293Y-73698586D01*
X350208626Y-73731920D01*
X350241960Y-73798586D01*
X350241960Y-73965253D01*
X350208626Y-74031920D01*
X350175293Y-74065253D01*
X350108626Y-74098586D01*
X349908626Y-74098586D01*
X349841960Y-74065253D01*
X349808626Y-74031920D01*
%TO.C,C2*%
X324640113Y-76643040D02*
X324606780Y-76676373D01*
X324506780Y-76709706D01*
X324440113Y-76709706D01*
X324340113Y-76676373D01*
X324273446Y-76609706D01*
X324240113Y-76543040D01*
X324206780Y-76409706D01*
X324206780Y-76309706D01*
X324240113Y-76176373D01*
X324273446Y-76109706D01*
X324340113Y-76043040D01*
X324440113Y-76009706D01*
X324506780Y-76009706D01*
X324606780Y-76043040D01*
X324640113Y-76076373D01*
X324906780Y-76076373D02*
X324940113Y-76043040D01*
X325006780Y-76009706D01*
X325173446Y-76009706D01*
X325240113Y-76043040D01*
X325273446Y-76076373D01*
X325306780Y-76143040D01*
X325306780Y-76209706D01*
X325273446Y-76309706D01*
X324873446Y-76709706D01*
X325306780Y-76709706D01*
%TO.C,BT1*%
X341573800Y-56661000D02*
X341673800Y-56694333D01*
X341707133Y-56727666D01*
X341740466Y-56794333D01*
X341740466Y-56894333D01*
X341707133Y-56961000D01*
X341673800Y-56994333D01*
X341607133Y-57027666D01*
X341340466Y-57027666D01*
X341340466Y-56327666D01*
X341573800Y-56327666D01*
X341640466Y-56361000D01*
X341673800Y-56394333D01*
X341707133Y-56461000D01*
X341707133Y-56527666D01*
X341673800Y-56594333D01*
X341640466Y-56627666D01*
X341573800Y-56661000D01*
X341340466Y-56661000D01*
X341940466Y-56327666D02*
X342340466Y-56327666D01*
X342140466Y-57027666D02*
X342140466Y-56327666D01*
X342940466Y-57027666D02*
X342540466Y-57027666D01*
X342740466Y-57027666D02*
X342740466Y-56327666D01*
X342673800Y-56427666D01*
X342607133Y-56494333D01*
X342540466Y-56527666D01*
X336594453Y-50816280D02*
X337127786Y-50816280D01*
X358224453Y-50866280D02*
X358757786Y-50866280D01*
X358491120Y-51132946D02*
X358491120Y-50599613D01*
%TD*%
M02*
