%TF.GenerationSoftware,KiCad,Pcbnew,5.1.6-c6e7f7d~87~ubuntu20.04.1*%
%TF.CreationDate,2020-11-14T10:44:13+07:00*%
%TF.ProjectId,pas-slave-camera-hw,7061732d-736c-4617-9665-2d63616d6572,rev?*%
%TF.SameCoordinates,Original*%
%TF.FileFunction,Paste,Top*%
%TF.FilePolarity,Positive*%
%FSLAX46Y46*%
G04 Gerber Fmt 4.6, Leading zero omitted, Abs format (unit mm)*
G04 Created by KiCad (PCBNEW 5.1.6-c6e7f7d~87~ubuntu20.04.1) date 2020-11-14 10:44:13*
%MOMM*%
%LPD*%
G01*
G04 APERTURE LIST*
%ADD10R,0.800000X0.900000*%
%ADD11R,2.200000X1.500000*%
%ADD12R,1.800000X2.200000*%
%ADD13R,0.300000X1.300000*%
%ADD14R,3.000000X5.000000*%
%ADD15R,1.100000X3.000000*%
%ADD16R,2.500000X1.800000*%
%ADD17R,1.000000X1.800000*%
%ADD18R,1.600000X1.600000*%
%ADD19R,0.900000X0.800000*%
%ADD20R,0.450000X1.300000*%
%ADD21R,1.750000X0.450000*%
%ADD22R,1.500000X2.000000*%
%ADD23R,3.800000X2.000000*%
%ADD24R,5.000000X5.000000*%
%ADD25O,0.900000X3.000000*%
%ADD26R,2.300000X2.500000*%
%ADD27R,2.500000X2.300000*%
%ADD28R,3.540000X2.600000*%
%ADD29R,3.660000X2.600000*%
G04 APERTURE END LIST*
%TO.C,R42*%
G36*
G01*
X307139050Y-66922000D02*
X306626550Y-66922000D01*
G75*
G02*
X306407800Y-66703250I0J218750D01*
G01*
X306407800Y-66265750D01*
G75*
G02*
X306626550Y-66047000I218750J0D01*
G01*
X307139050Y-66047000D01*
G75*
G02*
X307357800Y-66265750I0J-218750D01*
G01*
X307357800Y-66703250D01*
G75*
G02*
X307139050Y-66922000I-218750J0D01*
G01*
G37*
G36*
G01*
X307139050Y-68497000D02*
X306626550Y-68497000D01*
G75*
G02*
X306407800Y-68278250I0J218750D01*
G01*
X306407800Y-67840750D01*
G75*
G02*
X306626550Y-67622000I218750J0D01*
G01*
X307139050Y-67622000D01*
G75*
G02*
X307357800Y-67840750I0J-218750D01*
G01*
X307357800Y-68278250D01*
G75*
G02*
X307139050Y-68497000I-218750J0D01*
G01*
G37*
%TD*%
D10*
%TO.C,U14*%
X324916800Y-95346520D03*
X323966800Y-93346520D03*
X325866800Y-93346520D03*
%TD*%
%TO.C,R41*%
G36*
G01*
X324516000Y-89278750D02*
X324516000Y-89791250D01*
G75*
G02*
X324297250Y-90010000I-218750J0D01*
G01*
X323859750Y-90010000D01*
G75*
G02*
X323641000Y-89791250I0J218750D01*
G01*
X323641000Y-89278750D01*
G75*
G02*
X323859750Y-89060000I218750J0D01*
G01*
X324297250Y-89060000D01*
G75*
G02*
X324516000Y-89278750I0J-218750D01*
G01*
G37*
G36*
G01*
X326091000Y-89278750D02*
X326091000Y-89791250D01*
G75*
G02*
X325872250Y-90010000I-218750J0D01*
G01*
X325434750Y-90010000D01*
G75*
G02*
X325216000Y-89791250I0J218750D01*
G01*
X325216000Y-89278750D01*
G75*
G02*
X325434750Y-89060000I218750J0D01*
G01*
X325872250Y-89060000D01*
G75*
G02*
X326091000Y-89278750I0J-218750D01*
G01*
G37*
%TD*%
%TO.C,R40*%
G36*
G01*
X325190500Y-91315250D02*
X325190500Y-90802750D01*
G75*
G02*
X325409250Y-90584000I218750J0D01*
G01*
X325846750Y-90584000D01*
G75*
G02*
X326065500Y-90802750I0J-218750D01*
G01*
X326065500Y-91315250D01*
G75*
G02*
X325846750Y-91534000I-218750J0D01*
G01*
X325409250Y-91534000D01*
G75*
G02*
X325190500Y-91315250I0J218750D01*
G01*
G37*
G36*
G01*
X323615500Y-91315250D02*
X323615500Y-90802750D01*
G75*
G02*
X323834250Y-90584000I218750J0D01*
G01*
X324271750Y-90584000D01*
G75*
G02*
X324490500Y-90802750I0J-218750D01*
G01*
X324490500Y-91315250D01*
G75*
G02*
X324271750Y-91534000I-218750J0D01*
G01*
X323834250Y-91534000D01*
G75*
G02*
X323615500Y-91315250I0J218750D01*
G01*
G37*
%TD*%
%TO.C,R5*%
G36*
G01*
X309250500Y-126088430D02*
X309250500Y-126600930D01*
G75*
G02*
X309031750Y-126819680I-218750J0D01*
G01*
X308594250Y-126819680D01*
G75*
G02*
X308375500Y-126600930I0J218750D01*
G01*
X308375500Y-126088430D01*
G75*
G02*
X308594250Y-125869680I218750J0D01*
G01*
X309031750Y-125869680D01*
G75*
G02*
X309250500Y-126088430I0J-218750D01*
G01*
G37*
G36*
G01*
X310825500Y-126088430D02*
X310825500Y-126600930D01*
G75*
G02*
X310606750Y-126819680I-218750J0D01*
G01*
X310169250Y-126819680D01*
G75*
G02*
X309950500Y-126600930I0J218750D01*
G01*
X309950500Y-126088430D01*
G75*
G02*
X310169250Y-125869680I218750J0D01*
G01*
X310606750Y-125869680D01*
G75*
G02*
X310825500Y-126088430I0J-218750D01*
G01*
G37*
%TD*%
%TO.C,U11*%
G36*
G01*
X354554700Y-118171560D02*
X355019700Y-118171560D01*
G75*
G02*
X355252200Y-118404060I0J-232500D01*
G01*
X355252200Y-119919060D01*
G75*
G02*
X355019700Y-120151560I-232500J0D01*
G01*
X354554700Y-120151560D01*
G75*
G02*
X354322200Y-119919060I0J232500D01*
G01*
X354322200Y-118404060D01*
G75*
G02*
X354554700Y-118171560I232500J0D01*
G01*
G37*
G36*
G01*
X355714700Y-118171560D02*
X356179700Y-118171560D01*
G75*
G02*
X356412200Y-118404060I0J-232500D01*
G01*
X356412200Y-119919060D01*
G75*
G02*
X356179700Y-120151560I-232500J0D01*
G01*
X355714700Y-120151560D01*
G75*
G02*
X355482200Y-119919060I0J232500D01*
G01*
X355482200Y-118404060D01*
G75*
G02*
X355714700Y-118171560I232500J0D01*
G01*
G37*
G36*
G01*
X357542200Y-121236560D02*
X357742200Y-121236560D01*
G75*
G02*
X357842200Y-121336560I0J-100000D01*
G01*
X357842200Y-122711560D01*
G75*
G02*
X357742200Y-122811560I-100000J0D01*
G01*
X357542200Y-122811560D01*
G75*
G02*
X357442200Y-122711560I0J100000D01*
G01*
X357442200Y-121336560D01*
G75*
G02*
X357542200Y-121236560I100000J0D01*
G01*
G37*
G36*
G01*
X356892200Y-121236560D02*
X357092200Y-121236560D01*
G75*
G02*
X357192200Y-121336560I0J-100000D01*
G01*
X357192200Y-122711560D01*
G75*
G02*
X357092200Y-122811560I-100000J0D01*
G01*
X356892200Y-122811560D01*
G75*
G02*
X356792200Y-122711560I0J100000D01*
G01*
X356792200Y-121336560D01*
G75*
G02*
X356892200Y-121236560I100000J0D01*
G01*
G37*
G36*
G01*
X356242200Y-121236560D02*
X356442200Y-121236560D01*
G75*
G02*
X356542200Y-121336560I0J-100000D01*
G01*
X356542200Y-122711560D01*
G75*
G02*
X356442200Y-122811560I-100000J0D01*
G01*
X356242200Y-122811560D01*
G75*
G02*
X356142200Y-122711560I0J100000D01*
G01*
X356142200Y-121336560D01*
G75*
G02*
X356242200Y-121236560I100000J0D01*
G01*
G37*
G36*
G01*
X355592200Y-121236560D02*
X355792200Y-121236560D01*
G75*
G02*
X355892200Y-121336560I0J-100000D01*
G01*
X355892200Y-122711560D01*
G75*
G02*
X355792200Y-122811560I-100000J0D01*
G01*
X355592200Y-122811560D01*
G75*
G02*
X355492200Y-122711560I0J100000D01*
G01*
X355492200Y-121336560D01*
G75*
G02*
X355592200Y-121236560I100000J0D01*
G01*
G37*
G36*
G01*
X354942200Y-121236560D02*
X355142200Y-121236560D01*
G75*
G02*
X355242200Y-121336560I0J-100000D01*
G01*
X355242200Y-122711560D01*
G75*
G02*
X355142200Y-122811560I-100000J0D01*
G01*
X354942200Y-122811560D01*
G75*
G02*
X354842200Y-122711560I0J100000D01*
G01*
X354842200Y-121336560D01*
G75*
G02*
X354942200Y-121236560I100000J0D01*
G01*
G37*
G36*
G01*
X354292200Y-121236560D02*
X354492200Y-121236560D01*
G75*
G02*
X354592200Y-121336560I0J-100000D01*
G01*
X354592200Y-122711560D01*
G75*
G02*
X354492200Y-122811560I-100000J0D01*
G01*
X354292200Y-122811560D01*
G75*
G02*
X354192200Y-122711560I0J100000D01*
G01*
X354192200Y-121336560D01*
G75*
G02*
X354292200Y-121236560I100000J0D01*
G01*
G37*
G36*
G01*
X353642200Y-121236560D02*
X353842200Y-121236560D01*
G75*
G02*
X353942200Y-121336560I0J-100000D01*
G01*
X353942200Y-122711560D01*
G75*
G02*
X353842200Y-122811560I-100000J0D01*
G01*
X353642200Y-122811560D01*
G75*
G02*
X353542200Y-122711560I0J100000D01*
G01*
X353542200Y-121336560D01*
G75*
G02*
X353642200Y-121236560I100000J0D01*
G01*
G37*
G36*
G01*
X352992200Y-121236560D02*
X353192200Y-121236560D01*
G75*
G02*
X353292200Y-121336560I0J-100000D01*
G01*
X353292200Y-122711560D01*
G75*
G02*
X353192200Y-122811560I-100000J0D01*
G01*
X352992200Y-122811560D01*
G75*
G02*
X352892200Y-122711560I0J100000D01*
G01*
X352892200Y-121336560D01*
G75*
G02*
X352992200Y-121236560I100000J0D01*
G01*
G37*
G36*
G01*
X352992200Y-115511560D02*
X353192200Y-115511560D01*
G75*
G02*
X353292200Y-115611560I0J-100000D01*
G01*
X353292200Y-116986560D01*
G75*
G02*
X353192200Y-117086560I-100000J0D01*
G01*
X352992200Y-117086560D01*
G75*
G02*
X352892200Y-116986560I0J100000D01*
G01*
X352892200Y-115611560D01*
G75*
G02*
X352992200Y-115511560I100000J0D01*
G01*
G37*
G36*
G01*
X353642200Y-115511560D02*
X353842200Y-115511560D01*
G75*
G02*
X353942200Y-115611560I0J-100000D01*
G01*
X353942200Y-116986560D01*
G75*
G02*
X353842200Y-117086560I-100000J0D01*
G01*
X353642200Y-117086560D01*
G75*
G02*
X353542200Y-116986560I0J100000D01*
G01*
X353542200Y-115611560D01*
G75*
G02*
X353642200Y-115511560I100000J0D01*
G01*
G37*
G36*
G01*
X354292200Y-115511560D02*
X354492200Y-115511560D01*
G75*
G02*
X354592200Y-115611560I0J-100000D01*
G01*
X354592200Y-116986560D01*
G75*
G02*
X354492200Y-117086560I-100000J0D01*
G01*
X354292200Y-117086560D01*
G75*
G02*
X354192200Y-116986560I0J100000D01*
G01*
X354192200Y-115611560D01*
G75*
G02*
X354292200Y-115511560I100000J0D01*
G01*
G37*
G36*
G01*
X354942200Y-115511560D02*
X355142200Y-115511560D01*
G75*
G02*
X355242200Y-115611560I0J-100000D01*
G01*
X355242200Y-116986560D01*
G75*
G02*
X355142200Y-117086560I-100000J0D01*
G01*
X354942200Y-117086560D01*
G75*
G02*
X354842200Y-116986560I0J100000D01*
G01*
X354842200Y-115611560D01*
G75*
G02*
X354942200Y-115511560I100000J0D01*
G01*
G37*
G36*
G01*
X355592200Y-115511560D02*
X355792200Y-115511560D01*
G75*
G02*
X355892200Y-115611560I0J-100000D01*
G01*
X355892200Y-116986560D01*
G75*
G02*
X355792200Y-117086560I-100000J0D01*
G01*
X355592200Y-117086560D01*
G75*
G02*
X355492200Y-116986560I0J100000D01*
G01*
X355492200Y-115611560D01*
G75*
G02*
X355592200Y-115511560I100000J0D01*
G01*
G37*
G36*
G01*
X356242200Y-115511560D02*
X356442200Y-115511560D01*
G75*
G02*
X356542200Y-115611560I0J-100000D01*
G01*
X356542200Y-116986560D01*
G75*
G02*
X356442200Y-117086560I-100000J0D01*
G01*
X356242200Y-117086560D01*
G75*
G02*
X356142200Y-116986560I0J100000D01*
G01*
X356142200Y-115611560D01*
G75*
G02*
X356242200Y-115511560I100000J0D01*
G01*
G37*
G36*
G01*
X356892200Y-115511560D02*
X357092200Y-115511560D01*
G75*
G02*
X357192200Y-115611560I0J-100000D01*
G01*
X357192200Y-116986560D01*
G75*
G02*
X357092200Y-117086560I-100000J0D01*
G01*
X356892200Y-117086560D01*
G75*
G02*
X356792200Y-116986560I0J100000D01*
G01*
X356792200Y-115611560D01*
G75*
G02*
X356892200Y-115511560I100000J0D01*
G01*
G37*
G36*
G01*
X357542200Y-115511560D02*
X357742200Y-115511560D01*
G75*
G02*
X357842200Y-115611560I0J-100000D01*
G01*
X357842200Y-116986560D01*
G75*
G02*
X357742200Y-117086560I-100000J0D01*
G01*
X357542200Y-117086560D01*
G75*
G02*
X357442200Y-116986560I0J100000D01*
G01*
X357442200Y-115611560D01*
G75*
G02*
X357542200Y-115511560I100000J0D01*
G01*
G37*
%TD*%
%TO.C,C4*%
G36*
G01*
X351282520Y-111371670D02*
X351282520Y-111884170D01*
G75*
G02*
X351063770Y-112102920I-218750J0D01*
G01*
X350626270Y-112102920D01*
G75*
G02*
X350407520Y-111884170I0J218750D01*
G01*
X350407520Y-111371670D01*
G75*
G02*
X350626270Y-111152920I218750J0D01*
G01*
X351063770Y-111152920D01*
G75*
G02*
X351282520Y-111371670I0J-218750D01*
G01*
G37*
G36*
G01*
X352857520Y-111371670D02*
X352857520Y-111884170D01*
G75*
G02*
X352638770Y-112102920I-218750J0D01*
G01*
X352201270Y-112102920D01*
G75*
G02*
X351982520Y-111884170I0J218750D01*
G01*
X351982520Y-111371670D01*
G75*
G02*
X352201270Y-111152920I218750J0D01*
G01*
X352638770Y-111152920D01*
G75*
G02*
X352857520Y-111371670I0J-218750D01*
G01*
G37*
%TD*%
%TO.C,C10*%
G36*
G01*
X320754030Y-70863040D02*
X321266530Y-70863040D01*
G75*
G02*
X321485280Y-71081790I0J-218750D01*
G01*
X321485280Y-71519290D01*
G75*
G02*
X321266530Y-71738040I-218750J0D01*
G01*
X320754030Y-71738040D01*
G75*
G02*
X320535280Y-71519290I0J218750D01*
G01*
X320535280Y-71081790D01*
G75*
G02*
X320754030Y-70863040I218750J0D01*
G01*
G37*
G36*
G01*
X320754030Y-69288040D02*
X321266530Y-69288040D01*
G75*
G02*
X321485280Y-69506790I0J-218750D01*
G01*
X321485280Y-69944290D01*
G75*
G02*
X321266530Y-70163040I-218750J0D01*
G01*
X320754030Y-70163040D01*
G75*
G02*
X320535280Y-69944290I0J218750D01*
G01*
X320535280Y-69506790D01*
G75*
G02*
X320754030Y-69288040I218750J0D01*
G01*
G37*
%TD*%
D11*
%TO.C,L1*%
X316255400Y-92715480D03*
X316255400Y-99115480D03*
%TD*%
D12*
%TO.C,U9*%
X324088680Y-66715240D03*
D13*
X332488680Y-70015240D03*
X333488680Y-70015240D03*
X331488680Y-70015240D03*
X333988680Y-70015240D03*
X334488680Y-70015240D03*
X332988680Y-70015240D03*
X330988680Y-70015240D03*
X329488680Y-70015240D03*
X326488680Y-70015240D03*
X327488680Y-70015240D03*
X331988680Y-70015240D03*
X326988680Y-70015240D03*
X335988680Y-70015240D03*
X336488680Y-70015240D03*
X330488680Y-70015240D03*
X328488680Y-70015240D03*
X334988680Y-70015240D03*
X335488680Y-70015240D03*
X336988680Y-70015240D03*
X337488680Y-70015240D03*
D12*
X339388680Y-66715240D03*
D13*
X325988680Y-70015240D03*
X327988680Y-70015240D03*
X328988680Y-70015240D03*
X329988680Y-70015240D03*
%TD*%
D14*
%TO.C,J3*%
X321600000Y-53360340D03*
X336600000Y-53360340D03*
D15*
X325600000Y-56060340D03*
X328100000Y-56060340D03*
X330100000Y-56060340D03*
X332600000Y-56060340D03*
%TD*%
%TO.C,C1*%
G36*
G01*
X356946500Y-129472000D02*
X356946500Y-127322000D01*
G75*
G02*
X357196500Y-127072000I250000J0D01*
G01*
X357946500Y-127072000D01*
G75*
G02*
X358196500Y-127322000I0J-250000D01*
G01*
X358196500Y-129472000D01*
G75*
G02*
X357946500Y-129722000I-250000J0D01*
G01*
X357196500Y-129722000D01*
G75*
G02*
X356946500Y-129472000I0J250000D01*
G01*
G37*
G36*
G01*
X354146500Y-129472000D02*
X354146500Y-127322000D01*
G75*
G02*
X354396500Y-127072000I250000J0D01*
G01*
X355146500Y-127072000D01*
G75*
G02*
X355396500Y-127322000I0J-250000D01*
G01*
X355396500Y-129472000D01*
G75*
G02*
X355146500Y-129722000I-250000J0D01*
G01*
X354396500Y-129722000D01*
G75*
G02*
X354146500Y-129472000I0J250000D01*
G01*
G37*
%TD*%
D16*
%TO.C,D12*%
X326315320Y-116961920D03*
X330315320Y-116961920D03*
%TD*%
%TO.C,D10*%
X343318600Y-121945400D03*
X339318600Y-121945400D03*
%TD*%
%TO.C,R4*%
G36*
G01*
X324551460Y-87767450D02*
X324551460Y-88279950D01*
G75*
G02*
X324332710Y-88498700I-218750J0D01*
G01*
X323895210Y-88498700D01*
G75*
G02*
X323676460Y-88279950I0J218750D01*
G01*
X323676460Y-87767450D01*
G75*
G02*
X323895210Y-87548700I218750J0D01*
G01*
X324332710Y-87548700D01*
G75*
G02*
X324551460Y-87767450I0J-218750D01*
G01*
G37*
G36*
G01*
X326126460Y-87767450D02*
X326126460Y-88279950D01*
G75*
G02*
X325907710Y-88498700I-218750J0D01*
G01*
X325470210Y-88498700D01*
G75*
G02*
X325251460Y-88279950I0J218750D01*
G01*
X325251460Y-87767450D01*
G75*
G02*
X325470210Y-87548700I218750J0D01*
G01*
X325907710Y-87548700D01*
G75*
G02*
X326126460Y-87767450I0J-218750D01*
G01*
G37*
%TD*%
%TO.C,U5*%
G36*
G01*
X353637900Y-62118600D02*
X353337900Y-62118600D01*
G75*
G02*
X353187900Y-61968600I0J150000D01*
G01*
X353187900Y-60318600D01*
G75*
G02*
X353337900Y-60168600I150000J0D01*
G01*
X353637900Y-60168600D01*
G75*
G02*
X353787900Y-60318600I0J-150000D01*
G01*
X353787900Y-61968600D01*
G75*
G02*
X353637900Y-62118600I-150000J0D01*
G01*
G37*
G36*
G01*
X354907900Y-62118600D02*
X354607900Y-62118600D01*
G75*
G02*
X354457900Y-61968600I0J150000D01*
G01*
X354457900Y-60318600D01*
G75*
G02*
X354607900Y-60168600I150000J0D01*
G01*
X354907900Y-60168600D01*
G75*
G02*
X355057900Y-60318600I0J-150000D01*
G01*
X355057900Y-61968600D01*
G75*
G02*
X354907900Y-62118600I-150000J0D01*
G01*
G37*
G36*
G01*
X356177900Y-62118600D02*
X355877900Y-62118600D01*
G75*
G02*
X355727900Y-61968600I0J150000D01*
G01*
X355727900Y-60318600D01*
G75*
G02*
X355877900Y-60168600I150000J0D01*
G01*
X356177900Y-60168600D01*
G75*
G02*
X356327900Y-60318600I0J-150000D01*
G01*
X356327900Y-61968600D01*
G75*
G02*
X356177900Y-62118600I-150000J0D01*
G01*
G37*
G36*
G01*
X357447900Y-62118600D02*
X357147900Y-62118600D01*
G75*
G02*
X356997900Y-61968600I0J150000D01*
G01*
X356997900Y-60318600D01*
G75*
G02*
X357147900Y-60168600I150000J0D01*
G01*
X357447900Y-60168600D01*
G75*
G02*
X357597900Y-60318600I0J-150000D01*
G01*
X357597900Y-61968600D01*
G75*
G02*
X357447900Y-62118600I-150000J0D01*
G01*
G37*
G36*
G01*
X357447900Y-67068600D02*
X357147900Y-67068600D01*
G75*
G02*
X356997900Y-66918600I0J150000D01*
G01*
X356997900Y-65268600D01*
G75*
G02*
X357147900Y-65118600I150000J0D01*
G01*
X357447900Y-65118600D01*
G75*
G02*
X357597900Y-65268600I0J-150000D01*
G01*
X357597900Y-66918600D01*
G75*
G02*
X357447900Y-67068600I-150000J0D01*
G01*
G37*
G36*
G01*
X356177900Y-67068600D02*
X355877900Y-67068600D01*
G75*
G02*
X355727900Y-66918600I0J150000D01*
G01*
X355727900Y-65268600D01*
G75*
G02*
X355877900Y-65118600I150000J0D01*
G01*
X356177900Y-65118600D01*
G75*
G02*
X356327900Y-65268600I0J-150000D01*
G01*
X356327900Y-66918600D01*
G75*
G02*
X356177900Y-67068600I-150000J0D01*
G01*
G37*
G36*
G01*
X354907900Y-67068600D02*
X354607900Y-67068600D01*
G75*
G02*
X354457900Y-66918600I0J150000D01*
G01*
X354457900Y-65268600D01*
G75*
G02*
X354607900Y-65118600I150000J0D01*
G01*
X354907900Y-65118600D01*
G75*
G02*
X355057900Y-65268600I0J-150000D01*
G01*
X355057900Y-66918600D01*
G75*
G02*
X354907900Y-67068600I-150000J0D01*
G01*
G37*
G36*
G01*
X353637900Y-67068600D02*
X353337900Y-67068600D01*
G75*
G02*
X353187900Y-66918600I0J150000D01*
G01*
X353187900Y-65268600D01*
G75*
G02*
X353337900Y-65118600I150000J0D01*
G01*
X353637900Y-65118600D01*
G75*
G02*
X353787900Y-65268600I0J-150000D01*
G01*
X353787900Y-66918600D01*
G75*
G02*
X353637900Y-67068600I-150000J0D01*
G01*
G37*
%TD*%
D17*
%TO.C,Y1*%
X355992900Y-68543600D03*
X353492900Y-68543600D03*
%TD*%
%TO.C,U10*%
G36*
G01*
X312173480Y-70950180D02*
X312473480Y-70950180D01*
G75*
G02*
X312623480Y-71100180I0J-150000D01*
G01*
X312623480Y-72750180D01*
G75*
G02*
X312473480Y-72900180I-150000J0D01*
G01*
X312173480Y-72900180D01*
G75*
G02*
X312023480Y-72750180I0J150000D01*
G01*
X312023480Y-71100180D01*
G75*
G02*
X312173480Y-70950180I150000J0D01*
G01*
G37*
G36*
G01*
X310903480Y-70950180D02*
X311203480Y-70950180D01*
G75*
G02*
X311353480Y-71100180I0J-150000D01*
G01*
X311353480Y-72750180D01*
G75*
G02*
X311203480Y-72900180I-150000J0D01*
G01*
X310903480Y-72900180D01*
G75*
G02*
X310753480Y-72750180I0J150000D01*
G01*
X310753480Y-71100180D01*
G75*
G02*
X310903480Y-70950180I150000J0D01*
G01*
G37*
G36*
G01*
X309633480Y-70950180D02*
X309933480Y-70950180D01*
G75*
G02*
X310083480Y-71100180I0J-150000D01*
G01*
X310083480Y-72750180D01*
G75*
G02*
X309933480Y-72900180I-150000J0D01*
G01*
X309633480Y-72900180D01*
G75*
G02*
X309483480Y-72750180I0J150000D01*
G01*
X309483480Y-71100180D01*
G75*
G02*
X309633480Y-70950180I150000J0D01*
G01*
G37*
G36*
G01*
X308363480Y-70950180D02*
X308663480Y-70950180D01*
G75*
G02*
X308813480Y-71100180I0J-150000D01*
G01*
X308813480Y-72750180D01*
G75*
G02*
X308663480Y-72900180I-150000J0D01*
G01*
X308363480Y-72900180D01*
G75*
G02*
X308213480Y-72750180I0J150000D01*
G01*
X308213480Y-71100180D01*
G75*
G02*
X308363480Y-70950180I150000J0D01*
G01*
G37*
G36*
G01*
X308363480Y-66000180D02*
X308663480Y-66000180D01*
G75*
G02*
X308813480Y-66150180I0J-150000D01*
G01*
X308813480Y-67800180D01*
G75*
G02*
X308663480Y-67950180I-150000J0D01*
G01*
X308363480Y-67950180D01*
G75*
G02*
X308213480Y-67800180I0J150000D01*
G01*
X308213480Y-66150180D01*
G75*
G02*
X308363480Y-66000180I150000J0D01*
G01*
G37*
G36*
G01*
X309633480Y-66000180D02*
X309933480Y-66000180D01*
G75*
G02*
X310083480Y-66150180I0J-150000D01*
G01*
X310083480Y-67800180D01*
G75*
G02*
X309933480Y-67950180I-150000J0D01*
G01*
X309633480Y-67950180D01*
G75*
G02*
X309483480Y-67800180I0J150000D01*
G01*
X309483480Y-66150180D01*
G75*
G02*
X309633480Y-66000180I150000J0D01*
G01*
G37*
G36*
G01*
X310903480Y-66000180D02*
X311203480Y-66000180D01*
G75*
G02*
X311353480Y-66150180I0J-150000D01*
G01*
X311353480Y-67800180D01*
G75*
G02*
X311203480Y-67950180I-150000J0D01*
G01*
X310903480Y-67950180D01*
G75*
G02*
X310753480Y-67800180I0J150000D01*
G01*
X310753480Y-66150180D01*
G75*
G02*
X310903480Y-66000180I150000J0D01*
G01*
G37*
G36*
G01*
X312173480Y-66000180D02*
X312473480Y-66000180D01*
G75*
G02*
X312623480Y-66150180I0J-150000D01*
G01*
X312623480Y-67800180D01*
G75*
G02*
X312473480Y-67950180I-150000J0D01*
G01*
X312173480Y-67950180D01*
G75*
G02*
X312023480Y-67800180I0J150000D01*
G01*
X312023480Y-66150180D01*
G75*
G02*
X312173480Y-66000180I150000J0D01*
G01*
G37*
%TD*%
D18*
%TO.C,U8*%
X309813960Y-56032400D03*
X317433960Y-53492400D03*
X309813960Y-53492400D03*
X317433960Y-56032400D03*
%TD*%
%TO.C,U3*%
G36*
G01*
X310600000Y-93935000D02*
X309830000Y-93935000D01*
G75*
G02*
X309590000Y-93695000I0J240000D01*
G01*
X309590000Y-93215000D01*
G75*
G02*
X309830000Y-92975000I240000J0D01*
G01*
X310600000Y-92975000D01*
G75*
G02*
X310840000Y-93215000I0J-240000D01*
G01*
X310840000Y-93695000D01*
G75*
G02*
X310600000Y-93935000I-240000J0D01*
G01*
G37*
G36*
G01*
X309100000Y-93935000D02*
X308330000Y-93935000D01*
G75*
G02*
X308090000Y-93695000I0J240000D01*
G01*
X308090000Y-93215000D01*
G75*
G02*
X308330000Y-92975000I240000J0D01*
G01*
X309100000Y-92975000D01*
G75*
G02*
X309340000Y-93215000I0J-240000D01*
G01*
X309340000Y-93695000D01*
G75*
G02*
X309100000Y-93935000I-240000J0D01*
G01*
G37*
G36*
G01*
X310600000Y-95075000D02*
X309830000Y-95075000D01*
G75*
G02*
X309590000Y-94835000I0J240000D01*
G01*
X309590000Y-94355000D01*
G75*
G02*
X309830000Y-94115000I240000J0D01*
G01*
X310600000Y-94115000D01*
G75*
G02*
X310840000Y-94355000I0J-240000D01*
G01*
X310840000Y-94835000D01*
G75*
G02*
X310600000Y-95075000I-240000J0D01*
G01*
G37*
G36*
G01*
X309100000Y-95075000D02*
X308330000Y-95075000D01*
G75*
G02*
X308090000Y-94835000I0J240000D01*
G01*
X308090000Y-94355000D01*
G75*
G02*
X308330000Y-94115000I240000J0D01*
G01*
X309100000Y-94115000D01*
G75*
G02*
X309340000Y-94355000I0J-240000D01*
G01*
X309340000Y-94835000D01*
G75*
G02*
X309100000Y-95075000I-240000J0D01*
G01*
G37*
G36*
G01*
X307710000Y-92525000D02*
X307410000Y-92525000D01*
G75*
G02*
X307260000Y-92375000I0J150000D01*
G01*
X307260000Y-90725000D01*
G75*
G02*
X307410000Y-90575000I150000J0D01*
G01*
X307710000Y-90575000D01*
G75*
G02*
X307860000Y-90725000I0J-150000D01*
G01*
X307860000Y-92375000D01*
G75*
G02*
X307710000Y-92525000I-150000J0D01*
G01*
G37*
G36*
G01*
X308980000Y-92525000D02*
X308680000Y-92525000D01*
G75*
G02*
X308530000Y-92375000I0J150000D01*
G01*
X308530000Y-90725000D01*
G75*
G02*
X308680000Y-90575000I150000J0D01*
G01*
X308980000Y-90575000D01*
G75*
G02*
X309130000Y-90725000I0J-150000D01*
G01*
X309130000Y-92375000D01*
G75*
G02*
X308980000Y-92525000I-150000J0D01*
G01*
G37*
G36*
G01*
X310250000Y-92525000D02*
X309950000Y-92525000D01*
G75*
G02*
X309800000Y-92375000I0J150000D01*
G01*
X309800000Y-90725000D01*
G75*
G02*
X309950000Y-90575000I150000J0D01*
G01*
X310250000Y-90575000D01*
G75*
G02*
X310400000Y-90725000I0J-150000D01*
G01*
X310400000Y-92375000D01*
G75*
G02*
X310250000Y-92525000I-150000J0D01*
G01*
G37*
G36*
G01*
X311520000Y-92525000D02*
X311220000Y-92525000D01*
G75*
G02*
X311070000Y-92375000I0J150000D01*
G01*
X311070000Y-90725000D01*
G75*
G02*
X311220000Y-90575000I150000J0D01*
G01*
X311520000Y-90575000D01*
G75*
G02*
X311670000Y-90725000I0J-150000D01*
G01*
X311670000Y-92375000D01*
G75*
G02*
X311520000Y-92525000I-150000J0D01*
G01*
G37*
G36*
G01*
X311520000Y-97475000D02*
X311220000Y-97475000D01*
G75*
G02*
X311070000Y-97325000I0J150000D01*
G01*
X311070000Y-95675000D01*
G75*
G02*
X311220000Y-95525000I150000J0D01*
G01*
X311520000Y-95525000D01*
G75*
G02*
X311670000Y-95675000I0J-150000D01*
G01*
X311670000Y-97325000D01*
G75*
G02*
X311520000Y-97475000I-150000J0D01*
G01*
G37*
G36*
G01*
X310250000Y-97475000D02*
X309950000Y-97475000D01*
G75*
G02*
X309800000Y-97325000I0J150000D01*
G01*
X309800000Y-95675000D01*
G75*
G02*
X309950000Y-95525000I150000J0D01*
G01*
X310250000Y-95525000D01*
G75*
G02*
X310400000Y-95675000I0J-150000D01*
G01*
X310400000Y-97325000D01*
G75*
G02*
X310250000Y-97475000I-150000J0D01*
G01*
G37*
G36*
G01*
X308980000Y-97475000D02*
X308680000Y-97475000D01*
G75*
G02*
X308530000Y-97325000I0J150000D01*
G01*
X308530000Y-95675000D01*
G75*
G02*
X308680000Y-95525000I150000J0D01*
G01*
X308980000Y-95525000D01*
G75*
G02*
X309130000Y-95675000I0J-150000D01*
G01*
X309130000Y-97325000D01*
G75*
G02*
X308980000Y-97475000I-150000J0D01*
G01*
G37*
G36*
G01*
X307710000Y-97475000D02*
X307410000Y-97475000D01*
G75*
G02*
X307260000Y-97325000I0J150000D01*
G01*
X307260000Y-95675000D01*
G75*
G02*
X307410000Y-95525000I150000J0D01*
G01*
X307710000Y-95525000D01*
G75*
G02*
X307860000Y-95675000I0J-150000D01*
G01*
X307860000Y-97325000D01*
G75*
G02*
X307710000Y-97475000I-150000J0D01*
G01*
G37*
%TD*%
%TO.C,TH3*%
G36*
G01*
X343537201Y-137366900D02*
X340637199Y-137366900D01*
G75*
G02*
X340387200Y-137116901I0J249999D01*
G01*
X340387200Y-136491899D01*
G75*
G02*
X340637199Y-136241900I249999J0D01*
G01*
X343537201Y-136241900D01*
G75*
G02*
X343787200Y-136491899I0J-249999D01*
G01*
X343787200Y-137116901D01*
G75*
G02*
X343537201Y-137366900I-249999J0D01*
G01*
G37*
G36*
G01*
X343537201Y-133091900D02*
X340637199Y-133091900D01*
G75*
G02*
X340387200Y-132841901I0J249999D01*
G01*
X340387200Y-132216899D01*
G75*
G02*
X340637199Y-131966900I249999J0D01*
G01*
X343537201Y-131966900D01*
G75*
G02*
X343787200Y-132216899I0J-249999D01*
G01*
X343787200Y-132841901D01*
G75*
G02*
X343537201Y-133091900I-249999J0D01*
G01*
G37*
%TD*%
%TO.C,TH2*%
G36*
G01*
X323898460Y-103593561D02*
X323898460Y-100693559D01*
G75*
G02*
X324148459Y-100443560I249999J0D01*
G01*
X324773461Y-100443560D01*
G75*
G02*
X325023460Y-100693559I0J-249999D01*
G01*
X325023460Y-103593561D01*
G75*
G02*
X324773461Y-103843560I-249999J0D01*
G01*
X324148459Y-103843560D01*
G75*
G02*
X323898460Y-103593561I0J249999D01*
G01*
G37*
G36*
G01*
X319623460Y-103593561D02*
X319623460Y-100693559D01*
G75*
G02*
X319873459Y-100443560I249999J0D01*
G01*
X320498461Y-100443560D01*
G75*
G02*
X320748460Y-100693559I0J-249999D01*
G01*
X320748460Y-103593561D01*
G75*
G02*
X320498461Y-103843560I-249999J0D01*
G01*
X319873459Y-103843560D01*
G75*
G02*
X319623460Y-103593561I0J249999D01*
G01*
G37*
%TD*%
%TO.C,TH1*%
G36*
G01*
X323913700Y-107525481D02*
X323913700Y-104625479D01*
G75*
G02*
X324163699Y-104375480I249999J0D01*
G01*
X324788701Y-104375480D01*
G75*
G02*
X325038700Y-104625479I0J-249999D01*
G01*
X325038700Y-107525481D01*
G75*
G02*
X324788701Y-107775480I-249999J0D01*
G01*
X324163699Y-107775480D01*
G75*
G02*
X323913700Y-107525481I0J249999D01*
G01*
G37*
G36*
G01*
X319638700Y-107525481D02*
X319638700Y-104625479D01*
G75*
G02*
X319888699Y-104375480I249999J0D01*
G01*
X320513701Y-104375480D01*
G75*
G02*
X320763700Y-104625479I0J-249999D01*
G01*
X320763700Y-107525481D01*
G75*
G02*
X320513701Y-107775480I-249999J0D01*
G01*
X319888699Y-107775480D01*
G75*
G02*
X319638700Y-107525481I0J249999D01*
G01*
G37*
%TD*%
D19*
%TO.C,Q2*%
X320885820Y-60690760D03*
X322885820Y-59740760D03*
X322885820Y-61640760D03*
%TD*%
%TO.C,Q1*%
X317476900Y-74273600D03*
X319476900Y-73323600D03*
X319476900Y-75223600D03*
%TD*%
D20*
%TO.C,J4*%
X313010000Y-49380000D03*
X313660000Y-49380000D03*
X314310000Y-49380000D03*
X314960000Y-49380000D03*
X315610000Y-49380000D03*
%TD*%
D21*
%TO.C,U7*%
X342742400Y-69380400D03*
X342742400Y-68730400D03*
X342742400Y-68080400D03*
X342742400Y-67430400D03*
X342742400Y-66780400D03*
X342742400Y-66130400D03*
X342742400Y-65480400D03*
X342742400Y-64830400D03*
X342742400Y-64180400D03*
X342742400Y-63530400D03*
X342742400Y-62880400D03*
X342742400Y-62230400D03*
X342742400Y-61580400D03*
X342742400Y-60930400D03*
X349942400Y-60930400D03*
X349942400Y-61580400D03*
X349942400Y-62230400D03*
X349942400Y-62880400D03*
X349942400Y-63530400D03*
X349942400Y-64180400D03*
X349942400Y-64830400D03*
X349942400Y-65480400D03*
X349942400Y-66130400D03*
X349942400Y-66780400D03*
X349942400Y-67430400D03*
X349942400Y-68080400D03*
X349942400Y-68730400D03*
X349942400Y-69380400D03*
%TD*%
D22*
%TO.C,U6*%
X306275000Y-84475000D03*
X310875000Y-84475000D03*
X308575000Y-84475000D03*
D23*
X308575000Y-78175000D03*
%TD*%
D24*
%TO.C,U4*%
X343964260Y-88178640D03*
D25*
X350894260Y-79588640D03*
X349624260Y-79588640D03*
X348354260Y-79588640D03*
X347084260Y-79588640D03*
X345814260Y-79588640D03*
X344544260Y-79588640D03*
X343274260Y-79588640D03*
X342004260Y-79588640D03*
X340734260Y-79588640D03*
X339464260Y-79588640D03*
X338194260Y-79588640D03*
X336924260Y-79588640D03*
X335654260Y-79588640D03*
X334384260Y-79588640D03*
X333084260Y-79588640D03*
X331814260Y-79588640D03*
X330544260Y-79588640D03*
X329274260Y-79588640D03*
X328004260Y-79588640D03*
X328004260Y-97588640D03*
X329274260Y-97588640D03*
X330544260Y-97588640D03*
X331814260Y-97588640D03*
X333084260Y-97588640D03*
X334384260Y-97618640D03*
X335654260Y-97618640D03*
X336924260Y-97618640D03*
X338194260Y-97618640D03*
X339464260Y-97618640D03*
X340734260Y-97618640D03*
X342004260Y-97618640D03*
X343274260Y-97618640D03*
X344544260Y-97618640D03*
X345814260Y-97618640D03*
X347084260Y-97618640D03*
X348354260Y-97618640D03*
X349624260Y-97618640D03*
X350894260Y-97618640D03*
%TD*%
D19*
%TO.C,U2*%
X317527700Y-67127080D03*
X319527700Y-66177080D03*
X319527700Y-68077080D03*
%TD*%
%TO.C,U1*%
X317502300Y-70695660D03*
X319502300Y-69745660D03*
X319502300Y-71645660D03*
%TD*%
%TO.C,R39*%
G36*
G01*
X337373260Y-60499670D02*
X337373260Y-59987170D01*
G75*
G02*
X337592010Y-59768420I218750J0D01*
G01*
X338029510Y-59768420D01*
G75*
G02*
X338248260Y-59987170I0J-218750D01*
G01*
X338248260Y-60499670D01*
G75*
G02*
X338029510Y-60718420I-218750J0D01*
G01*
X337592010Y-60718420D01*
G75*
G02*
X337373260Y-60499670I0J218750D01*
G01*
G37*
G36*
G01*
X335798260Y-60499670D02*
X335798260Y-59987170D01*
G75*
G02*
X336017010Y-59768420I218750J0D01*
G01*
X336454510Y-59768420D01*
G75*
G02*
X336673260Y-59987170I0J-218750D01*
G01*
X336673260Y-60499670D01*
G75*
G02*
X336454510Y-60718420I-218750J0D01*
G01*
X336017010Y-60718420D01*
G75*
G02*
X335798260Y-60499670I0J218750D01*
G01*
G37*
%TD*%
%TO.C,R38*%
G36*
G01*
X351982420Y-113415790D02*
X351982420Y-112903290D01*
G75*
G02*
X352201170Y-112684540I218750J0D01*
G01*
X352638670Y-112684540D01*
G75*
G02*
X352857420Y-112903290I0J-218750D01*
G01*
X352857420Y-113415790D01*
G75*
G02*
X352638670Y-113634540I-218750J0D01*
G01*
X352201170Y-113634540D01*
G75*
G02*
X351982420Y-113415790I0J218750D01*
G01*
G37*
G36*
G01*
X350407420Y-113415790D02*
X350407420Y-112903290D01*
G75*
G02*
X350626170Y-112684540I218750J0D01*
G01*
X351063670Y-112684540D01*
G75*
G02*
X351282420Y-112903290I0J-218750D01*
G01*
X351282420Y-113415790D01*
G75*
G02*
X351063670Y-113634540I-218750J0D01*
G01*
X350626170Y-113634540D01*
G75*
G02*
X350407420Y-113415790I0J218750D01*
G01*
G37*
%TD*%
%TO.C,R37*%
G36*
G01*
X351985160Y-110266190D02*
X351985160Y-109753690D01*
G75*
G02*
X352203910Y-109534940I218750J0D01*
G01*
X352641410Y-109534940D01*
G75*
G02*
X352860160Y-109753690I0J-218750D01*
G01*
X352860160Y-110266190D01*
G75*
G02*
X352641410Y-110484940I-218750J0D01*
G01*
X352203910Y-110484940D01*
G75*
G02*
X351985160Y-110266190I0J218750D01*
G01*
G37*
G36*
G01*
X350410160Y-110266190D02*
X350410160Y-109753690D01*
G75*
G02*
X350628910Y-109534940I218750J0D01*
G01*
X351066410Y-109534940D01*
G75*
G02*
X351285160Y-109753690I0J-218750D01*
G01*
X351285160Y-110266190D01*
G75*
G02*
X351066410Y-110484940I-218750J0D01*
G01*
X350628910Y-110484940D01*
G75*
G02*
X350410160Y-110266190I0J218750D01*
G01*
G37*
%TD*%
%TO.C,R36*%
G36*
G01*
X343704500Y-128458990D02*
X343704500Y-127946490D01*
G75*
G02*
X343923250Y-127727740I218750J0D01*
G01*
X344360750Y-127727740D01*
G75*
G02*
X344579500Y-127946490I0J-218750D01*
G01*
X344579500Y-128458990D01*
G75*
G02*
X344360750Y-128677740I-218750J0D01*
G01*
X343923250Y-128677740D01*
G75*
G02*
X343704500Y-128458990I0J218750D01*
G01*
G37*
G36*
G01*
X342129500Y-128458990D02*
X342129500Y-127946490D01*
G75*
G02*
X342348250Y-127727740I218750J0D01*
G01*
X342785750Y-127727740D01*
G75*
G02*
X343004500Y-127946490I0J-218750D01*
G01*
X343004500Y-128458990D01*
G75*
G02*
X342785750Y-128677740I-218750J0D01*
G01*
X342348250Y-128677740D01*
G75*
G02*
X342129500Y-128458990I0J218750D01*
G01*
G37*
%TD*%
%TO.C,R35*%
G36*
G01*
X343754500Y-129983990D02*
X343754500Y-129471490D01*
G75*
G02*
X343973250Y-129252740I218750J0D01*
G01*
X344410750Y-129252740D01*
G75*
G02*
X344629500Y-129471490I0J-218750D01*
G01*
X344629500Y-129983990D01*
G75*
G02*
X344410750Y-130202740I-218750J0D01*
G01*
X343973250Y-130202740D01*
G75*
G02*
X343754500Y-129983990I0J218750D01*
G01*
G37*
G36*
G01*
X342179500Y-129983990D02*
X342179500Y-129471490D01*
G75*
G02*
X342398250Y-129252740I218750J0D01*
G01*
X342835750Y-129252740D01*
G75*
G02*
X343054500Y-129471490I0J-218750D01*
G01*
X343054500Y-129983990D01*
G75*
G02*
X342835750Y-130202740I-218750J0D01*
G01*
X342398250Y-130202740D01*
G75*
G02*
X342179500Y-129983990I0J218750D01*
G01*
G37*
%TD*%
%TO.C,R34*%
G36*
G01*
X309319280Y-127686090D02*
X309319280Y-128198590D01*
G75*
G02*
X309100530Y-128417340I-218750J0D01*
G01*
X308663030Y-128417340D01*
G75*
G02*
X308444280Y-128198590I0J218750D01*
G01*
X308444280Y-127686090D01*
G75*
G02*
X308663030Y-127467340I218750J0D01*
G01*
X309100530Y-127467340D01*
G75*
G02*
X309319280Y-127686090I0J-218750D01*
G01*
G37*
G36*
G01*
X310894280Y-127686090D02*
X310894280Y-128198590D01*
G75*
G02*
X310675530Y-128417340I-218750J0D01*
G01*
X310238030Y-128417340D01*
G75*
G02*
X310019280Y-128198590I0J218750D01*
G01*
X310019280Y-127686090D01*
G75*
G02*
X310238030Y-127467340I218750J0D01*
G01*
X310675530Y-127467340D01*
G75*
G02*
X310894280Y-127686090I0J-218750D01*
G01*
G37*
%TD*%
%TO.C,R33*%
G36*
G01*
X347329100Y-128458590D02*
X347329100Y-127946090D01*
G75*
G02*
X347547850Y-127727340I218750J0D01*
G01*
X347985350Y-127727340D01*
G75*
G02*
X348204100Y-127946090I0J-218750D01*
G01*
X348204100Y-128458590D01*
G75*
G02*
X347985350Y-128677340I-218750J0D01*
G01*
X347547850Y-128677340D01*
G75*
G02*
X347329100Y-128458590I0J218750D01*
G01*
G37*
G36*
G01*
X345754100Y-128458590D02*
X345754100Y-127946090D01*
G75*
G02*
X345972850Y-127727340I218750J0D01*
G01*
X346410350Y-127727340D01*
G75*
G02*
X346629100Y-127946090I0J-218750D01*
G01*
X346629100Y-128458590D01*
G75*
G02*
X346410350Y-128677340I-218750J0D01*
G01*
X345972850Y-128677340D01*
G75*
G02*
X345754100Y-128458590I0J218750D01*
G01*
G37*
%TD*%
%TO.C,R32*%
G36*
G01*
X347329100Y-129983590D02*
X347329100Y-129471090D01*
G75*
G02*
X347547850Y-129252340I218750J0D01*
G01*
X347985350Y-129252340D01*
G75*
G02*
X348204100Y-129471090I0J-218750D01*
G01*
X348204100Y-129983590D01*
G75*
G02*
X347985350Y-130202340I-218750J0D01*
G01*
X347547850Y-130202340D01*
G75*
G02*
X347329100Y-129983590I0J218750D01*
G01*
G37*
G36*
G01*
X345754100Y-129983590D02*
X345754100Y-129471090D01*
G75*
G02*
X345972850Y-129252340I218750J0D01*
G01*
X346410350Y-129252340D01*
G75*
G02*
X346629100Y-129471090I0J-218750D01*
G01*
X346629100Y-129983590D01*
G75*
G02*
X346410350Y-130202340I-218750J0D01*
G01*
X345972850Y-130202340D01*
G75*
G02*
X345754100Y-129983590I0J218750D01*
G01*
G37*
%TD*%
%TO.C,R31*%
G36*
G01*
X309312680Y-129217070D02*
X309312680Y-129729570D01*
G75*
G02*
X309093930Y-129948320I-218750J0D01*
G01*
X308656430Y-129948320D01*
G75*
G02*
X308437680Y-129729570I0J218750D01*
G01*
X308437680Y-129217070D01*
G75*
G02*
X308656430Y-128998320I218750J0D01*
G01*
X309093930Y-128998320D01*
G75*
G02*
X309312680Y-129217070I0J-218750D01*
G01*
G37*
G36*
G01*
X310887680Y-129217070D02*
X310887680Y-129729570D01*
G75*
G02*
X310668930Y-129948320I-218750J0D01*
G01*
X310231430Y-129948320D01*
G75*
G02*
X310012680Y-129729570I0J218750D01*
G01*
X310012680Y-129217070D01*
G75*
G02*
X310231430Y-128998320I218750J0D01*
G01*
X310668930Y-128998320D01*
G75*
G02*
X310887680Y-129217070I0J-218750D01*
G01*
G37*
%TD*%
%TO.C,R30*%
G36*
G01*
X307612070Y-75069080D02*
X308124570Y-75069080D01*
G75*
G02*
X308343320Y-75287830I0J-218750D01*
G01*
X308343320Y-75725330D01*
G75*
G02*
X308124570Y-75944080I-218750J0D01*
G01*
X307612070Y-75944080D01*
G75*
G02*
X307393320Y-75725330I0J218750D01*
G01*
X307393320Y-75287830D01*
G75*
G02*
X307612070Y-75069080I218750J0D01*
G01*
G37*
G36*
G01*
X307612070Y-73494080D02*
X308124570Y-73494080D01*
G75*
G02*
X308343320Y-73712830I0J-218750D01*
G01*
X308343320Y-74150330D01*
G75*
G02*
X308124570Y-74369080I-218750J0D01*
G01*
X307612070Y-74369080D01*
G75*
G02*
X307393320Y-74150330I0J218750D01*
G01*
X307393320Y-73712830D01*
G75*
G02*
X307612070Y-73494080I218750J0D01*
G01*
G37*
%TD*%
%TO.C,R29*%
G36*
G01*
X309148770Y-75066740D02*
X309661270Y-75066740D01*
G75*
G02*
X309880020Y-75285490I0J-218750D01*
G01*
X309880020Y-75722990D01*
G75*
G02*
X309661270Y-75941740I-218750J0D01*
G01*
X309148770Y-75941740D01*
G75*
G02*
X308930020Y-75722990I0J218750D01*
G01*
X308930020Y-75285490D01*
G75*
G02*
X309148770Y-75066740I218750J0D01*
G01*
G37*
G36*
G01*
X309148770Y-73491740D02*
X309661270Y-73491740D01*
G75*
G02*
X309880020Y-73710490I0J-218750D01*
G01*
X309880020Y-74147990D01*
G75*
G02*
X309661270Y-74366740I-218750J0D01*
G01*
X309148770Y-74366740D01*
G75*
G02*
X308930020Y-74147990I0J218750D01*
G01*
X308930020Y-73710490D01*
G75*
G02*
X309148770Y-73491740I218750J0D01*
G01*
G37*
%TD*%
%TO.C,R28*%
G36*
G01*
X311236070Y-74366740D02*
X310723570Y-74366740D01*
G75*
G02*
X310504820Y-74147990I0J218750D01*
G01*
X310504820Y-73710490D01*
G75*
G02*
X310723570Y-73491740I218750J0D01*
G01*
X311236070Y-73491740D01*
G75*
G02*
X311454820Y-73710490I0J-218750D01*
G01*
X311454820Y-74147990D01*
G75*
G02*
X311236070Y-74366740I-218750J0D01*
G01*
G37*
G36*
G01*
X311236070Y-75941740D02*
X310723570Y-75941740D01*
G75*
G02*
X310504820Y-75722990I0J218750D01*
G01*
X310504820Y-75285490D01*
G75*
G02*
X310723570Y-75066740I218750J0D01*
G01*
X311236070Y-75066740D01*
G75*
G02*
X311454820Y-75285490I0J-218750D01*
G01*
X311454820Y-75722990D01*
G75*
G02*
X311236070Y-75941740I-218750J0D01*
G01*
G37*
%TD*%
%TO.C,R27*%
G36*
G01*
X312148990Y-64532320D02*
X312661490Y-64532320D01*
G75*
G02*
X312880240Y-64751070I0J-218750D01*
G01*
X312880240Y-65188570D01*
G75*
G02*
X312661490Y-65407320I-218750J0D01*
G01*
X312148990Y-65407320D01*
G75*
G02*
X311930240Y-65188570I0J218750D01*
G01*
X311930240Y-64751070D01*
G75*
G02*
X312148990Y-64532320I218750J0D01*
G01*
G37*
G36*
G01*
X312148990Y-62957320D02*
X312661490Y-62957320D01*
G75*
G02*
X312880240Y-63176070I0J-218750D01*
G01*
X312880240Y-63613570D01*
G75*
G02*
X312661490Y-63832320I-218750J0D01*
G01*
X312148990Y-63832320D01*
G75*
G02*
X311930240Y-63613570I0J218750D01*
G01*
X311930240Y-63176070D01*
G75*
G02*
X312148990Y-62957320I218750J0D01*
G01*
G37*
%TD*%
%TO.C,R26*%
G36*
G01*
X310634670Y-64545860D02*
X311147170Y-64545860D01*
G75*
G02*
X311365920Y-64764610I0J-218750D01*
G01*
X311365920Y-65202110D01*
G75*
G02*
X311147170Y-65420860I-218750J0D01*
G01*
X310634670Y-65420860D01*
G75*
G02*
X310415920Y-65202110I0J218750D01*
G01*
X310415920Y-64764610D01*
G75*
G02*
X310634670Y-64545860I218750J0D01*
G01*
G37*
G36*
G01*
X310634670Y-62970860D02*
X311147170Y-62970860D01*
G75*
G02*
X311365920Y-63189610I0J-218750D01*
G01*
X311365920Y-63627110D01*
G75*
G02*
X311147170Y-63845860I-218750J0D01*
G01*
X310634670Y-63845860D01*
G75*
G02*
X310415920Y-63627110I0J218750D01*
G01*
X310415920Y-63189610D01*
G75*
G02*
X310634670Y-62970860I218750J0D01*
G01*
G37*
%TD*%
%TO.C,R25*%
G36*
G01*
X308031300Y-61262550D02*
X308031300Y-61775050D01*
G75*
G02*
X307812550Y-61993800I-218750J0D01*
G01*
X307375050Y-61993800D01*
G75*
G02*
X307156300Y-61775050I0J218750D01*
G01*
X307156300Y-61262550D01*
G75*
G02*
X307375050Y-61043800I218750J0D01*
G01*
X307812550Y-61043800D01*
G75*
G02*
X308031300Y-61262550I0J-218750D01*
G01*
G37*
G36*
G01*
X309606300Y-61262550D02*
X309606300Y-61775050D01*
G75*
G02*
X309387550Y-61993800I-218750J0D01*
G01*
X308950050Y-61993800D01*
G75*
G02*
X308731300Y-61775050I0J218750D01*
G01*
X308731300Y-61262550D01*
G75*
G02*
X308950050Y-61043800I218750J0D01*
G01*
X309387550Y-61043800D01*
G75*
G02*
X309606300Y-61262550I0J-218750D01*
G01*
G37*
%TD*%
%TO.C,R24*%
G36*
G01*
X325251320Y-83656630D02*
X325251320Y-83144130D01*
G75*
G02*
X325470070Y-82925380I218750J0D01*
G01*
X325907570Y-82925380D01*
G75*
G02*
X326126320Y-83144130I0J-218750D01*
G01*
X326126320Y-83656630D01*
G75*
G02*
X325907570Y-83875380I-218750J0D01*
G01*
X325470070Y-83875380D01*
G75*
G02*
X325251320Y-83656630I0J218750D01*
G01*
G37*
G36*
G01*
X323676320Y-83656630D02*
X323676320Y-83144130D01*
G75*
G02*
X323895070Y-82925380I218750J0D01*
G01*
X324332570Y-82925380D01*
G75*
G02*
X324551320Y-83144130I0J-218750D01*
G01*
X324551320Y-83656630D01*
G75*
G02*
X324332570Y-83875380I-218750J0D01*
G01*
X323895070Y-83875380D01*
G75*
G02*
X323676320Y-83656630I0J218750D01*
G01*
G37*
%TD*%
%TO.C,R23*%
G36*
G01*
X325251320Y-82131630D02*
X325251320Y-81619130D01*
G75*
G02*
X325470070Y-81400380I218750J0D01*
G01*
X325907570Y-81400380D01*
G75*
G02*
X326126320Y-81619130I0J-218750D01*
G01*
X326126320Y-82131630D01*
G75*
G02*
X325907570Y-82350380I-218750J0D01*
G01*
X325470070Y-82350380D01*
G75*
G02*
X325251320Y-82131630I0J218750D01*
G01*
G37*
G36*
G01*
X323676320Y-82131630D02*
X323676320Y-81619130D01*
G75*
G02*
X323895070Y-81400380I218750J0D01*
G01*
X324332570Y-81400380D01*
G75*
G02*
X324551320Y-81619130I0J-218750D01*
G01*
X324551320Y-82131630D01*
G75*
G02*
X324332570Y-82350380I-218750J0D01*
G01*
X323895070Y-82350380D01*
G75*
G02*
X323676320Y-82131630I0J218750D01*
G01*
G37*
%TD*%
%TO.C,R22*%
G36*
G01*
X326628470Y-73993360D02*
X326115970Y-73993360D01*
G75*
G02*
X325897220Y-73774610I0J218750D01*
G01*
X325897220Y-73337110D01*
G75*
G02*
X326115970Y-73118360I218750J0D01*
G01*
X326628470Y-73118360D01*
G75*
G02*
X326847220Y-73337110I0J-218750D01*
G01*
X326847220Y-73774610D01*
G75*
G02*
X326628470Y-73993360I-218750J0D01*
G01*
G37*
G36*
G01*
X326628470Y-75568360D02*
X326115970Y-75568360D01*
G75*
G02*
X325897220Y-75349610I0J218750D01*
G01*
X325897220Y-74912110D01*
G75*
G02*
X326115970Y-74693360I218750J0D01*
G01*
X326628470Y-74693360D01*
G75*
G02*
X326847220Y-74912110I0J-218750D01*
G01*
X326847220Y-75349610D01*
G75*
G02*
X326628470Y-75568360I-218750J0D01*
G01*
G37*
%TD*%
%TO.C,R21*%
G36*
G01*
X307634350Y-56055780D02*
X307121850Y-56055780D01*
G75*
G02*
X306903100Y-55837030I0J218750D01*
G01*
X306903100Y-55399530D01*
G75*
G02*
X307121850Y-55180780I218750J0D01*
G01*
X307634350Y-55180780D01*
G75*
G02*
X307853100Y-55399530I0J-218750D01*
G01*
X307853100Y-55837030D01*
G75*
G02*
X307634350Y-56055780I-218750J0D01*
G01*
G37*
G36*
G01*
X307634350Y-57630780D02*
X307121850Y-57630780D01*
G75*
G02*
X306903100Y-57412030I0J218750D01*
G01*
X306903100Y-56974530D01*
G75*
G02*
X307121850Y-56755780I218750J0D01*
G01*
X307634350Y-56755780D01*
G75*
G02*
X307853100Y-56974530I0J-218750D01*
G01*
X307853100Y-57412030D01*
G75*
G02*
X307634350Y-57630780I-218750J0D01*
G01*
G37*
%TD*%
%TO.C,R20*%
G36*
G01*
X338373510Y-105773680D02*
X337861010Y-105773680D01*
G75*
G02*
X337642260Y-105554930I0J218750D01*
G01*
X337642260Y-105117430D01*
G75*
G02*
X337861010Y-104898680I218750J0D01*
G01*
X338373510Y-104898680D01*
G75*
G02*
X338592260Y-105117430I0J-218750D01*
G01*
X338592260Y-105554930D01*
G75*
G02*
X338373510Y-105773680I-218750J0D01*
G01*
G37*
G36*
G01*
X338373510Y-107348680D02*
X337861010Y-107348680D01*
G75*
G02*
X337642260Y-107129930I0J218750D01*
G01*
X337642260Y-106692430D01*
G75*
G02*
X337861010Y-106473680I218750J0D01*
G01*
X338373510Y-106473680D01*
G75*
G02*
X338592260Y-106692430I0J-218750D01*
G01*
X338592260Y-107129930D01*
G75*
G02*
X338373510Y-107348680I-218750J0D01*
G01*
G37*
%TD*%
%TO.C,R19*%
G36*
G01*
X339898510Y-105798680D02*
X339386010Y-105798680D01*
G75*
G02*
X339167260Y-105579930I0J218750D01*
G01*
X339167260Y-105142430D01*
G75*
G02*
X339386010Y-104923680I218750J0D01*
G01*
X339898510Y-104923680D01*
G75*
G02*
X340117260Y-105142430I0J-218750D01*
G01*
X340117260Y-105579930D01*
G75*
G02*
X339898510Y-105798680I-218750J0D01*
G01*
G37*
G36*
G01*
X339898510Y-107373680D02*
X339386010Y-107373680D01*
G75*
G02*
X339167260Y-107154930I0J218750D01*
G01*
X339167260Y-106717430D01*
G75*
G02*
X339386010Y-106498680I218750J0D01*
G01*
X339898510Y-106498680D01*
G75*
G02*
X340117260Y-106717430I0J-218750D01*
G01*
X340117260Y-107154930D01*
G75*
G02*
X339898510Y-107373680I-218750J0D01*
G01*
G37*
%TD*%
%TO.C,R18*%
G36*
G01*
X316623990Y-59506700D02*
X317136490Y-59506700D01*
G75*
G02*
X317355240Y-59725450I0J-218750D01*
G01*
X317355240Y-60162950D01*
G75*
G02*
X317136490Y-60381700I-218750J0D01*
G01*
X316623990Y-60381700D01*
G75*
G02*
X316405240Y-60162950I0J218750D01*
G01*
X316405240Y-59725450D01*
G75*
G02*
X316623990Y-59506700I218750J0D01*
G01*
G37*
G36*
G01*
X316623990Y-57931700D02*
X317136490Y-57931700D01*
G75*
G02*
X317355240Y-58150450I0J-218750D01*
G01*
X317355240Y-58587950D01*
G75*
G02*
X317136490Y-58806700I-218750J0D01*
G01*
X316623990Y-58806700D01*
G75*
G02*
X316405240Y-58587950I0J218750D01*
G01*
X316405240Y-58150450D01*
G75*
G02*
X316623990Y-57931700I218750J0D01*
G01*
G37*
%TD*%
%TO.C,R17*%
G36*
G01*
X339536270Y-60780100D02*
X339023770Y-60780100D01*
G75*
G02*
X338805020Y-60561350I0J218750D01*
G01*
X338805020Y-60123850D01*
G75*
G02*
X339023770Y-59905100I218750J0D01*
G01*
X339536270Y-59905100D01*
G75*
G02*
X339755020Y-60123850I0J-218750D01*
G01*
X339755020Y-60561350D01*
G75*
G02*
X339536270Y-60780100I-218750J0D01*
G01*
G37*
G36*
G01*
X339536270Y-62355100D02*
X339023770Y-62355100D01*
G75*
G02*
X338805020Y-62136350I0J218750D01*
G01*
X338805020Y-61698850D01*
G75*
G02*
X339023770Y-61480100I218750J0D01*
G01*
X339536270Y-61480100D01*
G75*
G02*
X339755020Y-61698850I0J-218750D01*
G01*
X339755020Y-62136350D01*
G75*
G02*
X339536270Y-62355100I-218750J0D01*
G01*
G37*
%TD*%
%TO.C,R16*%
G36*
G01*
X311723520Y-86761030D02*
X311723520Y-86248530D01*
G75*
G02*
X311942270Y-86029780I218750J0D01*
G01*
X312379770Y-86029780D01*
G75*
G02*
X312598520Y-86248530I0J-218750D01*
G01*
X312598520Y-86761030D01*
G75*
G02*
X312379770Y-86979780I-218750J0D01*
G01*
X311942270Y-86979780D01*
G75*
G02*
X311723520Y-86761030I0J218750D01*
G01*
G37*
G36*
G01*
X310148520Y-86761030D02*
X310148520Y-86248530D01*
G75*
G02*
X310367270Y-86029780I218750J0D01*
G01*
X310804770Y-86029780D01*
G75*
G02*
X311023520Y-86248530I0J-218750D01*
G01*
X311023520Y-86761030D01*
G75*
G02*
X310804770Y-86979780I-218750J0D01*
G01*
X310367270Y-86979780D01*
G75*
G02*
X310148520Y-86761030I0J218750D01*
G01*
G37*
%TD*%
%TO.C,R15*%
G36*
G01*
X309216250Y-88430000D02*
X308703750Y-88430000D01*
G75*
G02*
X308485000Y-88211250I0J218750D01*
G01*
X308485000Y-87773750D01*
G75*
G02*
X308703750Y-87555000I218750J0D01*
G01*
X309216250Y-87555000D01*
G75*
G02*
X309435000Y-87773750I0J-218750D01*
G01*
X309435000Y-88211250D01*
G75*
G02*
X309216250Y-88430000I-218750J0D01*
G01*
G37*
G36*
G01*
X309216250Y-90005000D02*
X308703750Y-90005000D01*
G75*
G02*
X308485000Y-89786250I0J218750D01*
G01*
X308485000Y-89348750D01*
G75*
G02*
X308703750Y-89130000I218750J0D01*
G01*
X309216250Y-89130000D01*
G75*
G02*
X309435000Y-89348750I0J-218750D01*
G01*
X309435000Y-89786250D01*
G75*
G02*
X309216250Y-90005000I-218750J0D01*
G01*
G37*
%TD*%
%TO.C,R14*%
G36*
G01*
X310233750Y-89157500D02*
X310746250Y-89157500D01*
G75*
G02*
X310965000Y-89376250I0J-218750D01*
G01*
X310965000Y-89813750D01*
G75*
G02*
X310746250Y-90032500I-218750J0D01*
G01*
X310233750Y-90032500D01*
G75*
G02*
X310015000Y-89813750I0J218750D01*
G01*
X310015000Y-89376250D01*
G75*
G02*
X310233750Y-89157500I218750J0D01*
G01*
G37*
G36*
G01*
X310233750Y-87582500D02*
X310746250Y-87582500D01*
G75*
G02*
X310965000Y-87801250I0J-218750D01*
G01*
X310965000Y-88238750D01*
G75*
G02*
X310746250Y-88457500I-218750J0D01*
G01*
X310233750Y-88457500D01*
G75*
G02*
X310015000Y-88238750I0J218750D01*
G01*
X310015000Y-87801250D01*
G75*
G02*
X310233750Y-87582500I218750J0D01*
G01*
G37*
%TD*%
%TO.C,R13*%
G36*
G01*
X325555320Y-60173270D02*
X325555320Y-59660770D01*
G75*
G02*
X325774070Y-59442020I218750J0D01*
G01*
X326211570Y-59442020D01*
G75*
G02*
X326430320Y-59660770I0J-218750D01*
G01*
X326430320Y-60173270D01*
G75*
G02*
X326211570Y-60392020I-218750J0D01*
G01*
X325774070Y-60392020D01*
G75*
G02*
X325555320Y-60173270I0J218750D01*
G01*
G37*
G36*
G01*
X323980320Y-60173270D02*
X323980320Y-59660770D01*
G75*
G02*
X324199070Y-59442020I218750J0D01*
G01*
X324636570Y-59442020D01*
G75*
G02*
X324855320Y-59660770I0J-218750D01*
G01*
X324855320Y-60173270D01*
G75*
G02*
X324636570Y-60392020I-218750J0D01*
G01*
X324199070Y-60392020D01*
G75*
G02*
X323980320Y-60173270I0J218750D01*
G01*
G37*
%TD*%
%TO.C,R12*%
G36*
G01*
X325525320Y-61743270D02*
X325525320Y-61230770D01*
G75*
G02*
X325744070Y-61012020I218750J0D01*
G01*
X326181570Y-61012020D01*
G75*
G02*
X326400320Y-61230770I0J-218750D01*
G01*
X326400320Y-61743270D01*
G75*
G02*
X326181570Y-61962020I-218750J0D01*
G01*
X325744070Y-61962020D01*
G75*
G02*
X325525320Y-61743270I0J218750D01*
G01*
G37*
G36*
G01*
X323950320Y-61743270D02*
X323950320Y-61230770D01*
G75*
G02*
X324169070Y-61012020I218750J0D01*
G01*
X324606570Y-61012020D01*
G75*
G02*
X324825320Y-61230770I0J-218750D01*
G01*
X324825320Y-61743270D01*
G75*
G02*
X324606570Y-61962020I-218750J0D01*
G01*
X324169070Y-61962020D01*
G75*
G02*
X323950320Y-61743270I0J218750D01*
G01*
G37*
%TD*%
%TO.C,R11*%
G36*
G01*
X306349420Y-89247650D02*
X306349420Y-89760150D01*
G75*
G02*
X306130670Y-89978900I-218750J0D01*
G01*
X305693170Y-89978900D01*
G75*
G02*
X305474420Y-89760150I0J218750D01*
G01*
X305474420Y-89247650D01*
G75*
G02*
X305693170Y-89028900I218750J0D01*
G01*
X306130670Y-89028900D01*
G75*
G02*
X306349420Y-89247650I0J-218750D01*
G01*
G37*
G36*
G01*
X307924420Y-89247650D02*
X307924420Y-89760150D01*
G75*
G02*
X307705670Y-89978900I-218750J0D01*
G01*
X307268170Y-89978900D01*
G75*
G02*
X307049420Y-89760150I0J218750D01*
G01*
X307049420Y-89247650D01*
G75*
G02*
X307268170Y-89028900I218750J0D01*
G01*
X307705670Y-89028900D01*
G75*
G02*
X307924420Y-89247650I0J-218750D01*
G01*
G37*
%TD*%
%TO.C,R10*%
G36*
G01*
X325253220Y-85191330D02*
X325253220Y-84678830D01*
G75*
G02*
X325471970Y-84460080I218750J0D01*
G01*
X325909470Y-84460080D01*
G75*
G02*
X326128220Y-84678830I0J-218750D01*
G01*
X326128220Y-85191330D01*
G75*
G02*
X325909470Y-85410080I-218750J0D01*
G01*
X325471970Y-85410080D01*
G75*
G02*
X325253220Y-85191330I0J218750D01*
G01*
G37*
G36*
G01*
X323678220Y-85191330D02*
X323678220Y-84678830D01*
G75*
G02*
X323896970Y-84460080I218750J0D01*
G01*
X324334470Y-84460080D01*
G75*
G02*
X324553220Y-84678830I0J-218750D01*
G01*
X324553220Y-85191330D01*
G75*
G02*
X324334470Y-85410080I-218750J0D01*
G01*
X323896970Y-85410080D01*
G75*
G02*
X323678220Y-85191330I0J218750D01*
G01*
G37*
%TD*%
%TO.C,R9*%
G36*
G01*
X325251460Y-86730550D02*
X325251460Y-86218050D01*
G75*
G02*
X325470210Y-85999300I218750J0D01*
G01*
X325907710Y-85999300D01*
G75*
G02*
X326126460Y-86218050I0J-218750D01*
G01*
X326126460Y-86730550D01*
G75*
G02*
X325907710Y-86949300I-218750J0D01*
G01*
X325470210Y-86949300D01*
G75*
G02*
X325251460Y-86730550I0J218750D01*
G01*
G37*
G36*
G01*
X323676460Y-86730550D02*
X323676460Y-86218050D01*
G75*
G02*
X323895210Y-85999300I218750J0D01*
G01*
X324332710Y-85999300D01*
G75*
G02*
X324551460Y-86218050I0J-218750D01*
G01*
X324551460Y-86730550D01*
G75*
G02*
X324332710Y-86949300I-218750J0D01*
G01*
X323895210Y-86949300D01*
G75*
G02*
X323676460Y-86730550I0J218750D01*
G01*
G37*
%TD*%
%TO.C,R8*%
G36*
G01*
X346417050Y-75049500D02*
X345904550Y-75049500D01*
G75*
G02*
X345685800Y-74830750I0J218750D01*
G01*
X345685800Y-74393250D01*
G75*
G02*
X345904550Y-74174500I218750J0D01*
G01*
X346417050Y-74174500D01*
G75*
G02*
X346635800Y-74393250I0J-218750D01*
G01*
X346635800Y-74830750D01*
G75*
G02*
X346417050Y-75049500I-218750J0D01*
G01*
G37*
G36*
G01*
X346417050Y-76624500D02*
X345904550Y-76624500D01*
G75*
G02*
X345685800Y-76405750I0J218750D01*
G01*
X345685800Y-75968250D01*
G75*
G02*
X345904550Y-75749500I218750J0D01*
G01*
X346417050Y-75749500D01*
G75*
G02*
X346635800Y-75968250I0J-218750D01*
G01*
X346635800Y-76405750D01*
G75*
G02*
X346417050Y-76624500I-218750J0D01*
G01*
G37*
%TD*%
%TO.C,R7*%
G36*
G01*
X316257650Y-73957700D02*
X315745150Y-73957700D01*
G75*
G02*
X315526400Y-73738950I0J218750D01*
G01*
X315526400Y-73301450D01*
G75*
G02*
X315745150Y-73082700I218750J0D01*
G01*
X316257650Y-73082700D01*
G75*
G02*
X316476400Y-73301450I0J-218750D01*
G01*
X316476400Y-73738950D01*
G75*
G02*
X316257650Y-73957700I-218750J0D01*
G01*
G37*
G36*
G01*
X316257650Y-75532700D02*
X315745150Y-75532700D01*
G75*
G02*
X315526400Y-75313950I0J218750D01*
G01*
X315526400Y-74876450D01*
G75*
G02*
X315745150Y-74657700I218750J0D01*
G01*
X316257650Y-74657700D01*
G75*
G02*
X316476400Y-74876450I0J-218750D01*
G01*
X316476400Y-75313950D01*
G75*
G02*
X316257650Y-75532700I-218750J0D01*
G01*
G37*
%TD*%
%TO.C,R6*%
G36*
G01*
X321241130Y-73983000D02*
X320728630Y-73983000D01*
G75*
G02*
X320509880Y-73764250I0J218750D01*
G01*
X320509880Y-73326750D01*
G75*
G02*
X320728630Y-73108000I218750J0D01*
G01*
X321241130Y-73108000D01*
G75*
G02*
X321459880Y-73326750I0J-218750D01*
G01*
X321459880Y-73764250D01*
G75*
G02*
X321241130Y-73983000I-218750J0D01*
G01*
G37*
G36*
G01*
X321241130Y-75558000D02*
X320728630Y-75558000D01*
G75*
G02*
X320509880Y-75339250I0J218750D01*
G01*
X320509880Y-74901750D01*
G75*
G02*
X320728630Y-74683000I218750J0D01*
G01*
X321241130Y-74683000D01*
G75*
G02*
X321459880Y-74901750I0J-218750D01*
G01*
X321459880Y-75339250D01*
G75*
G02*
X321241130Y-75558000I-218750J0D01*
G01*
G37*
%TD*%
%TO.C,R3*%
G36*
G01*
X309258320Y-124556810D02*
X309258320Y-125069310D01*
G75*
G02*
X309039570Y-125288060I-218750J0D01*
G01*
X308602070Y-125288060D01*
G75*
G02*
X308383320Y-125069310I0J218750D01*
G01*
X308383320Y-124556810D01*
G75*
G02*
X308602070Y-124338060I218750J0D01*
G01*
X309039570Y-124338060D01*
G75*
G02*
X309258320Y-124556810I0J-218750D01*
G01*
G37*
G36*
G01*
X310833320Y-124556810D02*
X310833320Y-125069310D01*
G75*
G02*
X310614570Y-125288060I-218750J0D01*
G01*
X310177070Y-125288060D01*
G75*
G02*
X309958320Y-125069310I0J218750D01*
G01*
X309958320Y-124556810D01*
G75*
G02*
X310177070Y-124338060I218750J0D01*
G01*
X310614570Y-124338060D01*
G75*
G02*
X310833320Y-124556810I0J-218750D01*
G01*
G37*
%TD*%
%TO.C,R2*%
G36*
G01*
X323600790Y-74021100D02*
X323088290Y-74021100D01*
G75*
G02*
X322869540Y-73802350I0J218750D01*
G01*
X322869540Y-73364850D01*
G75*
G02*
X323088290Y-73146100I218750J0D01*
G01*
X323600790Y-73146100D01*
G75*
G02*
X323819540Y-73364850I0J-218750D01*
G01*
X323819540Y-73802350D01*
G75*
G02*
X323600790Y-74021100I-218750J0D01*
G01*
G37*
G36*
G01*
X323600790Y-75596100D02*
X323088290Y-75596100D01*
G75*
G02*
X322869540Y-75377350I0J218750D01*
G01*
X322869540Y-74939850D01*
G75*
G02*
X323088290Y-74721100I218750J0D01*
G01*
X323600790Y-74721100D01*
G75*
G02*
X323819540Y-74939850I0J-218750D01*
G01*
X323819540Y-75377350D01*
G75*
G02*
X323600790Y-75596100I-218750J0D01*
G01*
G37*
%TD*%
%TO.C,R1*%
G36*
G01*
X337375760Y-62059670D02*
X337375760Y-61547170D01*
G75*
G02*
X337594510Y-61328420I218750J0D01*
G01*
X338032010Y-61328420D01*
G75*
G02*
X338250760Y-61547170I0J-218750D01*
G01*
X338250760Y-62059670D01*
G75*
G02*
X338032010Y-62278420I-218750J0D01*
G01*
X337594510Y-62278420D01*
G75*
G02*
X337375760Y-62059670I0J218750D01*
G01*
G37*
G36*
G01*
X335800760Y-62059670D02*
X335800760Y-61547170D01*
G75*
G02*
X336019510Y-61328420I218750J0D01*
G01*
X336457010Y-61328420D01*
G75*
G02*
X336675760Y-61547170I0J-218750D01*
G01*
X336675760Y-62059670D01*
G75*
G02*
X336457010Y-62278420I-218750J0D01*
G01*
X336019510Y-62278420D01*
G75*
G02*
X335800760Y-62059670I0J218750D01*
G01*
G37*
%TD*%
%TO.C,Q6*%
X332721200Y-61000600D03*
X334721200Y-60050600D03*
X334721200Y-61950600D03*
%TD*%
D10*
%TO.C,Q5*%
X343367000Y-124702740D03*
X344317000Y-126702740D03*
X342417000Y-126702740D03*
%TD*%
%TO.C,Q4*%
X346941600Y-124702340D03*
X347891600Y-126702340D03*
X345991600Y-126702340D03*
%TD*%
%TO.C,Q3*%
X308272180Y-65013840D03*
X307322180Y-63013840D03*
X309222180Y-63013840D03*
%TD*%
D26*
%TO.C,D14*%
X351576640Y-132601860D03*
X351576640Y-128301860D03*
%TD*%
%TO.C,D13*%
X356463600Y-136634000D03*
X356463600Y-132334000D03*
%TD*%
D19*
%TO.C,D8*%
X320884800Y-97805200D03*
X322884800Y-96855200D03*
X322884800Y-98755200D03*
%TD*%
D26*
%TO.C,D6*%
X320598800Y-89729200D03*
X320598800Y-85429200D03*
%TD*%
%TO.C,D5*%
X316014100Y-81226880D03*
X316014100Y-85526880D03*
%TD*%
D27*
%TO.C,D4*%
X311066180Y-108097320D03*
X306766180Y-108097320D03*
%TD*%
%TO.C,D3*%
X306766180Y-112735360D03*
X311066180Y-112735360D03*
%TD*%
%TO.C,C31*%
G36*
G01*
X355769760Y-126313910D02*
X355769760Y-125801410D01*
G75*
G02*
X355988510Y-125582660I218750J0D01*
G01*
X356426010Y-125582660D01*
G75*
G02*
X356644760Y-125801410I0J-218750D01*
G01*
X356644760Y-126313910D01*
G75*
G02*
X356426010Y-126532660I-218750J0D01*
G01*
X355988510Y-126532660D01*
G75*
G02*
X355769760Y-126313910I0J218750D01*
G01*
G37*
G36*
G01*
X354194760Y-126313910D02*
X354194760Y-125801410D01*
G75*
G02*
X354413510Y-125582660I218750J0D01*
G01*
X354851010Y-125582660D01*
G75*
G02*
X355069760Y-125801410I0J-218750D01*
G01*
X355069760Y-126313910D01*
G75*
G02*
X354851010Y-126532660I-218750J0D01*
G01*
X354413510Y-126532660D01*
G75*
G02*
X354194760Y-126313910I0J218750D01*
G01*
G37*
%TD*%
%TO.C,C30*%
G36*
G01*
X355777180Y-124787370D02*
X355777180Y-124274870D01*
G75*
G02*
X355995930Y-124056120I218750J0D01*
G01*
X356433430Y-124056120D01*
G75*
G02*
X356652180Y-124274870I0J-218750D01*
G01*
X356652180Y-124787370D01*
G75*
G02*
X356433430Y-125006120I-218750J0D01*
G01*
X355995930Y-125006120D01*
G75*
G02*
X355777180Y-124787370I0J218750D01*
G01*
G37*
G36*
G01*
X354202180Y-124787370D02*
X354202180Y-124274870D01*
G75*
G02*
X354420930Y-124056120I218750J0D01*
G01*
X354858430Y-124056120D01*
G75*
G02*
X355077180Y-124274870I0J-218750D01*
G01*
X355077180Y-124787370D01*
G75*
G02*
X354858430Y-125006120I-218750J0D01*
G01*
X354420930Y-125006120D01*
G75*
G02*
X354202180Y-124787370I0J218750D01*
G01*
G37*
%TD*%
%TO.C,C29*%
G36*
G01*
X357951750Y-124935500D02*
X357439250Y-124935500D01*
G75*
G02*
X357220500Y-124716750I0J218750D01*
G01*
X357220500Y-124279250D01*
G75*
G02*
X357439250Y-124060500I218750J0D01*
G01*
X357951750Y-124060500D01*
G75*
G02*
X358170500Y-124279250I0J-218750D01*
G01*
X358170500Y-124716750D01*
G75*
G02*
X357951750Y-124935500I-218750J0D01*
G01*
G37*
G36*
G01*
X357951750Y-126510500D02*
X357439250Y-126510500D01*
G75*
G02*
X357220500Y-126291750I0J218750D01*
G01*
X357220500Y-125854250D01*
G75*
G02*
X357439250Y-125635500I218750J0D01*
G01*
X357951750Y-125635500D01*
G75*
G02*
X358170500Y-125854250I0J-218750D01*
G01*
X358170500Y-126291750D01*
G75*
G02*
X357951750Y-126510500I-218750J0D01*
G01*
G37*
%TD*%
%TO.C,C27*%
G36*
G01*
X312214550Y-75051500D02*
X312727050Y-75051500D01*
G75*
G02*
X312945800Y-75270250I0J-218750D01*
G01*
X312945800Y-75707750D01*
G75*
G02*
X312727050Y-75926500I-218750J0D01*
G01*
X312214550Y-75926500D01*
G75*
G02*
X311995800Y-75707750I0J218750D01*
G01*
X311995800Y-75270250D01*
G75*
G02*
X312214550Y-75051500I218750J0D01*
G01*
G37*
G36*
G01*
X312214550Y-73476500D02*
X312727050Y-73476500D01*
G75*
G02*
X312945800Y-73695250I0J-218750D01*
G01*
X312945800Y-74132750D01*
G75*
G02*
X312727050Y-74351500I-218750J0D01*
G01*
X312214550Y-74351500D01*
G75*
G02*
X311995800Y-74132750I0J218750D01*
G01*
X311995800Y-73695250D01*
G75*
G02*
X312214550Y-73476500I218750J0D01*
G01*
G37*
%TD*%
%TO.C,C26*%
G36*
G01*
X344875830Y-75034500D02*
X344363330Y-75034500D01*
G75*
G02*
X344144580Y-74815750I0J218750D01*
G01*
X344144580Y-74378250D01*
G75*
G02*
X344363330Y-74159500I218750J0D01*
G01*
X344875830Y-74159500D01*
G75*
G02*
X345094580Y-74378250I0J-218750D01*
G01*
X345094580Y-74815750D01*
G75*
G02*
X344875830Y-75034500I-218750J0D01*
G01*
G37*
G36*
G01*
X344875830Y-76609500D02*
X344363330Y-76609500D01*
G75*
G02*
X344144580Y-76390750I0J218750D01*
G01*
X344144580Y-75953250D01*
G75*
G02*
X344363330Y-75734500I218750J0D01*
G01*
X344875830Y-75734500D01*
G75*
G02*
X345094580Y-75953250I0J-218750D01*
G01*
X345094580Y-76390750D01*
G75*
G02*
X344875830Y-76609500I-218750J0D01*
G01*
G37*
%TD*%
%TO.C,C25*%
G36*
G01*
X319954160Y-64313090D02*
X319954160Y-64825590D01*
G75*
G02*
X319735410Y-65044340I-218750J0D01*
G01*
X319297910Y-65044340D01*
G75*
G02*
X319079160Y-64825590I0J218750D01*
G01*
X319079160Y-64313090D01*
G75*
G02*
X319297910Y-64094340I218750J0D01*
G01*
X319735410Y-64094340D01*
G75*
G02*
X319954160Y-64313090I0J-218750D01*
G01*
G37*
G36*
G01*
X321529160Y-64313090D02*
X321529160Y-64825590D01*
G75*
G02*
X321310410Y-65044340I-218750J0D01*
G01*
X320872910Y-65044340D01*
G75*
G02*
X320654160Y-64825590I0J218750D01*
G01*
X320654160Y-64313090D01*
G75*
G02*
X320872910Y-64094340I218750J0D01*
G01*
X321310410Y-64094340D01*
G75*
G02*
X321529160Y-64313090I0J-218750D01*
G01*
G37*
%TD*%
%TO.C,C24*%
G36*
G01*
X341446830Y-105760940D02*
X340934330Y-105760940D01*
G75*
G02*
X340715580Y-105542190I0J218750D01*
G01*
X340715580Y-105104690D01*
G75*
G02*
X340934330Y-104885940I218750J0D01*
G01*
X341446830Y-104885940D01*
G75*
G02*
X341665580Y-105104690I0J-218750D01*
G01*
X341665580Y-105542190D01*
G75*
G02*
X341446830Y-105760940I-218750J0D01*
G01*
G37*
G36*
G01*
X341446830Y-107335940D02*
X340934330Y-107335940D01*
G75*
G02*
X340715580Y-107117190I0J218750D01*
G01*
X340715580Y-106679690D01*
G75*
G02*
X340934330Y-106460940I218750J0D01*
G01*
X341446830Y-106460940D01*
G75*
G02*
X341665580Y-106679690I0J-218750D01*
G01*
X341665580Y-107117190D01*
G75*
G02*
X341446830Y-107335940I-218750J0D01*
G01*
G37*
%TD*%
%TO.C,C23*%
G36*
G01*
X307608870Y-53000720D02*
X307096370Y-53000720D01*
G75*
G02*
X306877620Y-52781970I0J218750D01*
G01*
X306877620Y-52344470D01*
G75*
G02*
X307096370Y-52125720I218750J0D01*
G01*
X307608870Y-52125720D01*
G75*
G02*
X307827620Y-52344470I0J-218750D01*
G01*
X307827620Y-52781970D01*
G75*
G02*
X307608870Y-53000720I-218750J0D01*
G01*
G37*
G36*
G01*
X307608870Y-54575720D02*
X307096370Y-54575720D01*
G75*
G02*
X306877620Y-54356970I0J218750D01*
G01*
X306877620Y-53919470D01*
G75*
G02*
X307096370Y-53700720I218750J0D01*
G01*
X307608870Y-53700720D01*
G75*
G02*
X307827620Y-53919470I0J-218750D01*
G01*
X307827620Y-54356970D01*
G75*
G02*
X307608870Y-54575720I-218750J0D01*
G01*
G37*
%TD*%
%TO.C,C22*%
G36*
G01*
X354480400Y-59399850D02*
X354480400Y-58887350D01*
G75*
G02*
X354699150Y-58668600I218750J0D01*
G01*
X355136650Y-58668600D01*
G75*
G02*
X355355400Y-58887350I0J-218750D01*
G01*
X355355400Y-59399850D01*
G75*
G02*
X355136650Y-59618600I-218750J0D01*
G01*
X354699150Y-59618600D01*
G75*
G02*
X354480400Y-59399850I0J218750D01*
G01*
G37*
G36*
G01*
X352905400Y-59399850D02*
X352905400Y-58887350D01*
G75*
G02*
X353124150Y-58668600I218750J0D01*
G01*
X353561650Y-58668600D01*
G75*
G02*
X353780400Y-58887350I0J-218750D01*
G01*
X353780400Y-59399850D01*
G75*
G02*
X353561650Y-59618600I-218750J0D01*
G01*
X353124150Y-59618600D01*
G75*
G02*
X352905400Y-59399850I0J218750D01*
G01*
G37*
%TD*%
%TO.C,C21*%
G36*
G01*
X312709850Y-80283700D02*
X313222350Y-80283700D01*
G75*
G02*
X313441100Y-80502450I0J-218750D01*
G01*
X313441100Y-80939950D01*
G75*
G02*
X313222350Y-81158700I-218750J0D01*
G01*
X312709850Y-81158700D01*
G75*
G02*
X312491100Y-80939950I0J218750D01*
G01*
X312491100Y-80502450D01*
G75*
G02*
X312709850Y-80283700I218750J0D01*
G01*
G37*
G36*
G01*
X312709850Y-78708700D02*
X313222350Y-78708700D01*
G75*
G02*
X313441100Y-78927450I0J-218750D01*
G01*
X313441100Y-79364950D01*
G75*
G02*
X313222350Y-79583700I-218750J0D01*
G01*
X312709850Y-79583700D01*
G75*
G02*
X312491100Y-79364950I0J218750D01*
G01*
X312491100Y-78927450D01*
G75*
G02*
X312709850Y-78708700I218750J0D01*
G01*
G37*
%TD*%
%TO.C,C20*%
G36*
G01*
X352152930Y-63866380D02*
X351640430Y-63866380D01*
G75*
G02*
X351421680Y-63647630I0J218750D01*
G01*
X351421680Y-63210130D01*
G75*
G02*
X351640430Y-62991380I218750J0D01*
G01*
X352152930Y-62991380D01*
G75*
G02*
X352371680Y-63210130I0J-218750D01*
G01*
X352371680Y-63647630D01*
G75*
G02*
X352152930Y-63866380I-218750J0D01*
G01*
G37*
G36*
G01*
X352152930Y-65441380D02*
X351640430Y-65441380D01*
G75*
G02*
X351421680Y-65222630I0J218750D01*
G01*
X351421680Y-64785130D01*
G75*
G02*
X351640430Y-64566380I218750J0D01*
G01*
X352152930Y-64566380D01*
G75*
G02*
X352371680Y-64785130I0J-218750D01*
G01*
X352371680Y-65222630D01*
G75*
G02*
X352152930Y-65441380I-218750J0D01*
G01*
G37*
%TD*%
%TO.C,C19*%
G36*
G01*
X341036270Y-60792600D02*
X340523770Y-60792600D01*
G75*
G02*
X340305020Y-60573850I0J218750D01*
G01*
X340305020Y-60136350D01*
G75*
G02*
X340523770Y-59917600I218750J0D01*
G01*
X341036270Y-59917600D01*
G75*
G02*
X341255020Y-60136350I0J-218750D01*
G01*
X341255020Y-60573850D01*
G75*
G02*
X341036270Y-60792600I-218750J0D01*
G01*
G37*
G36*
G01*
X341036270Y-62367600D02*
X340523770Y-62367600D01*
G75*
G02*
X340305020Y-62148850I0J218750D01*
G01*
X340305020Y-61711350D01*
G75*
G02*
X340523770Y-61492600I218750J0D01*
G01*
X341036270Y-61492600D01*
G75*
G02*
X341255020Y-61711350I0J-218750D01*
G01*
X341255020Y-62148850D01*
G75*
G02*
X341036270Y-62367600I-218750J0D01*
G01*
G37*
%TD*%
%TO.C,C18*%
G36*
G01*
X357311650Y-69256100D02*
X357824150Y-69256100D01*
G75*
G02*
X358042900Y-69474850I0J-218750D01*
G01*
X358042900Y-69912350D01*
G75*
G02*
X357824150Y-70131100I-218750J0D01*
G01*
X357311650Y-70131100D01*
G75*
G02*
X357092900Y-69912350I0J218750D01*
G01*
X357092900Y-69474850D01*
G75*
G02*
X357311650Y-69256100I218750J0D01*
G01*
G37*
G36*
G01*
X357311650Y-67681100D02*
X357824150Y-67681100D01*
G75*
G02*
X358042900Y-67899850I0J-218750D01*
G01*
X358042900Y-68337350D01*
G75*
G02*
X357824150Y-68556100I-218750J0D01*
G01*
X357311650Y-68556100D01*
G75*
G02*
X357092900Y-68337350I0J218750D01*
G01*
X357092900Y-67899850D01*
G75*
G02*
X357311650Y-67681100I218750J0D01*
G01*
G37*
%TD*%
%TO.C,C17*%
G36*
G01*
X312306250Y-88432500D02*
X311793750Y-88432500D01*
G75*
G02*
X311575000Y-88213750I0J218750D01*
G01*
X311575000Y-87776250D01*
G75*
G02*
X311793750Y-87557500I218750J0D01*
G01*
X312306250Y-87557500D01*
G75*
G02*
X312525000Y-87776250I0J-218750D01*
G01*
X312525000Y-88213750D01*
G75*
G02*
X312306250Y-88432500I-218750J0D01*
G01*
G37*
G36*
G01*
X312306250Y-90007500D02*
X311793750Y-90007500D01*
G75*
G02*
X311575000Y-89788750I0J218750D01*
G01*
X311575000Y-89351250D01*
G75*
G02*
X311793750Y-89132500I218750J0D01*
G01*
X312306250Y-89132500D01*
G75*
G02*
X312525000Y-89351250I0J-218750D01*
G01*
X312525000Y-89788750D01*
G75*
G02*
X312306250Y-90007500I-218750J0D01*
G01*
G37*
%TD*%
%TO.C,C16*%
G36*
G01*
X315587960Y-88617300D02*
X313437960Y-88617300D01*
G75*
G02*
X313187960Y-88367300I0J250000D01*
G01*
X313187960Y-87617300D01*
G75*
G02*
X313437960Y-87367300I250000J0D01*
G01*
X315587960Y-87367300D01*
G75*
G02*
X315837960Y-87617300I0J-250000D01*
G01*
X315837960Y-88367300D01*
G75*
G02*
X315587960Y-88617300I-250000J0D01*
G01*
G37*
G36*
G01*
X315587960Y-91417300D02*
X313437960Y-91417300D01*
G75*
G02*
X313187960Y-91167300I0J250000D01*
G01*
X313187960Y-90417300D01*
G75*
G02*
X313437960Y-90167300I250000J0D01*
G01*
X315587960Y-90167300D01*
G75*
G02*
X315837960Y-90417300I0J-250000D01*
G01*
X315837960Y-91167300D01*
G75*
G02*
X315587960Y-91417300I-250000J0D01*
G01*
G37*
%TD*%
%TO.C,C15*%
G36*
G01*
X330446670Y-59821660D02*
X330959170Y-59821660D01*
G75*
G02*
X331177920Y-60040410I0J-218750D01*
G01*
X331177920Y-60477910D01*
G75*
G02*
X330959170Y-60696660I-218750J0D01*
G01*
X330446670Y-60696660D01*
G75*
G02*
X330227920Y-60477910I0J218750D01*
G01*
X330227920Y-60040410D01*
G75*
G02*
X330446670Y-59821660I218750J0D01*
G01*
G37*
G36*
G01*
X330446670Y-58246660D02*
X330959170Y-58246660D01*
G75*
G02*
X331177920Y-58465410I0J-218750D01*
G01*
X331177920Y-58902910D01*
G75*
G02*
X330959170Y-59121660I-218750J0D01*
G01*
X330446670Y-59121660D01*
G75*
G02*
X330227920Y-58902910I0J218750D01*
G01*
X330227920Y-58465410D01*
G75*
G02*
X330446670Y-58246660I218750J0D01*
G01*
G37*
%TD*%
%TO.C,C14*%
G36*
G01*
X305743750Y-96612500D02*
X306256250Y-96612500D01*
G75*
G02*
X306475000Y-96831250I0J-218750D01*
G01*
X306475000Y-97268750D01*
G75*
G02*
X306256250Y-97487500I-218750J0D01*
G01*
X305743750Y-97487500D01*
G75*
G02*
X305525000Y-97268750I0J218750D01*
G01*
X305525000Y-96831250D01*
G75*
G02*
X305743750Y-96612500I218750J0D01*
G01*
G37*
G36*
G01*
X305743750Y-95037500D02*
X306256250Y-95037500D01*
G75*
G02*
X306475000Y-95256250I0J-218750D01*
G01*
X306475000Y-95693750D01*
G75*
G02*
X306256250Y-95912500I-218750J0D01*
G01*
X305743750Y-95912500D01*
G75*
G02*
X305525000Y-95693750I0J218750D01*
G01*
X305525000Y-95256250D01*
G75*
G02*
X305743750Y-95037500I218750J0D01*
G01*
G37*
%TD*%
%TO.C,C13*%
G36*
G01*
X305718750Y-92150000D02*
X306231250Y-92150000D01*
G75*
G02*
X306450000Y-92368750I0J-218750D01*
G01*
X306450000Y-92806250D01*
G75*
G02*
X306231250Y-93025000I-218750J0D01*
G01*
X305718750Y-93025000D01*
G75*
G02*
X305500000Y-92806250I0J218750D01*
G01*
X305500000Y-92368750D01*
G75*
G02*
X305718750Y-92150000I218750J0D01*
G01*
G37*
G36*
G01*
X305718750Y-90575000D02*
X306231250Y-90575000D01*
G75*
G02*
X306450000Y-90793750I0J-218750D01*
G01*
X306450000Y-91231250D01*
G75*
G02*
X306231250Y-91450000I-218750J0D01*
G01*
X305718750Y-91450000D01*
G75*
G02*
X305500000Y-91231250I0J218750D01*
G01*
X305500000Y-90793750D01*
G75*
G02*
X305718750Y-90575000I218750J0D01*
G01*
G37*
%TD*%
%TO.C,C12*%
G36*
G01*
X306405900Y-98323690D02*
X306405900Y-98836190D01*
G75*
G02*
X306187150Y-99054940I-218750J0D01*
G01*
X305749650Y-99054940D01*
G75*
G02*
X305530900Y-98836190I0J218750D01*
G01*
X305530900Y-98323690D01*
G75*
G02*
X305749650Y-98104940I218750J0D01*
G01*
X306187150Y-98104940D01*
G75*
G02*
X306405900Y-98323690I0J-218750D01*
G01*
G37*
G36*
G01*
X307980900Y-98323690D02*
X307980900Y-98836190D01*
G75*
G02*
X307762150Y-99054940I-218750J0D01*
G01*
X307324650Y-99054940D01*
G75*
G02*
X307105900Y-98836190I0J218750D01*
G01*
X307105900Y-98323690D01*
G75*
G02*
X307324650Y-98104940I218750J0D01*
G01*
X307762150Y-98104940D01*
G75*
G02*
X307980900Y-98323690I0J-218750D01*
G01*
G37*
%TD*%
%TO.C,C11*%
G36*
G01*
X320779430Y-67357840D02*
X321291930Y-67357840D01*
G75*
G02*
X321510680Y-67576590I0J-218750D01*
G01*
X321510680Y-68014090D01*
G75*
G02*
X321291930Y-68232840I-218750J0D01*
G01*
X320779430Y-68232840D01*
G75*
G02*
X320560680Y-68014090I0J218750D01*
G01*
X320560680Y-67576590D01*
G75*
G02*
X320779430Y-67357840I218750J0D01*
G01*
G37*
G36*
G01*
X320779430Y-65782840D02*
X321291930Y-65782840D01*
G75*
G02*
X321510680Y-66001590I0J-218750D01*
G01*
X321510680Y-66439090D01*
G75*
G02*
X321291930Y-66657840I-218750J0D01*
G01*
X320779430Y-66657840D01*
G75*
G02*
X320560680Y-66439090I0J218750D01*
G01*
X320560680Y-66001590D01*
G75*
G02*
X320779430Y-65782840I218750J0D01*
G01*
G37*
%TD*%
%TO.C,C9*%
G36*
G01*
X306568000Y-103077700D02*
X306568000Y-105227700D01*
G75*
G02*
X306318000Y-105477700I-250000J0D01*
G01*
X305568000Y-105477700D01*
G75*
G02*
X305318000Y-105227700I0J250000D01*
G01*
X305318000Y-103077700D01*
G75*
G02*
X305568000Y-102827700I250000J0D01*
G01*
X306318000Y-102827700D01*
G75*
G02*
X306568000Y-103077700I0J-250000D01*
G01*
G37*
G36*
G01*
X309368000Y-103077700D02*
X309368000Y-105227700D01*
G75*
G02*
X309118000Y-105477700I-250000J0D01*
G01*
X308368000Y-105477700D01*
G75*
G02*
X308118000Y-105227700I0J250000D01*
G01*
X308118000Y-103077700D01*
G75*
G02*
X308368000Y-102827700I250000J0D01*
G01*
X309118000Y-102827700D01*
G75*
G02*
X309368000Y-103077700I0J-250000D01*
G01*
G37*
%TD*%
%TO.C,C8*%
G36*
G01*
X306568000Y-99844280D02*
X306568000Y-101994280D01*
G75*
G02*
X306318000Y-102244280I-250000J0D01*
G01*
X305568000Y-102244280D01*
G75*
G02*
X305318000Y-101994280I0J250000D01*
G01*
X305318000Y-99844280D01*
G75*
G02*
X305568000Y-99594280I250000J0D01*
G01*
X306318000Y-99594280D01*
G75*
G02*
X306568000Y-99844280I0J-250000D01*
G01*
G37*
G36*
G01*
X309368000Y-99844280D02*
X309368000Y-101994280D01*
G75*
G02*
X309118000Y-102244280I-250000J0D01*
G01*
X308368000Y-102244280D01*
G75*
G02*
X308118000Y-101994280I0J250000D01*
G01*
X308118000Y-99844280D01*
G75*
G02*
X308368000Y-99594280I250000J0D01*
G01*
X309118000Y-99594280D01*
G75*
G02*
X309368000Y-99844280I0J-250000D01*
G01*
G37*
%TD*%
%TO.C,C7*%
G36*
G01*
X315783250Y-67781820D02*
X316295750Y-67781820D01*
G75*
G02*
X316514500Y-68000570I0J-218750D01*
G01*
X316514500Y-68438070D01*
G75*
G02*
X316295750Y-68656820I-218750J0D01*
G01*
X315783250Y-68656820D01*
G75*
G02*
X315564500Y-68438070I0J218750D01*
G01*
X315564500Y-68000570D01*
G75*
G02*
X315783250Y-67781820I218750J0D01*
G01*
G37*
G36*
G01*
X315783250Y-66206820D02*
X316295750Y-66206820D01*
G75*
G02*
X316514500Y-66425570I0J-218750D01*
G01*
X316514500Y-66863070D01*
G75*
G02*
X316295750Y-67081820I-218750J0D01*
G01*
X315783250Y-67081820D01*
G75*
G02*
X315564500Y-66863070I0J218750D01*
G01*
X315564500Y-66425570D01*
G75*
G02*
X315783250Y-66206820I218750J0D01*
G01*
G37*
%TD*%
%TO.C,C6*%
G36*
G01*
X315757850Y-71330200D02*
X316270350Y-71330200D01*
G75*
G02*
X316489100Y-71548950I0J-218750D01*
G01*
X316489100Y-71986450D01*
G75*
G02*
X316270350Y-72205200I-218750J0D01*
G01*
X315757850Y-72205200D01*
G75*
G02*
X315539100Y-71986450I0J218750D01*
G01*
X315539100Y-71548950D01*
G75*
G02*
X315757850Y-71330200I218750J0D01*
G01*
G37*
G36*
G01*
X315757850Y-69755200D02*
X316270350Y-69755200D01*
G75*
G02*
X316489100Y-69973950I0J-218750D01*
G01*
X316489100Y-70411450D01*
G75*
G02*
X316270350Y-70630200I-218750J0D01*
G01*
X315757850Y-70630200D01*
G75*
G02*
X315539100Y-70411450I0J218750D01*
G01*
X315539100Y-69973950D01*
G75*
G02*
X315757850Y-69755200I218750J0D01*
G01*
G37*
%TD*%
%TO.C,C5*%
G36*
G01*
X347967050Y-75054500D02*
X347454550Y-75054500D01*
G75*
G02*
X347235800Y-74835750I0J218750D01*
G01*
X347235800Y-74398250D01*
G75*
G02*
X347454550Y-74179500I218750J0D01*
G01*
X347967050Y-74179500D01*
G75*
G02*
X348185800Y-74398250I0J-218750D01*
G01*
X348185800Y-74835750D01*
G75*
G02*
X347967050Y-75054500I-218750J0D01*
G01*
G37*
G36*
G01*
X347967050Y-76629500D02*
X347454550Y-76629500D01*
G75*
G02*
X347235800Y-76410750I0J218750D01*
G01*
X347235800Y-75973250D01*
G75*
G02*
X347454550Y-75754500I218750J0D01*
G01*
X347967050Y-75754500D01*
G75*
G02*
X348185800Y-75973250I0J-218750D01*
G01*
X348185800Y-76410750D01*
G75*
G02*
X347967050Y-76629500I-218750J0D01*
G01*
G37*
%TD*%
%TO.C,C3*%
G36*
G01*
X351897440Y-76962580D02*
X351897440Y-74812580D01*
G75*
G02*
X352147440Y-74562580I250000J0D01*
G01*
X352897440Y-74562580D01*
G75*
G02*
X353147440Y-74812580I0J-250000D01*
G01*
X353147440Y-76962580D01*
G75*
G02*
X352897440Y-77212580I-250000J0D01*
G01*
X352147440Y-77212580D01*
G75*
G02*
X351897440Y-76962580I0J250000D01*
G01*
G37*
G36*
G01*
X349097440Y-76962580D02*
X349097440Y-74812580D01*
G75*
G02*
X349347440Y-74562580I250000J0D01*
G01*
X350097440Y-74562580D01*
G75*
G02*
X350347440Y-74812580I0J-250000D01*
G01*
X350347440Y-76962580D01*
G75*
G02*
X350097440Y-77212580I-250000J0D01*
G01*
X349347440Y-77212580D01*
G75*
G02*
X349097440Y-76962580I0J250000D01*
G01*
G37*
%TD*%
%TO.C,C2*%
G36*
G01*
X325114630Y-74013580D02*
X324602130Y-74013580D01*
G75*
G02*
X324383380Y-73794830I0J218750D01*
G01*
X324383380Y-73357330D01*
G75*
G02*
X324602130Y-73138580I218750J0D01*
G01*
X325114630Y-73138580D01*
G75*
G02*
X325333380Y-73357330I0J-218750D01*
G01*
X325333380Y-73794830D01*
G75*
G02*
X325114630Y-74013580I-218750J0D01*
G01*
G37*
G36*
G01*
X325114630Y-75588580D02*
X324602130Y-75588580D01*
G75*
G02*
X324383380Y-75369830I0J218750D01*
G01*
X324383380Y-74932330D01*
G75*
G02*
X324602130Y-74713580I218750J0D01*
G01*
X325114630Y-74713580D01*
G75*
G02*
X325333380Y-74932330I0J-218750D01*
G01*
X325333380Y-75369830D01*
G75*
G02*
X325114630Y-75588580I-218750J0D01*
G01*
G37*
%TD*%
D28*
%TO.C,BT1*%
X356231120Y-50246280D03*
D29*
X340431120Y-50246280D03*
%TD*%
M02*
